G04 Layer_Color=65535*
%FSLAX23Y23*%
%MOIN*%
G70*
G01*
G75*
%ADD24C,0.010*%
%ADD25C,0.010*%
%ADD26C,0.004*%
%ADD27C,0.005*%
%ADD28C,0.008*%
G36*
X1143Y725D02*
X1087Y725D01*
X1115Y752D01*
X1143Y725D01*
D02*
G37*
G36*
X2096Y633D02*
Y627D01*
X2109Y614D01*
Y605D01*
X2110D01*
X2114Y601D01*
Y593D01*
X2121Y586D01*
Y567D01*
X2125Y563D01*
Y512D01*
X2120Y507D01*
Y492D01*
X2113Y485D01*
X2114Y484D01*
Y475D01*
X2105Y466D01*
Y460D01*
X2094Y449D01*
Y443D01*
X2085Y434D01*
X2084D01*
Y645D01*
X2096Y633D01*
D02*
G37*
G36*
X2838Y730D02*
X2783Y730D01*
X2810Y757D01*
X2838Y730D01*
D02*
G37*
G36*
Y1280D02*
X2783Y1280D01*
X2810Y1308D01*
X2838Y1280D01*
D02*
G37*
G36*
X1143Y1275D02*
X1087Y1275D01*
X1115Y1303D01*
X1143Y1275D01*
D02*
G37*
D24*
X2758Y185D02*
G03*
X2758Y185I-43J0D01*
G01*
X2158Y850D02*
G03*
X2158Y850I-43J0D01*
G01*
X3563Y690D02*
G03*
X3563Y690I-43J0D01*
G01*
X3368Y1415D02*
G03*
X3368Y1415I-43J0D01*
G01*
X413Y1130D02*
G03*
X413Y1130I-43J0D01*
G01*
X493Y340D02*
G03*
X493Y340I-43J0D01*
G01*
X2580Y775D02*
X2620D01*
X2580Y680D02*
X2620D01*
X2600Y660D02*
Y700D01*
X2580Y1330D02*
X2620D01*
X2580Y1235D02*
X2620D01*
X2600Y1215D02*
Y1255D01*
X2390Y20D02*
Y80D01*
X2510Y20D02*
Y80D01*
X2275Y20D02*
Y80D01*
X2125Y20D02*
Y80D01*
X1975Y20D02*
Y80D01*
X1835Y20D02*
Y80D01*
X1685Y20D02*
Y80D01*
X1435Y20D02*
Y80D01*
X1560Y20D02*
Y80D01*
X1435Y20D02*
X2510D01*
X1435Y80D02*
X2510D01*
X1325Y660D02*
Y700D01*
X1305Y680D02*
X1345D01*
X1305Y775D02*
X1345D01*
X1305Y1330D02*
X1345D01*
X1305Y1235D02*
X1345D01*
X1325Y1215D02*
Y1255D01*
X410Y277D02*
Y217D01*
X450D01*
X510Y277D02*
X470D01*
Y217D01*
X510D01*
X470Y247D02*
X490D01*
X530Y277D02*
Y217D01*
X560D01*
X570Y227D01*
Y267D01*
X560Y277D01*
X530D01*
X690D02*
Y217D01*
X660D01*
X650Y227D01*
Y247D01*
X660Y257D01*
X690D01*
X710D02*
Y217D01*
Y237D01*
X720Y247D01*
X730Y257D01*
X740D01*
X770Y217D02*
X790D01*
X780D01*
Y257D01*
X770D01*
X820D02*
X840Y217D01*
X860Y257D01*
X910Y217D02*
X890D01*
X880Y227D01*
Y247D01*
X890Y257D01*
X910D01*
X920Y247D01*
Y237D01*
X880D01*
X940Y257D02*
Y217D01*
Y237D01*
X950Y247D01*
X960Y257D01*
X970D01*
X1060D02*
X1080Y217D01*
X1100Y257D01*
X1120Y217D02*
X1140D01*
X1130D01*
Y277D01*
X1120Y267D01*
X1170Y217D02*
Y227D01*
X1180D01*
Y217D01*
X1170D01*
X1260D02*
X1220D01*
X1260Y257D01*
Y267D01*
X1250Y277D01*
X1230D01*
X1220Y267D01*
X450Y181D02*
X410D01*
Y151D01*
X430D01*
X410D01*
Y121D01*
X470Y161D02*
Y121D01*
Y141D01*
X480Y151D01*
X490Y161D01*
X500D01*
X560Y121D02*
X540D01*
X530Y131D01*
Y151D01*
X540Y161D01*
X560D01*
X570Y151D01*
Y141D01*
X530D01*
X630Y181D02*
Y121D01*
X600D01*
X590Y131D01*
Y151D01*
X600Y161D01*
X630D01*
X680Y121D02*
X660D01*
X650Y131D01*
Y151D01*
X660Y161D01*
X680D01*
X690Y151D01*
Y141D01*
X650D01*
X710Y161D02*
Y121D01*
Y141D01*
X720Y151D01*
X730Y161D01*
X740D01*
X770Y121D02*
X790D01*
X780D01*
Y161D01*
X770D01*
X860D02*
X830D01*
X820Y151D01*
Y131D01*
X830Y121D01*
X860D01*
X980Y171D02*
X970Y181D01*
X950D01*
X940Y171D01*
Y131D01*
X950Y121D01*
X970D01*
X980Y131D01*
X1000Y181D02*
Y121D01*
Y151D01*
X1010Y161D01*
X1030D01*
X1040Y151D01*
Y121D01*
X1070Y161D02*
X1090D01*
X1100Y151D01*
Y121D01*
X1070D01*
X1060Y131D01*
X1070Y141D01*
X1100D01*
X1120Y121D02*
X1150D01*
X1160Y131D01*
X1150Y141D01*
X1130D01*
X1120Y151D01*
X1130Y161D01*
X1160D01*
X1180Y121D02*
X1210D01*
X1220Y131D01*
X1210Y141D01*
X1190D01*
X1180Y151D01*
X1190Y161D01*
X1220D01*
X1270Y121D02*
X1250D01*
X1240Y131D01*
Y151D01*
X1250Y161D01*
X1270D01*
X1280Y151D01*
Y141D01*
X1240D01*
X410Y85D02*
Y25D01*
X430Y45D01*
X450Y25D01*
Y85D01*
X470Y25D02*
X490D01*
X480D01*
Y65D01*
X470D01*
X520Y25D02*
Y65D01*
X550D01*
X560Y55D01*
Y25D01*
X590Y75D02*
Y65D01*
X580D01*
X600D01*
X590D01*
Y35D01*
X600Y25D01*
X660D02*
X640D01*
X630Y35D01*
Y55D01*
X640Y65D01*
X660D01*
X670Y55D01*
Y45D01*
X630D01*
X690Y65D02*
Y25D01*
Y45D01*
X700Y55D01*
X710Y65D01*
X720D01*
X850Y25D02*
X810D01*
X850Y65D01*
Y75D01*
X840Y85D01*
X820D01*
X810Y75D01*
X870D02*
X880Y85D01*
X900D01*
X910Y75D01*
Y35D01*
X900Y25D01*
X880D01*
X870Y35D01*
Y75D01*
X930Y25D02*
X950D01*
X940D01*
Y85D01*
X930Y75D01*
X1020Y85D02*
X1000Y75D01*
X980Y55D01*
Y35D01*
X990Y25D01*
X1010D01*
X1020Y35D01*
Y45D01*
X1010Y55D01*
X980D01*
D25*
X3063Y865D02*
G03*
X3063Y865I-5J0D01*
G01*
Y1415D02*
G03*
X3063Y1415I-5J0D01*
G01*
X748D02*
G03*
X748Y1415I-5J0D01*
G01*
Y865D02*
G03*
X748Y865I-5J0D01*
G01*
D26*
X1985Y571D02*
G03*
X1987Y508I62J-29D01*
G01*
D27*
X2126Y540D02*
G03*
X2126Y540I-157J0D01*
G01*
X2425Y817D02*
X2525D01*
X2425Y643D02*
Y817D01*
Y643D02*
X2525D01*
Y817D01*
X2660D02*
X2760D01*
X2660Y643D02*
Y817D01*
Y643D02*
X2760D01*
Y817D01*
X2425Y1367D02*
X2525D01*
X2425Y1193D02*
Y1367D01*
Y1193D02*
X2525D01*
Y1367D01*
X2660D02*
X2760D01*
X2660Y1193D02*
Y1367D01*
Y1193D02*
X2760D01*
Y1367D01*
X1395D02*
X1495D01*
X1395Y1193D02*
Y1367D01*
Y1193D02*
X1495D01*
Y1367D01*
X1160D02*
X1260D01*
X1160Y1193D02*
Y1367D01*
Y1193D02*
X1260D01*
Y1367D01*
X1395Y817D02*
X1495D01*
X1395Y643D02*
Y817D01*
Y643D02*
X1495D01*
Y817D01*
X1160D02*
X1260D01*
X1160Y643D02*
Y817D01*
Y643D02*
X1260D01*
Y817D01*
X2383Y606D02*
Y644D01*
X2277Y605D02*
Y645D01*
X2383Y1151D02*
Y1189D01*
X2277Y1150D02*
Y1190D01*
X1668Y1151D02*
Y1189D01*
X1562Y1150D02*
Y1190D01*
X1668Y601D02*
Y639D01*
X1562Y600D02*
Y640D01*
X2660Y613D02*
X2700D01*
X2661Y507D02*
X2699D01*
X2660Y1153D02*
X2700D01*
X2661Y1047D02*
X2699D01*
X1230Y1057D02*
X1270D01*
X1231Y1163D02*
X1269D01*
X1220Y507D02*
X1260D01*
X1221Y613D02*
X1259D01*
X980Y395D02*
Y436D01*
X970Y395D02*
Y436D01*
X975Y940D02*
Y981D01*
X965Y940D02*
Y981D01*
X2960Y934D02*
Y975D01*
X2970Y934D02*
Y975D01*
X2839Y380D02*
X2880D01*
X2839Y370D02*
X2880D01*
X1961Y506D02*
Y573D01*
X676Y634D02*
Y646D01*
X644Y634D02*
Y646D01*
X691Y1179D02*
Y1191D01*
X659Y1179D02*
Y1191D01*
X3281Y1189D02*
Y1201D01*
X3249Y1189D02*
Y1201D01*
X3281Y639D02*
Y651D01*
X3249Y639D02*
Y651D01*
X1115Y1260D02*
Y1280D01*
X1090Y1300D02*
X1140D01*
X1115D02*
Y1315D01*
Y750D02*
Y765D01*
X1090Y750D02*
X1140D01*
X1115Y710D02*
Y730D01*
X2810Y1305D02*
Y1320D01*
X2785Y1305D02*
X2835D01*
X2810Y1265D02*
Y1285D01*
Y755D02*
Y770D01*
X2785Y755D02*
X2835D01*
X2810Y715D02*
Y735D01*
X925Y817D02*
X1025D01*
X925Y643D02*
Y817D01*
Y643D02*
X1025D01*
Y817D01*
X925Y1367D02*
X1025D01*
X925Y1193D02*
Y1367D01*
Y1193D02*
X1025D01*
Y1367D01*
X2895Y1372D02*
X2995D01*
X2895Y1198D02*
Y1372D01*
Y1198D02*
X2995D01*
Y1372D01*
X2895Y817D02*
X2995D01*
X2895Y643D02*
Y817D01*
Y643D02*
X2995D01*
Y817D01*
X1078Y516D02*
Y554D01*
X972Y515D02*
Y555D01*
X1098Y1071D02*
Y1109D01*
X992Y1070D02*
Y1110D01*
X2938Y1066D02*
Y1104D01*
X2832Y1065D02*
Y1105D01*
X2928Y526D02*
Y564D01*
X2822Y525D02*
Y565D01*
X3240Y715D02*
Y747D01*
X3256D01*
X3261Y742D01*
Y731D01*
X3256Y726D01*
X3240D01*
X3251D02*
X3261Y715D01*
X3272D02*
X3283D01*
X3277D01*
Y747D01*
X3272Y742D01*
X3320Y747D02*
X3309Y742D01*
X3299Y731D01*
Y720D01*
X3304Y715D01*
X3315D01*
X3320Y720D01*
Y726D01*
X3315Y731D01*
X3299D01*
X3245Y1265D02*
Y1297D01*
X3261D01*
X3266Y1292D01*
Y1281D01*
X3261Y1276D01*
X3245D01*
X3256D02*
X3266Y1265D01*
X3277D02*
X3288D01*
X3282D01*
Y1297D01*
X3277Y1292D01*
X3325Y1297D02*
X3304D01*
Y1281D01*
X3314Y1286D01*
X3320D01*
X3325Y1281D01*
Y1270D01*
X3320Y1265D01*
X3309D01*
X3304Y1270D01*
X620Y1275D02*
Y1307D01*
X636D01*
X641Y1302D01*
Y1291D01*
X636Y1286D01*
X620D01*
X631D02*
X641Y1275D01*
X652D02*
X663D01*
X657D01*
Y1307D01*
X652Y1302D01*
X695Y1275D02*
Y1307D01*
X679Y1291D01*
X700D01*
X610Y720D02*
Y752D01*
X626D01*
X631Y747D01*
Y736D01*
X626Y731D01*
X610D01*
X621D02*
X631Y720D01*
X642D02*
X653D01*
X647D01*
Y752D01*
X642Y747D01*
X669D02*
X674Y752D01*
X685D01*
X690Y747D01*
Y741D01*
X685Y736D01*
X679D01*
X685D01*
X690Y731D01*
Y725D01*
X685Y720D01*
X674D01*
X669Y725D01*
X1961Y752D02*
X1956Y757D01*
X1945D01*
X1940Y752D01*
Y730D01*
X1945Y725D01*
X1956D01*
X1961Y730D01*
X1993Y757D02*
X1972D01*
Y741D01*
X1983Y746D01*
X1988D01*
X1993Y741D01*
Y730D01*
X1988Y725D01*
X1977D01*
X1972Y730D01*
X2791Y357D02*
X2786Y362D01*
X2775D01*
X2770Y357D01*
Y335D01*
X2775Y330D01*
X2786D01*
X2791Y335D01*
X2818Y330D02*
Y362D01*
X2802Y346D01*
X2823D01*
X2851Y962D02*
X2846Y967D01*
X2835D01*
X2830Y962D01*
Y940D01*
X2835Y935D01*
X2846D01*
X2851Y940D01*
X2862Y962D02*
X2867Y967D01*
X2878D01*
X2883Y962D01*
Y956D01*
X2878Y951D01*
X2873D01*
X2878D01*
X2883Y946D01*
Y940D01*
X2878Y935D01*
X2867D01*
X2862Y940D01*
X1066Y972D02*
X1061Y977D01*
X1050D01*
X1045Y972D01*
Y950D01*
X1050Y945D01*
X1061D01*
X1066Y950D01*
X1098Y945D02*
X1077D01*
X1098Y966D01*
Y972D01*
X1093Y977D01*
X1082D01*
X1077Y972D01*
X1071Y427D02*
X1066Y432D01*
X1055D01*
X1050Y427D01*
Y405D01*
X1055Y400D01*
X1066D01*
X1071Y405D01*
X1082Y400D02*
X1093D01*
X1087D01*
Y432D01*
X1082Y427D01*
X1490Y110D02*
Y142D01*
X1506D01*
X1511Y137D01*
Y126D01*
X1506Y121D01*
X1490D01*
X1522Y110D02*
X1533D01*
X1527D01*
Y142D01*
X1522Y137D01*
X681Y435D02*
Y457D01*
X676Y462D01*
X665D01*
X660Y457D01*
Y435D01*
X665Y430D01*
X676D01*
X671Y441D02*
X681Y430D01*
X676D02*
X681Y435D01*
X692Y430D02*
X703D01*
X697D01*
Y462D01*
X692Y457D01*
X666Y1025D02*
Y1047D01*
X661Y1052D01*
X650D01*
X645Y1047D01*
Y1025D01*
X650Y1020D01*
X661D01*
X656Y1031D02*
X666Y1020D01*
X661D02*
X666Y1025D01*
X698Y1020D02*
X677D01*
X698Y1041D01*
Y1047D01*
X693Y1052D01*
X682D01*
X677Y1047D01*
X3256Y1025D02*
Y1047D01*
X3251Y1052D01*
X3240D01*
X3235Y1047D01*
Y1025D01*
X3240Y1020D01*
X3251D01*
X3246Y1031D02*
X3256Y1020D01*
X3251D02*
X3256Y1025D01*
X3267Y1047D02*
X3272Y1052D01*
X3283D01*
X3288Y1047D01*
Y1041D01*
X3283Y1036D01*
X3278D01*
X3283D01*
X3288Y1031D01*
Y1025D01*
X3283Y1020D01*
X3272D01*
X3267Y1025D01*
X3261Y475D02*
Y497D01*
X3256Y502D01*
X3245D01*
X3240Y497D01*
Y475D01*
X3245Y470D01*
X3256D01*
X3251Y481D02*
X3261Y470D01*
X3256D02*
X3261Y475D01*
X3288Y470D02*
Y502D01*
X3272Y486D01*
X3293D01*
X1340Y550D02*
Y582D01*
X1356D01*
X1361Y577D01*
Y566D01*
X1356Y561D01*
X1340D01*
X1351D02*
X1361Y550D01*
X1372D02*
X1383D01*
X1377D01*
Y582D01*
X1372Y577D01*
X1365Y1125D02*
Y1157D01*
X1381D01*
X1386Y1152D01*
Y1141D01*
X1381Y1136D01*
X1365D01*
X1376D02*
X1386Y1125D01*
X1413D02*
Y1157D01*
X1397Y1141D01*
X1418D01*
X2510Y1090D02*
Y1122D01*
X2526D01*
X2531Y1117D01*
Y1106D01*
X2526Y1101D01*
X2510D01*
X2521D02*
X2531Y1090D01*
X2542Y1122D02*
X2563D01*
Y1117D01*
X2542Y1095D01*
Y1090D01*
X2495Y545D02*
Y577D01*
X2511D01*
X2516Y572D01*
Y561D01*
X2511Y556D01*
X2495D01*
X2506D02*
X2516Y545D01*
X2527D02*
X2538D01*
X2532D01*
Y577D01*
X2527Y572D01*
X2554D02*
X2559Y577D01*
X2570D01*
X2575Y572D01*
Y550D01*
X2570Y545D01*
X2559D01*
X2554Y550D01*
Y572D01*
X315Y357D02*
X336D01*
X326D01*
Y325D01*
X347D02*
Y357D01*
X363D01*
X368Y352D01*
Y341D01*
X363Y336D01*
X347D01*
X379Y325D02*
X390D01*
X384D01*
Y357D01*
X379Y352D01*
X345Y1222D02*
X366D01*
X356D01*
Y1190D01*
X377D02*
Y1222D01*
X393D01*
X398Y1217D01*
Y1206D01*
X393Y1201D01*
X377D01*
X430Y1190D02*
X409D01*
X430Y1211D01*
Y1217D01*
X425Y1222D01*
X414D01*
X409Y1217D01*
X3395Y1477D02*
X3416D01*
X3406D01*
Y1445D01*
X3427D02*
Y1477D01*
X3443D01*
X3448Y1472D01*
Y1461D01*
X3443Y1456D01*
X3427D01*
X3459Y1472D02*
X3464Y1477D01*
X3475D01*
X3480Y1472D01*
Y1466D01*
X3475Y1461D01*
X3470D01*
X3475D01*
X3480Y1456D01*
Y1450D01*
X3475Y1445D01*
X3464D01*
X3459Y1450D01*
X3360Y702D02*
X3381D01*
X3371D01*
Y670D01*
X3392D02*
Y702D01*
X3408D01*
X3413Y697D01*
Y686D01*
X3408Y681D01*
X3392D01*
X3440Y670D02*
Y702D01*
X3424Y686D01*
X3445D01*
X2075Y952D02*
X2096D01*
X2086D01*
Y920D01*
X2107D02*
Y952D01*
X2123D01*
X2128Y947D01*
Y936D01*
X2123Y931D01*
X2107D01*
X2160Y952D02*
X2139D01*
Y936D01*
X2150Y941D01*
X2155D01*
X2160Y936D01*
Y925D01*
X2155Y920D01*
X2144D01*
X2139Y925D01*
X2675Y287D02*
X2696D01*
X2686D01*
Y255D01*
X2707D02*
Y287D01*
X2723D01*
X2728Y282D01*
Y271D01*
X2723Y266D01*
X2707D01*
X2760Y287D02*
X2750Y282D01*
X2739Y271D01*
Y260D01*
X2744Y255D01*
X2755D01*
X2760Y260D01*
Y266D01*
X2755Y271D01*
X2739D01*
X1590Y490D02*
Y522D01*
X1606D01*
X1611Y517D01*
Y506D01*
X1606Y501D01*
X1590D01*
X1601D02*
X1611Y490D01*
X1643D02*
X1622D01*
X1643Y511D01*
Y517D01*
X1638Y522D01*
X1627D01*
X1622Y517D01*
X1590Y1035D02*
Y1067D01*
X1606D01*
X1611Y1062D01*
Y1051D01*
X1606Y1046D01*
X1590D01*
X1601D02*
X1611Y1035D01*
X1643Y1067D02*
X1622D01*
Y1051D01*
X1633Y1056D01*
X1638D01*
X1643Y1051D01*
Y1040D01*
X1638Y1035D01*
X1627D01*
X1622Y1040D01*
X2300Y1040D02*
Y1072D01*
X2316D01*
X2321Y1067D01*
Y1056D01*
X2316Y1051D01*
X2300D01*
X2311D02*
X2321Y1040D01*
X2332Y1067D02*
X2337Y1072D01*
X2348D01*
X2353Y1067D01*
Y1061D01*
X2348Y1056D01*
X2353Y1051D01*
Y1045D01*
X2348Y1040D01*
X2337D01*
X2332Y1045D01*
Y1051D01*
X2337Y1056D01*
X2332Y1061D01*
Y1067D01*
X2337Y1056D02*
X2348D01*
X2305Y495D02*
Y527D01*
X2321D01*
X2326Y522D01*
Y511D01*
X2321Y506D01*
X2305D01*
X2316D02*
X2326Y495D01*
X2337D02*
X2348D01*
X2342D01*
Y527D01*
X2337Y522D01*
X2364Y495D02*
X2374D01*
X2369D01*
Y527D01*
X2364Y522D01*
X1190Y867D02*
Y835D01*
X1206D01*
X1211Y840D01*
Y862D01*
X1206Y867D01*
X1190D01*
X1222Y835D02*
X1233D01*
X1227D01*
Y867D01*
X1222Y862D01*
X1420Y867D02*
Y835D01*
X1436D01*
X1441Y840D01*
Y862D01*
X1436Y867D01*
X1420D01*
X1473Y835D02*
X1452D01*
X1473Y856D01*
Y862D01*
X1468Y867D01*
X1457D01*
X1452Y862D01*
X1185Y1417D02*
Y1385D01*
X1201D01*
X1206Y1390D01*
Y1412D01*
X1201Y1417D01*
X1185D01*
X1233Y1385D02*
Y1417D01*
X1217Y1401D01*
X1238D01*
X1420Y1417D02*
Y1385D01*
X1436D01*
X1441Y1390D01*
Y1412D01*
X1436Y1417D01*
X1420D01*
X1473D02*
X1452D01*
Y1401D01*
X1463Y1406D01*
X1468D01*
X1473Y1401D01*
Y1390D01*
X1468Y1385D01*
X1457D01*
X1452Y1390D01*
X2685Y1417D02*
Y1385D01*
X2701D01*
X2706Y1390D01*
Y1412D01*
X2701Y1417D01*
X2685D01*
X2717D02*
X2738D01*
Y1412D01*
X2717Y1390D01*
Y1385D01*
X2450Y1417D02*
Y1385D01*
X2466D01*
X2471Y1390D01*
Y1412D01*
X2466Y1417D01*
X2450D01*
X2482Y1412D02*
X2487Y1417D01*
X2498D01*
X2503Y1412D01*
Y1406D01*
X2498Y1401D01*
X2503Y1396D01*
Y1390D01*
X2498Y1385D01*
X2487D01*
X2482Y1390D01*
Y1396D01*
X2487Y1401D01*
X2482Y1406D01*
Y1412D01*
X2487Y1401D02*
X2498D01*
X2670Y867D02*
Y835D01*
X2686D01*
X2691Y840D01*
Y862D01*
X2686Y867D01*
X2670D01*
X2702Y835D02*
X2713D01*
X2707D01*
Y867D01*
X2702Y862D01*
X2729D02*
X2734Y867D01*
X2745D01*
X2750Y862D01*
Y840D01*
X2745Y835D01*
X2734D01*
X2729Y840D01*
Y862D01*
X2445Y867D02*
Y835D01*
X2461D01*
X2466Y840D01*
Y862D01*
X2461Y867D01*
X2445D01*
X2477Y835D02*
X2488D01*
X2482D01*
Y867D01*
X2477Y862D01*
X2504Y835D02*
X2514D01*
X2509D01*
Y867D01*
X2504Y862D01*
X945Y867D02*
Y835D01*
X961D01*
X966Y840D01*
Y862D01*
X961Y867D01*
X945D01*
X977Y862D02*
X982Y867D01*
X993D01*
X998Y862D01*
Y856D01*
X993Y851D01*
X988D01*
X993D01*
X998Y846D01*
Y840D01*
X993Y835D01*
X982D01*
X977Y840D01*
X945Y1417D02*
Y1385D01*
X961D01*
X966Y1390D01*
Y1412D01*
X961Y1417D01*
X945D01*
X998D02*
X988Y1412D01*
X977Y1401D01*
Y1390D01*
X982Y1385D01*
X993D01*
X998Y1390D01*
Y1396D01*
X993Y1401D01*
X977D01*
X2915Y1417D02*
Y1385D01*
X2931D01*
X2936Y1390D01*
Y1412D01*
X2931Y1417D01*
X2915D01*
X2947Y1390D02*
X2952Y1385D01*
X2963D01*
X2968Y1390D01*
Y1412D01*
X2963Y1417D01*
X2952D01*
X2947Y1412D01*
Y1406D01*
X2952Y1401D01*
X2968D01*
X2905Y867D02*
Y835D01*
X2921D01*
X2926Y840D01*
Y862D01*
X2921Y867D01*
X2905D01*
X2937Y835D02*
X2948D01*
X2942D01*
Y867D01*
X2937Y862D01*
X2985Y835D02*
X2964D01*
X2985Y856D01*
Y862D01*
X2980Y867D01*
X2969D01*
X2964Y862D01*
X1095Y465D02*
Y497D01*
X1111D01*
X1116Y492D01*
Y481D01*
X1111Y476D01*
X1095D01*
X1106D02*
X1116Y465D01*
X1127Y492D02*
X1132Y497D01*
X1143D01*
X1148Y492D01*
Y486D01*
X1143Y481D01*
X1138D01*
X1143D01*
X1148Y476D01*
Y470D01*
X1143Y465D01*
X1132D01*
X1127Y470D01*
X1120Y1015D02*
Y1047D01*
X1136D01*
X1141Y1042D01*
Y1031D01*
X1136Y1026D01*
X1120D01*
X1131D02*
X1141Y1015D01*
X1173Y1047D02*
X1163Y1042D01*
X1152Y1031D01*
Y1020D01*
X1157Y1015D01*
X1168D01*
X1173Y1020D01*
Y1026D01*
X1168Y1031D01*
X1152D01*
X2825Y1190D02*
Y1222D01*
X2841D01*
X2846Y1217D01*
Y1206D01*
X2841Y1201D01*
X2825D01*
X2836D02*
X2846Y1190D01*
X2857Y1195D02*
X2862Y1190D01*
X2873D01*
X2878Y1195D01*
Y1217D01*
X2873Y1222D01*
X2862D01*
X2857Y1217D01*
Y1211D01*
X2862Y1206D01*
X2878D01*
X2725Y445D02*
Y477D01*
X2741D01*
X2746Y472D01*
Y461D01*
X2741Y456D01*
X2725D01*
X2736D02*
X2746Y445D01*
X2757D02*
X2768D01*
X2762D01*
Y477D01*
X2757Y472D01*
X2805Y445D02*
X2784D01*
X2805Y466D01*
Y472D01*
X2800Y477D01*
X2789D01*
X2784Y472D01*
X2426Y62D02*
X2421Y67D01*
X2410D01*
X2405Y62D01*
Y40D01*
X2410Y35D01*
X2421D01*
X2426Y40D01*
Y51D01*
X2416D01*
X2437Y35D02*
Y67D01*
X2458Y35D01*
Y67D01*
X2469D02*
Y35D01*
X2485D01*
X2490Y40D01*
Y62D01*
X2485Y67D01*
X2469D01*
X2311Y62D02*
X2306Y67D01*
X2295D01*
X2290Y62D01*
Y40D01*
X2295Y35D01*
X2306D01*
X2311Y40D01*
Y51D01*
X2301D01*
X2322Y35D02*
Y67D01*
X2343Y35D01*
Y67D01*
X2354D02*
Y35D01*
X2370D01*
X2375Y40D01*
Y62D01*
X2370Y67D01*
X2354D01*
X2140D02*
Y35D01*
X2161D01*
X2193Y67D02*
X2172D01*
Y35D01*
X2193D01*
X2172Y51D02*
X2183D01*
X2204Y67D02*
Y35D01*
X2220D01*
X2225Y40D01*
Y62D01*
X2220Y67D01*
X2204D01*
X2236Y62D02*
X2241Y67D01*
X2252D01*
X2257Y62D01*
Y56D01*
X2252Y51D01*
X2247D01*
X2252D01*
X2257Y46D01*
Y40D01*
X2252Y35D01*
X2241D01*
X2236Y40D01*
X1990Y67D02*
Y35D01*
X2011D01*
X2043Y67D02*
X2022D01*
Y35D01*
X2043D01*
X2022Y51D02*
X2033D01*
X2054Y67D02*
Y35D01*
X2070D01*
X2075Y40D01*
Y62D01*
X2070Y67D01*
X2054D01*
X2107Y35D02*
X2086D01*
X2107Y56D01*
Y62D01*
X2102Y67D01*
X2091D01*
X2086Y62D01*
X1850Y67D02*
Y35D01*
X1871D01*
X1903Y67D02*
X1882D01*
Y35D01*
X1903D01*
X1882Y51D02*
X1893D01*
X1914Y67D02*
Y35D01*
X1930D01*
X1935Y40D01*
Y62D01*
X1930Y67D01*
X1914D01*
X1946Y35D02*
X1957D01*
X1951D01*
Y67D01*
X1946Y62D01*
X1700Y67D02*
Y35D01*
X1721D01*
X1753Y67D02*
X1732D01*
Y35D01*
X1753D01*
X1732Y51D02*
X1743D01*
X1764Y67D02*
Y35D01*
X1780D01*
X1785Y40D01*
Y62D01*
X1780Y67D01*
X1764D01*
X1796Y62D02*
X1801Y67D01*
X1812D01*
X1817Y62D01*
Y40D01*
X1812Y35D01*
X1801D01*
X1796Y40D01*
Y62D01*
X1601Y67D02*
X1580D01*
Y51D01*
X1591Y56D01*
X1596D01*
X1601Y51D01*
Y40D01*
X1596Y35D01*
X1585D01*
X1580Y40D01*
X1612Y67D02*
Y46D01*
X1623Y35D01*
X1633Y46D01*
Y67D01*
X1644Y62D02*
X1649Y67D01*
X1660D01*
X1665Y62D01*
Y40D01*
X1660Y35D01*
X1649D01*
X1644Y40D01*
Y62D01*
X1476Y67D02*
X1455D01*
Y51D01*
X1466Y56D01*
X1471D01*
X1476Y51D01*
Y40D01*
X1471Y35D01*
X1460D01*
X1455Y40D01*
X1487Y67D02*
Y46D01*
X1498Y35D01*
X1508Y46D01*
Y67D01*
X1519Y62D02*
X1524Y67D01*
X1535D01*
X1540Y62D01*
Y40D01*
X1535Y35D01*
X1524D01*
X1519Y40D01*
Y62D01*
X510Y365D02*
Y325D01*
X537D01*
X577Y365D02*
X550D01*
Y325D01*
X577D01*
X550Y345D02*
X563D01*
X590Y365D02*
Y325D01*
X610D01*
X617Y332D01*
Y358D01*
X610Y365D01*
X590D01*
X630Y358D02*
X637Y365D01*
X650D01*
X657Y358D01*
Y332D01*
X650Y325D01*
X637D01*
X630Y332D01*
Y358D01*
X300Y1070D02*
Y1030D01*
X327D01*
X367Y1070D02*
X340D01*
Y1030D01*
X367D01*
X340Y1050D02*
X353D01*
X380Y1070D02*
Y1030D01*
X400D01*
X407Y1037D01*
Y1063D01*
X400Y1070D01*
X380D01*
X420Y1030D02*
X433D01*
X427D01*
Y1070D01*
X420Y1063D01*
X3400Y1410D02*
Y1370D01*
X3427D01*
X3467Y1410D02*
X3440D01*
Y1370D01*
X3467D01*
X3440Y1390D02*
X3453D01*
X3480Y1410D02*
Y1370D01*
X3500D01*
X3507Y1377D01*
Y1403D01*
X3500Y1410D01*
X3480D01*
X3547Y1370D02*
X3520D01*
X3547Y1397D01*
Y1403D01*
X3540Y1410D01*
X3527D01*
X3520Y1403D01*
X3350Y630D02*
Y590D01*
X3377D01*
X3417Y630D02*
X3390D01*
Y590D01*
X3417D01*
X3390Y610D02*
X3403D01*
X3430Y630D02*
Y590D01*
X3450D01*
X3457Y597D01*
Y623D01*
X3450Y630D01*
X3430D01*
X3470Y623D02*
X3477Y630D01*
X3490D01*
X3497Y623D01*
Y617D01*
X3490Y610D01*
X3483D01*
X3490D01*
X3497Y603D01*
Y597D01*
X3490Y590D01*
X3477D01*
X3470Y597D01*
X2092Y790D02*
X2065D01*
Y770D01*
X2078Y777D01*
X2085D01*
X2092Y770D01*
Y757D01*
X2085Y750D01*
X2072D01*
X2065Y757D01*
X2105Y790D02*
Y763D01*
X2118Y750D01*
X2132Y763D01*
Y790D01*
X2145Y783D02*
X2152Y790D01*
X2165D01*
X2172Y783D01*
Y757D01*
X2165Y750D01*
X2152D01*
X2145Y757D01*
Y783D01*
X2687Y118D02*
X2680Y125D01*
X2667D01*
X2660Y118D01*
Y92D01*
X2667Y85D01*
X2680D01*
X2687Y92D01*
Y105D01*
X2673D01*
X2700Y85D02*
Y125D01*
X2727Y85D01*
Y125D01*
X2740D02*
Y85D01*
X2760D01*
X2767Y92D01*
Y118D01*
X2760Y125D01*
X2740D01*
D28*
X3032Y469D02*
X3217D01*
X3032Y891D02*
X3217D01*
X3032Y469D02*
Y891D01*
X3217Y469D02*
Y891D01*
X3198Y469D02*
Y891D01*
X3032Y1019D02*
X3217D01*
X3032Y1441D02*
X3217D01*
X3032Y1019D02*
Y1441D01*
X3217Y1019D02*
Y1441D01*
X3198Y1019D02*
Y1441D01*
X717Y1019D02*
X902D01*
X717Y1441D02*
X902D01*
X717Y1019D02*
Y1441D01*
X902Y1019D02*
Y1441D01*
X883Y1019D02*
Y1441D01*
X717Y469D02*
X902D01*
X717Y891D02*
X902D01*
X717Y469D02*
Y891D01*
X902Y469D02*
Y891D01*
X883Y469D02*
Y891D01*
X1560Y355D02*
X2360D01*
Y105D02*
Y355D01*
X1560Y105D02*
X2360D01*
X1560D02*
Y355D01*
M02*
