G04 Layer_Physical_Order=1*
G04 Layer_Color=255*
%FSLAX23Y23*%
%MOIN*%
G70*
G01*
G75*
G04:AMPARAMS|DCode=10|XSize=106mil|YSize=51mil|CornerRadius=6mil|HoleSize=0mil|Usage=FLASHONLY|Rotation=0.000|XOffset=0mil|YOffset=0mil|HoleType=Round|Shape=RoundedRectangle|*
%AMROUNDEDRECTD10*
21,1,0.106,0.038,0,0,0.0*
21,1,0.094,0.051,0,0,0.0*
1,1,0.013,0.047,-0.019*
1,1,0.013,-0.047,-0.019*
1,1,0.013,-0.047,0.019*
1,1,0.013,0.047,0.019*
%
%ADD10ROUNDEDRECTD10*%
G04:AMPARAMS|DCode=11|XSize=106mil|YSize=51mil|CornerRadius=6mil|HoleSize=0mil|Usage=FLASHONLY|Rotation=270.000|XOffset=0mil|YOffset=0mil|HoleType=Round|Shape=RoundedRectangle|*
%AMROUNDEDRECTD11*
21,1,0.106,0.038,0,0,270.0*
21,1,0.094,0.051,0,0,270.0*
1,1,0.013,-0.019,-0.047*
1,1,0.013,-0.019,0.047*
1,1,0.013,0.019,0.047*
1,1,0.013,0.019,-0.047*
%
%ADD11ROUNDEDRECTD11*%
G04:AMPARAMS|DCode=12|XSize=39mil|YSize=35mil|CornerRadius=4mil|HoleSize=0mil|Usage=FLASHONLY|Rotation=270.000|XOffset=0mil|YOffset=0mil|HoleType=Round|Shape=RoundedRectangle|*
%AMROUNDEDRECTD12*
21,1,0.039,0.027,0,0,270.0*
21,1,0.031,0.035,0,0,270.0*
1,1,0.009,-0.013,-0.015*
1,1,0.009,-0.013,0.015*
1,1,0.009,0.013,0.015*
1,1,0.009,0.013,-0.015*
%
%ADD12ROUNDEDRECTD12*%
G04:AMPARAMS|DCode=13|XSize=39mil|YSize=35mil|CornerRadius=4mil|HoleSize=0mil|Usage=FLASHONLY|Rotation=0.000|XOffset=0mil|YOffset=0mil|HoleType=Round|Shape=RoundedRectangle|*
%AMROUNDEDRECTD13*
21,1,0.039,0.027,0,0,0.0*
21,1,0.031,0.035,0,0,0.0*
1,1,0.009,0.015,-0.013*
1,1,0.009,-0.015,-0.013*
1,1,0.009,-0.015,0.013*
1,1,0.009,0.015,0.013*
%
%ADD13ROUNDEDRECTD13*%
%ADD14C,0.015*%
%ADD15C,0.063*%
%ADD16C,0.060*%
%ADD17C,0.063*%
%ADD18R,0.063X0.063*%
%ADD19C,0.059*%
%ADD20R,0.059X0.059*%
G04:AMPARAMS|DCode=21|XSize=67mil|YSize=67mil|CornerRadius=8mil|HoleSize=0mil|Usage=FLASHONLY|Rotation=0.000|XOffset=0mil|YOffset=0mil|HoleType=Round|Shape=RoundedRectangle|*
%AMROUNDEDRECTD21*
21,1,0.067,0.050,0,0,0.0*
21,1,0.050,0.067,0,0,0.0*
1,1,0.017,0.025,-0.025*
1,1,0.017,-0.025,-0.025*
1,1,0.017,-0.025,0.025*
1,1,0.017,0.025,0.025*
%
%ADD21ROUNDEDRECTD21*%
%ADD22C,0.067*%
%ADD23C,0.303*%
G36*
X3170Y1350D02*
Y1305D01*
X3155Y1290D01*
X2455D01*
X2440Y1305D01*
X2440Y1355D01*
X2455Y1370D01*
X3150D01*
X3170Y1350D01*
D02*
G37*
G36*
X1122Y1370D02*
X1247D01*
X1247Y1370D01*
X1487Y1370D01*
X1503Y1355D01*
X1503Y1300D01*
X1487Y1285D01*
X1155Y1285D01*
Y1285D01*
X757D01*
X738Y1305D01*
Y1450D01*
X757Y1470D01*
X1023D01*
X1122Y1370D01*
D02*
G37*
G36*
X3328Y1247D02*
Y1212D01*
X3318Y1202D01*
X3162D01*
X3152Y1192D01*
X3082D01*
X3062Y1212D01*
X3062Y1242D01*
X3082Y1263D01*
X3312Y1263D01*
X3328Y1247D01*
D02*
G37*
G36*
X2530Y1255D02*
Y1205D01*
X2515Y1190D01*
X2265Y1190D01*
X2250Y1205D01*
Y1255D01*
X2265Y1270D01*
X2515D01*
X2530Y1255D01*
D02*
G37*
G36*
X1680D02*
Y1205D01*
X1665Y1190D01*
X1415Y1190D01*
X1400Y1205D01*
Y1255D01*
X1415Y1270D01*
X1665D01*
X1680Y1255D01*
D02*
G37*
G36*
X1115Y1240D02*
Y1130D01*
X1095Y1110D01*
X955D01*
X935Y1130D01*
Y1245D01*
X960Y1270D01*
X1085D01*
X1115Y1240D01*
D02*
G37*
G36*
X3000Y1250D02*
Y1140D01*
X2960Y1100D01*
X2845D01*
X2815Y1130D01*
Y1240D01*
X2850Y1275D01*
X2975D01*
X3000Y1250D01*
D02*
G37*
G36*
X895Y1140D02*
Y1100D01*
X915Y1080D01*
X600D01*
X640Y1120D01*
Y1160D01*
X655Y1175D01*
X860D01*
X895Y1140D01*
D02*
G37*
G36*
X830Y1250D02*
Y1210D01*
X815Y1195D01*
X560D01*
X530Y1165D01*
Y1095D01*
X495Y1060D01*
X350Y1060D01*
X315Y1095D01*
X315Y1160D01*
X420Y1265D01*
X815D01*
X830Y1250D01*
D02*
G37*
G36*
X1225Y1270D02*
X1250Y1245D01*
Y1180D01*
X1230Y1160D01*
Y1060D01*
X1220Y1050D01*
X1170D01*
X1150Y1070D01*
X1150Y1240D01*
X1180Y1270D01*
X1225Y1270D01*
D02*
G37*
G36*
X2765D02*
X2780Y1255D01*
X2780Y1055D01*
X2765Y1040D01*
X2690D01*
X2675Y1055D01*
Y1255D01*
X2690Y1270D01*
X2765Y1270D01*
D02*
G37*
G36*
X2660Y1145D02*
Y1035D01*
D01*
X2680Y1015D01*
X2775D01*
X2825Y1065D01*
X2930D01*
X2955Y1040D01*
Y940D01*
X2935Y920D01*
X2660D01*
Y920D01*
X2315Y920D01*
X2210Y815D01*
X2210D01*
Y690D01*
X2210D01*
X2270Y630D01*
X2640D01*
X2660Y610D01*
X2660Y500D01*
X2660D01*
X2680Y480D01*
X2770D01*
X2810Y520D01*
Y525D01*
X2930D01*
X2950Y505D01*
Y425D01*
X2915Y390D01*
X2305D01*
X2200Y495D01*
Y565D01*
X2150Y615D01*
X1965Y615D01*
X1940Y590D01*
Y615D01*
X1940D01*
X1940Y385D01*
X1900Y345D01*
X1780D01*
X1750Y315D01*
X1750Y205D01*
X1720Y175D01*
X1535Y175D01*
D01*
X1510D01*
X1310Y375D01*
X1010D01*
X990Y395D01*
Y435D01*
X965Y460D01*
Y510D01*
X980Y525D01*
X1095D01*
X1135Y485D01*
X1245D01*
X1245Y485D01*
Y485D01*
X1235D01*
X1245Y495D01*
Y605D01*
X1265Y625D01*
X1400D01*
X1425Y600D01*
X1675D01*
X1700Y625D01*
Y820D01*
X1635Y885D01*
X1295D01*
X1255Y925D01*
X995D01*
X980Y940D01*
Y1020D01*
Y1060D01*
X995Y1075D01*
X1115D01*
X1165Y1025D01*
X1235D01*
X1255Y1045D01*
Y1140D01*
X1285Y1170D01*
X2635D01*
X2660Y1145D01*
D02*
G37*
G36*
X955Y1040D02*
Y945D01*
X940Y930D01*
X915D01*
Y1080D01*
X955Y1040D01*
D02*
G37*
G36*
X3460Y1080D02*
Y500D01*
X3120Y160D01*
X2990Y30D01*
X2980Y20D01*
X650D01*
X505Y165D01*
Y985D01*
X600Y1080D01*
X915D01*
X915Y930D01*
X765Y930D01*
X610Y775D01*
Y655D01*
X615Y650D01*
X635Y630D01*
X680Y630D01*
Y630D01*
X815D01*
X855Y590D01*
Y540D01*
X960Y435D01*
Y355D01*
X960D01*
X1015Y300D01*
Y300D01*
X1225D01*
X1385Y140D01*
X1175D01*
X1175Y140D01*
X2130Y140D01*
X2160Y170D01*
Y260D01*
X2080Y340D01*
X2030D01*
X2000Y370D01*
X2000Y550D01*
X2040Y590D01*
X2140D01*
X2180Y550D01*
X2180Y480D01*
X2300Y360D01*
X2930Y360D01*
X3025Y455D01*
Y590D01*
X3065Y630D01*
X3200D01*
Y630D01*
X3200Y630D01*
X3290D01*
X3325Y665D01*
X3325Y825D01*
X3235Y915D01*
D01*
X2990D01*
X2970Y935D01*
Y1000D01*
X3005Y1035D01*
Y1090D01*
X3095Y1180D01*
X3360D01*
X3460Y1080D01*
D02*
G37*
G36*
X1487Y817D02*
X1487Y750D01*
X1472Y735D01*
X1140Y735D01*
D01*
X1120D01*
X770Y735D01*
X750Y750D01*
Y810D01*
X770Y830D01*
X1235D01*
X1235Y830D01*
X1475Y830D01*
X1487Y817D01*
D02*
G37*
G36*
X3160Y800D02*
Y755D01*
X3145Y740D01*
X2445D01*
X2430Y755D01*
X2430Y805D01*
X2445Y820D01*
X3140D01*
X3160Y800D01*
D02*
G37*
G36*
X3290Y700D02*
Y665D01*
X3280Y655D01*
X3125D01*
X3115Y645D01*
X3045D01*
X3025Y665D01*
X3025Y695D01*
X3045Y715D01*
X3275Y715D01*
X3290Y700D01*
D02*
G37*
G36*
X822D02*
Y660D01*
X808Y645D01*
X642D01*
X632Y655D01*
Y695D01*
X652Y715D01*
X808D01*
X822Y700D01*
D02*
G37*
G36*
X2545Y710D02*
Y660D01*
X2530Y645D01*
X2280Y645D01*
X2265Y660D01*
Y710D01*
X2280Y725D01*
X2530D01*
X2545Y710D01*
D02*
G37*
G36*
X1680Y705D02*
Y655D01*
X1665Y640D01*
X1415Y640D01*
X1400Y655D01*
Y705D01*
X1415Y720D01*
X1665D01*
X1680Y705D01*
D02*
G37*
G36*
X2995Y685D02*
Y590D01*
X2965Y560D01*
X2835D01*
X2810Y585D01*
X2810Y685D01*
X2840Y715D01*
X2965D01*
X2995Y685D01*
D02*
G37*
G36*
X1100Y695D02*
Y580D01*
X1080Y560D01*
X955D01*
X935Y580D01*
Y700D01*
X955Y720D01*
X1075D01*
X1100Y695D01*
D02*
G37*
G36*
X2780Y700D02*
Y515D01*
X2765Y500D01*
X2690D01*
X2675Y515D01*
Y705D01*
X2690Y720D01*
X2760D01*
X2780Y700D01*
D02*
G37*
G36*
X1225Y720D02*
X1250Y695D01*
Y635D01*
X1225Y610D01*
Y510D01*
X1215Y500D01*
X1165D01*
X1145Y520D01*
X1145Y690D01*
X1175Y720D01*
X1225Y720D01*
D02*
G37*
D10*
X2330Y568D02*
D03*
Y682D02*
D03*
Y1113D02*
D03*
Y1227D02*
D03*
X1615Y1113D02*
D03*
Y1227D02*
D03*
Y563D02*
D03*
Y677D02*
D03*
X1025Y478D02*
D03*
Y592D02*
D03*
X1045Y1033D02*
D03*
Y1147D02*
D03*
X2885Y1028D02*
D03*
Y1142D02*
D03*
X2875Y488D02*
D03*
Y602D02*
D03*
D11*
X2737Y560D02*
D03*
X2623D02*
D03*
X2737Y1100D02*
D03*
X2623D02*
D03*
X1193Y1110D02*
D03*
X1307D02*
D03*
X1183Y560D02*
D03*
X1297D02*
D03*
D12*
X1008Y415D02*
D03*
X942D02*
D03*
X1003Y960D02*
D03*
X937D02*
D03*
X2932Y955D02*
D03*
X2998D02*
D03*
D13*
X2860Y408D02*
D03*
Y342D02*
D03*
X660Y673D02*
D03*
Y607D02*
D03*
X675Y1218D02*
D03*
Y1152D02*
D03*
X3265Y1228D02*
D03*
Y1162D02*
D03*
Y678D02*
D03*
Y612D02*
D03*
D14*
X2710Y680D02*
X2737Y653D01*
Y560D02*
Y653D01*
D15*
X2475Y780D02*
D03*
Y680D02*
D03*
X2710Y780D02*
D03*
Y680D02*
D03*
X2475Y1330D02*
D03*
Y1230D02*
D03*
X2710Y1330D02*
D03*
Y1230D02*
D03*
X1445Y1330D02*
D03*
Y1230D02*
D03*
X1210Y1330D02*
D03*
Y1230D02*
D03*
X1445Y780D02*
D03*
Y680D02*
D03*
X1210Y780D02*
D03*
Y680D02*
D03*
X975Y780D02*
D03*
Y680D02*
D03*
Y1330D02*
D03*
Y1230D02*
D03*
X2945Y1335D02*
D03*
Y1235D02*
D03*
Y780D02*
D03*
Y680D02*
D03*
D16*
X2715Y185D02*
D03*
X2115Y850D02*
D03*
X3520Y690D02*
D03*
X3325Y1415D02*
D03*
X370Y1130D02*
D03*
X450Y340D02*
D03*
Y750D02*
D03*
Y650D02*
D03*
X350Y750D02*
D03*
Y650D02*
D03*
Y550D02*
D03*
X3450Y200D02*
D03*
Y100D02*
D03*
X3350D02*
D03*
X3150D02*
D03*
X3250D02*
D03*
Y200D02*
D03*
X3350D02*
D03*
Y300D02*
D03*
X3450D02*
D03*
Y400D02*
D03*
X3550Y300D02*
D03*
Y400D02*
D03*
Y500D02*
D03*
Y600D02*
D03*
X3650Y400D02*
D03*
Y500D02*
D03*
Y600D02*
D03*
Y700D02*
D03*
X3750D02*
D03*
Y600D02*
D03*
Y500D02*
D03*
Y400D02*
D03*
X3850Y700D02*
D03*
Y600D02*
D03*
Y500D02*
D03*
Y400D02*
D03*
Y800D02*
D03*
Y900D02*
D03*
Y1000D02*
D03*
Y1100D02*
D03*
X3750Y800D02*
D03*
Y900D02*
D03*
Y1000D02*
D03*
Y1100D02*
D03*
X3650Y800D02*
D03*
Y900D02*
D03*
Y1000D02*
D03*
Y1100D02*
D03*
X3550D02*
D03*
Y1000D02*
D03*
Y900D02*
D03*
Y800D02*
D03*
X450Y950D02*
D03*
Y850D02*
D03*
X350D02*
D03*
Y950D02*
D03*
X250Y450D02*
D03*
X150D02*
D03*
X50D02*
D03*
X250Y550D02*
D03*
X150D02*
D03*
X50D02*
D03*
X250Y650D02*
D03*
X150D02*
D03*
X50D02*
D03*
X250Y750D02*
D03*
X150D02*
D03*
X50D02*
D03*
Y850D02*
D03*
X150D02*
D03*
X250D02*
D03*
Y950D02*
D03*
X150D02*
D03*
X50D02*
D03*
Y1050D02*
D03*
X150D02*
D03*
X250D02*
D03*
X350Y450D02*
D03*
X450D02*
D03*
Y550D02*
D03*
D17*
X3105Y580D02*
D03*
Y680D02*
D03*
Y1130D02*
D03*
Y1230D02*
D03*
X790Y1130D02*
D03*
Y1230D02*
D03*
Y580D02*
D03*
Y680D02*
D03*
D18*
X3105Y780D02*
D03*
Y1330D02*
D03*
X790D02*
D03*
Y780D02*
D03*
D19*
X2310Y230D02*
D03*
X2210D02*
D03*
X2110D02*
D03*
X2010D02*
D03*
X1910D02*
D03*
X1810D02*
D03*
X1710D02*
D03*
D20*
X1610D02*
D03*
D21*
X1870Y540D02*
D03*
D22*
X2067D02*
D03*
D23*
X200Y200D02*
D03*
X3720D02*
D03*
X200Y1300D02*
D03*
X3720D02*
D03*
M02*
