M48
;Layer_Color=9474304
;FILE_FORMAT=2:3
INCH,LZ
;TYPE=PLATED
T1F00S00C0.031
T2F00S00C0.035
T3F00S00C0.039
T4F00S00C0.040
T5F00S00C0.138
%
T01
X0187Y0054
X02067
X02475Y0068
Y0078
X0271
Y0068
X02945
Y0078
Y01235
Y01335
X0271Y0133
Y0123
X02475
Y0133
X01445
Y0123
X0121
Y0133
X00975
Y0123
Y0078
Y0068
X0121
Y0078
X01445
Y0068
T02
X0005Y0045
X0015
X0025
Y0055
X0035
Y0045
X0045
Y0055
X0015
X0005
X0161Y0023
X0171
X0181
X0191
X0201
X0211
X0221
X0231
X0315Y001
X0325
X0335
X0345
Y002
X0335
X0325
X0335Y003
X0345
Y004
X0355
Y003
Y005
X0365
Y004
X0375
Y005
X0385
Y004
Y006
X0375
Y007
X0385
Y008
Y009
Y01
Y011
X0375
Y01
Y009
Y008
X0365
Y007
Y006
X0355
Y008
Y009
X0365
Y01
Y011
X0355
Y01
X0045Y0095
Y0085
Y0075
Y0065
X0035
Y0075
Y0085
Y0095
X0025
Y0085
Y0075
Y0065
X0015
X0005
Y0075
X0015
Y0085
X0005
Y0095
X0015
Y0105
X0005
X0025
T03
X03105Y0058
Y0068
Y0078
Y0113
Y0123
Y0133
X0079
Y0123
Y0113
Y0078
Y0068
Y0058
T04
X0045Y0034
X02715Y00185
X0352Y0069
X03325Y01415
X02115Y0085
X0037Y0113
T05
X002Y002
X0372
Y013
X002
M30
