G04 Layer_Color=8388736*
%FSLAX23Y23*%
%MOIN*%
G70*
G01*
G75*
G04:AMPARAMS|DCode=81|XSize=47mil|YSize=43mil|CornerRadius=8mil|HoleSize=0mil|Usage=FLASHONLY|Rotation=270.000|XOffset=0mil|YOffset=0mil|HoleType=Round|Shape=RoundedRectangle|*
%AMROUNDEDRECTD81*
21,1,0.047,0.027,0,0,270.0*
21,1,0.031,0.043,0,0,270.0*
1,1,0.017,-0.013,-0.015*
1,1,0.017,-0.013,0.015*
1,1,0.017,0.013,0.015*
1,1,0.017,0.013,-0.015*
%
%ADD81ROUNDEDRECTD81*%
G04:AMPARAMS|DCode=82|XSize=47mil|YSize=43mil|CornerRadius=8mil|HoleSize=0mil|Usage=FLASHONLY|Rotation=180.000|XOffset=0mil|YOffset=0mil|HoleType=Round|Shape=RoundedRectangle|*
%AMROUNDEDRECTD82*
21,1,0.047,0.027,0,0,180.0*
21,1,0.031,0.043,0,0,180.0*
1,1,0.017,-0.015,0.013*
1,1,0.017,0.015,0.013*
1,1,0.017,0.015,-0.013*
1,1,0.017,-0.015,-0.013*
%
%ADD82ROUNDEDRECTD82*%
G04:AMPARAMS|DCode=83|XSize=39mil|YSize=39mil|CornerRadius=8mil|HoleSize=0mil|Usage=FLASHONLY|Rotation=270.000|XOffset=0mil|YOffset=0mil|HoleType=Round|Shape=RoundedRectangle|*
%AMROUNDEDRECTD83*
21,1,0.039,0.024,0,0,270.0*
21,1,0.024,0.039,0,0,270.0*
1,1,0.016,-0.012,-0.012*
1,1,0.016,-0.012,0.012*
1,1,0.016,0.012,0.012*
1,1,0.016,0.012,-0.012*
%
%ADD83ROUNDEDRECTD83*%
G04:AMPARAMS|DCode=84|XSize=34mil|YSize=28mil|CornerRadius=6mil|HoleSize=0mil|Usage=FLASHONLY|Rotation=180.000|XOffset=0mil|YOffset=0mil|HoleType=Round|Shape=RoundedRectangle|*
%AMROUNDEDRECTD84*
21,1,0.034,0.016,0,0,180.0*
21,1,0.022,0.028,0,0,180.0*
1,1,0.012,-0.011,0.008*
1,1,0.012,0.011,0.008*
1,1,0.012,0.011,-0.008*
1,1,0.012,-0.011,-0.008*
%
%ADD84ROUNDEDRECTD84*%
%ADD85R,0.079X0.087*%
%ADD86R,0.022X0.095*%
%ADD87O,0.083X0.032*%
%ADD88O,0.020X0.091*%
%ADD89O,0.091X0.020*%
%ADD90O,0.063X0.026*%
%ADD91R,0.130X0.110*%
%ADD92R,0.032X0.065*%
%ADD93R,0.110X0.130*%
%ADD94R,0.065X0.032*%
G04:AMPARAMS|DCode=95|XSize=32mil|YSize=32mil|CornerRadius=6mil|HoleSize=0mil|Usage=FLASHONLY|Rotation=270.000|XOffset=0mil|YOffset=0mil|HoleType=Round|Shape=RoundedRectangle|*
%AMROUNDEDRECTD95*
21,1,0.032,0.019,0,0,270.0*
21,1,0.019,0.032,0,0,270.0*
1,1,0.013,-0.009,-0.009*
1,1,0.013,-0.009,0.009*
1,1,0.013,0.009,0.009*
1,1,0.013,0.009,-0.009*
%
%ADD95ROUNDEDRECTD95*%
%ADD96R,0.221X0.122*%
G04:AMPARAMS|DCode=97|XSize=34mil|YSize=28mil|CornerRadius=6mil|HoleSize=0mil|Usage=FLASHONLY|Rotation=270.000|XOffset=0mil|YOffset=0mil|HoleType=Round|Shape=RoundedRectangle|*
%AMROUNDEDRECTD97*
21,1,0.034,0.016,0,0,270.0*
21,1,0.022,0.028,0,0,270.0*
1,1,0.012,-0.008,-0.011*
1,1,0.012,-0.008,0.011*
1,1,0.012,0.008,0.011*
1,1,0.012,0.008,-0.011*
%
%ADD97ROUNDEDRECTD97*%
G04:AMPARAMS|DCode=98|XSize=39mil|YSize=39mil|CornerRadius=8mil|HoleSize=0mil|Usage=FLASHONLY|Rotation=0.000|XOffset=0mil|YOffset=0mil|HoleType=Round|Shape=RoundedRectangle|*
%AMROUNDEDRECTD98*
21,1,0.039,0.024,0,0,0.0*
21,1,0.024,0.039,0,0,0.0*
1,1,0.016,0.012,-0.012*
1,1,0.016,-0.012,-0.012*
1,1,0.016,-0.012,0.012*
1,1,0.016,0.012,0.012*
%
%ADD98ROUNDEDRECTD98*%
G04:AMPARAMS|DCode=99|XSize=106mil|YSize=75mil|CornerRadius=12mil|HoleSize=0mil|Usage=FLASHONLY|Rotation=0.000|XOffset=0mil|YOffset=0mil|HoleType=Round|Shape=RoundedRectangle|*
%AMROUNDEDRECTD99*
21,1,0.106,0.050,0,0,0.0*
21,1,0.082,0.075,0,0,0.0*
1,1,0.025,0.041,-0.025*
1,1,0.025,-0.041,-0.025*
1,1,0.025,-0.041,0.025*
1,1,0.025,0.041,0.025*
%
%ADD99ROUNDEDRECTD99*%
%ADD100R,0.140X0.079*%
G04:AMPARAMS|DCode=101|XSize=79mil|YSize=59mil|CornerRadius=10mil|HoleSize=0mil|Usage=FLASHONLY|Rotation=0.000|XOffset=0mil|YOffset=0mil|HoleType=Round|Shape=RoundedRectangle|*
%AMROUNDEDRECTD101*
21,1,0.079,0.038,0,0,0.0*
21,1,0.058,0.059,0,0,0.0*
1,1,0.021,0.029,-0.019*
1,1,0.021,-0.029,-0.019*
1,1,0.021,-0.029,0.019*
1,1,0.021,0.029,0.019*
%
%ADD101ROUNDEDRECTD101*%
%ADD102C,0.068*%
%ADD103C,0.067*%
%ADD104R,0.067X0.067*%
%ADD105C,0.087*%
%ADD106R,0.047X0.165*%
%ADD107O,0.047X0.165*%
%ADD108O,0.146X0.047*%
%ADD109R,0.067X0.067*%
%ADD110C,0.138*%
%ADD111C,0.126*%
%ADD112C,0.075*%
%ADD113R,0.075X0.075*%
G04:AMPARAMS|DCode=114|XSize=75mil|YSize=75mil|CornerRadius=12mil|HoleSize=0mil|Usage=FLASHONLY|Rotation=270.000|XOffset=0mil|YOffset=0mil|HoleType=Round|Shape=RoundedRectangle|*
%AMROUNDEDRECTD114*
21,1,0.075,0.050,0,0,270.0*
21,1,0.050,0.075,0,0,270.0*
1,1,0.025,-0.025,-0.025*
1,1,0.025,-0.025,0.025*
1,1,0.025,0.025,0.025*
1,1,0.025,0.025,-0.025*
%
%ADD114ROUNDEDRECTD114*%
%ADD115C,0.075*%
%ADD116C,0.311*%
%ADD117C,0.036*%
D81*
X197Y985D02*
D03*
X263D02*
D03*
X263Y1060D02*
D03*
X197D02*
D03*
X5497Y3465D02*
D03*
X5430D02*
D03*
X5297D02*
D03*
X5230D02*
D03*
X5097D02*
D03*
X5030D02*
D03*
X4897D02*
D03*
X4830D02*
D03*
X4617D02*
D03*
X4550D02*
D03*
X4418D02*
D03*
X4352D02*
D03*
X4218D02*
D03*
X4152D02*
D03*
X4018D02*
D03*
X3952D02*
D03*
X3738D02*
D03*
X3672D02*
D03*
X3538D02*
D03*
X3472D02*
D03*
X3338D02*
D03*
X3272D02*
D03*
X3138D02*
D03*
X3072D02*
D03*
X2858D02*
D03*
X2792D02*
D03*
X2658D02*
D03*
X2592D02*
D03*
X2458D02*
D03*
X2392D02*
D03*
X5430Y3600D02*
D03*
X5497D02*
D03*
X5230D02*
D03*
X5297D02*
D03*
X5030D02*
D03*
X5097D02*
D03*
X4830D02*
D03*
X4897D02*
D03*
X4550D02*
D03*
X4617D02*
D03*
X4352D02*
D03*
X4418D02*
D03*
X4152D02*
D03*
X4218D02*
D03*
X3952D02*
D03*
X4018D02*
D03*
X3672D02*
D03*
X3738D02*
D03*
X3472D02*
D03*
X3538D02*
D03*
X3272D02*
D03*
X3338D02*
D03*
X3072D02*
D03*
X3138D02*
D03*
X2792D02*
D03*
X2858D02*
D03*
X2592D02*
D03*
X2658D02*
D03*
X2392D02*
D03*
X2458D02*
D03*
X5497Y3530D02*
D03*
X5430D02*
D03*
X5297D02*
D03*
X5230D02*
D03*
X5097D02*
D03*
X5030D02*
D03*
X4897D02*
D03*
X4830D02*
D03*
X4617D02*
D03*
X4550D02*
D03*
X4418D02*
D03*
X4352D02*
D03*
X4218D02*
D03*
X4152D02*
D03*
X4018D02*
D03*
X3952D02*
D03*
X3738D02*
D03*
X3672D02*
D03*
X3538D02*
D03*
X3472D02*
D03*
X3338D02*
D03*
X3272D02*
D03*
X3138D02*
D03*
X3072D02*
D03*
X2858D02*
D03*
X2792D02*
D03*
X2658D02*
D03*
X2592D02*
D03*
X2458D02*
D03*
X2392D02*
D03*
X5328Y805D02*
D03*
X5262D02*
D03*
X4947Y867D02*
D03*
X5013D02*
D03*
X3897D02*
D03*
X3963D02*
D03*
X4947Y927D02*
D03*
X5013D02*
D03*
X3897D02*
D03*
X3963D02*
D03*
X2547Y2515D02*
D03*
X2613D02*
D03*
X3527Y2560D02*
D03*
X3593D02*
D03*
X4477Y2550D02*
D03*
X4543D02*
D03*
X5427D02*
D03*
X5493D02*
D03*
X2003Y2495D02*
D03*
X1937D02*
D03*
X2983Y2530D02*
D03*
X2917D02*
D03*
X3933D02*
D03*
X3867D02*
D03*
X4883D02*
D03*
X4817D02*
D03*
X2542Y2270D02*
D03*
X2608D02*
D03*
X3527Y2350D02*
D03*
X3593D02*
D03*
X4477D02*
D03*
X4543D02*
D03*
X5427D02*
D03*
X5493D02*
D03*
X2003Y2275D02*
D03*
X1937D02*
D03*
X2983Y2310D02*
D03*
X2917D02*
D03*
X3933D02*
D03*
X3867D02*
D03*
X4883D02*
D03*
X4817D02*
D03*
X5823Y700D02*
D03*
X5757D02*
D03*
X5823Y635D02*
D03*
X5757D02*
D03*
X5823Y1020D02*
D03*
X5757D02*
D03*
X447Y2925D02*
D03*
X513D02*
D03*
X493Y1210D02*
D03*
X427D02*
D03*
X1673Y3325D02*
D03*
X1607D02*
D03*
X513Y2855D02*
D03*
X447D02*
D03*
X3862Y2420D02*
D03*
X3928D02*
D03*
X4817D02*
D03*
X4883D02*
D03*
X4543Y2255D02*
D03*
X4477D02*
D03*
X5493D02*
D03*
X5427D02*
D03*
X4543Y2455D02*
D03*
X4477D02*
D03*
X5493D02*
D03*
X5427D02*
D03*
X1932Y2170D02*
D03*
X1998D02*
D03*
X2917Y2205D02*
D03*
X2983D02*
D03*
X3867D02*
D03*
X3933D02*
D03*
X4817D02*
D03*
X4883D02*
D03*
X2003Y2340D02*
D03*
X1937D02*
D03*
X2983Y2380D02*
D03*
X2917D02*
D03*
X2547Y2160D02*
D03*
X2613D02*
D03*
X3593Y2255D02*
D03*
X3527D02*
D03*
X2547Y2380D02*
D03*
X2613D02*
D03*
X3593Y2455D02*
D03*
X3527D02*
D03*
D82*
X235Y1903D02*
D03*
Y1837D02*
D03*
X4210Y637D02*
D03*
Y703D02*
D03*
X4140Y637D02*
D03*
Y703D02*
D03*
X5490Y1213D02*
D03*
Y1280D02*
D03*
X4440Y1222D02*
D03*
Y1288D02*
D03*
X5370Y1213D02*
D03*
Y1280D02*
D03*
X4320Y1222D02*
D03*
Y1288D02*
D03*
X2155Y877D02*
D03*
Y943D02*
D03*
X725Y708D02*
D03*
Y642D02*
D03*
X1065Y1608D02*
D03*
Y1542D02*
D03*
X1165Y1542D02*
D03*
Y1608D02*
D03*
X1110Y1853D02*
D03*
Y1787D02*
D03*
X5230Y1213D02*
D03*
Y1280D02*
D03*
X4180Y1227D02*
D03*
Y1293D02*
D03*
X5110Y1213D02*
D03*
Y1280D02*
D03*
X4060Y1227D02*
D03*
Y1293D02*
D03*
X5170Y1213D02*
D03*
Y1280D02*
D03*
X4120Y1227D02*
D03*
Y1293D02*
D03*
X2560Y867D02*
D03*
Y933D02*
D03*
X795Y642D02*
D03*
Y708D02*
D03*
X1385Y1913D02*
D03*
Y1847D02*
D03*
X1280Y1257D02*
D03*
Y1323D02*
D03*
X300Y1903D02*
D03*
Y1837D02*
D03*
X2530Y333D02*
D03*
Y267D02*
D03*
X2600Y333D02*
D03*
Y267D02*
D03*
D83*
X170Y1903D02*
D03*
Y1837D02*
D03*
X5430Y1280D02*
D03*
Y1213D02*
D03*
X4380Y1288D02*
D03*
Y1222D02*
D03*
X5310Y1280D02*
D03*
Y1213D02*
D03*
X4260Y1293D02*
D03*
Y1227D02*
D03*
X1040Y1853D02*
D03*
Y1787D02*
D03*
X2530Y87D02*
D03*
Y153D02*
D03*
X2600Y87D02*
D03*
Y153D02*
D03*
D84*
X5428Y3400D02*
D03*
X5499D02*
D03*
X5228D02*
D03*
X5299D02*
D03*
X5028D02*
D03*
X5099D02*
D03*
X4828D02*
D03*
X4899D02*
D03*
X4548D02*
D03*
X4619D02*
D03*
X4350D02*
D03*
X4420D02*
D03*
X4150D02*
D03*
X4220D02*
D03*
X3950D02*
D03*
X4020D02*
D03*
X3670D02*
D03*
X3740D02*
D03*
X3470D02*
D03*
X3540D02*
D03*
X3270D02*
D03*
X3340D02*
D03*
X3070D02*
D03*
X3140D02*
D03*
X2790D02*
D03*
X2860D02*
D03*
X2590D02*
D03*
X2660D02*
D03*
X2390D02*
D03*
X2460D02*
D03*
X5330Y740D02*
D03*
X5260D02*
D03*
X4345Y730D02*
D03*
X4275D02*
D03*
D85*
X2235Y973D02*
D03*
X2435D02*
D03*
Y807D02*
D03*
X2235D02*
D03*
D86*
X5258Y1091D02*
D03*
X5233D02*
D03*
X5207D02*
D03*
X5182D02*
D03*
X5157D02*
D03*
X5133D02*
D03*
X5108D02*
D03*
X5082D02*
D03*
X5258Y902D02*
D03*
X5233D02*
D03*
X5207D02*
D03*
X5182D02*
D03*
X5157D02*
D03*
X5133D02*
D03*
X5108D02*
D03*
X5082D02*
D03*
X4207Y1091D02*
D03*
X4182D02*
D03*
X4157D02*
D03*
X4133D02*
D03*
X4108D02*
D03*
X4082D02*
D03*
X4057D02*
D03*
X4032D02*
D03*
X4207Y902D02*
D03*
X4182D02*
D03*
X4157D02*
D03*
X4133D02*
D03*
X4108D02*
D03*
X4082D02*
D03*
X4057D02*
D03*
X4032D02*
D03*
D87*
X2083Y2720D02*
D03*
Y2670D02*
D03*
Y2620D02*
D03*
Y2570D02*
D03*
Y2520D02*
D03*
Y2470D02*
D03*
Y2420D02*
D03*
Y2370D02*
D03*
Y2320D02*
D03*
Y2270D02*
D03*
Y2220D02*
D03*
Y2170D02*
D03*
X2457Y2720D02*
D03*
Y2670D02*
D03*
Y2620D02*
D03*
Y2570D02*
D03*
Y2520D02*
D03*
Y2470D02*
D03*
Y2420D02*
D03*
Y2370D02*
D03*
Y2320D02*
D03*
Y2270D02*
D03*
Y2220D02*
D03*
Y2170D02*
D03*
X3063Y2755D02*
D03*
Y2705D02*
D03*
Y2655D02*
D03*
Y2605D02*
D03*
Y2555D02*
D03*
Y2505D02*
D03*
Y2455D02*
D03*
Y2405D02*
D03*
Y2355D02*
D03*
Y2305D02*
D03*
Y2255D02*
D03*
Y2205D02*
D03*
X3437Y2755D02*
D03*
Y2705D02*
D03*
Y2655D02*
D03*
Y2605D02*
D03*
Y2555D02*
D03*
Y2505D02*
D03*
Y2455D02*
D03*
Y2405D02*
D03*
Y2355D02*
D03*
Y2305D02*
D03*
Y2255D02*
D03*
Y2205D02*
D03*
X4013Y2755D02*
D03*
Y2705D02*
D03*
Y2655D02*
D03*
Y2605D02*
D03*
Y2555D02*
D03*
Y2505D02*
D03*
Y2455D02*
D03*
Y2405D02*
D03*
Y2355D02*
D03*
Y2305D02*
D03*
Y2255D02*
D03*
Y2205D02*
D03*
X4387Y2755D02*
D03*
Y2705D02*
D03*
Y2655D02*
D03*
Y2605D02*
D03*
Y2555D02*
D03*
Y2505D02*
D03*
Y2455D02*
D03*
Y2405D02*
D03*
Y2355D02*
D03*
Y2305D02*
D03*
Y2255D02*
D03*
Y2205D02*
D03*
X4963Y2755D02*
D03*
Y2705D02*
D03*
Y2655D02*
D03*
Y2605D02*
D03*
Y2555D02*
D03*
Y2505D02*
D03*
Y2455D02*
D03*
Y2405D02*
D03*
Y2355D02*
D03*
Y2305D02*
D03*
Y2255D02*
D03*
Y2205D02*
D03*
X5337Y2755D02*
D03*
Y2705D02*
D03*
Y2655D02*
D03*
Y2605D02*
D03*
Y2555D02*
D03*
Y2505D02*
D03*
Y2455D02*
D03*
Y2405D02*
D03*
Y2355D02*
D03*
Y2305D02*
D03*
Y2255D02*
D03*
Y2205D02*
D03*
D88*
X2923Y1040D02*
D03*
X2903D02*
D03*
X2883D02*
D03*
X2864D02*
D03*
X2844D02*
D03*
X2824D02*
D03*
X2805D02*
D03*
X2785D02*
D03*
X2765D02*
D03*
X2745D02*
D03*
X2726D02*
D03*
X2706D02*
D03*
X2686D02*
D03*
X2667D02*
D03*
X2647D02*
D03*
X2627D02*
D03*
Y1480D02*
D03*
X2647D02*
D03*
X2667D02*
D03*
X2686D02*
D03*
X2706D02*
D03*
X2726D02*
D03*
X2745D02*
D03*
X2765D02*
D03*
X2785D02*
D03*
X2805D02*
D03*
X2824D02*
D03*
X2844D02*
D03*
X2864D02*
D03*
X2883D02*
D03*
X2903D02*
D03*
X2923D02*
D03*
D89*
X2555Y1112D02*
D03*
Y1132D02*
D03*
Y1152D02*
D03*
Y1171D02*
D03*
Y1191D02*
D03*
Y1211D02*
D03*
Y1230D02*
D03*
Y1250D02*
D03*
Y1270D02*
D03*
Y1290D02*
D03*
Y1309D02*
D03*
Y1329D02*
D03*
Y1349D02*
D03*
Y1368D02*
D03*
Y1388D02*
D03*
Y1408D02*
D03*
X2995D02*
D03*
Y1388D02*
D03*
Y1368D02*
D03*
Y1349D02*
D03*
Y1329D02*
D03*
Y1309D02*
D03*
Y1290D02*
D03*
Y1270D02*
D03*
Y1250D02*
D03*
Y1230D02*
D03*
Y1211D02*
D03*
Y1191D02*
D03*
Y1171D02*
D03*
Y1152D02*
D03*
Y1132D02*
D03*
Y1112D02*
D03*
D90*
X591Y3004D02*
D03*
Y3029D02*
D03*
Y3055D02*
D03*
Y3081D02*
D03*
Y3106D02*
D03*
Y3132D02*
D03*
Y3157D02*
D03*
Y3183D02*
D03*
Y3209D02*
D03*
Y3234D02*
D03*
Y3260D02*
D03*
Y3285D02*
D03*
Y3311D02*
D03*
Y3337D02*
D03*
X359Y3004D02*
D03*
Y3029D02*
D03*
Y3055D02*
D03*
Y3081D02*
D03*
Y3106D02*
D03*
Y3132D02*
D03*
Y3157D02*
D03*
Y3183D02*
D03*
Y3209D02*
D03*
Y3234D02*
D03*
Y3260D02*
D03*
Y3285D02*
D03*
Y3311D02*
D03*
Y3337D02*
D03*
D91*
X1140Y1290D02*
D03*
D92*
X1065Y1183D02*
D03*
X1115D02*
D03*
X1165D02*
D03*
X1215D02*
D03*
X1065Y1397D02*
D03*
X1115D02*
D03*
X1165D02*
D03*
X1215D02*
D03*
D93*
X460Y1060D02*
D03*
D94*
X567Y985D02*
D03*
Y1035D02*
D03*
Y1085D02*
D03*
Y1135D02*
D03*
X353Y985D02*
D03*
Y1035D02*
D03*
Y1085D02*
D03*
Y1135D02*
D03*
X3445Y1367D02*
D03*
Y1293D02*
D03*
X3537Y1330D02*
D03*
D95*
X240Y3005D02*
D03*
X280D02*
D03*
X240Y3065D02*
D03*
X280D02*
D03*
X240Y3130D02*
D03*
X280D02*
D03*
D96*
X1595Y1289D02*
D03*
Y1671D02*
D03*
X300Y1359D02*
D03*
Y1741D02*
D03*
D97*
X4070Y635D02*
D03*
Y705D02*
D03*
X5050Y1211D02*
D03*
Y1282D02*
D03*
X4000Y1225D02*
D03*
Y1295D02*
D03*
D98*
X727Y565D02*
D03*
X793D02*
D03*
D99*
X1569Y1160D02*
D03*
X1411D02*
D03*
X834Y1255D02*
D03*
X676D02*
D03*
D100*
X1245Y1786D02*
D03*
Y1984D02*
D03*
X650Y1664D02*
D03*
Y1466D02*
D03*
D101*
X1060Y1067D02*
D03*
Y953D02*
D03*
X950Y1062D02*
D03*
Y948D02*
D03*
X835Y1062D02*
D03*
Y948D02*
D03*
X725Y1062D02*
D03*
Y948D02*
D03*
D102*
X120Y2830D02*
D03*
X2285Y1270D02*
D03*
X1530Y1825D02*
D03*
X675Y1815D02*
D03*
X1535Y940D02*
D03*
X4175Y2915D02*
D03*
X4460Y1040D02*
D03*
X2390Y1680D02*
D03*
X2285Y1480D02*
D03*
X3235Y2930D02*
D03*
X3650Y1350D02*
D03*
X300Y2700D02*
D03*
Y2600D02*
D03*
Y2500D02*
D03*
Y2400D02*
D03*
Y2300D02*
D03*
Y2200D02*
D03*
X400D02*
D03*
Y2300D02*
D03*
Y2400D02*
D03*
Y2500D02*
D03*
Y2600D02*
D03*
Y2700D02*
D03*
X500Y2200D02*
D03*
Y2300D02*
D03*
Y2400D02*
D03*
Y2500D02*
D03*
Y2600D02*
D03*
Y2700D02*
D03*
X600Y2200D02*
D03*
Y2300D02*
D03*
Y2400D02*
D03*
Y2500D02*
D03*
Y2600D02*
D03*
Y2700D02*
D03*
X700Y2200D02*
D03*
Y2300D02*
D03*
Y2400D02*
D03*
Y2500D02*
D03*
Y2600D02*
D03*
Y2700D02*
D03*
X800Y2200D02*
D03*
Y2300D02*
D03*
Y2400D02*
D03*
Y2500D02*
D03*
Y2600D02*
D03*
Y2700D02*
D03*
X900Y2200D02*
D03*
Y2300D02*
D03*
Y2400D02*
D03*
Y2500D02*
D03*
Y2600D02*
D03*
Y2700D02*
D03*
X1000Y2200D02*
D03*
Y2300D02*
D03*
Y2400D02*
D03*
Y2500D02*
D03*
Y2600D02*
D03*
Y2700D02*
D03*
X1100Y2200D02*
D03*
Y2300D02*
D03*
Y2400D02*
D03*
Y2500D02*
D03*
Y2600D02*
D03*
Y2700D02*
D03*
X1200Y2200D02*
D03*
Y2300D02*
D03*
Y2400D02*
D03*
Y2500D02*
D03*
Y2600D02*
D03*
Y2700D02*
D03*
X1300Y2200D02*
D03*
Y2300D02*
D03*
Y2400D02*
D03*
Y2500D02*
D03*
Y2600D02*
D03*
Y2700D02*
D03*
X1400Y2200D02*
D03*
Y2300D02*
D03*
Y2400D02*
D03*
Y2500D02*
D03*
Y2600D02*
D03*
Y2700D02*
D03*
X1500Y2200D02*
D03*
Y2300D02*
D03*
Y2400D02*
D03*
Y2500D02*
D03*
Y2600D02*
D03*
Y2700D02*
D03*
X1600Y2200D02*
D03*
Y2300D02*
D03*
Y2400D02*
D03*
Y2500D02*
D03*
Y2600D02*
D03*
Y2700D02*
D03*
X1700Y2200D02*
D03*
Y2300D02*
D03*
Y2400D02*
D03*
Y2500D02*
D03*
Y2600D02*
D03*
Y2700D02*
D03*
X2000Y3300D02*
D03*
X2100D02*
D03*
X2000Y3200D02*
D03*
X2100D02*
D03*
Y3100D02*
D03*
X2000D02*
D03*
X2200Y3300D02*
D03*
Y3200D02*
D03*
Y3100D02*
D03*
X2000Y3000D02*
D03*
X2100D02*
D03*
X2200D02*
D03*
X2300Y3300D02*
D03*
Y3200D02*
D03*
Y3100D02*
D03*
Y3000D02*
D03*
X3450Y3050D02*
D03*
Y2950D02*
D03*
X3550D02*
D03*
Y3050D02*
D03*
Y3150D02*
D03*
X3650D02*
D03*
Y3050D02*
D03*
Y2950D02*
D03*
X4350Y3150D02*
D03*
Y3050D02*
D03*
Y2950D02*
D03*
X4450D02*
D03*
Y3050D02*
D03*
Y3150D02*
D03*
X5150D02*
D03*
X5250D02*
D03*
X5350D02*
D03*
X5450D02*
D03*
Y3050D02*
D03*
X5350D02*
D03*
X5250D02*
D03*
X5150D02*
D03*
Y2950D02*
D03*
X5250D02*
D03*
X5350D02*
D03*
X5450D02*
D03*
X3650Y1750D02*
D03*
Y1650D02*
D03*
Y1550D02*
D03*
X3750D02*
D03*
Y1650D02*
D03*
Y1750D02*
D03*
X3850Y1550D02*
D03*
Y1650D02*
D03*
Y1750D02*
D03*
X3950Y1550D02*
D03*
Y1650D02*
D03*
Y1750D02*
D03*
X4050Y1550D02*
D03*
Y1650D02*
D03*
Y1750D02*
D03*
X4150Y1550D02*
D03*
Y1650D02*
D03*
Y1750D02*
D03*
X4250Y1550D02*
D03*
Y1650D02*
D03*
Y1750D02*
D03*
X4350Y1550D02*
D03*
Y1650D02*
D03*
Y1750D02*
D03*
X4750D02*
D03*
Y1650D02*
D03*
Y1550D02*
D03*
X4650Y1750D02*
D03*
Y1650D02*
D03*
Y1550D02*
D03*
X4550Y1750D02*
D03*
Y1650D02*
D03*
Y1550D02*
D03*
X4450Y1750D02*
D03*
Y1650D02*
D03*
Y1550D02*
D03*
X5150Y1750D02*
D03*
Y1650D02*
D03*
Y1550D02*
D03*
X5050Y1750D02*
D03*
Y1650D02*
D03*
Y1550D02*
D03*
X4950Y1750D02*
D03*
Y1650D02*
D03*
Y1550D02*
D03*
X4850Y1750D02*
D03*
Y1650D02*
D03*
Y1550D02*
D03*
X5550Y1750D02*
D03*
Y1650D02*
D03*
X5450Y1750D02*
D03*
Y1650D02*
D03*
Y1550D02*
D03*
X5350Y1750D02*
D03*
Y1650D02*
D03*
Y1550D02*
D03*
X5250Y1750D02*
D03*
Y1650D02*
D03*
Y1550D02*
D03*
Y1850D02*
D03*
X5350D02*
D03*
X5450D02*
D03*
X5550D02*
D03*
X4850D02*
D03*
X4950D02*
D03*
X5050D02*
D03*
X5150D02*
D03*
X4450D02*
D03*
X4550D02*
D03*
X4650D02*
D03*
X4750D02*
D03*
X4350D02*
D03*
X4250D02*
D03*
X4150D02*
D03*
X4050D02*
D03*
X1500Y2100D02*
D03*
Y2000D02*
D03*
X1600D02*
D03*
Y2100D02*
D03*
X1700D02*
D03*
Y2000D02*
D03*
X1800D02*
D03*
Y2100D02*
D03*
Y2200D02*
D03*
Y1900D02*
D03*
Y1800D02*
D03*
X1900D02*
D03*
Y1900D02*
D03*
Y2000D02*
D03*
X2000D02*
D03*
Y1900D02*
D03*
Y1800D02*
D03*
X2100D02*
D03*
Y1900D02*
D03*
Y2000D02*
D03*
X2200Y1800D02*
D03*
Y1900D02*
D03*
Y2000D02*
D03*
X2300Y1800D02*
D03*
Y1900D02*
D03*
Y2000D02*
D03*
X2200Y1700D02*
D03*
Y1600D02*
D03*
X2100Y1700D02*
D03*
Y1600D02*
D03*
X2000Y1700D02*
D03*
Y1600D02*
D03*
X1900Y1700D02*
D03*
Y1600D02*
D03*
Y1500D02*
D03*
Y1400D02*
D03*
X2000Y1500D02*
D03*
Y1400D02*
D03*
Y1300D02*
D03*
Y1200D02*
D03*
X1900Y1300D02*
D03*
Y1200D02*
D03*
X2100Y1300D02*
D03*
Y1200D02*
D03*
Y1100D02*
D03*
Y1000D02*
D03*
X2000Y1100D02*
D03*
Y1000D02*
D03*
X1900Y1100D02*
D03*
Y1000D02*
D03*
X2100Y1500D02*
D03*
Y1400D02*
D03*
X2550Y600D02*
D03*
Y500D02*
D03*
X2650D02*
D03*
Y600D02*
D03*
X2750D02*
D03*
Y500D02*
D03*
X2850D02*
D03*
Y600D02*
D03*
X3050D02*
D03*
Y500D02*
D03*
Y700D02*
D03*
X3150D02*
D03*
Y500D02*
D03*
Y600D02*
D03*
X3250Y700D02*
D03*
Y500D02*
D03*
Y600D02*
D03*
X3350Y700D02*
D03*
Y500D02*
D03*
Y600D02*
D03*
X3450Y700D02*
D03*
Y500D02*
D03*
Y600D02*
D03*
X3550Y700D02*
D03*
Y500D02*
D03*
Y600D02*
D03*
X3650Y700D02*
D03*
Y500D02*
D03*
Y600D02*
D03*
X3750Y700D02*
D03*
Y500D02*
D03*
Y600D02*
D03*
X3850Y700D02*
D03*
Y500D02*
D03*
Y600D02*
D03*
X3650Y1000D02*
D03*
Y800D02*
D03*
Y900D02*
D03*
X3550Y800D02*
D03*
Y900D02*
D03*
X3450Y800D02*
D03*
X3750Y1000D02*
D03*
Y900D02*
D03*
Y800D02*
D03*
X5050Y3150D02*
D03*
Y3050D02*
D03*
Y2950D02*
D03*
X5700Y3450D02*
D03*
X5800D02*
D03*
Y3350D02*
D03*
X5700D02*
D03*
Y3250D02*
D03*
X5800D02*
D03*
Y3150D02*
D03*
X5700D02*
D03*
X5550Y1550D02*
D03*
X2850Y700D02*
D03*
D103*
X5805Y1925D02*
D03*
Y2025D02*
D03*
Y2125D02*
D03*
Y2225D02*
D03*
Y2325D02*
D03*
Y2425D02*
D03*
X5905Y2225D02*
D03*
Y2125D02*
D03*
Y2025D02*
D03*
Y1925D02*
D03*
Y1825D02*
D03*
Y2325D02*
D03*
Y2425D02*
D03*
X5805Y1725D02*
D03*
Y1825D02*
D03*
X3839Y207D02*
D03*
X4016D02*
D03*
X3339D02*
D03*
X3516D02*
D03*
X2839D02*
D03*
X3016D02*
D03*
X5878Y1284D02*
D03*
Y1461D02*
D03*
X3295Y1725D02*
D03*
Y1825D02*
D03*
X3180Y1725D02*
D03*
Y1825D02*
D03*
X1990Y3770D02*
D03*
X1890D02*
D03*
X1790D02*
D03*
X1690D02*
D03*
X1590D02*
D03*
X1490D02*
D03*
X1390D02*
D03*
X4650D02*
D03*
X4550D02*
D03*
X4450D02*
D03*
X4350D02*
D03*
X4250D02*
D03*
X4150D02*
D03*
X4050D02*
D03*
X1170D02*
D03*
X1070D02*
D03*
X970D02*
D03*
X870D02*
D03*
X770D02*
D03*
X670D02*
D03*
X570D02*
D03*
X3770D02*
D03*
X3670D02*
D03*
X3570D02*
D03*
X3470D02*
D03*
X3370D02*
D03*
X3270D02*
D03*
X3170D02*
D03*
X2220Y310D02*
D03*
Y210D02*
D03*
Y110D02*
D03*
X2320Y410D02*
D03*
Y310D02*
D03*
Y210D02*
D03*
Y110D02*
D03*
X2890Y3770D02*
D03*
X2790D02*
D03*
X2690D02*
D03*
X2590D02*
D03*
X2490D02*
D03*
X2390D02*
D03*
X2290D02*
D03*
X5925Y519D02*
D03*
Y619D02*
D03*
Y719D02*
D03*
Y819D02*
D03*
Y919D02*
D03*
X1990Y3500D02*
D03*
X1890D02*
D03*
X1790D02*
D03*
X1690D02*
D03*
X1590D02*
D03*
X1490D02*
D03*
X1390D02*
D03*
X4590Y620D02*
D03*
X4492D02*
D03*
Y541D02*
D03*
X4590D02*
D03*
X5250Y620D02*
D03*
X5152D02*
D03*
Y541D02*
D03*
X5250D02*
D03*
X1170Y3500D02*
D03*
X1070D02*
D03*
X970D02*
D03*
X870D02*
D03*
X770D02*
D03*
X670D02*
D03*
X570D02*
D03*
X5530Y3770D02*
D03*
X5430D02*
D03*
X5330D02*
D03*
X5230D02*
D03*
X5130D02*
D03*
X5030D02*
D03*
X4930D02*
D03*
D104*
X5905Y1725D02*
D03*
X3295Y1925D02*
D03*
X3180D02*
D03*
X2220Y410D02*
D03*
X5925Y1019D02*
D03*
D105*
X3790Y305D02*
D03*
X4066D02*
D03*
X3290D02*
D03*
X3566D02*
D03*
X2790D02*
D03*
X3066D02*
D03*
X5780Y1235D02*
D03*
Y1511D02*
D03*
D106*
X445Y710D02*
D03*
D107*
X209D02*
D03*
D108*
X327Y525D02*
D03*
D109*
X1290Y3770D02*
D03*
X3950D02*
D03*
X470D02*
D03*
X3070D02*
D03*
X2190D02*
D03*
X1290Y3500D02*
D03*
X470D02*
D03*
X4830Y3770D02*
D03*
D110*
X4304Y435D02*
D03*
X4792D02*
D03*
X4964D02*
D03*
X5452D02*
D03*
D111*
X720Y245D02*
D03*
X1704D02*
D03*
D112*
X1700Y635D02*
D03*
D113*
Y835D02*
D03*
D114*
X1015Y830D02*
D03*
X1385D02*
D03*
D115*
X1015Y633D02*
D03*
X1385D02*
D03*
D116*
X250Y250D02*
D03*
Y3670D02*
D03*
X5750D02*
D03*
Y250D02*
D03*
D117*
X1097Y1268D02*
D03*
Y1312D02*
D03*
X1140Y1268D02*
D03*
Y1312D02*
D03*
X1183Y1268D02*
D03*
Y1312D02*
D03*
X482Y1017D02*
D03*
X438D02*
D03*
X482Y1060D02*
D03*
X438D02*
D03*
X482Y1103D02*
D03*
X438D02*
D03*
X500Y1685D02*
D03*
X455D02*
D03*
X435Y1720D02*
D03*
X780Y1125D02*
D03*
X640Y3355D02*
D03*
X5185Y800D02*
D03*
Y1010D02*
D03*
X3740Y1465D02*
D03*
X3415Y1145D02*
D03*
X3380Y1580D02*
D03*
Y1540D02*
D03*
X3470Y1145D02*
D03*
Y1470D02*
D03*
X3385Y1500D02*
D03*
X3505Y2655D02*
D03*
X3590Y2700D02*
D03*
X3845Y2790D02*
D03*
X3810Y2765D02*
D03*
X3885Y2820D02*
D03*
X4445Y2000D02*
D03*
X5425Y2110D02*
D03*
X5460Y2655D02*
D03*
Y2140D02*
D03*
X3770Y2025D02*
D03*
X4925Y2075D02*
D03*
X5045Y2705D02*
D03*
X3760Y1955D02*
D03*
X300Y2930D02*
D03*
X260Y3180D02*
D03*
X475Y3205D02*
D03*
X500Y3235D02*
D03*
X4130Y1010D02*
D03*
X2658Y897D02*
D03*
X2875Y855D02*
D03*
X2550Y2670D02*
D03*
X2575Y2620D02*
D03*
X2605Y1620D02*
D03*
X2950Y1750D02*
D03*
X2970Y1715D02*
D03*
X3140Y1780D02*
D03*
X3115Y1660D02*
D03*
X415Y3035D02*
D03*
X1340Y2005D02*
D03*
X1330Y1910D02*
D03*
X1290D02*
D03*
X1245D02*
D03*
X1200D02*
D03*
X987Y1787D02*
D03*
X1013Y1608D02*
D03*
X1570Y1085D02*
D03*
X520Y1655D02*
D03*
X475D02*
D03*
Y1720D02*
D03*
X520D02*
D03*
Y1765D02*
D03*
X475D02*
D03*
X365Y1905D02*
D03*
X122Y1837D02*
D03*
X170Y1735D02*
D03*
X145Y1705D02*
D03*
X165Y1665D02*
D03*
X250Y1650D02*
D03*
X205D02*
D03*
X295D02*
D03*
X335D02*
D03*
X380D02*
D03*
X425Y1655D02*
D03*
X435Y1765D02*
D03*
X145Y985D02*
D03*
X4940Y980D02*
D03*
X4850Y1275D02*
D03*
X5380Y740D02*
D03*
X5575Y375D02*
D03*
X4140Y590D02*
D03*
X4395Y730D02*
D03*
X4140Y785D02*
D03*
X4070Y580D02*
D03*
X3155Y1280D02*
D03*
X3283Y1047D02*
D03*
X3352D02*
D03*
X3155Y1415D02*
D03*
X3145Y1355D02*
D03*
X3180Y1385D02*
D03*
X3160Y1595D02*
D03*
X3110Y1620D02*
D03*
X3357Y1293D02*
D03*
X3280Y1410D02*
D03*
X2550Y3530D02*
D03*
X2750D02*
D03*
X3030D02*
D03*
X3230D02*
D03*
X3430D02*
D03*
X3630D02*
D03*
X3910D02*
D03*
X4110D02*
D03*
X4310D02*
D03*
X4508D02*
D03*
X4788D02*
D03*
X4988D02*
D03*
X5188D02*
D03*
X5388D02*
D03*
X2350D02*
D03*
X3810Y2205D02*
D03*
X1930Y2110D02*
D03*
X3160Y2465D02*
D03*
X3355Y2315D02*
D03*
X2375Y2275D02*
D03*
X2165Y2320D02*
D03*
X425Y3265D02*
D03*
X490Y3330D02*
D03*
X360Y3375D02*
D03*
X455Y3295D02*
D03*
X1055Y3285D02*
D03*
X1095Y3340D02*
D03*
X870Y3285D02*
D03*
X770Y3260D02*
D03*
X670Y3235D02*
D03*
X4030Y825D02*
D03*
X5525Y1350D02*
D03*
X500Y2970D02*
D03*
X645Y2990D02*
D03*
Y3020D02*
D03*
Y2960D02*
D03*
X530Y2995D02*
D03*
X360Y2975D02*
D03*
X240Y2960D02*
D03*
X5300Y1070D02*
D03*
X5540Y1210D02*
D03*
X2735Y1110D02*
D03*
X5940Y1534D02*
D03*
X4030Y140D02*
D03*
X3510D02*
D03*
X3020D02*
D03*
X4250Y1070D02*
D03*
X4490Y1210D02*
D03*
X2650Y330D02*
D03*
X440Y3185D02*
D03*
X2170Y2565D02*
D03*
X2360D02*
D03*
X3150Y2600D02*
D03*
X3340D02*
D03*
X4100D02*
D03*
X4290D02*
D03*
X5240D02*
D03*
X2520Y2720D02*
D03*
X3550Y2755D02*
D03*
X2965Y2705D02*
D03*
X2935Y2755D02*
D03*
X2755Y1585D02*
D03*
X2875D02*
D03*
X5050Y2600D02*
D03*
X3360Y1855D02*
D03*
X2975Y1785D02*
D03*
X4245Y1005D02*
D03*
X4135Y825D02*
D03*
X4085Y2755D02*
D03*
X3140D02*
D03*
X2430Y1210D02*
D03*
X5430Y2705D02*
D03*
X4450Y2655D02*
D03*
X4480Y2705D02*
D03*
X4515Y2730D02*
D03*
X2625Y1215D02*
D03*
X2595Y1480D02*
D03*
X3810Y2705D02*
D03*
X4885D02*
D03*
X5080Y2755D02*
D03*
X5720Y2810D02*
D03*
X3035Y955D02*
D03*
X4880Y2655D02*
D03*
X3815D02*
D03*
X3415Y1670D02*
D03*
X3445Y1640D02*
D03*
X3845Y1185D02*
D03*
X3360Y1615D02*
D03*
X3305D02*
D03*
X5575Y1345D02*
D03*
Y1460D02*
D03*
X3740Y1320D02*
D03*
X5905Y3530D02*
D03*
X645Y2925D02*
D03*
X610Y2955D02*
D03*
X575D02*
D03*
X3135Y1045D02*
D03*
X2325Y1105D02*
D03*
X2205Y2620D02*
D03*
X2385Y1470D02*
D03*
X3895Y980D02*
D03*
X3965Y985D02*
D03*
X4080Y1170D02*
D03*
X4245Y1175D02*
D03*
X4000Y1180D02*
D03*
X5130Y1165D02*
D03*
X5055Y1160D02*
D03*
X2990Y2655D02*
D03*
X3525Y2705D02*
D03*
X5415Y2755D02*
D03*
X5300Y1160D02*
D03*
X2920Y1190D02*
D03*
X3645Y1175D02*
D03*
X2500Y890D02*
D03*
X2265Y1045D02*
D03*
X5715Y2870D02*
D03*
X2350Y3465D02*
D03*
X2550Y3465D02*
D03*
X2750D02*
D03*
X3030D02*
D03*
X3230Y3465D02*
D03*
X3430D02*
D03*
X3630Y3465D02*
D03*
X3910D02*
D03*
X4110D02*
D03*
X4310D02*
D03*
X4510Y3465D02*
D03*
X4790D02*
D03*
X4990D02*
D03*
X5190D02*
D03*
X5390D02*
D03*
X2350Y3700D02*
D03*
X2870Y2205D02*
D03*
X2900Y3400D02*
D03*
X2680Y735D02*
D03*
X2645Y765D02*
D03*
X2765Y955D02*
D03*
X2735Y935D02*
D03*
X2270Y720D02*
D03*
X2320Y715D02*
D03*
X2370D02*
D03*
X3125Y865D02*
D03*
X2510Y700D02*
D03*
X2405Y660D02*
D03*
X2470Y375D02*
D03*
X2770Y705D02*
D03*
X2650Y380D02*
D03*
X3185Y895D02*
D03*
X2920Y425D02*
D03*
X3230Y880D02*
D03*
X3395Y410D02*
D03*
X3282Y860D02*
D03*
X3895Y395D02*
D03*
X2580Y3075D02*
D03*
X2545Y3045D02*
D03*
X2650Y3350D02*
D03*
X2695Y3150D02*
D03*
X2560D02*
D03*
X2450Y3340D02*
D03*
X2645Y3250D02*
D03*
X2710Y3200D02*
D03*
X2835Y3210D02*
D03*
X2870Y3185D02*
D03*
X3125Y3340D02*
D03*
X3330Y3345D02*
D03*
X3295Y3180D02*
D03*
X3323Y3135D02*
D03*
X3525Y3335D02*
D03*
X3720D02*
D03*
X4005Y3340D02*
D03*
X4205D02*
D03*
X4110Y3705D02*
D03*
X2596Y904D02*
D03*
X3000Y930D02*
D03*
X2510Y805D02*
D03*
X4543Y2823D02*
D03*
X4590Y2830D02*
D03*
X4400Y3335D02*
D03*
X4485Y3285D02*
D03*
X4785Y2760D02*
D03*
X4475Y2790D02*
D03*
X4825D02*
D03*
X4880Y3335D02*
D03*
X5080Y3340D02*
D03*
X5285D02*
D03*
X5485D02*
D03*
X5585Y3500D02*
D03*
Y3565D02*
D03*
X3575Y1920D02*
D03*
X4480Y2030D02*
D03*
X3520Y1950D02*
D03*
X3810Y2050D02*
D03*
X3735Y1998D02*
D03*
X3705Y1975D02*
D03*
X5025Y2155D02*
D03*
X4955Y2100D02*
D03*
X4990Y2125D02*
D03*
X4880Y2010D02*
D03*
X4750Y2205D02*
D03*
X2860Y1315D02*
D03*
X3005Y1440D02*
D03*
X2951Y1436D02*
D03*
X2898Y1417D02*
D03*
X2850Y1105D02*
D03*
X2795D02*
D03*
X3615Y1120D02*
D03*
X415Y3135D02*
D03*
X2885Y3075D02*
D03*
X5690Y1020D02*
D03*
X2275Y1130D02*
D03*
X2395Y1320D02*
D03*
X1450Y3135D02*
D03*
X2845Y1200D02*
D03*
X2625Y1130D02*
D03*
X2707Y1413D02*
D03*
X2830Y1415D02*
D03*
X2770D02*
D03*
X2640Y1390D02*
D03*
X2655Y1240D02*
D03*
X5955Y3490D02*
D03*
X3320Y1080D02*
D03*
X3445D02*
D03*
X3385Y1100D02*
D03*
X2710Y795D02*
D03*
X2690Y850D02*
D03*
M02*
