G04 Layer_Color=65535*
%FSLAX23Y23*%
%MOIN*%
G70*
G01*
G75*
%ADD31C,0.010*%
%ADD32C,0.008*%
%ADD76C,0.024*%
%ADD77C,0.010*%
%ADD78C,0.004*%
%ADD79C,0.005*%
%ADD80C,0.008*%
G36*
X1108Y604D02*
X1102D01*
X1089Y591D01*
X1080D01*
Y590D01*
X1076Y586D01*
X1068D01*
X1061Y579D01*
X1042D01*
X1038Y575D01*
X987D01*
X982Y580D01*
X967D01*
X960Y587D01*
X959Y586D01*
X950D01*
X941Y595D01*
X935D01*
X924Y606D01*
X918D01*
X909Y615D01*
Y616D01*
X1120D01*
X1108Y604D01*
D02*
G37*
G36*
X1478D02*
X1472D01*
X1459Y591D01*
X1450D01*
Y590D01*
X1446Y586D01*
X1438D01*
X1431Y579D01*
X1412D01*
X1408Y575D01*
X1357D01*
X1352Y580D01*
X1337D01*
X1330Y587D01*
X1329Y586D01*
X1320D01*
X1311Y595D01*
X1305D01*
X1294Y606D01*
X1288D01*
X1279Y615D01*
Y616D01*
X1490D01*
X1478Y604D01*
D02*
G37*
G36*
X1610Y700D02*
X1560D01*
X1585Y725D01*
X1610Y700D01*
D02*
G37*
D31*
X163Y2830D02*
G03*
X163Y2830I-43J0D01*
G01*
X2328Y1270D02*
G03*
X2328Y1270I-43J0D01*
G01*
X1573Y1825D02*
G03*
X1573Y1825I-43J0D01*
G01*
X718Y1815D02*
G03*
X718Y1815I-43J0D01*
G01*
X1578Y940D02*
G03*
X1578Y940I-43J0D01*
G01*
X2181Y811D02*
G03*
X2181Y811I-12J0D01*
G01*
X4218Y2915D02*
G03*
X4218Y2915I-43J0D01*
G01*
X4503Y1040D02*
G03*
X4503Y1040I-43J0D01*
G01*
X2433Y1680D02*
G03*
X2433Y1680I-43J0D01*
G01*
X2328Y1480D02*
G03*
X2328Y1480I-43J0D01*
G01*
X1594Y1459D02*
G03*
X1594Y1440I-1J-9D01*
G01*
X1594Y1479D02*
G03*
X1594Y1459I-2J-9D01*
G01*
X1595Y1518D02*
G03*
X1595Y1498I-3J-9D01*
G01*
X1595D02*
G03*
X1595Y1480I-2J-9D01*
G01*
X299Y1529D02*
G03*
X299Y1510I-1J-9D01*
G01*
X299Y1548D02*
G03*
X299Y1530I-2J-9D01*
G01*
X300Y1587D02*
G03*
X300Y1569I-3J-9D01*
G01*
X300D02*
G03*
X300Y1549I-2J-9D01*
G01*
X3278Y2930D02*
G03*
X3278Y2930I-43J0D01*
G01*
X3693Y1350D02*
G03*
X3693Y1350I-43J0D01*
G01*
X3735Y105D02*
X3751D01*
X3735D02*
Y376D01*
X4121D01*
Y105D02*
Y376D01*
X3751Y105D02*
X4121D01*
X3836Y250D02*
X3902D01*
X3936Y284D01*
X3938Y249D02*
X4024D01*
X3235Y105D02*
X3251D01*
X3235D02*
Y376D01*
X3621D01*
Y105D02*
Y376D01*
X3251Y105D02*
X3621D01*
X3336Y250D02*
X3402D01*
X3436Y284D01*
X3438Y249D02*
X3524D01*
X2735Y105D02*
X2751D01*
X2735D02*
Y376D01*
X3121D01*
Y105D02*
Y376D01*
X2751Y105D02*
X3121D01*
X2836Y250D02*
X2902D01*
X2936Y284D01*
X2938Y249D02*
X3024D01*
X5980Y1180D02*
Y1196D01*
X5709Y1180D02*
X5980D01*
X5709D02*
Y1566D01*
X5980D01*
Y1196D02*
Y1566D01*
X5835Y1281D02*
Y1347D01*
X5801Y1381D02*
X5835Y1347D01*
X5836Y1383D02*
Y1469D01*
X5990Y1019D02*
X6295D01*
X5990Y919D02*
X6295D01*
X5990Y719D02*
X6295D01*
X5990Y819D02*
X6295D01*
X5990Y519D02*
X6295D01*
X5990Y619D02*
X6295D01*
X1349Y1234D02*
X1841D01*
Y1726D01*
X1349D02*
X1841D01*
X1349Y1234D02*
Y1726D01*
X1595Y1518D02*
Y1541D01*
Y1422D02*
Y1440D01*
X54Y1304D02*
X546D01*
Y1796D01*
X54D02*
X546D01*
X54Y1304D02*
Y1796D01*
X300Y1587D02*
Y1611D01*
Y1492D02*
Y1510D01*
X4301Y30D02*
Y671D01*
Y30D02*
X4781D01*
Y671D01*
X4301D02*
X4781D01*
X4679Y110D02*
X4704Y309D01*
X4629Y110D02*
X4679D01*
X4604Y310D02*
X4629Y110D01*
X4384Y310D02*
X4409Y110D01*
X4459D01*
X4484Y309D01*
X4961Y30D02*
Y671D01*
Y30D02*
X5441D01*
Y671D01*
X4961D02*
X5441D01*
X5339Y110D02*
X5364Y309D01*
X5289Y110D02*
X5339D01*
X5264Y310D02*
X5289Y110D01*
X5044Y310D02*
X5069Y110D01*
X5119D01*
X5144Y309D01*
X503Y462D02*
X2019D01*
Y28D02*
Y462D01*
X503Y28D02*
X2019D01*
X503D02*
Y462D01*
X5565Y2550D02*
X5935D01*
X5570Y2620D02*
X5930D01*
X5570Y2690D02*
X5930D01*
X5570Y2760D02*
X5930D01*
X5570Y2830D02*
X5930D01*
X5570Y2900D02*
X5930D01*
X5570Y2970D02*
X5930D01*
X5570Y3040D02*
X5935D01*
X5565Y3110D02*
X5935D01*
X5565Y2550D02*
Y3110D01*
X5745Y2555D02*
Y3110D01*
X5935Y2550D02*
Y3110D01*
X2144Y515D02*
Y795D01*
X1865Y515D02*
Y795D01*
X2144D01*
X1870Y725D02*
X2140D01*
X1870Y655D02*
X2140D01*
X1870Y585D02*
X2140D01*
X1865Y515D02*
X2144D01*
X2005D02*
Y790D01*
X3380Y1820D02*
Y1930D01*
X3385D02*
X3445D01*
X3380Y1820D02*
X3440D01*
X3380Y1805D02*
X3440D01*
X3380Y1695D02*
Y1805D01*
Y1695D02*
X3440D01*
X665Y3100D02*
Y3230D01*
Y3100D02*
X1925D01*
X1090D02*
Y3230D01*
X670Y3165D02*
X1920D01*
X845Y3100D02*
Y3230D01*
X1270Y3100D02*
Y3230D01*
X1450Y3100D02*
Y3230D01*
X1745Y3100D02*
Y3230D01*
X665D02*
X1925D01*
Y3100D02*
Y3230D01*
X4895Y695D02*
Y755D01*
X4915Y735D01*
X4935Y755D01*
Y695D01*
X4955D02*
Y735D01*
X4975Y755D01*
X4995Y735D01*
Y695D01*
Y725D01*
X4955D01*
X5015Y755D02*
X5055D01*
X5035D01*
Y695D01*
X5075Y755D02*
Y695D01*
X5115D01*
X5135D02*
Y735D01*
X5155Y755D01*
X5175Y735D01*
Y695D01*
Y725D01*
X5135D01*
X5195Y755D02*
Y695D01*
X5225D01*
X5235Y705D01*
Y715D01*
X5225Y725D01*
X5195D01*
X5225D01*
X5235Y735D01*
Y745D01*
X5225Y755D01*
X5195D01*
X4450Y760D02*
Y700D01*
X4480D01*
X4490Y710D01*
Y750D01*
X4480Y760D01*
X4450D01*
X4550D02*
X4510D01*
Y700D01*
X4550D01*
X4510Y730D02*
X4530D01*
X4570Y760D02*
Y700D01*
X4600D01*
X4610Y710D01*
Y720D01*
X4600Y730D01*
X4570D01*
X4600D01*
X4610Y740D01*
Y750D01*
X4600Y760D01*
X4570D01*
X4630D02*
Y710D01*
X4640Y700D01*
X4660D01*
X4670Y710D01*
Y760D01*
X4730Y750D02*
X4720Y760D01*
X4700D01*
X4690Y750D01*
Y710D01*
X4700Y700D01*
X4720D01*
X4730Y710D01*
Y730D01*
X4710D01*
X5950Y1094D02*
Y1114D01*
Y1104D01*
X5890D01*
X5900Y1094D01*
X4432Y968D02*
X4425Y975D01*
X4412D01*
X4405Y968D01*
Y942D01*
X4412Y935D01*
X4425D01*
X4432Y942D01*
Y955D01*
X4418D01*
X4445Y935D02*
Y975D01*
X4472Y935D01*
Y975D01*
X4485D02*
Y935D01*
X4505D01*
X4512Y942D01*
Y968D01*
X4505Y975D01*
X4485D01*
X3400Y1730D02*
Y1765D01*
X3417D01*
X3423Y1759D01*
Y1747D01*
X3417Y1742D01*
X3400D01*
X3435Y1730D02*
Y1765D01*
X3452D01*
X3458Y1759D01*
Y1747D01*
X3452Y1742D01*
X3435D01*
X3447D02*
X3458Y1730D01*
X3487Y1765D02*
X3476D01*
X3470Y1759D01*
Y1736D01*
X3476Y1730D01*
X3487D01*
X3493Y1736D01*
Y1759D01*
X3487Y1765D01*
X3528Y1759D02*
X3522Y1765D01*
X3511D01*
X3505Y1759D01*
Y1736D01*
X3511Y1730D01*
X3522D01*
X3528Y1736D01*
Y1747D01*
X3517D01*
X3400Y1855D02*
Y1878D01*
X3412Y1890D01*
X3423Y1878D01*
Y1855D01*
Y1872D01*
X3400D01*
X3435Y1890D02*
Y1855D01*
X3452D01*
X3458Y1861D01*
Y1884D01*
X3452Y1890D01*
X3435D01*
X3493Y1884D02*
X3487Y1890D01*
X3476D01*
X3470Y1884D01*
Y1861D01*
X3476Y1855D01*
X3487D01*
X3493Y1861D01*
D32*
X1565Y720D02*
X1605D01*
X1585D02*
Y735D01*
Y685D02*
Y700D01*
X4748Y3130D02*
Y3170D01*
X4768D01*
X4775Y3164D01*
Y3150D01*
X4768Y3144D01*
X4748D01*
X4808Y3170D02*
X4795D01*
X4788Y3164D01*
Y3137D01*
X4795Y3130D01*
X4808D01*
X4815Y3137D01*
Y3164D01*
X4808Y3170D01*
X4828D02*
X4855D01*
X4841D01*
Y3130D01*
X4908D02*
Y3157D01*
X4921Y3170D01*
X4935Y3157D01*
Y3130D01*
Y3150D01*
X4908D01*
X4948Y3170D02*
Y3130D01*
X4968D01*
X4975Y3137D01*
Y3144D01*
X4968Y3150D01*
X4948D01*
X4968D01*
X4975Y3157D01*
Y3164D01*
X4968Y3170D01*
X4948D01*
X4775Y3063D02*
X4788D01*
X4781D01*
Y3103D01*
X4775Y3096D01*
X4835Y3063D02*
X4808D01*
X4835Y3090D01*
Y3096D01*
X4828Y3103D01*
X4815D01*
X4808Y3096D01*
X4848Y3083D02*
X4875D01*
X4888Y3063D02*
X4901D01*
X4895D01*
Y3103D01*
X4888Y3096D01*
X4948Y3103D02*
X4921D01*
Y3083D01*
X4935Y3090D01*
X4941D01*
X4948Y3083D01*
Y3070D01*
X4941Y3063D01*
X4928D01*
X4921Y3070D01*
X3908Y3130D02*
Y3170D01*
X3928D01*
X3935Y3164D01*
Y3150D01*
X3928Y3144D01*
X3908D01*
X3968Y3170D02*
X3955D01*
X3948Y3164D01*
Y3137D01*
X3955Y3130D01*
X3968D01*
X3975Y3137D01*
Y3164D01*
X3968Y3170D01*
X3988D02*
X4015D01*
X4001D01*
Y3130D01*
X4068D02*
Y3157D01*
X4081Y3170D01*
X4095Y3157D01*
Y3130D01*
Y3150D01*
X4068D01*
X4108Y3170D02*
Y3130D01*
X4128D01*
X4135Y3137D01*
Y3144D01*
X4128Y3150D01*
X4108D01*
X4128D01*
X4135Y3157D01*
Y3164D01*
X4128Y3170D01*
X4108D01*
X3958Y3096D02*
X3965Y3103D01*
X3978D01*
X3985Y3096D01*
Y3090D01*
X3978Y3083D01*
X3985Y3076D01*
Y3070D01*
X3978Y3063D01*
X3965D01*
X3958Y3070D01*
Y3076D01*
X3965Y3083D01*
X3958Y3090D01*
Y3096D01*
X3965Y3083D02*
X3978D01*
X3998D02*
X4025D01*
X4038Y3063D02*
X4051D01*
X4045D01*
Y3103D01*
X4038Y3096D01*
X4071Y3063D02*
X4085D01*
X4078D01*
Y3103D01*
X4071Y3096D01*
X3028Y3130D02*
Y3170D01*
X3048D01*
X3055Y3164D01*
Y3150D01*
X3048Y3144D01*
X3028D01*
X3088Y3170D02*
X3075D01*
X3068Y3164D01*
Y3137D01*
X3075Y3130D01*
X3088D01*
X3095Y3137D01*
Y3164D01*
X3088Y3170D01*
X3108D02*
X3135D01*
X3121D01*
Y3130D01*
X3188D02*
Y3157D01*
X3201Y3170D01*
X3215Y3157D01*
Y3130D01*
Y3150D01*
X3188D01*
X3228Y3170D02*
Y3130D01*
X3248D01*
X3255Y3137D01*
Y3144D01*
X3248Y3150D01*
X3228D01*
X3248D01*
X3255Y3157D01*
Y3164D01*
X3248Y3170D01*
X3228D01*
X3108Y3063D02*
Y3103D01*
X3088Y3083D01*
X3115D01*
X3128D02*
X3155D01*
X3168Y3103D02*
X3195D01*
Y3096D01*
X3168Y3070D01*
Y3063D01*
X2368Y3130D02*
Y3170D01*
X2388D01*
X2395Y3164D01*
Y3150D01*
X2388Y3144D01*
X2368D01*
X2428Y3170D02*
X2415D01*
X2408Y3164D01*
Y3137D01*
X2415Y3130D01*
X2428D01*
X2435Y3137D01*
Y3164D01*
X2428Y3170D01*
X2448D02*
X2475D01*
X2461D01*
Y3130D01*
X2528D02*
Y3157D01*
X2541Y3170D01*
X2555Y3157D01*
Y3130D01*
Y3150D01*
X2528D01*
X2568Y3170D02*
Y3130D01*
X2588D01*
X2595Y3137D01*
Y3144D01*
X2588Y3150D01*
X2568D01*
X2588D01*
X2595Y3157D01*
Y3164D01*
X2588Y3170D01*
X2568D01*
X2428Y3096D02*
X2435Y3103D01*
X2448D01*
X2455Y3096D01*
Y3070D01*
X2448Y3063D01*
X2435D01*
X2428Y3070D01*
Y3096D01*
X2468Y3083D02*
X2495D01*
X2508Y3096D02*
X2515Y3103D01*
X2528D01*
X2535Y3096D01*
Y3090D01*
X2528Y3083D01*
X2521D01*
X2528D01*
X2535Y3076D01*
Y3070D01*
X2528Y3063D01*
X2515D01*
X2508Y3070D01*
X803Y2942D02*
X830D01*
X816D01*
Y2902D01*
X870Y2942D02*
X843D01*
Y2902D01*
X870D01*
X843Y2922D02*
X856D01*
X910Y2936D02*
X903Y2942D01*
X890D01*
X883Y2936D01*
Y2929D01*
X890Y2922D01*
X903D01*
X910Y2916D01*
Y2909D01*
X903Y2902D01*
X890D01*
X883Y2909D01*
X923Y2942D02*
X950D01*
X936D01*
Y2902D01*
X963Y2942D02*
Y2902D01*
X983D01*
X990Y2909D01*
Y2916D01*
X983Y2922D01*
X963D01*
X983D01*
X990Y2929D01*
Y2936D01*
X983Y2942D01*
X963D01*
X1030D02*
X1003D01*
Y2902D01*
X1030D01*
X1003Y2922D02*
X1016D01*
X1043Y2902D02*
Y2942D01*
X1070Y2902D01*
Y2942D01*
X1110Y2936D02*
X1103Y2942D01*
X1090D01*
X1083Y2936D01*
Y2909D01*
X1090Y2902D01*
X1103D01*
X1110Y2909D01*
X1123Y2942D02*
Y2902D01*
Y2922D01*
X1150D01*
Y2942D01*
Y2902D01*
X1230Y2936D02*
X1223Y2942D01*
X1210D01*
X1203Y2936D01*
Y2929D01*
X1210Y2922D01*
X1223D01*
X1230Y2916D01*
Y2909D01*
X1223Y2902D01*
X1210D01*
X1203Y2909D01*
X1263Y2942D02*
X1250D01*
X1243Y2936D01*
Y2909D01*
X1250Y2902D01*
X1263D01*
X1270Y2909D01*
Y2936D01*
X1263Y2942D01*
X1283D02*
Y2902D01*
X1310D01*
X1323D02*
Y2929D01*
X1336Y2942D01*
X1349Y2929D01*
Y2902D01*
Y2922D01*
X1323D01*
X1363Y2902D02*
Y2942D01*
X1383D01*
X1389Y2936D01*
Y2922D01*
X1383Y2916D01*
X1363D01*
X1376D02*
X1389Y2902D01*
X1469Y2936D02*
X1463Y2942D01*
X1449D01*
X1443Y2936D01*
Y2909D01*
X1449Y2902D01*
X1463D01*
X1469Y2909D01*
X1509Y2942D02*
X1483D01*
Y2902D01*
X1509D01*
X1483Y2922D02*
X1496D01*
X1523Y2942D02*
Y2902D01*
X1549D01*
X1563Y2942D02*
Y2902D01*
X1589D01*
X1629Y2936D02*
X1623Y2942D01*
X1609D01*
X1603Y2936D01*
Y2929D01*
X1609Y2922D01*
X1623D01*
X1629Y2916D01*
Y2909D01*
X1623Y2902D01*
X1609D01*
X1603Y2909D01*
X1683Y2942D02*
Y2916D01*
X1696Y2902D01*
X1709Y2916D01*
Y2942D01*
X1723Y2902D02*
X1736D01*
X1729D01*
Y2942D01*
X1723Y2936D01*
X1756Y2902D02*
Y2909D01*
X1763D01*
Y2902D01*
X1756D01*
X1789D02*
X1803D01*
X1796D01*
Y2942D01*
X1789Y2936D01*
X830Y2875D02*
X803D01*
Y2855D01*
X816D01*
X803D01*
Y2835D01*
X843D02*
Y2875D01*
X863D01*
X870Y2869D01*
Y2855D01*
X863Y2849D01*
X843D01*
X856D02*
X870Y2835D01*
X910Y2875D02*
X883D01*
Y2835D01*
X910D01*
X883Y2855D02*
X896D01*
X923Y2875D02*
Y2835D01*
X943D01*
X950Y2842D01*
Y2869D01*
X943Y2875D01*
X923D01*
X990D02*
X963D01*
Y2835D01*
X990D01*
X963Y2855D02*
X976D01*
X1003Y2835D02*
Y2875D01*
X1023D01*
X1030Y2869D01*
Y2855D01*
X1023Y2849D01*
X1003D01*
X1016D02*
X1030Y2835D01*
X1043Y2875D02*
X1056D01*
X1050D01*
Y2835D01*
X1043D01*
X1056D01*
X1103Y2869D02*
X1096Y2875D01*
X1083D01*
X1076Y2869D01*
Y2842D01*
X1083Y2835D01*
X1096D01*
X1103Y2842D01*
X1183Y2869D02*
X1176Y2875D01*
X1163D01*
X1156Y2869D01*
Y2842D01*
X1163Y2835D01*
X1176D01*
X1183Y2842D01*
X1196Y2875D02*
Y2835D01*
Y2855D01*
X1223D01*
Y2875D01*
Y2835D01*
X1236D02*
Y2862D01*
X1250Y2875D01*
X1263Y2862D01*
Y2835D01*
Y2855D01*
X1236D01*
X1303Y2869D02*
X1296Y2875D01*
X1283D01*
X1276Y2869D01*
Y2862D01*
X1283Y2855D01*
X1296D01*
X1303Y2849D01*
Y2842D01*
X1296Y2835D01*
X1283D01*
X1276Y2842D01*
X1343Y2869D02*
X1336Y2875D01*
X1323D01*
X1316Y2869D01*
Y2862D01*
X1323Y2855D01*
X1336D01*
X1343Y2849D01*
Y2842D01*
X1336Y2835D01*
X1323D01*
X1316Y2842D01*
X1383Y2875D02*
X1356D01*
Y2835D01*
X1383D01*
X1356Y2855D02*
X1369D01*
X803Y2808D02*
Y2768D01*
X816Y2781D01*
X830Y2768D01*
Y2808D01*
X843D02*
X856D01*
X850D01*
Y2768D01*
X843D01*
X856D01*
X876D02*
Y2808D01*
X903Y2768D01*
Y2808D01*
X916D02*
X943D01*
X930D01*
Y2768D01*
X983Y2808D02*
X956D01*
Y2768D01*
X983D01*
X956Y2788D02*
X970D01*
X996Y2768D02*
Y2808D01*
X1016D01*
X1023Y2801D01*
Y2788D01*
X1016Y2781D01*
X996D01*
X1010D02*
X1023Y2768D01*
X1103D02*
X1076D01*
X1103Y2795D01*
Y2801D01*
X1096Y2808D01*
X1083D01*
X1076Y2801D01*
X1116D02*
X1123Y2808D01*
X1136D01*
X1143Y2801D01*
Y2775D01*
X1136Y2768D01*
X1123D01*
X1116Y2775D01*
Y2801D01*
X1156Y2768D02*
X1170D01*
X1163D01*
Y2808D01*
X1156Y2801D01*
X1216Y2808D02*
X1203Y2801D01*
X1190Y2788D01*
Y2775D01*
X1196Y2768D01*
X1210D01*
X1216Y2775D01*
Y2781D01*
X1210Y2788D01*
X1190D01*
X2040Y530D02*
Y570D01*
X2067Y530D01*
Y570D01*
X2107Y563D02*
X2100Y570D01*
X2087D01*
X2080Y563D01*
Y537D01*
X2087Y530D01*
X2100D01*
X2107Y537D01*
X1907Y570D02*
X1880D01*
Y550D01*
X1893Y557D01*
X1900D01*
X1907Y550D01*
Y537D01*
X1900Y530D01*
X1887D01*
X1880Y537D01*
X1920Y570D02*
Y543D01*
X1933Y530D01*
X1947Y543D01*
Y570D01*
X1960Y563D02*
X1967Y570D01*
X1980D01*
X1987Y563D01*
Y537D01*
X1980Y530D01*
X1967D01*
X1960Y537D01*
Y563D01*
X5770Y2605D02*
Y2572D01*
X5777Y2565D01*
X5790D01*
X5797Y2572D01*
Y2605D01*
X5810Y2565D02*
X5823D01*
X5817D01*
Y2605D01*
X5810Y2598D01*
X5843Y2565D02*
Y2605D01*
X5863D01*
X5870Y2598D01*
Y2585D01*
X5863Y2578D01*
X5843D01*
X5857D02*
X5870Y2565D01*
X5883Y2605D02*
X5910Y2565D01*
Y2605D02*
X5883Y2565D01*
X5770Y2675D02*
Y2642D01*
X5777Y2635D01*
X5790D01*
X5797Y2642D01*
Y2675D01*
X5810Y2635D02*
X5823D01*
X5817D01*
Y2675D01*
X5810Y2668D01*
X5843Y2675D02*
X5870D01*
X5857D01*
Y2635D01*
X5883Y2675D02*
X5910Y2635D01*
Y2675D02*
X5883Y2635D01*
X5770Y2745D02*
Y2712D01*
X5777Y2705D01*
X5790D01*
X5797Y2712D01*
Y2745D01*
X5837Y2705D02*
X5810D01*
X5837Y2732D01*
Y2738D01*
X5830Y2745D01*
X5817D01*
X5810Y2738D01*
X5850Y2705D02*
Y2745D01*
X5870D01*
X5877Y2738D01*
Y2725D01*
X5870Y2718D01*
X5850D01*
X5863D02*
X5877Y2705D01*
X5890Y2745D02*
X5917Y2705D01*
Y2745D02*
X5890Y2705D01*
X5770Y2815D02*
Y2782D01*
X5777Y2775D01*
X5790D01*
X5797Y2782D01*
Y2815D01*
X5837Y2775D02*
X5810D01*
X5837Y2802D01*
Y2808D01*
X5830Y2815D01*
X5817D01*
X5810Y2808D01*
X5850Y2815D02*
X5877D01*
X5863D01*
Y2775D01*
X5890Y2815D02*
X5917Y2775D01*
Y2815D02*
X5890Y2775D01*
X5797Y2878D02*
X5790Y2885D01*
X5777D01*
X5770Y2878D01*
Y2872D01*
X5777Y2865D01*
X5790D01*
X5797Y2858D01*
Y2852D01*
X5790Y2845D01*
X5777D01*
X5770Y2852D01*
X5810Y2885D02*
Y2845D01*
X5830D01*
X5837Y2852D01*
Y2878D01*
X5830Y2885D01*
X5810D01*
X5850Y2845D02*
Y2872D01*
X5863Y2885D01*
X5877Y2872D01*
Y2845D01*
Y2865D01*
X5850D01*
X5797Y2948D02*
X5790Y2955D01*
X5777D01*
X5770Y2948D01*
Y2942D01*
X5777Y2935D01*
X5790D01*
X5797Y2928D01*
Y2922D01*
X5790Y2915D01*
X5777D01*
X5770Y2922D01*
X5837Y2948D02*
X5830Y2955D01*
X5817D01*
X5810Y2948D01*
Y2922D01*
X5817Y2915D01*
X5830D01*
X5837Y2922D01*
X5850Y2955D02*
Y2915D01*
X5877D01*
X5770Y3018D02*
X5777Y3025D01*
X5790D01*
X5797Y3018D01*
Y3012D01*
X5790Y3005D01*
X5783D01*
X5790D01*
X5797Y2998D01*
Y2992D01*
X5790Y2985D01*
X5777D01*
X5770Y2992D01*
X5810Y3025D02*
Y2998D01*
X5823Y2985D01*
X5837Y2998D01*
Y3025D01*
X5850Y3018D02*
X5857Y3025D01*
X5870D01*
X5877Y3018D01*
Y3012D01*
X5870Y3005D01*
X5863D01*
X5870D01*
X5877Y2998D01*
Y2992D01*
X5870Y2985D01*
X5857D01*
X5850Y2992D01*
X5797Y3088D02*
X5790Y3095D01*
X5777D01*
X5770Y3088D01*
Y3062D01*
X5777Y3055D01*
X5790D01*
X5797Y3062D01*
Y3075D01*
X5783D01*
X5810Y3055D02*
Y3095D01*
X5837Y3055D01*
Y3095D01*
X5850D02*
Y3055D01*
X5870D01*
X5877Y3062D01*
Y3088D01*
X5870Y3095D01*
X5850D01*
X5617Y3088D02*
X5610Y3095D01*
X5597D01*
X5590Y3088D01*
Y3062D01*
X5597Y3055D01*
X5610D01*
X5617Y3062D01*
Y3075D01*
X5603D01*
X5630Y3055D02*
Y3095D01*
X5657Y3055D01*
Y3095D01*
X5670D02*
Y3055D01*
X5690D01*
X5697Y3062D01*
Y3088D01*
X5690Y3095D01*
X5670D01*
X5617Y3018D02*
X5610Y3025D01*
X5597D01*
X5590Y3018D01*
Y2992D01*
X5597Y2985D01*
X5610D01*
X5617Y2992D01*
X5657Y3018D02*
X5650Y3025D01*
X5637D01*
X5630Y3018D01*
Y3012D01*
X5637Y3005D01*
X5650D01*
X5657Y2998D01*
Y2992D01*
X5650Y2985D01*
X5637D01*
X5630Y2992D01*
X5670Y3018D02*
X5677Y3025D01*
X5690D01*
X5697Y3018D01*
Y3012D01*
X5690Y3005D01*
X5683D01*
X5690D01*
X5697Y2998D01*
Y2992D01*
X5690Y2985D01*
X5677D01*
X5670Y2992D01*
X5617Y2948D02*
X5610Y2955D01*
X5597D01*
X5590Y2948D01*
Y2922D01*
X5597Y2915D01*
X5610D01*
X5617Y2922D01*
X5657Y2948D02*
X5650Y2955D01*
X5637D01*
X5630Y2948D01*
Y2942D01*
X5637Y2935D01*
X5650D01*
X5657Y2928D01*
Y2922D01*
X5650Y2915D01*
X5637D01*
X5630Y2922D01*
X5697Y2915D02*
X5670D01*
X5697Y2942D01*
Y2948D01*
X5690Y2955D01*
X5677D01*
X5670Y2948D01*
X5617Y2878D02*
X5610Y2885D01*
X5597D01*
X5590Y2878D01*
Y2852D01*
X5597Y2845D01*
X5610D01*
X5617Y2852D01*
X5657Y2878D02*
X5650Y2885D01*
X5637D01*
X5630Y2878D01*
Y2872D01*
X5637Y2865D01*
X5650D01*
X5657Y2858D01*
Y2852D01*
X5650Y2845D01*
X5637D01*
X5630Y2852D01*
X5670Y2845D02*
X5683D01*
X5677D01*
Y2885D01*
X5670Y2878D01*
X5617Y2808D02*
X5610Y2815D01*
X5597D01*
X5590Y2808D01*
Y2782D01*
X5597Y2775D01*
X5610D01*
X5617Y2782D01*
X5657Y2808D02*
X5650Y2815D01*
X5637D01*
X5630Y2808D01*
Y2802D01*
X5637Y2795D01*
X5650D01*
X5657Y2788D01*
Y2782D01*
X5650Y2775D01*
X5637D01*
X5630Y2782D01*
X5670Y2808D02*
X5677Y2815D01*
X5690D01*
X5697Y2808D01*
Y2782D01*
X5690Y2775D01*
X5677D01*
X5670Y2782D01*
Y2808D01*
X5607Y2738D02*
X5600Y2745D01*
X5587D01*
X5580Y2738D01*
Y2732D01*
X5587Y2725D01*
X5600D01*
X5607Y2718D01*
Y2712D01*
X5600Y2705D01*
X5587D01*
X5580Y2712D01*
X5647Y2738D02*
X5640Y2745D01*
X5627D01*
X5620Y2738D01*
Y2712D01*
X5627Y2705D01*
X5640D01*
X5647Y2712D01*
X5660Y2745D02*
Y2705D01*
X5687D01*
X5700Y2745D02*
Y2705D01*
Y2718D01*
X5727Y2745D01*
X5707Y2725D01*
X5727Y2705D01*
X5612Y2668D02*
X5605Y2675D01*
X5592D01*
X5585Y2668D01*
Y2662D01*
X5592Y2655D01*
X5605D01*
X5612Y2648D01*
Y2642D01*
X5605Y2635D01*
X5592D01*
X5585Y2642D01*
X5625Y2675D02*
Y2635D01*
X5645D01*
X5652Y2642D01*
Y2668D01*
X5645Y2675D01*
X5625D01*
X5685D02*
X5672D01*
X5665Y2668D01*
Y2642D01*
X5672Y2635D01*
X5685D01*
X5692Y2642D01*
Y2668D01*
X5685Y2675D01*
X5612Y2598D02*
X5605Y2605D01*
X5592D01*
X5585Y2598D01*
Y2592D01*
X5592Y2585D01*
X5605D01*
X5612Y2578D01*
Y2572D01*
X5605Y2565D01*
X5592D01*
X5585Y2572D01*
X5625Y2605D02*
Y2565D01*
X5645D01*
X5652Y2572D01*
Y2598D01*
X5645Y2605D01*
X5625D01*
X5665D02*
X5678D01*
X5672D01*
Y2565D01*
X5665D01*
X5678D01*
X2047Y773D02*
X2040Y780D01*
X2027D01*
X2020Y773D01*
Y747D01*
X2027Y740D01*
X2040D01*
X2047Y747D01*
Y760D01*
X2033D01*
X2060Y740D02*
Y780D01*
X2087Y740D01*
Y780D01*
X2100D02*
Y740D01*
X2120D01*
X2127Y747D01*
Y773D01*
X2120Y780D01*
X2100D01*
X1907Y703D02*
X1900Y710D01*
X1887D01*
X1880Y703D01*
Y677D01*
X1887Y670D01*
X1900D01*
X1907Y677D01*
Y690D01*
X1893D01*
X1920Y670D02*
Y710D01*
X1940D01*
X1947Y703D01*
Y690D01*
X1940Y683D01*
X1920D01*
X1960Y703D02*
X1967Y710D01*
X1980D01*
X1987Y703D01*
Y677D01*
X1980Y670D01*
X1967D01*
X1960Y677D01*
Y703D01*
X1880Y773D02*
X1887Y780D01*
X1900D01*
X1907Y773D01*
Y767D01*
X1900Y760D01*
X1893D01*
X1900D01*
X1907Y753D01*
Y747D01*
X1900Y740D01*
X1887D01*
X1880Y747D01*
X1920Y780D02*
Y753D01*
X1933Y740D01*
X1947Y753D01*
Y780D01*
X1960Y773D02*
X1967Y780D01*
X1980D01*
X1987Y773D01*
Y767D01*
X1980Y760D01*
X1973D01*
X1980D01*
X1987Y753D01*
Y747D01*
X1980Y740D01*
X1967D01*
X1960Y747D01*
X1922Y633D02*
X1915Y640D01*
X1902D01*
X1895Y633D01*
Y607D01*
X1902Y600D01*
X1915D01*
X1922Y607D01*
Y620D01*
X1908D01*
X1935Y600D02*
Y640D01*
X1955D01*
X1962Y633D01*
Y620D01*
X1955Y613D01*
X1935D01*
X1975Y600D02*
X1988D01*
X1982D01*
Y640D01*
X1975Y633D01*
X2047D02*
X2040Y640D01*
X2027D01*
X2020Y633D01*
Y607D01*
X2027Y600D01*
X2040D01*
X2047Y607D01*
Y620D01*
X2033D01*
X2060Y600D02*
Y640D01*
X2080D01*
X2087Y633D01*
Y620D01*
X2080Y613D01*
X2060D01*
X2127Y600D02*
X2100D01*
X2127Y627D01*
Y633D01*
X2120Y640D01*
X2107D01*
X2100Y633D01*
X2047Y703D02*
X2040Y710D01*
X2027D01*
X2020Y703D01*
Y677D01*
X2027Y670D01*
X2040D01*
X2047Y677D01*
Y690D01*
X2033D01*
X2060Y670D02*
Y710D01*
X2080D01*
X2087Y703D01*
Y690D01*
X2080Y683D01*
X2060D01*
X2100Y703D02*
X2107Y710D01*
X2120D01*
X2127Y703D01*
Y697D01*
X2120Y690D01*
X2113D01*
X2120D01*
X2127Y683D01*
Y677D01*
X2120Y670D01*
X2107D01*
X2100Y677D01*
D76*
X5123Y1000D02*
G03*
X5123Y1000I-12J0D01*
G01*
X4073D02*
G03*
X4073Y1000I-12J0D01*
G01*
X2376Y2177D02*
G03*
X2376Y2177I-12J0D01*
G01*
X3356Y2212D02*
G03*
X3356Y2212I-12J0D01*
G01*
X4306D02*
G03*
X4306Y2212I-12J0D01*
G01*
X5256D02*
G03*
X5256Y2212I-12J0D01*
G01*
X2911Y1136D02*
G03*
X2911Y1136I-12J0D01*
G01*
X520Y3017D02*
G03*
X520Y3017I-12J0D01*
G01*
D77*
X5059Y902D02*
G03*
X5059Y902I-5J0D01*
G01*
X4009D02*
G03*
X4009Y902I-5J0D01*
G01*
X2462Y2137D02*
G03*
X2462Y2137I-5J0D01*
G01*
X3442Y2172D02*
G03*
X3442Y2172I-5J0D01*
G01*
X4392D02*
G03*
X4392Y2172I-5J0D01*
G01*
X5342D02*
G03*
X5342Y2172I-5J0D01*
G01*
X3000Y1085D02*
G03*
X3000Y1085I-5J0D01*
G01*
X596Y2973D02*
G03*
X596Y2973I-5J0D01*
G01*
X1253Y1397D02*
G03*
X1253Y1397I-5J0D01*
G01*
X358Y1168D02*
G03*
X358Y1168I-5J0D01*
G01*
X3450Y1401D02*
G03*
X3450Y1401I-5J0D01*
G01*
D78*
X1046Y715D02*
G03*
X983Y713I-29J-62D01*
G01*
X1416Y715D02*
G03*
X1353Y713I-29J-62D01*
G01*
X1173Y1742D02*
G03*
X1173Y1742I-2J0D01*
G01*
X726Y1708D02*
G03*
X726Y1708I-2J0D01*
G01*
D79*
X1172Y732D02*
G03*
X1172Y732I-157J0D01*
G01*
X1542D02*
G03*
X1542Y732I-157J0D01*
G01*
X224Y1001D02*
X236D01*
X224Y969D02*
X236D01*
X224Y1044D02*
X236D01*
X224Y1076D02*
X236D01*
X251Y1864D02*
Y1876D01*
X219Y1864D02*
Y1876D01*
X143Y1817D02*
Y1852D01*
X197Y1817D02*
Y1852D01*
X5457Y3449D02*
X5469D01*
X5457Y3481D02*
X5469D01*
X5257Y3449D02*
X5269D01*
X5257Y3481D02*
X5269D01*
X5057Y3449D02*
X5069D01*
X5057Y3481D02*
X5069D01*
X4857Y3449D02*
X4869D01*
X4857Y3481D02*
X4869D01*
X4577Y3449D02*
X4589D01*
X4577Y3481D02*
X4589D01*
X4379Y3449D02*
X4391D01*
X4379Y3481D02*
X4391D01*
X4179Y3449D02*
X4191D01*
X4179Y3481D02*
X4191D01*
X3979Y3449D02*
X3991D01*
X3979Y3481D02*
X3991D01*
X3699Y3449D02*
X3711D01*
X3699Y3481D02*
X3711D01*
X3499Y3449D02*
X3511D01*
X3499Y3481D02*
X3511D01*
X3299Y3449D02*
X3311D01*
X3299Y3481D02*
X3311D01*
X3099Y3449D02*
X3111D01*
X3099Y3481D02*
X3111D01*
X2819Y3449D02*
X2831D01*
X2819Y3481D02*
X2831D01*
X2619Y3449D02*
X2631D01*
X2619Y3481D02*
X2631D01*
X2419Y3449D02*
X2431D01*
X2419Y3481D02*
X2431D01*
X5457Y3616D02*
X5469D01*
X5457Y3584D02*
X5469D01*
X5257Y3616D02*
X5269D01*
X5257Y3584D02*
X5269D01*
X5057Y3616D02*
X5069D01*
X5057Y3584D02*
X5069D01*
X4857Y3616D02*
X4869D01*
X4857Y3584D02*
X4869D01*
X4577Y3616D02*
X4589D01*
X4577Y3584D02*
X4589D01*
X4379Y3616D02*
X4391D01*
X4379Y3584D02*
X4391D01*
X4179Y3616D02*
X4191D01*
X4179Y3584D02*
X4191D01*
X3979Y3616D02*
X3991D01*
X3979Y3584D02*
X3991D01*
X3699Y3616D02*
X3711D01*
X3699Y3584D02*
X3711D01*
X3499Y3616D02*
X3511D01*
X3499Y3584D02*
X3511D01*
X3299Y3616D02*
X3311D01*
X3299Y3584D02*
X3311D01*
X3099Y3616D02*
X3111D01*
X3099Y3584D02*
X3111D01*
X2819Y3616D02*
X2831D01*
X2819Y3584D02*
X2831D01*
X2619Y3616D02*
X2631D01*
X2619Y3584D02*
X2631D01*
X2419Y3616D02*
X2431D01*
X2419Y3584D02*
X2431D01*
X5457Y3514D02*
X5469D01*
X5457Y3546D02*
X5469D01*
X5257Y3514D02*
X5269D01*
X5257Y3546D02*
X5269D01*
X5057Y3514D02*
X5069D01*
X5057Y3546D02*
X5069D01*
X4857Y3514D02*
X4869D01*
X4857Y3546D02*
X4869D01*
X4577Y3514D02*
X4589D01*
X4577Y3546D02*
X4589D01*
X4379Y3514D02*
X4391D01*
X4379Y3546D02*
X4391D01*
X4179Y3514D02*
X4191D01*
X4179Y3546D02*
X4191D01*
X3979Y3514D02*
X3991D01*
X3979Y3546D02*
X3991D01*
X3699Y3514D02*
X3711D01*
X3699Y3546D02*
X3711D01*
X3499Y3514D02*
X3511D01*
X3499Y3546D02*
X3511D01*
X3299Y3514D02*
X3311D01*
X3299Y3546D02*
X3311D01*
X3099Y3514D02*
X3111D01*
X3099Y3546D02*
X3111D01*
X2819Y3514D02*
X2831D01*
X2819Y3546D02*
X2831D01*
X2619Y3514D02*
X2631D01*
X2619Y3546D02*
X2631D01*
X2419Y3514D02*
X2431D01*
X2419Y3546D02*
X2431D01*
X5446Y3420D02*
X5473D01*
X5446Y3380D02*
X5473D01*
X5246Y3420D02*
X5273D01*
X5246Y3380D02*
X5273D01*
X5046Y3420D02*
X5073D01*
X5046Y3380D02*
X5073D01*
X4846Y3420D02*
X4873D01*
X4846Y3380D02*
X4873D01*
X4566Y3420D02*
X4593D01*
X4566Y3380D02*
X4593D01*
X4367Y3420D02*
X4395D01*
X4367Y3380D02*
X4395D01*
X4167Y3420D02*
X4195D01*
X4167Y3380D02*
X4195D01*
X3967Y3420D02*
X3995D01*
X3967Y3380D02*
X3995D01*
X3687Y3420D02*
X3715D01*
X3687Y3380D02*
X3715D01*
X3487Y3420D02*
X3515D01*
X3487Y3380D02*
X3515D01*
X3287Y3420D02*
X3315D01*
X3287Y3380D02*
X3315D01*
X3087Y3420D02*
X3115D01*
X3087Y3380D02*
X3115D01*
X2807Y3420D02*
X2835D01*
X2807Y3380D02*
X2835D01*
X2607Y3420D02*
X2635D01*
X2607Y3380D02*
X2635D01*
X2407Y3420D02*
X2435D01*
X2407Y3380D02*
X2435D01*
X5289Y789D02*
X5301D01*
X5289Y821D02*
X5301D01*
X4194Y664D02*
Y676D01*
X4226Y664D02*
Y676D01*
X4124Y664D02*
Y676D01*
X4156Y664D02*
Y676D01*
X5474Y1241D02*
Y1253D01*
X5506Y1241D02*
Y1253D01*
X4424Y1249D02*
Y1261D01*
X4456Y1249D02*
Y1261D01*
X5354Y1241D02*
Y1253D01*
X5386Y1241D02*
Y1253D01*
X4304Y1249D02*
Y1261D01*
X4336Y1249D02*
Y1261D01*
X4974Y883D02*
X4986D01*
X4974Y851D02*
X4986D01*
X3924Y883D02*
X3936D01*
X3924Y851D02*
X3936D01*
X4974Y943D02*
X4986D01*
X4974Y911D02*
X4986D01*
X3924Y943D02*
X3936D01*
X3924Y911D02*
X3936D01*
X2574Y2531D02*
X2586D01*
X2574Y2499D02*
X2586D01*
X3554Y2576D02*
X3566D01*
X3554Y2544D02*
X3566D01*
X4504Y2566D02*
X4516D01*
X4504Y2534D02*
X4516D01*
X5454Y2566D02*
X5466D01*
X5454Y2534D02*
X5466D01*
X1964Y2479D02*
X1976D01*
X1964Y2511D02*
X1976D01*
X2944Y2514D02*
X2956D01*
X2944Y2546D02*
X2956D01*
X3894Y2514D02*
X3906D01*
X3894Y2546D02*
X3906D01*
X4844Y2514D02*
X4856D01*
X4844Y2546D02*
X4856D01*
X2569Y2286D02*
X2581D01*
X2569Y2254D02*
X2581D01*
X3554Y2366D02*
X3566D01*
X3554Y2334D02*
X3566D01*
X4504Y2366D02*
X4516D01*
X4504Y2334D02*
X4516D01*
X5454Y2366D02*
X5466D01*
X5454Y2334D02*
X5466D01*
X1964Y2259D02*
X1976D01*
X1964Y2291D02*
X1976D01*
X2944Y2294D02*
X2956D01*
X2944Y2326D02*
X2956D01*
X3894Y2294D02*
X3906D01*
X3894Y2326D02*
X3906D01*
X4844Y2294D02*
X4856D01*
X4844Y2326D02*
X4856D01*
X5784Y684D02*
X5796D01*
X5784Y716D02*
X5796D01*
X5784Y619D02*
X5796D01*
X5784Y651D02*
X5796D01*
X5784Y1004D02*
X5796D01*
X5784Y1036D02*
X5796D01*
X2139Y904D02*
Y916D01*
X2171Y904D02*
Y916D01*
X741Y669D02*
Y681D01*
X709Y669D02*
Y681D01*
X1081Y1569D02*
Y1581D01*
X1049Y1569D02*
Y1581D01*
X1149Y1569D02*
Y1581D01*
X1181Y1569D02*
Y1581D01*
X1126Y1814D02*
Y1826D01*
X1094Y1814D02*
Y1826D01*
X5285Y720D02*
X5313D01*
X5285Y760D02*
X5313D01*
X4300Y710D02*
X4328D01*
X4300Y750D02*
X4328D01*
X4050Y652D02*
Y680D01*
X4090Y652D02*
Y680D01*
X5403Y1193D02*
Y1229D01*
X5457Y1193D02*
Y1229D01*
X4353Y1202D02*
Y1237D01*
X4407Y1202D02*
Y1237D01*
X5283Y1193D02*
Y1229D01*
X5337Y1193D02*
Y1229D01*
X4233Y1207D02*
Y1242D01*
X4287Y1207D02*
Y1242D01*
X5030Y1229D02*
Y1257D01*
X5070Y1229D02*
Y1257D01*
X3980Y1242D02*
Y1270D01*
X4020Y1242D02*
Y1270D01*
X778Y538D02*
X813D01*
X778Y592D02*
X813D01*
X1013Y1767D02*
Y1802D01*
X1067Y1767D02*
Y1802D01*
X1477Y1121D02*
Y1187D01*
X1440Y1119D02*
X1541D01*
X1440Y1201D02*
X1541D01*
X1473Y1122D02*
Y1188D01*
X1470Y1122D02*
Y1201D01*
X1474Y1120D02*
Y1199D01*
X1477Y1121D02*
Y1200D01*
X742Y1216D02*
Y1282D01*
X705Y1214D02*
X806D01*
X705Y1296D02*
X806D01*
X738Y1217D02*
Y1283D01*
X735Y1217D02*
Y1296D01*
X739Y1215D02*
Y1294D01*
X742Y1216D02*
Y1295D01*
X5210Y1241D02*
X5251D01*
X5210Y1251D02*
X5251D01*
X4160Y1255D02*
X4201D01*
X4160Y1265D02*
X4201D01*
X5090Y1241D02*
X5131D01*
X5090Y1251D02*
X5131D01*
X4040Y1255D02*
X4081D01*
X4040Y1265D02*
X4081D01*
X5150Y1241D02*
X5191D01*
X5150Y1251D02*
X5191D01*
X4100Y1255D02*
X4141D01*
X4100Y1265D02*
X4141D01*
X2540Y895D02*
X2581D01*
X2540Y905D02*
X2581D01*
X475Y2904D02*
Y2945D01*
X485Y2904D02*
Y2945D01*
X981Y739D02*
X1048D01*
X1351D02*
X1418D01*
X775Y670D02*
X816D01*
X775Y680D02*
X816D01*
X1364Y1885D02*
X1405D01*
X1364Y1875D02*
X1405D01*
X1027Y998D02*
X1094D01*
X1027Y1022D02*
X1094D01*
X917Y993D02*
X984D01*
X917Y1017D02*
X984D01*
X1260Y1285D02*
X1301D01*
X1260Y1295D02*
X1301D01*
X279Y1875D02*
X320D01*
X279Y1865D02*
X320D01*
X802Y993D02*
X869D01*
X802Y1017D02*
X869D01*
X692Y993D02*
X759D01*
X692Y1017D02*
X759D01*
X465Y1190D02*
Y1231D01*
X455Y1190D02*
Y1231D01*
X1645Y3304D02*
Y3345D01*
X1635Y3304D02*
Y3345D01*
X485Y2834D02*
Y2875D01*
X475Y2834D02*
Y2875D01*
X2557Y67D02*
Y102D01*
X2503Y67D02*
Y102D01*
X2627Y67D02*
Y102D01*
X2573Y67D02*
Y102D01*
X2546Y294D02*
Y306D01*
X2514Y294D02*
Y306D01*
X2616Y294D02*
Y306D01*
X2584Y294D02*
Y306D01*
X3889Y2436D02*
X3901D01*
X3889Y2404D02*
X3901D01*
X4844Y2436D02*
X4856D01*
X4844Y2404D02*
X4856D01*
X4504Y2239D02*
X4516D01*
X4504Y2271D02*
X4516D01*
X5454Y2239D02*
X5466D01*
X5454Y2271D02*
X5466D01*
X4504Y2439D02*
X4516D01*
X4504Y2471D02*
X4516D01*
X5454Y2439D02*
X5466D01*
X5454Y2471D02*
X5466D01*
X1959Y2186D02*
X1971D01*
X1959Y2154D02*
X1971D01*
X2944Y2221D02*
X2956D01*
X2944Y2189D02*
X2956D01*
X3894Y2221D02*
X3906D01*
X3894Y2189D02*
X3906D01*
X4844Y2221D02*
X4856D01*
X4844Y2189D02*
X4856D01*
X1964Y2324D02*
X1976D01*
X1964Y2356D02*
X1976D01*
X2944Y2364D02*
X2956D01*
X2944Y2396D02*
X2956D01*
X2574Y2176D02*
X2586D01*
X2574Y2144D02*
X2586D01*
X3554Y2239D02*
X3566D01*
X3554Y2271D02*
X3566D01*
X2574Y2396D02*
X2586D01*
X2574Y2364D02*
X2586D01*
X3554Y2439D02*
X3566D01*
X3554Y2471D02*
X3566D01*
X3520Y2090D02*
Y2122D01*
X3536D01*
X3541Y2117D01*
Y2106D01*
X3536Y2101D01*
X3520D01*
X3531D02*
X3541Y2090D01*
X3573D02*
X3552D01*
X3573Y2111D01*
Y2117D01*
X3568Y2122D01*
X3557D01*
X3552Y2117D01*
X3584D02*
X3589Y2122D01*
X3600D01*
X3605Y2117D01*
Y2111D01*
X3600Y2106D01*
X3595D01*
X3600D01*
X3605Y2101D01*
Y2095D01*
X3600Y2090D01*
X3589D01*
X3584Y2095D01*
X3616Y2090D02*
Y2095D01*
X3621D01*
Y2090D01*
X3616D01*
X3664D02*
X3643D01*
X3664Y2111D01*
Y2117D01*
X3659Y2122D01*
X3648D01*
X3643Y2117D01*
X2520Y2030D02*
Y2062D01*
X2536D01*
X2541Y2057D01*
Y2046D01*
X2536Y2041D01*
X2520D01*
X2531D02*
X2541Y2030D01*
X2573D02*
X2552D01*
X2573Y2051D01*
Y2057D01*
X2568Y2062D01*
X2557D01*
X2552Y2057D01*
X2584D02*
X2589Y2062D01*
X2600D01*
X2605Y2057D01*
Y2051D01*
X2600Y2046D01*
X2595D01*
X2600D01*
X2605Y2041D01*
Y2035D01*
X2600Y2030D01*
X2589D01*
X2584Y2035D01*
X2616Y2030D02*
Y2035D01*
X2621D01*
Y2030D01*
X2616D01*
X2643D02*
X2653D01*
X2648D01*
Y2062D01*
X2643Y2057D01*
X3520Y1990D02*
Y2022D01*
X3536D01*
X3541Y2017D01*
Y2006D01*
X3536Y2001D01*
X3520D01*
X3531D02*
X3541Y1990D01*
X3573D02*
X3552D01*
X3573Y2011D01*
Y2017D01*
X3568Y2022D01*
X3557D01*
X3552Y2017D01*
X3584Y1990D02*
X3595D01*
X3589D01*
Y2022D01*
X3584Y2017D01*
X3611Y1990D02*
Y1995D01*
X3616D01*
Y1990D01*
X3611D01*
X3659D02*
X3637D01*
X3659Y2011D01*
Y2017D01*
X3653Y2022D01*
X3643D01*
X3637Y2017D01*
X2520Y1930D02*
Y1962D01*
X2536D01*
X2541Y1957D01*
Y1946D01*
X2536Y1941D01*
X2520D01*
X2531D02*
X2541Y1930D01*
X2573D02*
X2552D01*
X2573Y1951D01*
Y1957D01*
X2568Y1962D01*
X2557D01*
X2552Y1957D01*
X2584Y1930D02*
X2595D01*
X2589D01*
Y1962D01*
X2584Y1957D01*
X2611Y1930D02*
Y1935D01*
X2616D01*
Y1930D01*
X2611D01*
X2637D02*
X2648D01*
X2643D01*
Y1962D01*
X2637Y1957D01*
X2880Y2060D02*
Y2092D01*
X2896D01*
X2901Y2087D01*
Y2076D01*
X2896Y2071D01*
X2880D01*
X2891D02*
X2901Y2060D01*
X2933D02*
X2912D01*
X2933Y2081D01*
Y2087D01*
X2928Y2092D01*
X2917D01*
X2912Y2087D01*
X2965Y2060D02*
X2944D01*
X2965Y2081D01*
Y2087D01*
X2960Y2092D01*
X2949D01*
X2944Y2087D01*
X2976Y2060D02*
Y2065D01*
X2981D01*
Y2060D01*
X2976D01*
X3024D02*
X3003D01*
X3024Y2081D01*
Y2087D01*
X3019Y2092D01*
X3008D01*
X3003Y2087D01*
X1900Y2640D02*
Y2672D01*
X1916D01*
X1921Y2667D01*
Y2656D01*
X1916Y2651D01*
X1900D01*
X1911D02*
X1921Y2640D01*
X1953D02*
X1932D01*
X1953Y2661D01*
Y2667D01*
X1948Y2672D01*
X1937D01*
X1932Y2667D01*
X1985Y2640D02*
X1964D01*
X1985Y2661D01*
Y2667D01*
X1980Y2672D01*
X1969D01*
X1964Y2667D01*
X1996Y2640D02*
Y2645D01*
X2001D01*
Y2640D01*
X1996D01*
X2023D02*
X2033D01*
X2028D01*
Y2672D01*
X2023Y2667D01*
X4720Y1970D02*
Y2002D01*
X4736D01*
X4741Y1997D01*
Y1986D01*
X4736Y1981D01*
X4720D01*
X4731D02*
X4741Y1970D01*
X4773D02*
X4752D01*
X4773Y1991D01*
Y1997D01*
X4768Y2002D01*
X4757D01*
X4752Y1997D01*
X4784D02*
X4789Y2002D01*
X4800D01*
X4805Y1997D01*
Y1975D01*
X4800Y1970D01*
X4789D01*
X4784Y1975D01*
Y1997D01*
X4816Y1970D02*
Y1975D01*
X4821D01*
Y1970D01*
X4816D01*
X4859D02*
Y2002D01*
X4843Y1986D01*
X4864D01*
X3830Y1980D02*
Y2012D01*
X3846D01*
X3851Y2007D01*
Y1996D01*
X3846Y1991D01*
X3830D01*
X3841D02*
X3851Y1980D01*
X3883D02*
X3862D01*
X3883Y2001D01*
Y2007D01*
X3878Y2012D01*
X3867D01*
X3862Y2007D01*
X3894D02*
X3899Y2012D01*
X3910D01*
X3915Y2007D01*
Y1985D01*
X3910Y1980D01*
X3899D01*
X3894Y1985D01*
Y2007D01*
X3926Y1980D02*
Y1985D01*
X3931D01*
Y1980D01*
X3926D01*
X3953Y2007D02*
X3958Y2012D01*
X3969D01*
X3974Y2007D01*
Y2001D01*
X3969Y1996D01*
X3963D01*
X3969D01*
X3974Y1991D01*
Y1985D01*
X3969Y1980D01*
X3958D01*
X3953Y1985D01*
X2880Y1960D02*
Y1992D01*
X2896D01*
X2901Y1987D01*
Y1976D01*
X2896Y1971D01*
X2880D01*
X2891D02*
X2901Y1960D01*
X2933D02*
X2912D01*
X2933Y1981D01*
Y1987D01*
X2928Y1992D01*
X2917D01*
X2912Y1987D01*
X2944D02*
X2949Y1992D01*
X2960D01*
X2965Y1987D01*
Y1965D01*
X2960Y1960D01*
X2949D01*
X2944Y1965D01*
Y1987D01*
X2976Y1960D02*
Y1965D01*
X2981D01*
Y1960D01*
X2976D01*
X3024D02*
X3003D01*
X3024Y1981D01*
Y1987D01*
X3019Y1992D01*
X3008D01*
X3003Y1987D01*
X1900Y2540D02*
Y2572D01*
X1916D01*
X1921Y2567D01*
Y2556D01*
X1916Y2551D01*
X1900D01*
X1911D02*
X1921Y2540D01*
X1953D02*
X1932D01*
X1953Y2561D01*
Y2567D01*
X1948Y2572D01*
X1937D01*
X1932Y2567D01*
X1964D02*
X1969Y2572D01*
X1980D01*
X1985Y2567D01*
Y2545D01*
X1980Y2540D01*
X1969D01*
X1964Y2545D01*
Y2567D01*
X1996Y2540D02*
Y2545D01*
X2001D01*
Y2540D01*
X1996D01*
X2023D02*
X2033D01*
X2028D01*
Y2572D01*
X2023Y2567D01*
X3600Y1442D02*
X3621D01*
X3611D01*
Y1410D01*
X3632D02*
Y1442D01*
X3648D01*
X3653Y1437D01*
Y1426D01*
X3648Y1421D01*
X3632D01*
X3664Y1410D02*
X3675D01*
X3669D01*
Y1442D01*
X3664Y1437D01*
X3691D02*
X3696Y1442D01*
X3707D01*
X3712Y1437D01*
Y1415D01*
X3707Y1410D01*
X3696D01*
X3691Y1415D01*
Y1437D01*
X5500Y2110D02*
Y2142D01*
X5516D01*
X5521Y2137D01*
Y2126D01*
X5516Y2121D01*
X5500D01*
X5511D02*
X5521Y2110D01*
X5553D02*
X5532D01*
X5553Y2131D01*
Y2137D01*
X5548Y2142D01*
X5537D01*
X5532Y2137D01*
X5564D02*
X5569Y2142D01*
X5580D01*
X5585Y2137D01*
Y2131D01*
X5580Y2126D01*
X5575D01*
X5580D01*
X5585Y2121D01*
Y2115D01*
X5580Y2110D01*
X5569D01*
X5564Y2115D01*
X5596Y2110D02*
Y2115D01*
X5601D01*
Y2110D01*
X5596D01*
X5639D02*
Y2142D01*
X5623Y2126D01*
X5644D01*
X4510Y2110D02*
Y2142D01*
X4526D01*
X4531Y2137D01*
Y2126D01*
X4526Y2121D01*
X4510D01*
X4521D02*
X4531Y2110D01*
X4563D02*
X4542D01*
X4563Y2131D01*
Y2137D01*
X4558Y2142D01*
X4547D01*
X4542Y2137D01*
X4574D02*
X4579Y2142D01*
X4590D01*
X4595Y2137D01*
Y2131D01*
X4590Y2126D01*
X4585D01*
X4590D01*
X4595Y2121D01*
Y2115D01*
X4590Y2110D01*
X4579D01*
X4574Y2115D01*
X4606Y2110D02*
Y2115D01*
X4611D01*
Y2110D01*
X4606D01*
X4633Y2137D02*
X4638Y2142D01*
X4649D01*
X4654Y2137D01*
Y2131D01*
X4649Y2126D01*
X4643D01*
X4649D01*
X4654Y2121D01*
Y2115D01*
X4649Y2110D01*
X4638D01*
X4633Y2115D01*
X5500Y2010D02*
Y2042D01*
X5516D01*
X5521Y2037D01*
Y2026D01*
X5516Y2021D01*
X5500D01*
X5511D02*
X5521Y2010D01*
X5553D02*
X5532D01*
X5553Y2031D01*
Y2037D01*
X5548Y2042D01*
X5537D01*
X5532Y2037D01*
X5564Y2010D02*
X5575D01*
X5569D01*
Y2042D01*
X5564Y2037D01*
X5591Y2010D02*
Y2015D01*
X5596D01*
Y2010D01*
X5591D01*
X5633D02*
Y2042D01*
X5617Y2026D01*
X5639D01*
X4510Y2010D02*
Y2042D01*
X4526D01*
X4531Y2037D01*
Y2026D01*
X4526Y2021D01*
X4510D01*
X4521D02*
X4531Y2010D01*
X4563D02*
X4542D01*
X4563Y2031D01*
Y2037D01*
X4558Y2042D01*
X4547D01*
X4542Y2037D01*
X4574Y2010D02*
X4585D01*
X4579D01*
Y2042D01*
X4574Y2037D01*
X4601Y2010D02*
Y2015D01*
X4606D01*
Y2010D01*
X4601D01*
X4627Y2037D02*
X4633Y2042D01*
X4643D01*
X4649Y2037D01*
Y2031D01*
X4643Y2026D01*
X4638D01*
X4643D01*
X4649Y2021D01*
Y2015D01*
X4643Y2010D01*
X4633D01*
X4627Y2015D01*
X4720Y2070D02*
Y2102D01*
X4736D01*
X4741Y2097D01*
Y2086D01*
X4736Y2081D01*
X4720D01*
X4731D02*
X4741Y2070D01*
X4773D02*
X4752D01*
X4773Y2091D01*
Y2097D01*
X4768Y2102D01*
X4757D01*
X4752Y2097D01*
X4805Y2070D02*
X4784D01*
X4805Y2091D01*
Y2097D01*
X4800Y2102D01*
X4789D01*
X4784Y2097D01*
X4816Y2070D02*
Y2075D01*
X4821D01*
Y2070D01*
X4816D01*
X4859D02*
Y2102D01*
X4843Y2086D01*
X4864D01*
X3830Y2080D02*
Y2112D01*
X3846D01*
X3851Y2107D01*
Y2096D01*
X3846Y2091D01*
X3830D01*
X3841D02*
X3851Y2080D01*
X3883D02*
X3862D01*
X3883Y2101D01*
Y2107D01*
X3878Y2112D01*
X3867D01*
X3862Y2107D01*
X3915Y2080D02*
X3894D01*
X3915Y2101D01*
Y2107D01*
X3910Y2112D01*
X3899D01*
X3894Y2107D01*
X3926Y2080D02*
Y2085D01*
X3931D01*
Y2080D01*
X3926D01*
X3953Y2107D02*
X3958Y2112D01*
X3969D01*
X3974Y2107D01*
Y2101D01*
X3969Y2096D01*
X3963D01*
X3969D01*
X3974Y2091D01*
Y2085D01*
X3969Y2080D01*
X3958D01*
X3953Y2085D01*
X4705Y3600D02*
Y3632D01*
X4721D01*
X4726Y3627D01*
Y3616D01*
X4721Y3611D01*
X4705D01*
X4737Y3600D02*
X4748D01*
X4742D01*
Y3632D01*
X4737Y3627D01*
X4764D02*
X4769Y3632D01*
X4780D01*
X4785Y3627D01*
Y3605D01*
X4780Y3600D01*
X4769D01*
X4764Y3605D01*
Y3627D01*
X3405Y1472D02*
Y1441D01*
X3420D01*
X3426Y1446D01*
Y1467D01*
X3420Y1472D01*
X3405D01*
X3436Y1441D02*
X3447D01*
X3442D01*
Y1472D01*
X3436Y1467D01*
X3479Y1441D02*
Y1472D01*
X3463Y1456D01*
X3484D01*
X345Y3480D02*
Y3512D01*
X361D01*
X366Y3507D01*
Y3496D01*
X361Y3491D01*
X345D01*
X393Y3480D02*
Y3512D01*
X377Y3496D01*
X398D01*
X3195Y3022D02*
X3216D01*
X3206D01*
Y2990D01*
X3227D02*
Y3022D01*
X3243D01*
X3248Y3017D01*
Y3006D01*
X3243Y3001D01*
X3227D01*
X3259Y2990D02*
X3270D01*
X3264D01*
Y3022D01*
X3259Y3017D01*
X2490Y250D02*
X2458D01*
Y266D01*
X2463Y271D01*
X2474D01*
X2479Y266D01*
Y250D01*
Y261D02*
X2490Y271D01*
X2463Y282D02*
X2458Y287D01*
Y298D01*
X2463Y303D01*
X2469D01*
X2474Y298D01*
Y293D01*
Y298D01*
X2479Y303D01*
X2485D01*
X2490Y298D01*
Y287D01*
X2485Y282D01*
X2490Y330D02*
X2458D01*
X2474Y314D01*
Y335D01*
X2490Y346D02*
X2485D01*
Y351D01*
X2490D01*
Y346D01*
Y394D02*
Y373D01*
X2469Y394D01*
X2463D01*
X2458Y389D01*
Y378D01*
X2463Y373D01*
X2440Y250D02*
X2408D01*
Y266D01*
X2413Y271D01*
X2424D01*
X2429Y266D01*
Y250D01*
Y261D02*
X2440Y271D01*
X2413Y282D02*
X2408Y287D01*
Y298D01*
X2413Y303D01*
X2419D01*
X2424Y298D01*
Y293D01*
Y298D01*
X2429Y303D01*
X2435D01*
X2440Y298D01*
Y287D01*
X2435Y282D01*
X2440Y330D02*
X2408D01*
X2424Y314D01*
Y335D01*
X2440Y346D02*
X2435D01*
Y351D01*
X2440D01*
Y346D01*
Y373D02*
Y383D01*
Y378D01*
X2408D01*
X2413Y373D01*
X2458Y70D02*
X2490D01*
Y86D01*
X2485Y91D01*
X2463D01*
X2458Y86D01*
Y70D01*
X2490Y102D02*
Y113D01*
Y107D01*
X2458D01*
X2463Y102D01*
Y129D02*
X2458Y134D01*
Y145D01*
X2463Y150D01*
X2469D01*
X2474Y145D01*
Y139D01*
Y145D01*
X2479Y150D01*
X2485D01*
X2490Y145D01*
Y134D01*
X2485Y129D01*
X2490Y161D02*
X2485D01*
Y166D01*
X2490D01*
Y161D01*
Y209D02*
Y187D01*
X2469Y209D01*
X2463D01*
X2458Y203D01*
Y193D01*
X2463Y187D01*
X2408Y70D02*
X2440D01*
Y86D01*
X2435Y91D01*
X2413D01*
X2408Y86D01*
Y70D01*
X2440Y102D02*
Y113D01*
Y107D01*
X2408D01*
X2413Y102D01*
Y129D02*
X2408Y134D01*
Y145D01*
X2413Y150D01*
X2419D01*
X2424Y145D01*
Y139D01*
Y145D01*
X2429Y150D01*
X2435D01*
X2440Y145D01*
Y134D01*
X2435Y129D01*
X2440Y161D02*
X2435D01*
Y166D01*
X2440D01*
Y161D01*
Y187D02*
Y198D01*
Y193D01*
X2408D01*
X2413Y187D01*
X571Y2872D02*
X566Y2877D01*
X555D01*
X550Y2872D01*
Y2850D01*
X555Y2845D01*
X566D01*
X571Y2850D01*
X582Y2845D02*
X593D01*
X587D01*
Y2877D01*
X582Y2872D01*
X609Y2850D02*
X614Y2845D01*
X625D01*
X630Y2850D01*
Y2872D01*
X625Y2877D01*
X614D01*
X609Y2872D01*
Y2866D01*
X614Y2861D01*
X630D01*
X1546Y3342D02*
X1541Y3347D01*
X1530D01*
X1525Y3342D01*
Y3320D01*
X1530Y3315D01*
X1541D01*
X1546Y3320D01*
X1573Y3315D02*
Y3347D01*
X1557Y3331D01*
X1578D01*
X426Y1277D02*
X421Y1282D01*
X410D01*
X405Y1277D01*
Y1255D01*
X410Y1250D01*
X421D01*
X426Y1255D01*
X458Y1282D02*
X437D01*
Y1266D01*
X448Y1271D01*
X453D01*
X458Y1266D01*
Y1255D01*
X453Y1250D01*
X442D01*
X437Y1255D01*
X721Y1142D02*
X716Y1147D01*
X705D01*
X700Y1142D01*
Y1120D01*
X705Y1115D01*
X716D01*
X721Y1120D01*
X753Y1147D02*
X743Y1142D01*
X732Y1131D01*
Y1120D01*
X737Y1115D01*
X748D01*
X753Y1120D01*
Y1126D01*
X748Y1131D01*
X732D01*
X836Y1137D02*
X831Y1142D01*
X820D01*
X815Y1137D01*
Y1115D01*
X820Y1110D01*
X831D01*
X836Y1115D01*
X847Y1142D02*
X868D01*
Y1137D01*
X847Y1115D01*
Y1110D01*
X751Y1692D02*
X746Y1697D01*
X735D01*
X730Y1692D01*
Y1670D01*
X735Y1665D01*
X746D01*
X751Y1670D01*
X762Y1692D02*
X767Y1697D01*
X778D01*
X783Y1692D01*
Y1686D01*
X778Y1681D01*
X783Y1676D01*
Y1670D01*
X778Y1665D01*
X767D01*
X762Y1670D01*
Y1676D01*
X767Y1681D01*
X762Y1686D01*
Y1692D01*
X767Y1681D02*
X778D01*
X296Y1967D02*
X291Y1972D01*
X280D01*
X275Y1967D01*
Y1945D01*
X280Y1940D01*
X291D01*
X296Y1945D01*
X307D02*
X312Y1940D01*
X323D01*
X328Y1945D01*
Y1967D01*
X323Y1972D01*
X312D01*
X307Y1967D01*
Y1961D01*
X312Y1956D01*
X328D01*
X1276Y1212D02*
X1271Y1217D01*
X1260D01*
X1255Y1212D01*
Y1190D01*
X1260Y1185D01*
X1271D01*
X1276Y1190D01*
X1287Y1185D02*
X1298D01*
X1292D01*
Y1217D01*
X1287Y1212D01*
X1314D02*
X1319Y1217D01*
X1330D01*
X1335Y1212D01*
Y1190D01*
X1330Y1185D01*
X1319D01*
X1314Y1190D01*
Y1212D01*
X936Y1137D02*
X931Y1142D01*
X920D01*
X915Y1137D01*
Y1115D01*
X920Y1110D01*
X931D01*
X936Y1115D01*
X947Y1110D02*
X958D01*
X952D01*
Y1142D01*
X947Y1137D01*
X974Y1110D02*
X984D01*
X979D01*
Y1142D01*
X974Y1137D01*
X1041D02*
X1036Y1142D01*
X1025D01*
X1020Y1137D01*
Y1115D01*
X1025Y1110D01*
X1036D01*
X1041Y1115D01*
X1052Y1110D02*
X1063D01*
X1057D01*
Y1142D01*
X1052Y1137D01*
X1100Y1110D02*
X1079D01*
X1100Y1131D01*
Y1137D01*
X1095Y1142D01*
X1084D01*
X1079Y1137D01*
X1231Y2072D02*
X1226Y2077D01*
X1215D01*
X1210Y2072D01*
Y2050D01*
X1215Y2045D01*
X1226D01*
X1231Y2050D01*
X1242Y2045D02*
X1253D01*
X1247D01*
Y2077D01*
X1242Y2072D01*
X1269D02*
X1274Y2077D01*
X1285D01*
X1290Y2072D01*
Y2066D01*
X1285Y2061D01*
X1279D01*
X1285D01*
X1290Y2056D01*
Y2050D01*
X1285Y2045D01*
X1274D01*
X1269Y2050D01*
X1371Y1982D02*
X1366Y1987D01*
X1355D01*
X1350Y1982D01*
Y1960D01*
X1355Y1955D01*
X1366D01*
X1371Y1960D01*
X1382Y1955D02*
X1393D01*
X1387D01*
Y1987D01*
X1382Y1982D01*
X1425Y1955D02*
Y1987D01*
X1409Y1971D01*
X1430D01*
X791Y788D02*
X786Y793D01*
X775D01*
X770Y788D01*
Y766D01*
X775Y761D01*
X786D01*
X791Y766D01*
X802Y761D02*
X813D01*
X807D01*
Y793D01*
X802Y788D01*
X850Y793D02*
X829D01*
Y777D01*
X839Y782D01*
X845D01*
X850Y777D01*
Y766D01*
X845Y761D01*
X834D01*
X829Y766D01*
X1251Y552D02*
X1246Y557D01*
X1235D01*
X1230Y552D01*
Y530D01*
X1235Y525D01*
X1246D01*
X1251Y530D01*
X1262Y525D02*
X1273D01*
X1267D01*
Y557D01*
X1262Y552D01*
X1310Y557D02*
X1299Y552D01*
X1289Y541D01*
Y530D01*
X1294Y525D01*
X1305D01*
X1310Y530D01*
Y536D01*
X1305Y541D01*
X1289D01*
X881Y552D02*
X876Y557D01*
X865D01*
X860Y552D01*
Y530D01*
X865Y525D01*
X876D01*
X881Y530D01*
X892Y525D02*
X903D01*
X897D01*
Y557D01*
X892Y552D01*
X919Y557D02*
X940D01*
Y552D01*
X919Y530D01*
Y525D01*
X571Y2932D02*
X566Y2937D01*
X555D01*
X550Y2932D01*
Y2910D01*
X555Y2905D01*
X566D01*
X571Y2910D01*
X582Y2905D02*
X593D01*
X587D01*
Y2937D01*
X582Y2932D01*
X609D02*
X614Y2937D01*
X625D01*
X630Y2932D01*
Y2926D01*
X625Y2921D01*
X630Y2916D01*
Y2910D01*
X625Y2905D01*
X614D01*
X609Y2910D01*
Y2916D01*
X614Y2921D01*
X609Y2926D01*
Y2932D01*
X614Y2921D02*
X625D01*
X2577Y789D02*
X2582Y794D01*
Y805D01*
X2577Y810D01*
X2555D01*
X2550Y805D01*
Y794D01*
X2555Y789D01*
X2550Y757D02*
Y778D01*
X2571Y757D01*
X2577D01*
X2582Y762D01*
Y773D01*
X2577Y778D01*
X2582Y725D02*
Y746D01*
X2566D01*
X2571Y735D01*
Y730D01*
X2566Y725D01*
X2555D01*
X2550Y730D01*
Y741D01*
X2555Y746D01*
X4113Y1351D02*
X4108Y1346D01*
Y1335D01*
X4113Y1330D01*
X4135D01*
X4140Y1335D01*
Y1346D01*
X4135Y1351D01*
X4113Y1362D02*
X4108Y1367D01*
Y1378D01*
X4113Y1383D01*
X4119D01*
X4124Y1378D01*
Y1373D01*
Y1378D01*
X4129Y1383D01*
X4135D01*
X4140Y1378D01*
Y1367D01*
X4135Y1362D01*
X4113Y1394D02*
X4108Y1399D01*
Y1410D01*
X4113Y1415D01*
X4135D01*
X4140Y1410D01*
Y1399D01*
X4135Y1394D01*
X4113D01*
X4140Y1426D02*
X4135D01*
Y1431D01*
X4140D01*
Y1426D01*
Y1453D02*
Y1463D01*
Y1458D01*
X4108D01*
X4113Y1453D01*
X5163Y1338D02*
X5158Y1333D01*
Y1322D01*
X5163Y1317D01*
X5185D01*
X5190Y1322D01*
Y1333D01*
X5185Y1338D01*
X5163Y1349D02*
X5158Y1354D01*
Y1365D01*
X5163Y1370D01*
X5169D01*
X5174Y1365D01*
Y1359D01*
Y1365D01*
X5179Y1370D01*
X5185D01*
X5190Y1365D01*
Y1354D01*
X5185Y1349D01*
X5163Y1381D02*
X5158Y1386D01*
Y1397D01*
X5163Y1402D01*
X5185D01*
X5190Y1397D01*
Y1386D01*
X5185Y1381D01*
X5163D01*
X5190Y1413D02*
X5185D01*
Y1418D01*
X5190D01*
Y1413D01*
Y1460D02*
Y1439D01*
X5169Y1460D01*
X5163D01*
X5158Y1455D01*
Y1444D01*
X5163Y1439D01*
X4053Y1351D02*
X4048Y1346D01*
Y1335D01*
X4053Y1330D01*
X4075D01*
X4080Y1335D01*
Y1346D01*
X4075Y1351D01*
X4053Y1362D02*
X4048Y1367D01*
Y1378D01*
X4053Y1383D01*
X4059D01*
X4064Y1378D01*
Y1373D01*
Y1378D01*
X4069Y1383D01*
X4075D01*
X4080Y1378D01*
Y1367D01*
X4075Y1362D01*
X4080Y1394D02*
Y1405D01*
Y1399D01*
X4048D01*
X4053Y1394D01*
X4080Y1421D02*
X4075D01*
Y1426D01*
X4080D01*
Y1421D01*
Y1447D02*
Y1458D01*
Y1453D01*
X4048D01*
X4053Y1447D01*
X5103Y1338D02*
X5098Y1333D01*
Y1322D01*
X5103Y1317D01*
X5125D01*
X5130Y1322D01*
Y1333D01*
X5125Y1338D01*
X5103Y1349D02*
X5098Y1354D01*
Y1365D01*
X5103Y1370D01*
X5109D01*
X5114Y1365D01*
Y1359D01*
Y1365D01*
X5119Y1370D01*
X5125D01*
X5130Y1365D01*
Y1354D01*
X5125Y1349D01*
X5130Y1381D02*
Y1391D01*
Y1386D01*
X5098D01*
X5103Y1381D01*
X5130Y1407D02*
X5125D01*
Y1413D01*
X5130D01*
Y1407D01*
Y1455D02*
Y1434D01*
X5109Y1455D01*
X5103D01*
X5098Y1450D01*
Y1439D01*
X5103Y1434D01*
X4173Y1351D02*
X4168Y1346D01*
Y1335D01*
X4173Y1330D01*
X4195D01*
X4200Y1335D01*
Y1346D01*
X4195Y1351D01*
X4173Y1362D02*
X4168Y1367D01*
Y1378D01*
X4173Y1383D01*
X4179D01*
X4184Y1378D01*
Y1373D01*
Y1378D01*
X4189Y1383D01*
X4195D01*
X4200Y1378D01*
Y1367D01*
X4195Y1362D01*
X4200Y1415D02*
Y1394D01*
X4179Y1415D01*
X4173D01*
X4168Y1410D01*
Y1399D01*
X4173Y1394D01*
X4200Y1426D02*
X4195D01*
Y1431D01*
X4200D01*
Y1426D01*
Y1453D02*
Y1463D01*
Y1458D01*
X4168D01*
X4173Y1453D01*
X5223Y1338D02*
X5218Y1333D01*
Y1322D01*
X5223Y1317D01*
X5245D01*
X5250Y1322D01*
Y1333D01*
X5245Y1338D01*
X5223Y1349D02*
X5218Y1354D01*
Y1365D01*
X5223Y1370D01*
X5229D01*
X5234Y1365D01*
Y1359D01*
Y1365D01*
X5239Y1370D01*
X5245D01*
X5250Y1365D01*
Y1354D01*
X5245Y1349D01*
X5250Y1402D02*
Y1381D01*
X5229Y1402D01*
X5223D01*
X5218Y1397D01*
Y1386D01*
X5223Y1381D01*
X5250Y1413D02*
X5245D01*
Y1418D01*
X5250D01*
Y1413D01*
Y1460D02*
Y1439D01*
X5229Y1460D01*
X5223D01*
X5218Y1455D01*
Y1444D01*
X5223Y1439D01*
X615Y1342D02*
Y1310D01*
X631D01*
X636Y1315D01*
Y1337D01*
X631Y1342D01*
X615D01*
X647Y1310D02*
X658D01*
X652D01*
Y1342D01*
X647Y1337D01*
X1645Y1172D02*
Y1140D01*
X1661D01*
X1666Y1145D01*
Y1167D01*
X1661Y1172D01*
X1645D01*
X1677Y1167D02*
X1682Y1172D01*
X1693D01*
X1698Y1167D01*
Y1161D01*
X1693Y1156D01*
X1688D01*
X1693D01*
X1698Y1151D01*
Y1145D01*
X1693Y1140D01*
X1682D01*
X1677Y1145D01*
X1015Y1752D02*
Y1720D01*
X1031D01*
X1036Y1725D01*
Y1747D01*
X1031Y1752D01*
X1015D01*
X1063Y1720D02*
Y1752D01*
X1047Y1736D01*
X1068D01*
X1570Y557D02*
Y525D01*
X1586D01*
X1591Y530D01*
Y552D01*
X1586Y557D01*
X1570D01*
X1623D02*
X1602D01*
Y541D01*
X1613Y546D01*
X1618D01*
X1623Y541D01*
Y530D01*
X1618Y525D01*
X1607D01*
X1602Y530D01*
X625Y587D02*
Y555D01*
X641D01*
X646Y560D01*
Y582D01*
X641Y587D01*
X625D01*
X678D02*
X668Y582D01*
X657Y571D01*
Y560D01*
X662Y555D01*
X673D01*
X678Y560D01*
Y566D01*
X673Y571D01*
X657D01*
X3988Y1330D02*
X4020D01*
Y1346D01*
X4015Y1351D01*
X3993D01*
X3988Y1346D01*
Y1330D01*
Y1362D02*
Y1383D01*
X3993D01*
X4015Y1362D01*
X4020D01*
Y1394D02*
X4015D01*
Y1399D01*
X4020D01*
Y1394D01*
Y1421D02*
Y1431D01*
Y1426D01*
X3988D01*
X3993Y1421D01*
X5038Y1317D02*
X5070D01*
Y1333D01*
X5065Y1338D01*
X5043D01*
X5038Y1333D01*
Y1317D01*
Y1349D02*
Y1370D01*
X5043D01*
X5065Y1349D01*
X5070D01*
Y1381D02*
X5065D01*
Y1386D01*
X5070D01*
Y1381D01*
Y1428D02*
Y1407D01*
X5049Y1428D01*
X5043D01*
X5038Y1423D01*
Y1413D01*
X5043Y1407D01*
X4248Y1330D02*
X4280D01*
Y1346D01*
X4275Y1351D01*
X4253D01*
X4248Y1346D01*
Y1330D01*
X4253Y1362D02*
X4248Y1367D01*
Y1378D01*
X4253Y1383D01*
X4259D01*
X4264Y1378D01*
X4269Y1383D01*
X4275D01*
X4280Y1378D01*
Y1367D01*
X4275Y1362D01*
X4269D01*
X4264Y1367D01*
X4259Y1362D01*
X4253D01*
X4264Y1367D02*
Y1378D01*
X4280Y1394D02*
X4275D01*
Y1399D01*
X4280D01*
Y1394D01*
Y1421D02*
Y1431D01*
Y1426D01*
X4248D01*
X4253Y1421D01*
X5298Y1317D02*
X5330D01*
Y1333D01*
X5325Y1338D01*
X5303D01*
X5298Y1333D01*
Y1317D01*
X5303Y1349D02*
X5298Y1354D01*
Y1365D01*
X5303Y1370D01*
X5309D01*
X5314Y1365D01*
X5319Y1370D01*
X5325D01*
X5330Y1365D01*
Y1354D01*
X5325Y1349D01*
X5319D01*
X5314Y1354D01*
X5309Y1349D01*
X5303D01*
X5314Y1354D02*
Y1365D01*
X5330Y1381D02*
X5325D01*
Y1386D01*
X5330D01*
Y1381D01*
Y1428D02*
Y1407D01*
X5309Y1428D01*
X5303D01*
X5298Y1423D01*
Y1413D01*
X5303Y1407D01*
X4368Y1325D02*
X4400D01*
Y1341D01*
X4395Y1346D01*
X4373D01*
X4368Y1341D01*
Y1325D01*
X4395Y1357D02*
X4400Y1362D01*
Y1373D01*
X4395Y1378D01*
X4373D01*
X4368Y1373D01*
Y1362D01*
X4373Y1357D01*
X4379D01*
X4384Y1362D01*
Y1378D01*
X4400Y1389D02*
X4395D01*
Y1394D01*
X4400D01*
Y1389D01*
Y1416D02*
Y1426D01*
Y1421D01*
X4368D01*
X4373Y1416D01*
X5418Y1317D02*
X5450D01*
Y1333D01*
X5445Y1338D01*
X5423D01*
X5418Y1333D01*
Y1317D01*
X5445Y1349D02*
X5450Y1354D01*
Y1365D01*
X5445Y1370D01*
X5423D01*
X5418Y1365D01*
Y1354D01*
X5423Y1349D01*
X5429D01*
X5434Y1354D01*
Y1370D01*
X5450Y1381D02*
X5445D01*
Y1386D01*
X5450D01*
Y1381D01*
Y1428D02*
Y1407D01*
X5429Y1428D01*
X5423D01*
X5418Y1423D01*
Y1413D01*
X5423Y1407D01*
X3898Y610D02*
X3930D01*
Y626D01*
X3925Y631D01*
X3903D01*
X3898Y626D01*
Y610D01*
X3930Y642D02*
Y653D01*
Y647D01*
X3898D01*
X3903Y642D01*
Y669D02*
X3898Y674D01*
Y685D01*
X3903Y690D01*
X3925D01*
X3930Y685D01*
Y674D01*
X3925Y669D01*
X3903D01*
X3930Y701D02*
X3925D01*
Y706D01*
X3930D01*
Y701D01*
Y727D02*
Y738D01*
Y733D01*
X3898D01*
X3903Y727D01*
X4255Y797D02*
Y765D01*
X4271D01*
X4276Y770D01*
Y792D01*
X4271Y797D01*
X4255D01*
X4287Y765D02*
X4298D01*
X4292D01*
Y797D01*
X4287Y792D01*
X4314Y765D02*
X4324D01*
X4319D01*
Y797D01*
X4314Y792D01*
X4340Y765D02*
Y770D01*
X4346D01*
Y765D01*
X4340D01*
X4367D02*
X4378D01*
X4372D01*
Y797D01*
X4367Y792D01*
X5305Y867D02*
Y835D01*
X5321D01*
X5326Y840D01*
Y862D01*
X5321Y867D01*
X5305D01*
X5337Y835D02*
X5348D01*
X5342D01*
Y867D01*
X5337Y862D01*
X5364Y835D02*
X5374D01*
X5369D01*
Y867D01*
X5364Y862D01*
X5390Y835D02*
Y840D01*
X5396D01*
Y835D01*
X5390D01*
X5438D02*
X5417D01*
X5438Y856D01*
Y862D01*
X5433Y867D01*
X5422D01*
X5417Y862D01*
X2066Y457D02*
X2045D01*
Y441D01*
X2056D01*
X2045D01*
Y425D01*
X2077D02*
X2088D01*
X2082D01*
Y457D01*
X2077Y452D01*
X5531Y112D02*
X5521D01*
X5526D01*
Y85D01*
X5521Y80D01*
X5515D01*
X5510Y85D01*
X5563Y80D02*
X5542D01*
X5563Y101D01*
Y107D01*
X5558Y112D01*
X5547D01*
X5542Y107D01*
X4211Y112D02*
X4201D01*
X4206D01*
Y85D01*
X4201Y80D01*
X4195D01*
X4190Y85D01*
X4222Y80D02*
X4233D01*
X4227D01*
Y112D01*
X4222Y107D01*
X65Y1282D02*
Y1250D01*
X86D01*
X97D02*
X108D01*
X102D01*
Y1282D01*
X97Y1277D01*
X1349Y1789D02*
Y1757D01*
X1370D01*
X1402D02*
X1381D01*
X1402Y1778D01*
Y1784D01*
X1397Y1789D01*
X1386D01*
X1381Y1784D01*
X2060Y3375D02*
Y3407D01*
X2076D01*
X2081Y3402D01*
Y3391D01*
X2076Y3386D01*
X2060D01*
X2113Y3407D02*
X2103Y3402D01*
X2092Y3391D01*
Y3380D01*
X2097Y3375D01*
X2108D01*
X2113Y3380D01*
Y3386D01*
X2108Y3391D01*
X2092D01*
X5900Y414D02*
Y446D01*
X5916D01*
X5921Y441D01*
Y430D01*
X5916Y425D01*
X5900D01*
X5932Y414D02*
X5943D01*
X5937D01*
Y446D01*
X5932Y441D01*
X2140Y3600D02*
Y3632D01*
X2156D01*
X2161Y3627D01*
Y3616D01*
X2156Y3611D01*
X2140D01*
X2172Y3632D02*
X2193D01*
Y3627D01*
X2172Y3605D01*
Y3600D01*
X2171Y489D02*
Y521D01*
X2187D01*
X2192Y516D01*
Y505D01*
X2187Y500D01*
X2171D01*
X2224Y489D02*
X2203D01*
X2224Y510D01*
Y516D01*
X2219Y521D01*
X2208D01*
X2203Y516D01*
X2965Y3600D02*
Y3632D01*
X2981D01*
X2986Y3627D01*
Y3616D01*
X2981Y3611D01*
X2965D01*
X2997Y3627D02*
X3002Y3632D01*
X3013D01*
X3018Y3627D01*
Y3621D01*
X3013Y3616D01*
X3018Y3611D01*
Y3605D01*
X3013Y3600D01*
X3002D01*
X2997Y3605D01*
Y3611D01*
X3002Y3616D01*
X2997Y3621D01*
Y3627D01*
X3002Y3616D02*
X3013D01*
X350Y3830D02*
Y3862D01*
X366D01*
X371Y3857D01*
Y3846D01*
X366Y3841D01*
X350D01*
X382Y3857D02*
X387Y3862D01*
X398D01*
X403Y3857D01*
Y3851D01*
X398Y3846D01*
X393D01*
X398D01*
X403Y3841D01*
Y3835D01*
X398Y3830D01*
X387D01*
X382Y3835D01*
X3845Y3600D02*
Y3632D01*
X3861D01*
X3866Y3627D01*
Y3616D01*
X3861Y3611D01*
X3845D01*
X3877Y3605D02*
X3882Y3600D01*
X3893D01*
X3898Y3605D01*
Y3627D01*
X3893Y3632D01*
X3882D01*
X3877Y3627D01*
Y3621D01*
X3882Y3616D01*
X3898D01*
X2060Y3820D02*
Y3852D01*
X2076D01*
X2081Y3847D01*
Y3836D01*
X2076Y3831D01*
X2060D01*
X2113Y3852D02*
X2092D01*
Y3836D01*
X2103Y3841D01*
X2108D01*
X2113Y3836D01*
Y3825D01*
X2108Y3820D01*
X2097D01*
X2092Y3825D01*
X85Y435D02*
Y467D01*
X101D01*
X106Y462D01*
Y451D01*
X101Y446D01*
X85D01*
X117Y435D02*
X128D01*
X122D01*
Y467D01*
X117Y462D01*
X144Y435D02*
X154D01*
X149D01*
Y467D01*
X144Y462D01*
X3131Y2004D02*
Y2036D01*
X3147D01*
X3152Y2031D01*
Y2020D01*
X3147Y2015D01*
X3131D01*
X3163Y2004D02*
X3174D01*
X3168D01*
Y2036D01*
X3163Y2031D01*
X3190D02*
X3195Y2036D01*
X3206D01*
X3211Y2031D01*
Y2025D01*
X3206Y2020D01*
X3200D01*
X3206D01*
X3211Y2015D01*
Y2009D01*
X3206Y2004D01*
X3195D01*
X3190Y2009D01*
X3246Y2004D02*
Y2036D01*
X3262D01*
X3267Y2031D01*
Y2020D01*
X3262Y2015D01*
X3246D01*
X3278Y2004D02*
X3289D01*
X3283D01*
Y2036D01*
X3278Y2031D01*
X3321Y2004D02*
Y2036D01*
X3305Y2020D01*
X3326D01*
X1085Y1720D02*
Y1752D01*
X1101D01*
X1106Y1747D01*
Y1736D01*
X1101Y1731D01*
X1085D01*
X1096D02*
X1106Y1720D01*
X1133D02*
Y1752D01*
X1117Y1736D01*
X1138D01*
X1140Y1645D02*
Y1677D01*
X1156D01*
X1161Y1672D01*
Y1661D01*
X1156Y1656D01*
X1140D01*
X1151D02*
X1161Y1645D01*
X1193Y1677D02*
X1172D01*
Y1661D01*
X1183Y1666D01*
X1188D01*
X1193Y1661D01*
Y1650D01*
X1188Y1645D01*
X1177D01*
X1172Y1650D01*
X1045Y1645D02*
Y1677D01*
X1061D01*
X1066Y1672D01*
Y1661D01*
X1061Y1656D01*
X1045D01*
X1056D02*
X1066Y1645D01*
X1098Y1677D02*
X1088Y1672D01*
X1077Y1661D01*
Y1650D01*
X1082Y1645D01*
X1093D01*
X1098Y1650D01*
Y1656D01*
X1093Y1661D01*
X1077D01*
X700Y761D02*
Y793D01*
X716D01*
X721Y788D01*
Y777D01*
X716Y772D01*
X700D01*
X711D02*
X721Y761D01*
X732Y793D02*
X753D01*
Y788D01*
X732Y766D01*
Y761D01*
X155Y3115D02*
Y3147D01*
X171D01*
X176Y3142D01*
Y3131D01*
X171Y3126D01*
X155D01*
X166D02*
X176Y3115D01*
X187Y3142D02*
X192Y3147D01*
X203D01*
X208Y3142D01*
Y3136D01*
X203Y3131D01*
X208Y3126D01*
Y3120D01*
X203Y3115D01*
X192D01*
X187Y3120D01*
Y3126D01*
X192Y3131D01*
X187Y3136D01*
Y3142D01*
X192Y3131D02*
X203D01*
X155Y3050D02*
Y3082D01*
X171D01*
X176Y3077D01*
Y3066D01*
X171Y3061D01*
X155D01*
X166D02*
X176Y3050D01*
X187Y3055D02*
X192Y3050D01*
X203D01*
X208Y3055D01*
Y3077D01*
X203Y3082D01*
X192D01*
X187Y3077D01*
Y3071D01*
X192Y3066D01*
X208D01*
X130Y2990D02*
Y3022D01*
X146D01*
X151Y3017D01*
Y3006D01*
X146Y3001D01*
X130D01*
X141D02*
X151Y2990D01*
X162D02*
X173D01*
X167D01*
Y3022D01*
X162Y3017D01*
X189D02*
X194Y3022D01*
X205D01*
X210Y3017D01*
Y2995D01*
X205Y2990D01*
X194D01*
X189Y2995D01*
Y3017D01*
X2120Y870D02*
X2088D01*
Y886D01*
X2093Y891D01*
X2104D01*
X2109Y886D01*
Y870D01*
Y881D02*
X2120Y891D01*
Y902D02*
Y913D01*
Y907D01*
X2088D01*
X2093Y902D01*
X2120Y929D02*
Y939D01*
Y934D01*
X2088D01*
X2093Y929D01*
X5750Y1060D02*
Y1092D01*
X5766D01*
X5771Y1087D01*
Y1076D01*
X5766Y1071D01*
X5750D01*
X5761D02*
X5771Y1060D01*
X5782D02*
X5793D01*
X5787D01*
Y1092D01*
X5782Y1087D01*
X5830Y1060D02*
X5809D01*
X5830Y1081D01*
Y1087D01*
X5825Y1092D01*
X5814D01*
X5809Y1087D01*
X5750Y740D02*
Y772D01*
X5766D01*
X5771Y767D01*
Y756D01*
X5766Y751D01*
X5750D01*
X5761D02*
X5771Y740D01*
X5782D02*
X5793D01*
X5787D01*
Y772D01*
X5782Y767D01*
X5809D02*
X5814Y772D01*
X5825D01*
X5830Y767D01*
Y761D01*
X5825Y756D01*
X5819D01*
X5825D01*
X5830Y751D01*
Y745D01*
X5825Y740D01*
X5814D01*
X5809Y745D01*
X5750Y790D02*
Y822D01*
X5766D01*
X5771Y817D01*
Y806D01*
X5766Y801D01*
X5750D01*
X5761D02*
X5771Y790D01*
X5782D02*
X5793D01*
X5787D01*
Y822D01*
X5782Y817D01*
X5825Y790D02*
Y822D01*
X5809Y806D01*
X5830D01*
X4720Y2020D02*
Y2052D01*
X4736D01*
X4741Y2047D01*
Y2036D01*
X4736Y2031D01*
X4720D01*
X4731D02*
X4741Y2020D01*
X4752D02*
X4763D01*
X4757D01*
Y2052D01*
X4752Y2047D01*
X4800Y2052D02*
X4789Y2047D01*
X4779Y2036D01*
Y2025D01*
X4784Y2020D01*
X4795D01*
X4800Y2025D01*
Y2031D01*
X4795Y2036D01*
X4779D01*
X4811Y2020D02*
Y2025D01*
X4816D01*
Y2020D01*
X4811D01*
X4853D02*
Y2052D01*
X4837Y2036D01*
X4859D01*
X3830Y2030D02*
Y2062D01*
X3846D01*
X3851Y2057D01*
Y2046D01*
X3846Y2041D01*
X3830D01*
X3841D02*
X3851Y2030D01*
X3862D02*
X3873D01*
X3867D01*
Y2062D01*
X3862Y2057D01*
X3910Y2062D02*
X3899Y2057D01*
X3889Y2046D01*
Y2035D01*
X3894Y2030D01*
X3905D01*
X3910Y2035D01*
Y2041D01*
X3905Y2046D01*
X3889D01*
X3921Y2030D02*
Y2035D01*
X3926D01*
Y2030D01*
X3921D01*
X3947Y2057D02*
X3953Y2062D01*
X3963D01*
X3969Y2057D01*
Y2051D01*
X3963Y2046D01*
X3958D01*
X3963D01*
X3969Y2041D01*
Y2035D01*
X3963Y2030D01*
X3953D01*
X3947Y2035D01*
X2880Y2010D02*
Y2042D01*
X2896D01*
X2901Y2037D01*
Y2026D01*
X2896Y2021D01*
X2880D01*
X2891D02*
X2901Y2010D01*
X2912D02*
X2923D01*
X2917D01*
Y2042D01*
X2912Y2037D01*
X2960Y2042D02*
X2949Y2037D01*
X2939Y2026D01*
Y2015D01*
X2944Y2010D01*
X2955D01*
X2960Y2015D01*
Y2021D01*
X2955Y2026D01*
X2939D01*
X2971Y2010D02*
Y2015D01*
X2976D01*
Y2010D01*
X2971D01*
X3019D02*
X2997D01*
X3019Y2031D01*
Y2037D01*
X3013Y2042D01*
X3003D01*
X2997Y2037D01*
X1900Y2590D02*
Y2622D01*
X1916D01*
X1921Y2617D01*
Y2606D01*
X1916Y2601D01*
X1900D01*
X1911D02*
X1921Y2590D01*
X1932D02*
X1943D01*
X1937D01*
Y2622D01*
X1932Y2617D01*
X1980Y2622D02*
X1969Y2617D01*
X1959Y2606D01*
Y2595D01*
X1964Y2590D01*
X1975D01*
X1980Y2595D01*
Y2601D01*
X1975Y2606D01*
X1959D01*
X1991Y2590D02*
Y2595D01*
X1996D01*
Y2590D01*
X1991D01*
X2017D02*
X2028D01*
X2023D01*
Y2622D01*
X2017Y2617D01*
X5500Y2060D02*
Y2092D01*
X5516D01*
X5521Y2087D01*
Y2076D01*
X5516Y2071D01*
X5500D01*
X5511D02*
X5521Y2060D01*
X5532D02*
X5543D01*
X5537D01*
Y2092D01*
X5532Y2087D01*
X5559Y2092D02*
X5580D01*
Y2087D01*
X5559Y2065D01*
Y2060D01*
X5591D02*
Y2065D01*
X5596D01*
Y2060D01*
X5591D01*
X5633D02*
Y2092D01*
X5617Y2076D01*
X5639D01*
X4510Y2060D02*
Y2092D01*
X4526D01*
X4531Y2087D01*
Y2076D01*
X4526Y2071D01*
X4510D01*
X4521D02*
X4531Y2060D01*
X4542D02*
X4553D01*
X4547D01*
Y2092D01*
X4542Y2087D01*
X4569Y2092D02*
X4590D01*
Y2087D01*
X4569Y2065D01*
Y2060D01*
X4601D02*
Y2065D01*
X4606D01*
Y2060D01*
X4601D01*
X4627Y2087D02*
X4633Y2092D01*
X4643D01*
X4649Y2087D01*
Y2081D01*
X4643Y2076D01*
X4638D01*
X4643D01*
X4649Y2071D01*
Y2065D01*
X4643Y2060D01*
X4633D01*
X4627Y2065D01*
X3520Y2040D02*
Y2072D01*
X3536D01*
X3541Y2067D01*
Y2056D01*
X3536Y2051D01*
X3520D01*
X3531D02*
X3541Y2040D01*
X3552D02*
X3563D01*
X3557D01*
Y2072D01*
X3552Y2067D01*
X3579Y2072D02*
X3600D01*
Y2067D01*
X3579Y2045D01*
Y2040D01*
X3611D02*
Y2045D01*
X3616D01*
Y2040D01*
X3611D01*
X3659D02*
X3637D01*
X3659Y2061D01*
Y2067D01*
X3653Y2072D01*
X3643D01*
X3637Y2067D01*
X2520Y1980D02*
Y2012D01*
X2536D01*
X2541Y2007D01*
Y1996D01*
X2536Y1991D01*
X2520D01*
X2531D02*
X2541Y1980D01*
X2552D02*
X2563D01*
X2557D01*
Y2012D01*
X2552Y2007D01*
X2579Y2012D02*
X2600D01*
Y2007D01*
X2579Y1985D01*
Y1980D01*
X2611D02*
Y1985D01*
X2616D01*
Y1980D01*
X2611D01*
X2637D02*
X2648D01*
X2643D01*
Y2012D01*
X2637Y2007D01*
X4720Y2120D02*
Y2152D01*
X4736D01*
X4741Y2147D01*
Y2136D01*
X4736Y2131D01*
X4720D01*
X4731D02*
X4741Y2120D01*
X4752D02*
X4763D01*
X4757D01*
Y2152D01*
X4752Y2147D01*
X4779D02*
X4784Y2152D01*
X4795D01*
X4800Y2147D01*
Y2141D01*
X4795Y2136D01*
X4800Y2131D01*
Y2125D01*
X4795Y2120D01*
X4784D01*
X4779Y2125D01*
Y2131D01*
X4784Y2136D01*
X4779Y2141D01*
Y2147D01*
X4784Y2136D02*
X4795D01*
X4811Y2120D02*
Y2125D01*
X4816D01*
Y2120D01*
X4811D01*
X4853D02*
Y2152D01*
X4837Y2136D01*
X4859D01*
X3830Y2130D02*
Y2162D01*
X3846D01*
X3851Y2157D01*
Y2146D01*
X3846Y2141D01*
X3830D01*
X3841D02*
X3851Y2130D01*
X3862D02*
X3873D01*
X3867D01*
Y2162D01*
X3862Y2157D01*
X3889D02*
X3894Y2162D01*
X3905D01*
X3910Y2157D01*
Y2151D01*
X3905Y2146D01*
X3910Y2141D01*
Y2135D01*
X3905Y2130D01*
X3894D01*
X3889Y2135D01*
Y2141D01*
X3894Y2146D01*
X3889Y2151D01*
Y2157D01*
X3894Y2146D02*
X3905D01*
X3921Y2130D02*
Y2135D01*
X3926D01*
Y2130D01*
X3921D01*
X3947Y2157D02*
X3953Y2162D01*
X3963D01*
X3969Y2157D01*
Y2151D01*
X3963Y2146D01*
X3958D01*
X3963D01*
X3969Y2141D01*
Y2135D01*
X3963Y2130D01*
X3953D01*
X3947Y2135D01*
X2880Y2120D02*
Y2152D01*
X2896D01*
X2901Y2147D01*
Y2136D01*
X2896Y2131D01*
X2880D01*
X2891D02*
X2901Y2120D01*
X2912D02*
X2923D01*
X2917D01*
Y2152D01*
X2912Y2147D01*
X2939D02*
X2944Y2152D01*
X2955D01*
X2960Y2147D01*
Y2141D01*
X2955Y2136D01*
X2960Y2131D01*
Y2125D01*
X2955Y2120D01*
X2944D01*
X2939Y2125D01*
Y2131D01*
X2944Y2136D01*
X2939Y2141D01*
Y2147D01*
X2944Y2136D02*
X2955D01*
X2971Y2120D02*
Y2125D01*
X2976D01*
Y2120D01*
X2971D01*
X3019D02*
X2997D01*
X3019Y2141D01*
Y2147D01*
X3013Y2152D01*
X3003D01*
X2997Y2147D01*
X1900Y2690D02*
Y2722D01*
X1916D01*
X1921Y2717D01*
Y2706D01*
X1916Y2701D01*
X1900D01*
X1911D02*
X1921Y2690D01*
X1932D02*
X1943D01*
X1937D01*
Y2722D01*
X1932Y2717D01*
X1959D02*
X1964Y2722D01*
X1975D01*
X1980Y2717D01*
Y2711D01*
X1975Y2706D01*
X1980Y2701D01*
Y2695D01*
X1975Y2690D01*
X1964D01*
X1959Y2695D01*
Y2701D01*
X1964Y2706D01*
X1959Y2711D01*
Y2717D01*
X1964Y2706D02*
X1975D01*
X1991Y2690D02*
Y2695D01*
X1996D01*
Y2690D01*
X1991D01*
X2017D02*
X2028D01*
X2023D01*
Y2722D01*
X2017Y2717D01*
X5500Y2160D02*
Y2192D01*
X5516D01*
X5521Y2187D01*
Y2176D01*
X5516Y2171D01*
X5500D01*
X5511D02*
X5521Y2160D01*
X5532D02*
X5543D01*
X5537D01*
Y2192D01*
X5532Y2187D01*
X5559Y2165D02*
X5564Y2160D01*
X5575D01*
X5580Y2165D01*
Y2187D01*
X5575Y2192D01*
X5564D01*
X5559Y2187D01*
Y2181D01*
X5564Y2176D01*
X5580D01*
X5591Y2160D02*
Y2165D01*
X5596D01*
Y2160D01*
X5591D01*
X5633D02*
Y2192D01*
X5617Y2176D01*
X5639D01*
X4510Y2160D02*
Y2192D01*
X4526D01*
X4531Y2187D01*
Y2176D01*
X4526Y2171D01*
X4510D01*
X4521D02*
X4531Y2160D01*
X4542D02*
X4553D01*
X4547D01*
Y2192D01*
X4542Y2187D01*
X4569Y2165D02*
X4574Y2160D01*
X4585D01*
X4590Y2165D01*
Y2187D01*
X4585Y2192D01*
X4574D01*
X4569Y2187D01*
Y2181D01*
X4574Y2176D01*
X4590D01*
X4601Y2160D02*
Y2165D01*
X4606D01*
Y2160D01*
X4601D01*
X4627Y2187D02*
X4633Y2192D01*
X4643D01*
X4649Y2187D01*
Y2181D01*
X4643Y2176D01*
X4638D01*
X4643D01*
X4649Y2171D01*
Y2165D01*
X4643Y2160D01*
X4633D01*
X4627Y2165D01*
X3520Y2140D02*
Y2172D01*
X3536D01*
X3541Y2167D01*
Y2156D01*
X3536Y2151D01*
X3520D01*
X3531D02*
X3541Y2140D01*
X3552D02*
X3563D01*
X3557D01*
Y2172D01*
X3552Y2167D01*
X3579Y2145D02*
X3584Y2140D01*
X3595D01*
X3600Y2145D01*
Y2167D01*
X3595Y2172D01*
X3584D01*
X3579Y2167D01*
Y2161D01*
X3584Y2156D01*
X3600D01*
X3611Y2140D02*
Y2145D01*
X3616D01*
Y2140D01*
X3611D01*
X3659D02*
X3637D01*
X3659Y2161D01*
Y2167D01*
X3653Y2172D01*
X3643D01*
X3637Y2167D01*
X2520Y2080D02*
Y2112D01*
X2536D01*
X2541Y2107D01*
Y2096D01*
X2536Y2091D01*
X2520D01*
X2531D02*
X2541Y2080D01*
X2552D02*
X2563D01*
X2557D01*
Y2112D01*
X2552Y2107D01*
X2579Y2085D02*
X2584Y2080D01*
X2595D01*
X2600Y2085D01*
Y2107D01*
X2595Y2112D01*
X2584D01*
X2579Y2107D01*
Y2101D01*
X2584Y2096D01*
X2600D01*
X2611Y2080D02*
Y2085D01*
X2616D01*
Y2080D01*
X2611D01*
X2637D02*
X2648D01*
X2643D01*
Y2112D01*
X2637Y2107D01*
X3860Y1060D02*
Y1092D01*
X3876D01*
X3881Y1087D01*
Y1076D01*
X3876Y1071D01*
X3860D01*
X3871D02*
X3881Y1060D01*
X3913D02*
X3892D01*
X3913Y1081D01*
Y1087D01*
X3908Y1092D01*
X3897D01*
X3892Y1087D01*
X3945Y1092D02*
X3924D01*
Y1076D01*
X3935Y1081D01*
X3940D01*
X3945Y1076D01*
Y1065D01*
X3940Y1060D01*
X3929D01*
X3924Y1065D01*
X3956Y1060D02*
Y1065D01*
X3961D01*
Y1060D01*
X3956D01*
X3983D02*
X3993D01*
X3988D01*
Y1092D01*
X3983Y1087D01*
X4750Y907D02*
Y939D01*
X4766D01*
X4771Y933D01*
Y923D01*
X4766Y917D01*
X4750D01*
X4761D02*
X4771Y907D01*
X4803D02*
X4782D01*
X4803Y928D01*
Y933D01*
X4798Y939D01*
X4787D01*
X4782Y933D01*
X4835Y939D02*
X4814D01*
Y923D01*
X4825Y928D01*
X4830D01*
X4835Y923D01*
Y912D01*
X4830Y907D01*
X4819D01*
X4814Y912D01*
X4846Y907D02*
Y912D01*
X4851D01*
Y907D01*
X4846D01*
X4894D02*
X4873D01*
X4894Y928D01*
Y933D01*
X4889Y939D01*
X4878D01*
X4873Y933D01*
X3860Y1010D02*
Y1042D01*
X3876D01*
X3881Y1037D01*
Y1026D01*
X3876Y1021D01*
X3860D01*
X3871D02*
X3881Y1010D01*
X3913D02*
X3892D01*
X3913Y1031D01*
Y1037D01*
X3908Y1042D01*
X3897D01*
X3892Y1037D01*
X3945Y1042D02*
X3935Y1037D01*
X3924Y1026D01*
Y1015D01*
X3929Y1010D01*
X3940D01*
X3945Y1015D01*
Y1021D01*
X3940Y1026D01*
X3924D01*
X3956Y1010D02*
Y1015D01*
X3961D01*
Y1010D01*
X3956D01*
X3983D02*
X3993D01*
X3988D01*
Y1042D01*
X3983Y1037D01*
X4750Y847D02*
Y879D01*
X4766D01*
X4771Y873D01*
Y863D01*
X4766Y857D01*
X4750D01*
X4761D02*
X4771Y847D01*
X4803D02*
X4782D01*
X4803Y868D01*
Y873D01*
X4798Y879D01*
X4787D01*
X4782Y873D01*
X4835Y879D02*
X4825Y873D01*
X4814Y863D01*
Y852D01*
X4819Y847D01*
X4830D01*
X4835Y852D01*
Y857D01*
X4830Y863D01*
X4814D01*
X4846Y847D02*
Y852D01*
X4851D01*
Y847D01*
X4846D01*
X4894D02*
X4873D01*
X4894Y868D01*
Y873D01*
X4889Y879D01*
X4878D01*
X4873Y873D01*
X4340Y1325D02*
X4308D01*
Y1341D01*
X4313Y1346D01*
X4324D01*
X4329Y1341D01*
Y1325D01*
Y1336D02*
X4340Y1346D01*
Y1378D02*
Y1357D01*
X4319Y1378D01*
X4313D01*
X4308Y1373D01*
Y1362D01*
X4313Y1357D01*
X4308Y1389D02*
Y1410D01*
X4313D01*
X4335Y1389D01*
X4340D01*
Y1421D02*
X4335D01*
Y1426D01*
X4340D01*
Y1421D01*
Y1448D02*
Y1458D01*
Y1453D01*
X4308D01*
X4313Y1448D01*
X5390Y1317D02*
X5358D01*
Y1333D01*
X5363Y1338D01*
X5374D01*
X5379Y1333D01*
Y1317D01*
Y1327D02*
X5390Y1338D01*
Y1370D02*
Y1349D01*
X5369Y1370D01*
X5363D01*
X5358Y1365D01*
Y1354D01*
X5363Y1349D01*
X5358Y1381D02*
Y1402D01*
X5363D01*
X5385Y1381D01*
X5390D01*
Y1413D02*
X5385D01*
Y1418D01*
X5390D01*
Y1413D01*
Y1460D02*
Y1439D01*
X5369Y1460D01*
X5363D01*
X5358Y1455D01*
Y1444D01*
X5363Y1439D01*
X4460Y1325D02*
X4428D01*
Y1341D01*
X4433Y1346D01*
X4444D01*
X4449Y1341D01*
Y1325D01*
Y1336D02*
X4460Y1346D01*
Y1378D02*
Y1357D01*
X4439Y1378D01*
X4433D01*
X4428Y1373D01*
Y1362D01*
X4433Y1357D01*
Y1389D02*
X4428Y1394D01*
Y1405D01*
X4433Y1410D01*
X4439D01*
X4444Y1405D01*
X4449Y1410D01*
X4455D01*
X4460Y1405D01*
Y1394D01*
X4455Y1389D01*
X4449D01*
X4444Y1394D01*
X4439Y1389D01*
X4433D01*
X4444Y1394D02*
Y1405D01*
X4460Y1421D02*
X4455D01*
Y1426D01*
X4460D01*
Y1421D01*
Y1448D02*
Y1458D01*
Y1453D01*
X4428D01*
X4433Y1448D01*
X5510Y1317D02*
X5478D01*
Y1333D01*
X5483Y1338D01*
X5494D01*
X5499Y1333D01*
Y1317D01*
Y1327D02*
X5510Y1338D01*
Y1370D02*
Y1349D01*
X5489Y1370D01*
X5483D01*
X5478Y1365D01*
Y1354D01*
X5483Y1349D01*
Y1381D02*
X5478Y1386D01*
Y1397D01*
X5483Y1402D01*
X5489D01*
X5494Y1397D01*
X5499Y1402D01*
X5505D01*
X5510Y1397D01*
Y1386D01*
X5505Y1381D01*
X5499D01*
X5494Y1386D01*
X5489Y1381D01*
X5483D01*
X5494Y1386D02*
Y1397D01*
X5510Y1413D02*
X5505D01*
Y1418D01*
X5510D01*
Y1413D01*
Y1460D02*
Y1439D01*
X5489Y1460D01*
X5483D01*
X5478Y1455D01*
Y1444D01*
X5483Y1439D01*
X3975Y610D02*
X3943D01*
Y626D01*
X3948Y631D01*
X3959D01*
X3964Y626D01*
Y610D01*
Y621D02*
X3975Y631D01*
Y663D02*
Y642D01*
X3954Y663D01*
X3948D01*
X3943Y658D01*
Y647D01*
X3948Y642D01*
X3970Y674D02*
X3975Y679D01*
Y690D01*
X3970Y695D01*
X3948D01*
X3943Y690D01*
Y679D01*
X3948Y674D01*
X3954D01*
X3959Y679D01*
Y695D01*
X3975Y706D02*
X3970D01*
Y711D01*
X3975D01*
Y706D01*
Y733D02*
Y743D01*
Y738D01*
X3943D01*
X3948Y733D01*
X4020Y610D02*
X3988D01*
Y626D01*
X3993Y631D01*
X4004D01*
X4009Y626D01*
Y610D01*
Y621D02*
X4020Y631D01*
X3993Y642D02*
X3988Y647D01*
Y658D01*
X3993Y663D01*
X3999D01*
X4004Y658D01*
Y653D01*
Y658D01*
X4009Y663D01*
X4015D01*
X4020Y658D01*
Y647D01*
X4015Y642D01*
X3993Y674D02*
X3988Y679D01*
Y690D01*
X3993Y695D01*
X4015D01*
X4020Y690D01*
Y679D01*
X4015Y674D01*
X3993D01*
X4020Y706D02*
X4015D01*
Y711D01*
X4020D01*
Y706D01*
Y733D02*
Y743D01*
Y738D01*
X3988D01*
X3993Y733D01*
X5305Y880D02*
Y912D01*
X5321D01*
X5326Y907D01*
Y896D01*
X5321Y891D01*
X5305D01*
X5316D02*
X5326Y880D01*
X5337Y907D02*
X5342Y912D01*
X5353D01*
X5358Y907D01*
Y901D01*
X5353Y896D01*
X5348D01*
X5353D01*
X5358Y891D01*
Y885D01*
X5353Y880D01*
X5342D01*
X5337Y885D01*
X5369Y907D02*
X5374Y912D01*
X5385D01*
X5390Y907D01*
Y885D01*
X5385Y880D01*
X5374D01*
X5369Y885D01*
Y907D01*
X5401Y880D02*
Y885D01*
X5406D01*
Y880D01*
X5401D01*
X5449D02*
X5428D01*
X5449Y901D01*
Y907D01*
X5444Y912D01*
X5433D01*
X5428Y907D01*
X5746Y1611D02*
X5741Y1616D01*
X5730D01*
X5725Y1611D01*
Y1606D01*
X5730Y1600D01*
X5741D01*
X5746Y1595D01*
Y1590D01*
X5741Y1584D01*
X5730D01*
X5725Y1590D01*
X5757Y1584D02*
X5768D01*
X5762D01*
Y1616D01*
X5757Y1611D01*
X5784Y1584D02*
Y1590D01*
X5789D01*
Y1584D01*
X5784D01*
X5826D02*
Y1616D01*
X5810Y1600D01*
X5832D01*
X2240Y1572D02*
X2261D01*
X2251D01*
Y1540D01*
X2272D02*
Y1572D01*
X2288D01*
X2293Y1567D01*
Y1556D01*
X2288Y1551D01*
X2272D01*
X2325Y1572D02*
X2315Y1567D01*
X2304Y1556D01*
Y1545D01*
X2309Y1540D01*
X2320D01*
X2325Y1545D01*
Y1551D01*
X2320Y1556D01*
X2304D01*
X2340Y1777D02*
X2361D01*
X2351D01*
Y1745D01*
X2372D02*
Y1777D01*
X2388D01*
X2393Y1772D01*
Y1761D01*
X2388Y1756D01*
X2372D01*
X2404Y1777D02*
X2425D01*
Y1772D01*
X2404Y1750D01*
Y1745D01*
X4390Y1140D02*
X4411D01*
X4401D01*
Y1108D01*
X4422D02*
Y1140D01*
X4438D01*
X4443Y1135D01*
Y1124D01*
X4438Y1119D01*
X4422D01*
X4454Y1114D02*
X4459Y1108D01*
X4470D01*
X4475Y1114D01*
Y1135D01*
X4470Y1140D01*
X4459D01*
X4454Y1135D01*
Y1130D01*
X4459Y1124D01*
X4475D01*
X4486Y1108D02*
Y1114D01*
X4491D01*
Y1108D01*
X4486D01*
X4513D02*
X4523D01*
X4518D01*
Y1140D01*
X4513Y1135D01*
X4105Y3012D02*
X4126D01*
X4116D01*
Y2980D01*
X4137D02*
Y3012D01*
X4153D01*
X4158Y3007D01*
Y2996D01*
X4153Y2991D01*
X4137D01*
X4169Y2985D02*
X4174Y2980D01*
X4185D01*
X4190Y2985D01*
Y3007D01*
X4185Y3012D01*
X4174D01*
X4169Y3007D01*
Y3001D01*
X4174Y2996D01*
X4190D01*
X4201Y2980D02*
Y2985D01*
X4206D01*
Y2980D01*
X4201D01*
X4249D02*
X4228D01*
X4249Y3001D01*
Y3007D01*
X4244Y3012D01*
X4233D01*
X4228Y3007D01*
X330Y1222D02*
Y1195D01*
X335Y1190D01*
X346D01*
X351Y1195D01*
Y1222D01*
X362Y1190D02*
X373D01*
X367D01*
Y1222D01*
X362Y1217D01*
X1036Y1494D02*
Y1467D01*
X1041Y1462D01*
X1052D01*
X1057Y1467D01*
Y1494D01*
X1089Y1462D02*
X1068D01*
X1089Y1483D01*
Y1489D01*
X1084Y1494D01*
X1073D01*
X1068Y1489D01*
X325Y3431D02*
Y3404D01*
X330Y3399D01*
X341D01*
X346Y3404D01*
Y3431D01*
X357Y3426D02*
X362Y3431D01*
X373D01*
X378Y3426D01*
Y3420D01*
X373Y3415D01*
X368D01*
X373D01*
X378Y3410D01*
Y3404D01*
X373Y3399D01*
X362D01*
X357Y3404D01*
X2497Y1600D02*
Y1573D01*
X2502Y1568D01*
X2513D01*
X2518Y1573D01*
Y1600D01*
X2545Y1568D02*
Y1600D01*
X2529Y1584D01*
X2550D01*
X4925Y2847D02*
Y2820D01*
X4930Y2815D01*
X4941D01*
X4946Y2820D01*
Y2847D01*
X4978D02*
X4957D01*
Y2831D01*
X4968Y2836D01*
X4973D01*
X4978Y2831D01*
Y2820D01*
X4973Y2815D01*
X4962D01*
X4957Y2820D01*
X4989Y2815D02*
Y2820D01*
X4994D01*
Y2815D01*
X4989D01*
X5032D02*
Y2847D01*
X5016Y2831D01*
X5037D01*
X3975Y2847D02*
Y2820D01*
X3980Y2815D01*
X3991D01*
X3996Y2820D01*
Y2847D01*
X4028D02*
X4007D01*
Y2831D01*
X4018Y2836D01*
X4023D01*
X4028Y2831D01*
Y2820D01*
X4023Y2815D01*
X4012D01*
X4007Y2820D01*
X4039Y2815D02*
Y2820D01*
X4044D01*
Y2815D01*
X4039D01*
X4066Y2842D02*
X4071Y2847D01*
X4082D01*
X4087Y2842D01*
Y2836D01*
X4082Y2831D01*
X4076D01*
X4082D01*
X4087Y2826D01*
Y2820D01*
X4082Y2815D01*
X4071D01*
X4066Y2820D01*
X3025Y2847D02*
Y2820D01*
X3030Y2815D01*
X3041D01*
X3046Y2820D01*
Y2847D01*
X3078D02*
X3057D01*
Y2831D01*
X3068Y2836D01*
X3073D01*
X3078Y2831D01*
Y2820D01*
X3073Y2815D01*
X3062D01*
X3057Y2820D01*
X3089Y2815D02*
Y2820D01*
X3094D01*
Y2815D01*
X3089D01*
X3137D02*
X3116D01*
X3137Y2836D01*
Y2842D01*
X3132Y2847D01*
X3121D01*
X3116Y2842D01*
X2045Y2812D02*
Y2785D01*
X2050Y2780D01*
X2061D01*
X2066Y2785D01*
Y2812D01*
X2098D02*
X2077D01*
Y2796D01*
X2088Y2801D01*
X2093D01*
X2098Y2796D01*
Y2785D01*
X2093Y2780D01*
X2082D01*
X2077Y2785D01*
X2109Y2780D02*
Y2785D01*
X2114D01*
Y2780D01*
X2109D01*
X2136D02*
X2146D01*
X2141D01*
Y2812D01*
X2136Y2807D01*
X3910Y1152D02*
Y1125D01*
X3915Y1120D01*
X3926D01*
X3931Y1125D01*
Y1152D01*
X3963D02*
X3953Y1147D01*
X3942Y1136D01*
Y1125D01*
X3947Y1120D01*
X3958D01*
X3963Y1125D01*
Y1131D01*
X3958Y1136D01*
X3942D01*
X3974Y1120D02*
Y1125D01*
X3979D01*
Y1120D01*
X3974D01*
X4001D02*
X4011D01*
X4006D01*
Y1152D01*
X4001Y1147D01*
X5018Y1017D02*
X5045D01*
X5050Y1022D01*
Y1033D01*
X5045Y1038D01*
X5018D01*
Y1070D02*
X5023Y1059D01*
X5034Y1049D01*
X5045D01*
X5050Y1054D01*
Y1065D01*
X5045Y1070D01*
X5039D01*
X5034Y1065D01*
Y1049D01*
X5050Y1081D02*
X5045D01*
Y1086D01*
X5050D01*
Y1081D01*
Y1128D02*
Y1107D01*
X5029Y1128D01*
X5023D01*
X5018Y1123D01*
Y1113D01*
X5023Y1107D01*
X2158Y1073D02*
Y1068D01*
X2169Y1057D01*
X2179Y1068D01*
Y1073D01*
X2169Y1057D02*
Y1041D01*
X2190D02*
X2201D01*
X2195D01*
Y1073D01*
X2190Y1068D01*
X1390Y957D02*
X1411D01*
X1401D01*
Y925D01*
X1422D02*
Y957D01*
X1438D01*
X1443Y952D01*
Y941D01*
X1438Y936D01*
X1422D01*
X1475Y957D02*
X1454D01*
Y941D01*
X1465Y946D01*
X1470D01*
X1475Y941D01*
Y930D01*
X1470Y925D01*
X1459D01*
X1454Y930D01*
X635Y1912D02*
X656D01*
X646D01*
Y1880D01*
X667D02*
Y1912D01*
X683D01*
X688Y1907D01*
Y1896D01*
X683Y1891D01*
X667D01*
X699Y1907D02*
X704Y1912D01*
X715D01*
X720Y1907D01*
Y1901D01*
X715Y1896D01*
X710D01*
X715D01*
X720Y1891D01*
Y1885D01*
X715Y1880D01*
X704D01*
X699Y1885D01*
X1490Y1922D02*
X1511D01*
X1501D01*
Y1890D01*
X1522D02*
Y1922D01*
X1538D01*
X1543Y1917D01*
Y1906D01*
X1538Y1901D01*
X1522D01*
X1570Y1890D02*
Y1922D01*
X1554Y1906D01*
X1575D01*
X2350Y3232D02*
Y3200D01*
X2366D01*
X2371Y3205D01*
Y3227D01*
X2366Y3232D01*
X2350D01*
X2382Y3200D02*
X2393D01*
X2387D01*
Y3232D01*
X2382Y3227D01*
X2430Y3200D02*
X2409D01*
X2430Y3221D01*
Y3227D01*
X2425Y3232D01*
X2414D01*
X2409Y3227D01*
X2441Y3200D02*
Y3205D01*
X2446D01*
Y3200D01*
X2441D01*
X2467D02*
X2478D01*
X2473D01*
Y3232D01*
X2467Y3227D01*
X2550Y3232D02*
Y3200D01*
X2566D01*
X2571Y3205D01*
Y3227D01*
X2566Y3232D01*
X2550D01*
X2582Y3200D02*
X2593D01*
X2587D01*
Y3232D01*
X2582Y3227D01*
X2630Y3200D02*
X2609D01*
X2630Y3221D01*
Y3227D01*
X2625Y3232D01*
X2614D01*
X2609Y3227D01*
X2641Y3200D02*
Y3205D01*
X2646D01*
Y3200D01*
X2641D01*
X2689D02*
X2667D01*
X2689Y3221D01*
Y3227D01*
X2683Y3232D01*
X2673D01*
X2667Y3227D01*
X2750Y3232D02*
Y3200D01*
X2766D01*
X2771Y3205D01*
Y3227D01*
X2766Y3232D01*
X2750D01*
X2782Y3200D02*
X2793D01*
X2787D01*
Y3232D01*
X2782Y3227D01*
X2830Y3200D02*
X2809D01*
X2830Y3221D01*
Y3227D01*
X2825Y3232D01*
X2814D01*
X2809Y3227D01*
X2841Y3200D02*
Y3205D01*
X2846D01*
Y3200D01*
X2841D01*
X2867Y3227D02*
X2873Y3232D01*
X2883D01*
X2889Y3227D01*
Y3221D01*
X2883Y3216D01*
X2878D01*
X2883D01*
X2889Y3211D01*
Y3205D01*
X2883Y3200D01*
X2873D01*
X2867Y3205D01*
X3030Y3232D02*
Y3200D01*
X3046D01*
X3051Y3205D01*
Y3227D01*
X3046Y3232D01*
X3030D01*
X3062Y3200D02*
X3073D01*
X3067D01*
Y3232D01*
X3062Y3227D01*
X3110Y3200D02*
X3089D01*
X3110Y3221D01*
Y3227D01*
X3105Y3232D01*
X3094D01*
X3089Y3227D01*
X3121Y3200D02*
Y3205D01*
X3126D01*
Y3200D01*
X3121D01*
X3163D02*
Y3232D01*
X3147Y3216D01*
X3169D01*
X3230Y3232D02*
Y3200D01*
X3246D01*
X3251Y3205D01*
Y3227D01*
X3246Y3232D01*
X3230D01*
X3262Y3200D02*
X3273D01*
X3267D01*
Y3232D01*
X3262Y3227D01*
X3310Y3200D02*
X3289D01*
X3310Y3221D01*
Y3227D01*
X3305Y3232D01*
X3294D01*
X3289Y3227D01*
X3321Y3200D02*
Y3205D01*
X3326D01*
Y3200D01*
X3321D01*
X3369Y3232D02*
X3347D01*
Y3216D01*
X3358Y3221D01*
X3363D01*
X3369Y3216D01*
Y3205D01*
X3363Y3200D01*
X3353D01*
X3347Y3205D01*
X3430Y3232D02*
Y3200D01*
X3446D01*
X3451Y3205D01*
Y3227D01*
X3446Y3232D01*
X3430D01*
X3462Y3200D02*
X3473D01*
X3467D01*
Y3232D01*
X3462Y3227D01*
X3510Y3200D02*
X3489D01*
X3510Y3221D01*
Y3227D01*
X3505Y3232D01*
X3494D01*
X3489Y3227D01*
X3521Y3200D02*
Y3205D01*
X3526D01*
Y3200D01*
X3521D01*
X3569Y3232D02*
X3558Y3227D01*
X3547Y3216D01*
Y3205D01*
X3553Y3200D01*
X3563D01*
X3569Y3205D01*
Y3211D01*
X3563Y3216D01*
X3547D01*
X3630Y3232D02*
Y3200D01*
X3646D01*
X3651Y3205D01*
Y3227D01*
X3646Y3232D01*
X3630D01*
X3662Y3200D02*
X3673D01*
X3667D01*
Y3232D01*
X3662Y3227D01*
X3710Y3200D02*
X3689D01*
X3710Y3221D01*
Y3227D01*
X3705Y3232D01*
X3694D01*
X3689Y3227D01*
X3721Y3200D02*
Y3205D01*
X3726D01*
Y3200D01*
X3721D01*
X3747Y3232D02*
X3769D01*
Y3227D01*
X3747Y3205D01*
Y3200D01*
X3910Y3232D02*
Y3200D01*
X3926D01*
X3931Y3205D01*
Y3227D01*
X3926Y3232D01*
X3910D01*
X3942Y3200D02*
X3953D01*
X3947D01*
Y3232D01*
X3942Y3227D01*
X3990Y3200D02*
X3969D01*
X3990Y3221D01*
Y3227D01*
X3985Y3232D01*
X3974D01*
X3969Y3227D01*
X4001Y3200D02*
Y3205D01*
X4006D01*
Y3200D01*
X4001D01*
X4027Y3227D02*
X4033Y3232D01*
X4043D01*
X4049Y3227D01*
Y3221D01*
X4043Y3216D01*
X4049Y3211D01*
Y3205D01*
X4043Y3200D01*
X4033D01*
X4027Y3205D01*
Y3211D01*
X4033Y3216D01*
X4027Y3221D01*
Y3227D01*
X4033Y3216D02*
X4043D01*
X4110Y3232D02*
Y3200D01*
X4126D01*
X4131Y3205D01*
Y3227D01*
X4126Y3232D01*
X4110D01*
X4142Y3200D02*
X4153D01*
X4147D01*
Y3232D01*
X4142Y3227D01*
X4190Y3200D02*
X4169D01*
X4190Y3221D01*
Y3227D01*
X4185Y3232D01*
X4174D01*
X4169Y3227D01*
X4201Y3200D02*
Y3205D01*
X4206D01*
Y3200D01*
X4201D01*
X4227Y3205D02*
X4233Y3200D01*
X4243D01*
X4249Y3205D01*
Y3227D01*
X4243Y3232D01*
X4233D01*
X4227Y3227D01*
Y3221D01*
X4233Y3216D01*
X4249D01*
X4310Y3232D02*
Y3200D01*
X4326D01*
X4331Y3205D01*
Y3227D01*
X4326Y3232D01*
X4310D01*
X4342Y3200D02*
X4353D01*
X4347D01*
Y3232D01*
X4342Y3227D01*
X4390Y3200D02*
X4369D01*
X4390Y3221D01*
Y3227D01*
X4385Y3232D01*
X4374D01*
X4369Y3227D01*
X4401Y3200D02*
Y3205D01*
X4406D01*
Y3200D01*
X4401D01*
X4427D02*
X4438D01*
X4433D01*
Y3232D01*
X4427Y3227D01*
X4454D02*
X4459Y3232D01*
X4470D01*
X4475Y3227D01*
Y3205D01*
X4470Y3200D01*
X4459D01*
X4454Y3205D01*
Y3227D01*
X4508Y3232D02*
Y3200D01*
X4524D01*
X4530Y3205D01*
Y3227D01*
X4524Y3232D01*
X4508D01*
X4540Y3200D02*
X4551D01*
X4546D01*
Y3232D01*
X4540Y3227D01*
X4588Y3200D02*
X4567D01*
X4588Y3221D01*
Y3227D01*
X4583Y3232D01*
X4572D01*
X4567Y3227D01*
X4599Y3200D02*
Y3205D01*
X4604D01*
Y3200D01*
X4599D01*
X4626D02*
X4636D01*
X4631D01*
Y3232D01*
X4626Y3227D01*
X4652Y3200D02*
X4663D01*
X4658D01*
Y3232D01*
X4652Y3227D01*
X4788Y3232D02*
Y3200D01*
X4804D01*
X4810Y3205D01*
Y3227D01*
X4804Y3232D01*
X4788D01*
X4820Y3200D02*
X4831D01*
X4826D01*
Y3232D01*
X4820Y3227D01*
X4868Y3200D02*
X4847D01*
X4868Y3221D01*
Y3227D01*
X4863Y3232D01*
X4852D01*
X4847Y3227D01*
X4879Y3200D02*
Y3205D01*
X4884D01*
Y3200D01*
X4879D01*
X4906D02*
X4916D01*
X4911D01*
Y3232D01*
X4906Y3227D01*
X4954Y3200D02*
X4932D01*
X4954Y3221D01*
Y3227D01*
X4948Y3232D01*
X4938D01*
X4932Y3227D01*
X4988Y3232D02*
Y3200D01*
X5004D01*
X5010Y3205D01*
Y3227D01*
X5004Y3232D01*
X4988D01*
X5020Y3200D02*
X5031D01*
X5026D01*
Y3232D01*
X5020Y3227D01*
X5068Y3200D02*
X5047D01*
X5068Y3221D01*
Y3227D01*
X5063Y3232D01*
X5052D01*
X5047Y3227D01*
X5079Y3200D02*
Y3205D01*
X5084D01*
Y3200D01*
X5079D01*
X5106D02*
X5116D01*
X5111D01*
Y3232D01*
X5106Y3227D01*
X5132D02*
X5138Y3232D01*
X5148D01*
X5154Y3227D01*
Y3221D01*
X5148Y3216D01*
X5143D01*
X5148D01*
X5154Y3211D01*
Y3205D01*
X5148Y3200D01*
X5138D01*
X5132Y3205D01*
X5188Y3232D02*
Y3200D01*
X5204D01*
X5210Y3205D01*
Y3227D01*
X5204Y3232D01*
X5188D01*
X5220Y3200D02*
X5231D01*
X5226D01*
Y3232D01*
X5220Y3227D01*
X5268Y3200D02*
X5247D01*
X5268Y3221D01*
Y3227D01*
X5263Y3232D01*
X5252D01*
X5247Y3227D01*
X5279Y3200D02*
Y3205D01*
X5284D01*
Y3200D01*
X5279D01*
X5306D02*
X5316D01*
X5311D01*
Y3232D01*
X5306Y3227D01*
X5348Y3200D02*
Y3232D01*
X5332Y3216D01*
X5354D01*
X5388Y3232D02*
Y3200D01*
X5404D01*
X5410Y3205D01*
Y3227D01*
X5404Y3232D01*
X5388D01*
X5420Y3200D02*
X5431D01*
X5426D01*
Y3232D01*
X5420Y3227D01*
X5468Y3200D02*
X5447D01*
X5468Y3221D01*
Y3227D01*
X5463Y3232D01*
X5452D01*
X5447Y3227D01*
X5479Y3200D02*
Y3205D01*
X5484D01*
Y3200D01*
X5479D01*
X5506D02*
X5516D01*
X5511D01*
Y3232D01*
X5506Y3227D01*
X5554Y3232D02*
X5532D01*
Y3216D01*
X5543Y3221D01*
X5548D01*
X5554Y3216D01*
Y3205D01*
X5548Y3200D01*
X5538D01*
X5532Y3205D01*
X2350Y3290D02*
Y3322D01*
X2366D01*
X2371Y3317D01*
Y3306D01*
X2366Y3301D01*
X2350D01*
X2361D02*
X2371Y3290D01*
X2382Y3317D02*
X2387Y3322D01*
X2398D01*
X2403Y3317D01*
Y3311D01*
X2398Y3306D01*
X2393D01*
X2398D01*
X2403Y3301D01*
Y3295D01*
X2398Y3290D01*
X2387D01*
X2382Y3295D01*
X2414Y3290D02*
X2425D01*
X2419D01*
Y3322D01*
X2414Y3317D01*
X2441Y3290D02*
Y3295D01*
X2446D01*
Y3290D01*
X2441D01*
X2467D02*
X2478D01*
X2473D01*
Y3322D01*
X2467Y3317D01*
X2550Y3290D02*
Y3322D01*
X2566D01*
X2571Y3317D01*
Y3306D01*
X2566Y3301D01*
X2550D01*
X2561D02*
X2571Y3290D01*
X2582Y3317D02*
X2587Y3322D01*
X2598D01*
X2603Y3317D01*
Y3311D01*
X2598Y3306D01*
X2593D01*
X2598D01*
X2603Y3301D01*
Y3295D01*
X2598Y3290D01*
X2587D01*
X2582Y3295D01*
X2614Y3290D02*
X2625D01*
X2619D01*
Y3322D01*
X2614Y3317D01*
X2641Y3290D02*
Y3295D01*
X2646D01*
Y3290D01*
X2641D01*
X2689D02*
X2667D01*
X2689Y3311D01*
Y3317D01*
X2683Y3322D01*
X2673D01*
X2667Y3317D01*
X2750Y3290D02*
Y3322D01*
X2766D01*
X2771Y3317D01*
Y3306D01*
X2766Y3301D01*
X2750D01*
X2761D02*
X2771Y3290D01*
X2782Y3317D02*
X2787Y3322D01*
X2798D01*
X2803Y3317D01*
Y3311D01*
X2798Y3306D01*
X2793D01*
X2798D01*
X2803Y3301D01*
Y3295D01*
X2798Y3290D01*
X2787D01*
X2782Y3295D01*
X2814Y3290D02*
X2825D01*
X2819D01*
Y3322D01*
X2814Y3317D01*
X2841Y3290D02*
Y3295D01*
X2846D01*
Y3290D01*
X2841D01*
X2867Y3317D02*
X2873Y3322D01*
X2883D01*
X2889Y3317D01*
Y3311D01*
X2883Y3306D01*
X2878D01*
X2883D01*
X2889Y3301D01*
Y3295D01*
X2883Y3290D01*
X2873D01*
X2867Y3295D01*
X3030Y3290D02*
Y3322D01*
X3046D01*
X3051Y3317D01*
Y3306D01*
X3046Y3301D01*
X3030D01*
X3041D02*
X3051Y3290D01*
X3062Y3317D02*
X3067Y3322D01*
X3078D01*
X3083Y3317D01*
Y3311D01*
X3078Y3306D01*
X3073D01*
X3078D01*
X3083Y3301D01*
Y3295D01*
X3078Y3290D01*
X3067D01*
X3062Y3295D01*
X3094Y3290D02*
X3105D01*
X3099D01*
Y3322D01*
X3094Y3317D01*
X3121Y3290D02*
Y3295D01*
X3126D01*
Y3290D01*
X3121D01*
X3163D02*
Y3322D01*
X3147Y3306D01*
X3169D01*
X3230Y3290D02*
Y3322D01*
X3246D01*
X3251Y3317D01*
Y3306D01*
X3246Y3301D01*
X3230D01*
X3241D02*
X3251Y3290D01*
X3262Y3317D02*
X3267Y3322D01*
X3278D01*
X3283Y3317D01*
Y3311D01*
X3278Y3306D01*
X3273D01*
X3278D01*
X3283Y3301D01*
Y3295D01*
X3278Y3290D01*
X3267D01*
X3262Y3295D01*
X3294Y3290D02*
X3305D01*
X3299D01*
Y3322D01*
X3294Y3317D01*
X3321Y3290D02*
Y3295D01*
X3326D01*
Y3290D01*
X3321D01*
X3369Y3322D02*
X3347D01*
Y3306D01*
X3358Y3311D01*
X3363D01*
X3369Y3306D01*
Y3295D01*
X3363Y3290D01*
X3353D01*
X3347Y3295D01*
X3430Y3290D02*
Y3322D01*
X3446D01*
X3451Y3317D01*
Y3306D01*
X3446Y3301D01*
X3430D01*
X3441D02*
X3451Y3290D01*
X3462Y3317D02*
X3467Y3322D01*
X3478D01*
X3483Y3317D01*
Y3311D01*
X3478Y3306D01*
X3473D01*
X3478D01*
X3483Y3301D01*
Y3295D01*
X3478Y3290D01*
X3467D01*
X3462Y3295D01*
X3494Y3290D02*
X3505D01*
X3499D01*
Y3322D01*
X3494Y3317D01*
X3521Y3290D02*
Y3295D01*
X3526D01*
Y3290D01*
X3521D01*
X3569Y3322D02*
X3558Y3317D01*
X3547Y3306D01*
Y3295D01*
X3553Y3290D01*
X3563D01*
X3569Y3295D01*
Y3301D01*
X3563Y3306D01*
X3547D01*
X3630Y3290D02*
Y3322D01*
X3646D01*
X3651Y3317D01*
Y3306D01*
X3646Y3301D01*
X3630D01*
X3641D02*
X3651Y3290D01*
X3662Y3317D02*
X3667Y3322D01*
X3678D01*
X3683Y3317D01*
Y3311D01*
X3678Y3306D01*
X3673D01*
X3678D01*
X3683Y3301D01*
Y3295D01*
X3678Y3290D01*
X3667D01*
X3662Y3295D01*
X3694Y3290D02*
X3705D01*
X3699D01*
Y3322D01*
X3694Y3317D01*
X3721Y3290D02*
Y3295D01*
X3726D01*
Y3290D01*
X3721D01*
X3747Y3322D02*
X3769D01*
Y3317D01*
X3747Y3295D01*
Y3290D01*
X3910D02*
Y3322D01*
X3926D01*
X3931Y3317D01*
Y3306D01*
X3926Y3301D01*
X3910D01*
X3921D02*
X3931Y3290D01*
X3942Y3317D02*
X3947Y3322D01*
X3958D01*
X3963Y3317D01*
Y3311D01*
X3958Y3306D01*
X3953D01*
X3958D01*
X3963Y3301D01*
Y3295D01*
X3958Y3290D01*
X3947D01*
X3942Y3295D01*
X3974Y3290D02*
X3985D01*
X3979D01*
Y3322D01*
X3974Y3317D01*
X4001Y3290D02*
Y3295D01*
X4006D01*
Y3290D01*
X4001D01*
X4027Y3317D02*
X4033Y3322D01*
X4043D01*
X4049Y3317D01*
Y3311D01*
X4043Y3306D01*
X4049Y3301D01*
Y3295D01*
X4043Y3290D01*
X4033D01*
X4027Y3295D01*
Y3301D01*
X4033Y3306D01*
X4027Y3311D01*
Y3317D01*
X4033Y3306D02*
X4043D01*
X4110Y3290D02*
Y3322D01*
X4126D01*
X4131Y3317D01*
Y3306D01*
X4126Y3301D01*
X4110D01*
X4121D02*
X4131Y3290D01*
X4142Y3317D02*
X4147Y3322D01*
X4158D01*
X4163Y3317D01*
Y3311D01*
X4158Y3306D01*
X4153D01*
X4158D01*
X4163Y3301D01*
Y3295D01*
X4158Y3290D01*
X4147D01*
X4142Y3295D01*
X4174Y3290D02*
X4185D01*
X4179D01*
Y3322D01*
X4174Y3317D01*
X4201Y3290D02*
Y3295D01*
X4206D01*
Y3290D01*
X4201D01*
X4227Y3295D02*
X4233Y3290D01*
X4243D01*
X4249Y3295D01*
Y3317D01*
X4243Y3322D01*
X4233D01*
X4227Y3317D01*
Y3311D01*
X4233Y3306D01*
X4249D01*
X4310Y3290D02*
Y3322D01*
X4326D01*
X4331Y3317D01*
Y3306D01*
X4326Y3301D01*
X4310D01*
X4321D02*
X4331Y3290D01*
X4342Y3317D02*
X4347Y3322D01*
X4358D01*
X4363Y3317D01*
Y3311D01*
X4358Y3306D01*
X4353D01*
X4358D01*
X4363Y3301D01*
Y3295D01*
X4358Y3290D01*
X4347D01*
X4342Y3295D01*
X4374Y3290D02*
X4385D01*
X4379D01*
Y3322D01*
X4374Y3317D01*
X4401Y3290D02*
Y3295D01*
X4406D01*
Y3290D01*
X4401D01*
X4427D02*
X4438D01*
X4433D01*
Y3322D01*
X4427Y3317D01*
X4454D02*
X4459Y3322D01*
X4470D01*
X4475Y3317D01*
Y3295D01*
X4470Y3290D01*
X4459D01*
X4454Y3295D01*
Y3317D01*
X4508Y3290D02*
Y3322D01*
X4524D01*
X4530Y3317D01*
Y3306D01*
X4524Y3301D01*
X4508D01*
X4519D02*
X4530Y3290D01*
X4540Y3317D02*
X4546Y3322D01*
X4556D01*
X4562Y3317D01*
Y3311D01*
X4556Y3306D01*
X4551D01*
X4556D01*
X4562Y3301D01*
Y3295D01*
X4556Y3290D01*
X4546D01*
X4540Y3295D01*
X4572Y3290D02*
X4583D01*
X4578D01*
Y3322D01*
X4572Y3317D01*
X4599Y3290D02*
Y3295D01*
X4604D01*
Y3290D01*
X4599D01*
X4626D02*
X4636D01*
X4631D01*
Y3322D01*
X4626Y3317D01*
X4652Y3290D02*
X4663D01*
X4658D01*
Y3322D01*
X4652Y3317D01*
X4788Y3290D02*
Y3322D01*
X4804D01*
X4810Y3317D01*
Y3306D01*
X4804Y3301D01*
X4788D01*
X4799D02*
X4810Y3290D01*
X4820Y3317D02*
X4826Y3322D01*
X4836D01*
X4842Y3317D01*
Y3311D01*
X4836Y3306D01*
X4831D01*
X4836D01*
X4842Y3301D01*
Y3295D01*
X4836Y3290D01*
X4826D01*
X4820Y3295D01*
X4852Y3290D02*
X4863D01*
X4858D01*
Y3322D01*
X4852Y3317D01*
X4879Y3290D02*
Y3295D01*
X4884D01*
Y3290D01*
X4879D01*
X4906D02*
X4916D01*
X4911D01*
Y3322D01*
X4906Y3317D01*
X4954Y3290D02*
X4932D01*
X4954Y3311D01*
Y3317D01*
X4948Y3322D01*
X4938D01*
X4932Y3317D01*
X4988Y3290D02*
Y3322D01*
X5004D01*
X5010Y3317D01*
Y3306D01*
X5004Y3301D01*
X4988D01*
X4999D02*
X5010Y3290D01*
X5020Y3317D02*
X5026Y3322D01*
X5036D01*
X5042Y3317D01*
Y3311D01*
X5036Y3306D01*
X5031D01*
X5036D01*
X5042Y3301D01*
Y3295D01*
X5036Y3290D01*
X5026D01*
X5020Y3295D01*
X5052Y3290D02*
X5063D01*
X5058D01*
Y3322D01*
X5052Y3317D01*
X5079Y3290D02*
Y3295D01*
X5084D01*
Y3290D01*
X5079D01*
X5106D02*
X5116D01*
X5111D01*
Y3322D01*
X5106Y3317D01*
X5132D02*
X5138Y3322D01*
X5148D01*
X5154Y3317D01*
Y3311D01*
X5148Y3306D01*
X5143D01*
X5148D01*
X5154Y3301D01*
Y3295D01*
X5148Y3290D01*
X5138D01*
X5132Y3295D01*
X5188Y3290D02*
Y3322D01*
X5204D01*
X5210Y3317D01*
Y3306D01*
X5204Y3301D01*
X5188D01*
X5199D02*
X5210Y3290D01*
X5220Y3317D02*
X5226Y3322D01*
X5236D01*
X5242Y3317D01*
Y3311D01*
X5236Y3306D01*
X5231D01*
X5236D01*
X5242Y3301D01*
Y3295D01*
X5236Y3290D01*
X5226D01*
X5220Y3295D01*
X5252Y3290D02*
X5263D01*
X5258D01*
Y3322D01*
X5252Y3317D01*
X5279Y3290D02*
Y3295D01*
X5284D01*
Y3290D01*
X5279D01*
X5306D02*
X5316D01*
X5311D01*
Y3322D01*
X5306Y3317D01*
X5348Y3290D02*
Y3322D01*
X5332Y3306D01*
X5354D01*
X5388Y3290D02*
Y3322D01*
X5404D01*
X5410Y3317D01*
Y3306D01*
X5404Y3301D01*
X5388D01*
X5399D02*
X5410Y3290D01*
X5420Y3317D02*
X5426Y3322D01*
X5436D01*
X5442Y3317D01*
Y3311D01*
X5436Y3306D01*
X5431D01*
X5436D01*
X5442Y3301D01*
Y3295D01*
X5436Y3290D01*
X5426D01*
X5420Y3295D01*
X5452Y3290D02*
X5463D01*
X5458D01*
Y3322D01*
X5452Y3317D01*
X5479Y3290D02*
Y3295D01*
X5484D01*
Y3290D01*
X5479D01*
X5506D02*
X5516D01*
X5511D01*
Y3322D01*
X5506Y3317D01*
X5554Y3322D02*
X5532D01*
Y3306D01*
X5543Y3311D01*
X5548D01*
X5554Y3306D01*
Y3295D01*
X5548Y3290D01*
X5538D01*
X5532Y3295D01*
X2348Y3335D02*
Y3367D01*
X2364D01*
X2370Y3362D01*
Y3351D01*
X2364Y3346D01*
X2348D01*
X2359D02*
X2370Y3335D01*
X2380Y3362D02*
X2386Y3367D01*
X2396D01*
X2402Y3362D01*
Y3356D01*
X2396Y3351D01*
X2391D01*
X2396D01*
X2402Y3346D01*
Y3340D01*
X2396Y3335D01*
X2386D01*
X2380Y3340D01*
X2434Y3335D02*
X2412D01*
X2434Y3356D01*
Y3362D01*
X2428Y3367D01*
X2418D01*
X2412Y3362D01*
X2444Y3335D02*
Y3340D01*
X2450D01*
Y3335D01*
X2444D01*
X2471D02*
X2482D01*
X2476D01*
Y3367D01*
X2471Y3362D01*
X2548Y3335D02*
Y3367D01*
X2564D01*
X2570Y3362D01*
Y3351D01*
X2564Y3346D01*
X2548D01*
X2559D02*
X2570Y3335D01*
X2580Y3362D02*
X2586Y3367D01*
X2596D01*
X2602Y3362D01*
Y3356D01*
X2596Y3351D01*
X2591D01*
X2596D01*
X2602Y3346D01*
Y3340D01*
X2596Y3335D01*
X2586D01*
X2580Y3340D01*
X2634Y3335D02*
X2612D01*
X2634Y3356D01*
Y3362D01*
X2628Y3367D01*
X2618D01*
X2612Y3362D01*
X2644Y3335D02*
Y3340D01*
X2650D01*
Y3335D01*
X2644D01*
X2692D02*
X2671D01*
X2692Y3356D01*
Y3362D01*
X2687Y3367D01*
X2676D01*
X2671Y3362D01*
X2748Y3335D02*
Y3367D01*
X2764D01*
X2770Y3362D01*
Y3351D01*
X2764Y3346D01*
X2748D01*
X2759D02*
X2770Y3335D01*
X2780Y3362D02*
X2786Y3367D01*
X2796D01*
X2802Y3362D01*
Y3356D01*
X2796Y3351D01*
X2791D01*
X2796D01*
X2802Y3346D01*
Y3340D01*
X2796Y3335D01*
X2786D01*
X2780Y3340D01*
X2834Y3335D02*
X2812D01*
X2834Y3356D01*
Y3362D01*
X2828Y3367D01*
X2818D01*
X2812Y3362D01*
X2844Y3335D02*
Y3340D01*
X2850D01*
Y3335D01*
X2844D01*
X2871Y3362D02*
X2876Y3367D01*
X2887D01*
X2892Y3362D01*
Y3356D01*
X2887Y3351D01*
X2882D01*
X2887D01*
X2892Y3346D01*
Y3340D01*
X2887Y3335D01*
X2876D01*
X2871Y3340D01*
X3028Y3335D02*
Y3367D01*
X3044D01*
X3050Y3362D01*
Y3351D01*
X3044Y3346D01*
X3028D01*
X3039D02*
X3050Y3335D01*
X3060Y3362D02*
X3066Y3367D01*
X3076D01*
X3082Y3362D01*
Y3356D01*
X3076Y3351D01*
X3071D01*
X3076D01*
X3082Y3346D01*
Y3340D01*
X3076Y3335D01*
X3066D01*
X3060Y3340D01*
X3114Y3335D02*
X3092D01*
X3114Y3356D01*
Y3362D01*
X3108Y3367D01*
X3098D01*
X3092Y3362D01*
X3124Y3335D02*
Y3340D01*
X3130D01*
Y3335D01*
X3124D01*
X3167D02*
Y3367D01*
X3151Y3351D01*
X3172D01*
X3228Y3335D02*
Y3367D01*
X3244D01*
X3250Y3362D01*
Y3351D01*
X3244Y3346D01*
X3228D01*
X3239D02*
X3250Y3335D01*
X3260Y3362D02*
X3266Y3367D01*
X3276D01*
X3282Y3362D01*
Y3356D01*
X3276Y3351D01*
X3271D01*
X3276D01*
X3282Y3346D01*
Y3340D01*
X3276Y3335D01*
X3266D01*
X3260Y3340D01*
X3314Y3335D02*
X3292D01*
X3314Y3356D01*
Y3362D01*
X3308Y3367D01*
X3298D01*
X3292Y3362D01*
X3324Y3335D02*
Y3340D01*
X3330D01*
Y3335D01*
X3324D01*
X3372Y3367D02*
X3351D01*
Y3351D01*
X3362Y3356D01*
X3367D01*
X3372Y3351D01*
Y3340D01*
X3367Y3335D01*
X3356D01*
X3351Y3340D01*
X3428Y3335D02*
Y3367D01*
X3444D01*
X3450Y3362D01*
Y3351D01*
X3444Y3346D01*
X3428D01*
X3439D02*
X3450Y3335D01*
X3460Y3362D02*
X3466Y3367D01*
X3476D01*
X3482Y3362D01*
Y3356D01*
X3476Y3351D01*
X3471D01*
X3476D01*
X3482Y3346D01*
Y3340D01*
X3476Y3335D01*
X3466D01*
X3460Y3340D01*
X3514Y3335D02*
X3492D01*
X3514Y3356D01*
Y3362D01*
X3508Y3367D01*
X3498D01*
X3492Y3362D01*
X3524Y3335D02*
Y3340D01*
X3530D01*
Y3335D01*
X3524D01*
X3572Y3367D02*
X3562Y3362D01*
X3551Y3351D01*
Y3340D01*
X3556Y3335D01*
X3567D01*
X3572Y3340D01*
Y3346D01*
X3567Y3351D01*
X3551D01*
X3628Y3335D02*
Y3367D01*
X3644D01*
X3650Y3362D01*
Y3351D01*
X3644Y3346D01*
X3628D01*
X3639D02*
X3650Y3335D01*
X3660Y3362D02*
X3666Y3367D01*
X3676D01*
X3682Y3362D01*
Y3356D01*
X3676Y3351D01*
X3671D01*
X3676D01*
X3682Y3346D01*
Y3340D01*
X3676Y3335D01*
X3666D01*
X3660Y3340D01*
X3714Y3335D02*
X3692D01*
X3714Y3356D01*
Y3362D01*
X3708Y3367D01*
X3698D01*
X3692Y3362D01*
X3724Y3335D02*
Y3340D01*
X3730D01*
Y3335D01*
X3724D01*
X3751Y3367D02*
X3772D01*
Y3362D01*
X3751Y3340D01*
Y3335D01*
X3908D02*
Y3367D01*
X3924D01*
X3930Y3362D01*
Y3351D01*
X3924Y3346D01*
X3908D01*
X3919D02*
X3930Y3335D01*
X3940Y3362D02*
X3946Y3367D01*
X3956D01*
X3962Y3362D01*
Y3356D01*
X3956Y3351D01*
X3951D01*
X3956D01*
X3962Y3346D01*
Y3340D01*
X3956Y3335D01*
X3946D01*
X3940Y3340D01*
X3994Y3335D02*
X3972D01*
X3994Y3356D01*
Y3362D01*
X3988Y3367D01*
X3978D01*
X3972Y3362D01*
X4004Y3335D02*
Y3340D01*
X4010D01*
Y3335D01*
X4004D01*
X4031Y3362D02*
X4036Y3367D01*
X4047D01*
X4052Y3362D01*
Y3356D01*
X4047Y3351D01*
X4052Y3346D01*
Y3340D01*
X4047Y3335D01*
X4036D01*
X4031Y3340D01*
Y3346D01*
X4036Y3351D01*
X4031Y3356D01*
Y3362D01*
X4036Y3351D02*
X4047D01*
X4108Y3335D02*
Y3367D01*
X4124D01*
X4130Y3362D01*
Y3351D01*
X4124Y3346D01*
X4108D01*
X4119D02*
X4130Y3335D01*
X4140Y3362D02*
X4146Y3367D01*
X4156D01*
X4162Y3362D01*
Y3356D01*
X4156Y3351D01*
X4151D01*
X4156D01*
X4162Y3346D01*
Y3340D01*
X4156Y3335D01*
X4146D01*
X4140Y3340D01*
X4194Y3335D02*
X4172D01*
X4194Y3356D01*
Y3362D01*
X4188Y3367D01*
X4178D01*
X4172Y3362D01*
X4204Y3335D02*
Y3340D01*
X4210D01*
Y3335D01*
X4204D01*
X4231Y3340D02*
X4236Y3335D01*
X4247D01*
X4252Y3340D01*
Y3362D01*
X4247Y3367D01*
X4236D01*
X4231Y3362D01*
Y3356D01*
X4236Y3351D01*
X4252D01*
X4308Y3335D02*
Y3367D01*
X4324D01*
X4330Y3362D01*
Y3351D01*
X4324Y3346D01*
X4308D01*
X4319D02*
X4330Y3335D01*
X4340Y3362D02*
X4346Y3367D01*
X4356D01*
X4362Y3362D01*
Y3356D01*
X4356Y3351D01*
X4351D01*
X4356D01*
X4362Y3346D01*
Y3340D01*
X4356Y3335D01*
X4346D01*
X4340Y3340D01*
X4394Y3335D02*
X4372D01*
X4394Y3356D01*
Y3362D01*
X4388Y3367D01*
X4378D01*
X4372Y3362D01*
X4404Y3335D02*
Y3340D01*
X4410D01*
Y3335D01*
X4404D01*
X4431D02*
X4442D01*
X4436D01*
Y3367D01*
X4431Y3362D01*
X4458D02*
X4463Y3367D01*
X4474D01*
X4479Y3362D01*
Y3340D01*
X4474Y3335D01*
X4463D01*
X4458Y3340D01*
Y3362D01*
X4507Y3335D02*
Y3367D01*
X4523D01*
X4528Y3362D01*
Y3351D01*
X4523Y3346D01*
X4507D01*
X4518D02*
X4528Y3335D01*
X4539Y3362D02*
X4544Y3367D01*
X4555D01*
X4560Y3362D01*
Y3356D01*
X4555Y3351D01*
X4550D01*
X4555D01*
X4560Y3346D01*
Y3340D01*
X4555Y3335D01*
X4544D01*
X4539Y3340D01*
X4592Y3335D02*
X4571D01*
X4592Y3356D01*
Y3362D01*
X4587Y3367D01*
X4576D01*
X4571Y3362D01*
X4603Y3335D02*
Y3340D01*
X4608D01*
Y3335D01*
X4603D01*
X4630D02*
X4640D01*
X4635D01*
Y3367D01*
X4630Y3362D01*
X4656Y3335D02*
X4667D01*
X4662D01*
Y3367D01*
X4656Y3362D01*
X4787Y3335D02*
Y3367D01*
X4803D01*
X4808Y3362D01*
Y3351D01*
X4803Y3346D01*
X4787D01*
X4798D02*
X4808Y3335D01*
X4819Y3362D02*
X4824Y3367D01*
X4835D01*
X4840Y3362D01*
Y3356D01*
X4835Y3351D01*
X4830D01*
X4835D01*
X4840Y3346D01*
Y3340D01*
X4835Y3335D01*
X4824D01*
X4819Y3340D01*
X4872Y3335D02*
X4851D01*
X4872Y3356D01*
Y3362D01*
X4867Y3367D01*
X4856D01*
X4851Y3362D01*
X4883Y3335D02*
Y3340D01*
X4888D01*
Y3335D01*
X4883D01*
X4910D02*
X4920D01*
X4915D01*
Y3367D01*
X4910Y3362D01*
X4958Y3335D02*
X4936D01*
X4958Y3356D01*
Y3362D01*
X4952Y3367D01*
X4942D01*
X4936Y3362D01*
X4987Y3335D02*
Y3367D01*
X5003D01*
X5008Y3362D01*
Y3351D01*
X5003Y3346D01*
X4987D01*
X4998D02*
X5008Y3335D01*
X5019Y3362D02*
X5024Y3367D01*
X5035D01*
X5040Y3362D01*
Y3356D01*
X5035Y3351D01*
X5030D01*
X5035D01*
X5040Y3346D01*
Y3340D01*
X5035Y3335D01*
X5024D01*
X5019Y3340D01*
X5072Y3335D02*
X5051D01*
X5072Y3356D01*
Y3362D01*
X5067Y3367D01*
X5056D01*
X5051Y3362D01*
X5083Y3335D02*
Y3340D01*
X5088D01*
Y3335D01*
X5083D01*
X5110D02*
X5120D01*
X5115D01*
Y3367D01*
X5110Y3362D01*
X5136D02*
X5142Y3367D01*
X5152D01*
X5158Y3362D01*
Y3356D01*
X5152Y3351D01*
X5147D01*
X5152D01*
X5158Y3346D01*
Y3340D01*
X5152Y3335D01*
X5142D01*
X5136Y3340D01*
X5187Y3335D02*
Y3367D01*
X5203D01*
X5208Y3362D01*
Y3351D01*
X5203Y3346D01*
X5187D01*
X5198D02*
X5208Y3335D01*
X5219Y3362D02*
X5224Y3367D01*
X5235D01*
X5240Y3362D01*
Y3356D01*
X5235Y3351D01*
X5230D01*
X5235D01*
X5240Y3346D01*
Y3340D01*
X5235Y3335D01*
X5224D01*
X5219Y3340D01*
X5272Y3335D02*
X5251D01*
X5272Y3356D01*
Y3362D01*
X5267Y3367D01*
X5256D01*
X5251Y3362D01*
X5283Y3335D02*
Y3340D01*
X5288D01*
Y3335D01*
X5283D01*
X5310D02*
X5320D01*
X5315D01*
Y3367D01*
X5310Y3362D01*
X5352Y3335D02*
Y3367D01*
X5336Y3351D01*
X5358D01*
X5387Y3335D02*
Y3367D01*
X5403D01*
X5408Y3362D01*
Y3351D01*
X5403Y3346D01*
X5387D01*
X5398D02*
X5408Y3335D01*
X5419Y3362D02*
X5424Y3367D01*
X5435D01*
X5440Y3362D01*
Y3356D01*
X5435Y3351D01*
X5430D01*
X5435D01*
X5440Y3346D01*
Y3340D01*
X5435Y3335D01*
X5424D01*
X5419Y3340D01*
X5472Y3335D02*
X5451D01*
X5472Y3356D01*
Y3362D01*
X5467Y3367D01*
X5456D01*
X5451Y3362D01*
X5483Y3335D02*
Y3340D01*
X5488D01*
Y3335D01*
X5483D01*
X5510D02*
X5520D01*
X5515D01*
Y3367D01*
X5510Y3362D01*
X5558Y3367D02*
X5536D01*
Y3351D01*
X5547Y3356D01*
X5552D01*
X5558Y3351D01*
Y3340D01*
X5552Y3335D01*
X5542D01*
X5536Y3340D01*
X2350Y3245D02*
Y3277D01*
X2366D01*
X2371Y3272D01*
Y3261D01*
X2366Y3256D01*
X2350D01*
X2361D02*
X2371Y3245D01*
X2382Y3272D02*
X2387Y3277D01*
X2398D01*
X2403Y3272D01*
Y3266D01*
X2398Y3261D01*
X2393D01*
X2398D01*
X2403Y3256D01*
Y3250D01*
X2398Y3245D01*
X2387D01*
X2382Y3250D01*
X2414Y3272D02*
X2419Y3277D01*
X2430D01*
X2435Y3272D01*
Y3266D01*
X2430Y3261D01*
X2425D01*
X2430D01*
X2435Y3256D01*
Y3250D01*
X2430Y3245D01*
X2419D01*
X2414Y3250D01*
X2446Y3245D02*
Y3250D01*
X2451D01*
Y3245D01*
X2446D01*
X2473D02*
X2483D01*
X2478D01*
Y3277D01*
X2473Y3272D01*
X2550Y3245D02*
Y3277D01*
X2566D01*
X2571Y3272D01*
Y3261D01*
X2566Y3256D01*
X2550D01*
X2561D02*
X2571Y3245D01*
X2582Y3272D02*
X2587Y3277D01*
X2598D01*
X2603Y3272D01*
Y3266D01*
X2598Y3261D01*
X2593D01*
X2598D01*
X2603Y3256D01*
Y3250D01*
X2598Y3245D01*
X2587D01*
X2582Y3250D01*
X2614Y3272D02*
X2619Y3277D01*
X2630D01*
X2635Y3272D01*
Y3266D01*
X2630Y3261D01*
X2625D01*
X2630D01*
X2635Y3256D01*
Y3250D01*
X2630Y3245D01*
X2619D01*
X2614Y3250D01*
X2646Y3245D02*
Y3250D01*
X2651D01*
Y3245D01*
X2646D01*
X2694D02*
X2673D01*
X2694Y3266D01*
Y3272D01*
X2689Y3277D01*
X2678D01*
X2673Y3272D01*
X2750Y3245D02*
Y3277D01*
X2766D01*
X2771Y3272D01*
Y3261D01*
X2766Y3256D01*
X2750D01*
X2761D02*
X2771Y3245D01*
X2782Y3272D02*
X2787Y3277D01*
X2798D01*
X2803Y3272D01*
Y3266D01*
X2798Y3261D01*
X2793D01*
X2798D01*
X2803Y3256D01*
Y3250D01*
X2798Y3245D01*
X2787D01*
X2782Y3250D01*
X2814Y3272D02*
X2819Y3277D01*
X2830D01*
X2835Y3272D01*
Y3266D01*
X2830Y3261D01*
X2825D01*
X2830D01*
X2835Y3256D01*
Y3250D01*
X2830Y3245D01*
X2819D01*
X2814Y3250D01*
X2846Y3245D02*
Y3250D01*
X2851D01*
Y3245D01*
X2846D01*
X2873Y3272D02*
X2878Y3277D01*
X2889D01*
X2894Y3272D01*
Y3266D01*
X2889Y3261D01*
X2883D01*
X2889D01*
X2894Y3256D01*
Y3250D01*
X2889Y3245D01*
X2878D01*
X2873Y3250D01*
X3030Y3245D02*
Y3277D01*
X3046D01*
X3051Y3272D01*
Y3261D01*
X3046Y3256D01*
X3030D01*
X3041D02*
X3051Y3245D01*
X3062Y3272D02*
X3067Y3277D01*
X3078D01*
X3083Y3272D01*
Y3266D01*
X3078Y3261D01*
X3073D01*
X3078D01*
X3083Y3256D01*
Y3250D01*
X3078Y3245D01*
X3067D01*
X3062Y3250D01*
X3094Y3272D02*
X3099Y3277D01*
X3110D01*
X3115Y3272D01*
Y3266D01*
X3110Y3261D01*
X3105D01*
X3110D01*
X3115Y3256D01*
Y3250D01*
X3110Y3245D01*
X3099D01*
X3094Y3250D01*
X3126Y3245D02*
Y3250D01*
X3131D01*
Y3245D01*
X3126D01*
X3169D02*
Y3277D01*
X3153Y3261D01*
X3174D01*
X3230Y3245D02*
Y3277D01*
X3246D01*
X3251Y3272D01*
Y3261D01*
X3246Y3256D01*
X3230D01*
X3241D02*
X3251Y3245D01*
X3262Y3272D02*
X3267Y3277D01*
X3278D01*
X3283Y3272D01*
Y3266D01*
X3278Y3261D01*
X3273D01*
X3278D01*
X3283Y3256D01*
Y3250D01*
X3278Y3245D01*
X3267D01*
X3262Y3250D01*
X3294Y3272D02*
X3299Y3277D01*
X3310D01*
X3315Y3272D01*
Y3266D01*
X3310Y3261D01*
X3305D01*
X3310D01*
X3315Y3256D01*
Y3250D01*
X3310Y3245D01*
X3299D01*
X3294Y3250D01*
X3326Y3245D02*
Y3250D01*
X3331D01*
Y3245D01*
X3326D01*
X3374Y3277D02*
X3353D01*
Y3261D01*
X3363Y3266D01*
X3369D01*
X3374Y3261D01*
Y3250D01*
X3369Y3245D01*
X3358D01*
X3353Y3250D01*
X3430Y3245D02*
Y3277D01*
X3446D01*
X3451Y3272D01*
Y3261D01*
X3446Y3256D01*
X3430D01*
X3441D02*
X3451Y3245D01*
X3462Y3272D02*
X3467Y3277D01*
X3478D01*
X3483Y3272D01*
Y3266D01*
X3478Y3261D01*
X3473D01*
X3478D01*
X3483Y3256D01*
Y3250D01*
X3478Y3245D01*
X3467D01*
X3462Y3250D01*
X3494Y3272D02*
X3499Y3277D01*
X3510D01*
X3515Y3272D01*
Y3266D01*
X3510Y3261D01*
X3505D01*
X3510D01*
X3515Y3256D01*
Y3250D01*
X3510Y3245D01*
X3499D01*
X3494Y3250D01*
X3526Y3245D02*
Y3250D01*
X3531D01*
Y3245D01*
X3526D01*
X3574Y3277D02*
X3563Y3272D01*
X3553Y3261D01*
Y3250D01*
X3558Y3245D01*
X3569D01*
X3574Y3250D01*
Y3256D01*
X3569Y3261D01*
X3553D01*
X3630Y3245D02*
Y3277D01*
X3646D01*
X3651Y3272D01*
Y3261D01*
X3646Y3256D01*
X3630D01*
X3641D02*
X3651Y3245D01*
X3662Y3272D02*
X3667Y3277D01*
X3678D01*
X3683Y3272D01*
Y3266D01*
X3678Y3261D01*
X3673D01*
X3678D01*
X3683Y3256D01*
Y3250D01*
X3678Y3245D01*
X3667D01*
X3662Y3250D01*
X3694Y3272D02*
X3699Y3277D01*
X3710D01*
X3715Y3272D01*
Y3266D01*
X3710Y3261D01*
X3705D01*
X3710D01*
X3715Y3256D01*
Y3250D01*
X3710Y3245D01*
X3699D01*
X3694Y3250D01*
X3726Y3245D02*
Y3250D01*
X3731D01*
Y3245D01*
X3726D01*
X3753Y3277D02*
X3774D01*
Y3272D01*
X3753Y3250D01*
Y3245D01*
X3910D02*
Y3277D01*
X3926D01*
X3931Y3272D01*
Y3261D01*
X3926Y3256D01*
X3910D01*
X3921D02*
X3931Y3245D01*
X3942Y3272D02*
X3947Y3277D01*
X3958D01*
X3963Y3272D01*
Y3266D01*
X3958Y3261D01*
X3953D01*
X3958D01*
X3963Y3256D01*
Y3250D01*
X3958Y3245D01*
X3947D01*
X3942Y3250D01*
X3974Y3272D02*
X3979Y3277D01*
X3990D01*
X3995Y3272D01*
Y3266D01*
X3990Y3261D01*
X3985D01*
X3990D01*
X3995Y3256D01*
Y3250D01*
X3990Y3245D01*
X3979D01*
X3974Y3250D01*
X4006Y3245D02*
Y3250D01*
X4011D01*
Y3245D01*
X4006D01*
X4033Y3272D02*
X4038Y3277D01*
X4049D01*
X4054Y3272D01*
Y3266D01*
X4049Y3261D01*
X4054Y3256D01*
Y3250D01*
X4049Y3245D01*
X4038D01*
X4033Y3250D01*
Y3256D01*
X4038Y3261D01*
X4033Y3266D01*
Y3272D01*
X4038Y3261D02*
X4049D01*
X4110Y3245D02*
Y3277D01*
X4126D01*
X4131Y3272D01*
Y3261D01*
X4126Y3256D01*
X4110D01*
X4121D02*
X4131Y3245D01*
X4142Y3272D02*
X4147Y3277D01*
X4158D01*
X4163Y3272D01*
Y3266D01*
X4158Y3261D01*
X4153D01*
X4158D01*
X4163Y3256D01*
Y3250D01*
X4158Y3245D01*
X4147D01*
X4142Y3250D01*
X4174Y3272D02*
X4179Y3277D01*
X4190D01*
X4195Y3272D01*
Y3266D01*
X4190Y3261D01*
X4185D01*
X4190D01*
X4195Y3256D01*
Y3250D01*
X4190Y3245D01*
X4179D01*
X4174Y3250D01*
X4206Y3245D02*
Y3250D01*
X4211D01*
Y3245D01*
X4206D01*
X4233Y3250D02*
X4238Y3245D01*
X4249D01*
X4254Y3250D01*
Y3272D01*
X4249Y3277D01*
X4238D01*
X4233Y3272D01*
Y3266D01*
X4238Y3261D01*
X4254D01*
X4310Y3245D02*
Y3277D01*
X4326D01*
X4331Y3272D01*
Y3261D01*
X4326Y3256D01*
X4310D01*
X4321D02*
X4331Y3245D01*
X4342Y3272D02*
X4347Y3277D01*
X4358D01*
X4363Y3272D01*
Y3266D01*
X4358Y3261D01*
X4353D01*
X4358D01*
X4363Y3256D01*
Y3250D01*
X4358Y3245D01*
X4347D01*
X4342Y3250D01*
X4374Y3272D02*
X4379Y3277D01*
X4390D01*
X4395Y3272D01*
Y3266D01*
X4390Y3261D01*
X4385D01*
X4390D01*
X4395Y3256D01*
Y3250D01*
X4390Y3245D01*
X4379D01*
X4374Y3250D01*
X4406Y3245D02*
Y3250D01*
X4411D01*
Y3245D01*
X4406D01*
X4433D02*
X4443D01*
X4438D01*
Y3277D01*
X4433Y3272D01*
X4459D02*
X4465Y3277D01*
X4475D01*
X4481Y3272D01*
Y3250D01*
X4475Y3245D01*
X4465D01*
X4459Y3250D01*
Y3272D01*
X4508Y3245D02*
Y3277D01*
X4524D01*
X4530Y3272D01*
Y3261D01*
X4524Y3256D01*
X4508D01*
X4519D02*
X4530Y3245D01*
X4540Y3272D02*
X4546Y3277D01*
X4556D01*
X4562Y3272D01*
Y3266D01*
X4556Y3261D01*
X4551D01*
X4556D01*
X4562Y3256D01*
Y3250D01*
X4556Y3245D01*
X4546D01*
X4540Y3250D01*
X4572Y3272D02*
X4578Y3277D01*
X4588D01*
X4594Y3272D01*
Y3266D01*
X4588Y3261D01*
X4583D01*
X4588D01*
X4594Y3256D01*
Y3250D01*
X4588Y3245D01*
X4578D01*
X4572Y3250D01*
X4604Y3245D02*
Y3250D01*
X4610D01*
Y3245D01*
X4604D01*
X4631D02*
X4642D01*
X4636D01*
Y3277D01*
X4631Y3272D01*
X4658Y3245D02*
X4668D01*
X4663D01*
Y3277D01*
X4658Y3272D01*
X4788Y3245D02*
Y3277D01*
X4804D01*
X4810Y3272D01*
Y3261D01*
X4804Y3256D01*
X4788D01*
X4799D02*
X4810Y3245D01*
X4820Y3272D02*
X4826Y3277D01*
X4836D01*
X4842Y3272D01*
Y3266D01*
X4836Y3261D01*
X4831D01*
X4836D01*
X4842Y3256D01*
Y3250D01*
X4836Y3245D01*
X4826D01*
X4820Y3250D01*
X4852Y3272D02*
X4858Y3277D01*
X4868D01*
X4874Y3272D01*
Y3266D01*
X4868Y3261D01*
X4863D01*
X4868D01*
X4874Y3256D01*
Y3250D01*
X4868Y3245D01*
X4858D01*
X4852Y3250D01*
X4884Y3245D02*
Y3250D01*
X4890D01*
Y3245D01*
X4884D01*
X4911D02*
X4922D01*
X4916D01*
Y3277D01*
X4911Y3272D01*
X4959Y3245D02*
X4938D01*
X4959Y3266D01*
Y3272D01*
X4954Y3277D01*
X4943D01*
X4938Y3272D01*
X4988Y3245D02*
Y3277D01*
X5004D01*
X5010Y3272D01*
Y3261D01*
X5004Y3256D01*
X4988D01*
X4999D02*
X5010Y3245D01*
X5020Y3272D02*
X5026Y3277D01*
X5036D01*
X5042Y3272D01*
Y3266D01*
X5036Y3261D01*
X5031D01*
X5036D01*
X5042Y3256D01*
Y3250D01*
X5036Y3245D01*
X5026D01*
X5020Y3250D01*
X5052Y3272D02*
X5058Y3277D01*
X5068D01*
X5074Y3272D01*
Y3266D01*
X5068Y3261D01*
X5063D01*
X5068D01*
X5074Y3256D01*
Y3250D01*
X5068Y3245D01*
X5058D01*
X5052Y3250D01*
X5084Y3245D02*
Y3250D01*
X5090D01*
Y3245D01*
X5084D01*
X5111D02*
X5122D01*
X5116D01*
Y3277D01*
X5111Y3272D01*
X5138D02*
X5143Y3277D01*
X5154D01*
X5159Y3272D01*
Y3266D01*
X5154Y3261D01*
X5148D01*
X5154D01*
X5159Y3256D01*
Y3250D01*
X5154Y3245D01*
X5143D01*
X5138Y3250D01*
X5188Y3245D02*
Y3277D01*
X5204D01*
X5210Y3272D01*
Y3261D01*
X5204Y3256D01*
X5188D01*
X5199D02*
X5210Y3245D01*
X5220Y3272D02*
X5226Y3277D01*
X5236D01*
X5242Y3272D01*
Y3266D01*
X5236Y3261D01*
X5231D01*
X5236D01*
X5242Y3256D01*
Y3250D01*
X5236Y3245D01*
X5226D01*
X5220Y3250D01*
X5252Y3272D02*
X5258Y3277D01*
X5268D01*
X5274Y3272D01*
Y3266D01*
X5268Y3261D01*
X5263D01*
X5268D01*
X5274Y3256D01*
Y3250D01*
X5268Y3245D01*
X5258D01*
X5252Y3250D01*
X5284Y3245D02*
Y3250D01*
X5290D01*
Y3245D01*
X5284D01*
X5311D02*
X5322D01*
X5316D01*
Y3277D01*
X5311Y3272D01*
X5354Y3245D02*
Y3277D01*
X5338Y3261D01*
X5359D01*
X5388Y3245D02*
Y3277D01*
X5404D01*
X5410Y3272D01*
Y3261D01*
X5404Y3256D01*
X5388D01*
X5399D02*
X5410Y3245D01*
X5420Y3272D02*
X5426Y3277D01*
X5436D01*
X5442Y3272D01*
Y3266D01*
X5436Y3261D01*
X5431D01*
X5436D01*
X5442Y3256D01*
Y3250D01*
X5436Y3245D01*
X5426D01*
X5420Y3250D01*
X5452Y3272D02*
X5458Y3277D01*
X5468D01*
X5474Y3272D01*
Y3266D01*
X5468Y3261D01*
X5463D01*
X5468D01*
X5474Y3256D01*
Y3250D01*
X5468Y3245D01*
X5458D01*
X5452Y3250D01*
X5484Y3245D02*
Y3250D01*
X5490D01*
Y3245D01*
X5484D01*
X5511D02*
X5522D01*
X5516D01*
Y3277D01*
X5511Y3272D01*
X5559Y3277D02*
X5538D01*
Y3261D01*
X5548Y3266D01*
X5554D01*
X5559Y3261D01*
Y3250D01*
X5554Y3245D01*
X5543D01*
X5538Y3250D01*
X3166Y327D02*
X3171Y332D01*
Y343D01*
X3166Y348D01*
X3161D01*
X3155Y343D01*
Y332D01*
X3150Y327D01*
X3145D01*
X3139Y332D01*
Y343D01*
X3145Y348D01*
X3139Y316D02*
Y306D01*
Y311D01*
X3171D01*
X3166Y316D01*
X3139Y290D02*
X3145D01*
Y284D01*
X3139D01*
Y290D01*
Y263D02*
Y252D01*
Y258D01*
X3171D01*
X3166Y263D01*
X3666Y339D02*
X3671Y344D01*
Y355D01*
X3666Y360D01*
X3661D01*
X3655Y355D01*
Y344D01*
X3650Y339D01*
X3645D01*
X3639Y344D01*
Y355D01*
X3645Y360D01*
X3639Y328D02*
Y317D01*
Y323D01*
X3671D01*
X3666Y328D01*
X3639Y301D02*
X3645D01*
Y296D01*
X3639D01*
Y301D01*
Y253D02*
Y275D01*
X3661Y253D01*
X3666D01*
X3671Y259D01*
Y269D01*
X3666Y275D01*
X4166Y339D02*
X4171Y344D01*
Y355D01*
X4166Y360D01*
X4161D01*
X4155Y355D01*
Y344D01*
X4150Y339D01*
X4145D01*
X4139Y344D01*
Y355D01*
X4145Y360D01*
X4139Y328D02*
Y317D01*
Y323D01*
X4171D01*
X4166Y328D01*
X4139Y301D02*
X4145D01*
Y296D01*
X4139D01*
Y301D01*
X4166Y275D02*
X4171Y269D01*
Y259D01*
X4166Y253D01*
X4161D01*
X4155Y259D01*
Y264D01*
Y259D01*
X4150Y253D01*
X4145D01*
X4139Y259D01*
Y269D01*
X4145Y275D01*
X2240Y1362D02*
X2261D01*
X2251D01*
Y1330D01*
X2272D02*
Y1362D01*
X2288D01*
X2293Y1357D01*
Y1346D01*
X2288Y1341D01*
X2272D01*
X2304Y1357D02*
X2309Y1362D01*
X2320D01*
X2325Y1357D01*
Y1351D01*
X2320Y1346D01*
X2325Y1341D01*
Y1335D01*
X2320Y1330D01*
X2309D01*
X2304Y1335D01*
Y1341D01*
X2309Y1346D01*
X2304Y1351D01*
Y1357D01*
X2309Y1346D02*
X2320D01*
X145Y1972D02*
Y1940D01*
X161D01*
X166Y1945D01*
Y1967D01*
X161Y1972D01*
X145D01*
X198Y1940D02*
X177D01*
X198Y1961D01*
Y1967D01*
X193Y1972D01*
X182D01*
X177Y1967D01*
X215Y1940D02*
Y1972D01*
X231D01*
X236Y1967D01*
Y1956D01*
X231Y1951D01*
X215D01*
X226D02*
X236Y1940D01*
X247D02*
X258D01*
X252D01*
Y1972D01*
X247Y1967D01*
X70Y1045D02*
Y1077D01*
X86D01*
X91Y1072D01*
Y1061D01*
X86Y1056D01*
X70D01*
X81D02*
X91Y1045D01*
X123D02*
X102D01*
X123Y1066D01*
Y1072D01*
X118Y1077D01*
X107D01*
X102Y1072D01*
X70Y970D02*
Y1002D01*
X86D01*
X91Y997D01*
Y986D01*
X86Y981D01*
X70D01*
X81D02*
X91Y970D01*
X102Y997D02*
X107Y1002D01*
X118D01*
X123Y997D01*
Y991D01*
X118Y986D01*
X113D01*
X118D01*
X123Y981D01*
Y975D01*
X118Y970D01*
X107D01*
X102Y975D01*
X5765Y2485D02*
Y2517D01*
X5781D01*
X5786Y2512D01*
Y2501D01*
X5781Y2496D01*
X5765D01*
X5797Y2485D02*
X5808D01*
X5802D01*
Y2517D01*
X5797Y2512D01*
X5845Y2485D02*
X5824D01*
X5845Y2506D01*
Y2512D01*
X5840Y2517D01*
X5829D01*
X5824Y2512D01*
X80Y2922D02*
X101D01*
X91D01*
Y2890D01*
X112D02*
Y2922D01*
X128D01*
X133Y2917D01*
Y2906D01*
X128Y2901D01*
X112D01*
X165Y2890D02*
X144D01*
X165Y2911D01*
Y2917D01*
X160Y2922D01*
X149D01*
X144Y2917D01*
X50Y1917D02*
X55Y1922D01*
X66D01*
X71Y1917D01*
Y1911D01*
X66Y1906D01*
X61D01*
X66D01*
X71Y1901D01*
Y1895D01*
X66Y1890D01*
X55D01*
X50Y1895D01*
X82Y1922D02*
Y1901D01*
X93Y1890D01*
X103Y1901D01*
Y1922D01*
X114Y1917D02*
X119Y1922D01*
X130D01*
X135Y1917D01*
Y1911D01*
X130Y1906D01*
X125D01*
X130D01*
X135Y1901D01*
Y1895D01*
X130Y1890D01*
X119D01*
X114Y1895D01*
X600Y532D02*
Y511D01*
X611Y500D01*
X621Y511D01*
Y532D01*
X632Y495D02*
X653D01*
X664Y532D02*
X675D01*
X669D01*
Y500D01*
X664D01*
X675D01*
X691D02*
Y532D01*
X712Y500D01*
Y532D01*
X3600Y1292D02*
Y1271D01*
X3611Y1260D01*
X3621Y1271D01*
Y1292D01*
X3632Y1260D02*
Y1292D01*
X3648D01*
X3653Y1287D01*
Y1276D01*
X3648Y1271D01*
X3632D01*
X3643D02*
X3653Y1260D01*
X3685Y1292D02*
X3664D01*
Y1260D01*
X3685D01*
X3664Y1276D02*
X3675D01*
X3717Y1292D02*
X3696D01*
Y1276D01*
X3707D01*
X3696D01*
Y1260D01*
X3195Y2867D02*
X3200Y2872D01*
X3211D01*
X3216Y2867D01*
Y2861D01*
X3211Y2856D01*
X3206D01*
X3211D01*
X3216Y2851D01*
Y2845D01*
X3211Y2840D01*
X3200D01*
X3195Y2845D01*
X3227Y2872D02*
Y2851D01*
X3238Y2840D01*
X3248Y2851D01*
Y2872D01*
X3259Y2867D02*
X3264Y2872D01*
X3275D01*
X3280Y2867D01*
Y2861D01*
X3275Y2856D01*
X3270D01*
X3275D01*
X3280Y2851D01*
Y2845D01*
X3275Y2840D01*
X3264D01*
X3259Y2845D01*
X481Y2152D02*
X476Y2157D01*
X465D01*
X460Y2152D01*
Y2130D01*
X465Y2125D01*
X476D01*
X481Y2130D01*
Y2141D01*
X471D01*
X492Y2125D02*
Y2157D01*
X513Y2125D01*
Y2157D01*
X524D02*
Y2125D01*
X540D01*
X545Y2130D01*
Y2152D01*
X540Y2157D01*
X524D01*
X360Y2152D02*
X365Y2157D01*
X376D01*
X381Y2152D01*
Y2146D01*
X376Y2141D01*
X371D01*
X376D01*
X381Y2136D01*
Y2130D01*
X376Y2125D01*
X365D01*
X360Y2130D01*
X392Y2157D02*
Y2136D01*
X403Y2125D01*
X413Y2136D01*
Y2157D01*
X424Y2152D02*
X429Y2157D01*
X440D01*
X445Y2152D01*
Y2146D01*
X440Y2141D01*
X435D01*
X440D01*
X445Y2136D01*
Y2130D01*
X440Y2125D01*
X429D01*
X424Y2130D01*
X281Y2157D02*
X260D01*
Y2141D01*
X271Y2146D01*
X276D01*
X281Y2141D01*
Y2130D01*
X276Y2125D01*
X265D01*
X260Y2130D01*
X292Y2157D02*
Y2136D01*
X303Y2125D01*
X313Y2136D01*
Y2157D01*
X324Y2152D02*
X329Y2157D01*
X340D01*
X345Y2152D01*
Y2130D01*
X340Y2125D01*
X329D01*
X324Y2130D01*
Y2152D01*
X1480Y1037D02*
Y1016D01*
X1491Y1005D01*
X1501Y1016D01*
Y1037D01*
X1512Y1000D02*
X1533D01*
X1544Y1037D02*
X1555D01*
X1549D01*
Y1005D01*
X1544D01*
X1555D01*
X1571D02*
Y1037D01*
X1592Y1005D01*
Y1037D01*
X735Y1827D02*
X740Y1832D01*
X751D01*
X756Y1827D01*
Y1821D01*
X751Y1816D01*
X746D01*
X751D01*
X756Y1811D01*
Y1805D01*
X751Y1800D01*
X740D01*
X735Y1805D01*
X767Y1832D02*
Y1811D01*
X778Y1800D01*
X788Y1811D01*
Y1832D01*
X799Y1827D02*
X804Y1832D01*
X815D01*
X820Y1827D01*
Y1821D01*
X815Y1816D01*
X810D01*
X815D01*
X820Y1811D01*
Y1805D01*
X815Y1800D01*
X804D01*
X799Y1805D01*
X1611Y1842D02*
X1590D01*
Y1826D01*
X1601Y1831D01*
X1606D01*
X1611Y1826D01*
Y1815D01*
X1606Y1810D01*
X1595D01*
X1590Y1815D01*
X1622Y1842D02*
Y1821D01*
X1633Y1810D01*
X1643Y1821D01*
Y1842D01*
X1654Y1837D02*
X1659Y1842D01*
X1670D01*
X1675Y1837D01*
Y1815D01*
X1670Y1810D01*
X1659D01*
X1654Y1815D01*
Y1837D01*
X4151Y2852D02*
X4146Y2857D01*
X4135D01*
X4130Y2852D01*
Y2830D01*
X4135Y2825D01*
X4146D01*
X4151Y2830D01*
Y2841D01*
X4141D01*
X4162Y2825D02*
Y2857D01*
X4183Y2825D01*
Y2857D01*
X4194D02*
Y2825D01*
X4210D01*
X4215Y2830D01*
Y2852D01*
X4210Y2857D01*
X4194D01*
X2371Y1617D02*
X2366Y1622D01*
X2355D01*
X2350Y1617D01*
Y1595D01*
X2355Y1590D01*
X2366D01*
X2371Y1595D01*
Y1606D01*
X2361D01*
X2382Y1590D02*
Y1622D01*
X2403Y1590D01*
Y1622D01*
X2414D02*
Y1590D01*
X2430D01*
X2435Y1595D01*
Y1617D01*
X2430Y1622D01*
X2414D01*
X2196Y1212D02*
X2185D01*
X2180Y1207D01*
Y1185D01*
X2185Y1180D01*
X2196D01*
X2201Y1185D01*
Y1207D01*
X2196Y1212D01*
X2233Y1207D02*
X2228Y1212D01*
X2217D01*
X2212Y1207D01*
Y1201D01*
X2217Y1196D01*
X2228D01*
X2233Y1191D01*
Y1185D01*
X2228Y1180D01*
X2217D01*
X2212Y1185D01*
X2265Y1207D02*
X2260Y1212D01*
X2249D01*
X2244Y1207D01*
Y1185D01*
X2249Y1180D01*
X2260D01*
X2265Y1185D01*
X2276Y1175D02*
X2297D01*
X2324Y1212D02*
X2313D01*
X2308Y1207D01*
Y1185D01*
X2313Y1180D01*
X2324D01*
X2329Y1185D01*
Y1207D01*
X2324Y1212D01*
X2340D02*
Y1185D01*
X2345Y1180D01*
X2356D01*
X2361Y1185D01*
Y1212D01*
X2372D02*
X2393D01*
X2383D01*
Y1180D01*
X2256Y1422D02*
X2245D01*
X2240Y1417D01*
Y1395D01*
X2245Y1390D01*
X2256D01*
X2261Y1395D01*
Y1417D01*
X2256Y1422D01*
X2293Y1417D02*
X2288Y1422D01*
X2277D01*
X2272Y1417D01*
Y1411D01*
X2277Y1406D01*
X2288D01*
X2293Y1401D01*
Y1395D01*
X2288Y1390D01*
X2277D01*
X2272Y1395D01*
X2325Y1417D02*
X2320Y1422D01*
X2309D01*
X2304Y1417D01*
Y1395D01*
X2309Y1390D01*
X2320D01*
X2325Y1395D01*
X860Y3217D02*
Y3185D01*
X881D01*
X913Y3217D02*
X892D01*
Y3185D01*
X913D01*
X892Y3201D02*
X903D01*
X924Y3217D02*
Y3185D01*
X940D01*
X945Y3190D01*
Y3212D01*
X940Y3217D01*
X924D01*
X988Y3212D02*
X993Y3217D01*
X1004D01*
X1009Y3212D01*
Y3190D01*
X1004Y3185D01*
X993D01*
X988Y3190D01*
Y3212D01*
X1020Y3201D02*
X1041D01*
X1052Y3212D02*
X1057Y3217D01*
X1068D01*
X1073Y3212D01*
Y3206D01*
X1068Y3201D01*
X1063D01*
X1068D01*
X1073Y3196D01*
Y3190D01*
X1068Y3185D01*
X1057D01*
X1052Y3190D01*
X860Y3152D02*
Y3120D01*
X881D01*
X913Y3152D02*
X892D01*
Y3120D01*
X913D01*
X892Y3136D02*
X903D01*
X924Y3152D02*
Y3120D01*
X940D01*
X945Y3125D01*
Y3147D01*
X940Y3152D01*
X924D01*
X1004Y3120D02*
Y3152D01*
X988Y3136D01*
X1009D01*
X1020D02*
X1041D01*
X1052Y3152D02*
X1073D01*
Y3147D01*
X1052Y3125D01*
Y3120D01*
X1465Y3217D02*
Y3185D01*
X1486D01*
X1518Y3217D02*
X1497D01*
Y3185D01*
X1518D01*
X1497Y3201D02*
X1508D01*
X1529Y3217D02*
Y3185D01*
X1545D01*
X1550Y3190D01*
Y3212D01*
X1545Y3217D01*
X1529D01*
X1593Y3212D02*
X1598Y3217D01*
X1609D01*
X1614Y3212D01*
Y3206D01*
X1609Y3201D01*
X1614Y3196D01*
Y3190D01*
X1609Y3185D01*
X1598D01*
X1593Y3190D01*
Y3196D01*
X1598Y3201D01*
X1593Y3206D01*
Y3212D01*
X1598Y3201D02*
X1609D01*
X1625D02*
X1646D01*
X1657Y3185D02*
X1668D01*
X1662D01*
Y3217D01*
X1657Y3212D01*
X1684Y3185D02*
X1694D01*
X1689D01*
Y3217D01*
X1684Y3212D01*
X1465Y3152D02*
Y3120D01*
X1486D01*
X1518Y3152D02*
X1497D01*
Y3120D01*
X1518D01*
X1497Y3136D02*
X1508D01*
X1529Y3152D02*
Y3120D01*
X1545D01*
X1550Y3125D01*
Y3147D01*
X1545Y3152D01*
X1529D01*
X1593Y3120D02*
X1604D01*
X1598D01*
Y3152D01*
X1593Y3147D01*
X1641Y3120D02*
X1620D01*
X1641Y3141D01*
Y3147D01*
X1636Y3152D01*
X1625D01*
X1620Y3147D01*
X1652Y3136D02*
X1673D01*
X1684Y3120D02*
X1694D01*
X1689D01*
Y3152D01*
X1684Y3147D01*
X1732Y3152D02*
X1710D01*
Y3136D01*
X1721Y3141D01*
X1726D01*
X1732Y3136D01*
Y3125D01*
X1726Y3120D01*
X1716D01*
X1710Y3125D01*
X1126Y3212D02*
X1121Y3217D01*
X1110D01*
X1105Y3212D01*
Y3190D01*
X1110Y3185D01*
X1121D01*
X1126Y3190D01*
Y3201D01*
X1116D01*
X1137Y3185D02*
Y3217D01*
X1158Y3185D01*
Y3217D01*
X1169D02*
Y3185D01*
X1185D01*
X1190Y3190D01*
Y3212D01*
X1185Y3217D01*
X1169D01*
X1201Y3212D02*
X1222Y3190D01*
X1201D02*
X1222Y3212D01*
X1201Y3201D02*
X1222D01*
X1212Y3190D02*
Y3212D01*
X1254Y3185D02*
X1233D01*
X1254Y3206D01*
Y3212D01*
X1249Y3217D01*
X1238D01*
X1233Y3212D01*
X101Y2772D02*
X80D01*
Y2756D01*
X91Y2761D01*
X96D01*
X101Y2756D01*
Y2745D01*
X96Y2740D01*
X85D01*
X80Y2745D01*
X112Y2772D02*
Y2751D01*
X123Y2740D01*
X133Y2751D01*
Y2772D01*
X144Y2767D02*
X149Y2772D01*
X160D01*
X165Y2767D01*
Y2745D01*
X160Y2740D01*
X149D01*
X144Y2745D01*
Y2767D01*
X701Y3217D02*
X680D01*
Y3201D01*
X691Y3206D01*
X696D01*
X701Y3201D01*
Y3190D01*
X696Y3185D01*
X685D01*
X680Y3190D01*
X712Y3217D02*
Y3196D01*
X723Y3185D01*
X733Y3196D01*
Y3217D01*
X744Y3212D02*
X749Y3217D01*
X760D01*
X765Y3212D01*
Y3190D01*
X760Y3185D01*
X749D01*
X744Y3190D01*
Y3212D01*
X776D02*
X797Y3190D01*
X776D02*
X797Y3212D01*
X776Y3201D02*
X797D01*
X787Y3190D02*
Y3212D01*
X829Y3185D02*
X808D01*
X829Y3206D01*
Y3212D01*
X824Y3217D01*
X813D01*
X808Y3212D01*
X701Y3152D02*
X680D01*
Y3136D01*
X691Y3141D01*
X696D01*
X701Y3136D01*
Y3125D01*
X696Y3120D01*
X685D01*
X680Y3125D01*
X712Y3152D02*
Y3131D01*
X723Y3120D01*
X733Y3131D01*
Y3152D01*
X744Y3147D02*
X749Y3152D01*
X760D01*
X765Y3147D01*
Y3125D01*
X760Y3120D01*
X749D01*
X744Y3125D01*
Y3147D01*
X776D02*
X797Y3125D01*
X776D02*
X797Y3147D01*
X776Y3136D02*
X797D01*
X787Y3125D02*
Y3147D01*
X829Y3120D02*
X808D01*
X829Y3141D01*
Y3147D01*
X824Y3152D01*
X813D01*
X808Y3147D01*
X1126D02*
X1121Y3152D01*
X1110D01*
X1105Y3147D01*
Y3125D01*
X1110Y3120D01*
X1121D01*
X1126Y3125D01*
Y3136D01*
X1116D01*
X1137Y3120D02*
Y3152D01*
X1158Y3120D01*
Y3152D01*
X1169D02*
Y3120D01*
X1185D01*
X1190Y3125D01*
Y3147D01*
X1185Y3152D01*
X1169D01*
X1201Y3147D02*
X1222Y3125D01*
X1201D02*
X1222Y3147D01*
X1201Y3136D02*
X1222D01*
X1212Y3125D02*
Y3147D01*
X1254Y3120D02*
X1233D01*
X1254Y3141D01*
Y3147D01*
X1249Y3152D01*
X1238D01*
X1233Y3147D01*
X1306Y3217D02*
X1285D01*
Y3201D01*
X1296Y3206D01*
X1301D01*
X1306Y3201D01*
Y3190D01*
X1301Y3185D01*
X1290D01*
X1285Y3190D01*
X1317Y3217D02*
Y3196D01*
X1328Y3185D01*
X1338Y3196D01*
Y3217D01*
X1349Y3212D02*
X1354Y3217D01*
X1365D01*
X1370Y3212D01*
Y3190D01*
X1365Y3185D01*
X1354D01*
X1349Y3190D01*
Y3212D01*
X1381D02*
X1402Y3190D01*
X1381D02*
X1402Y3212D01*
X1381Y3201D02*
X1402D01*
X1392Y3190D02*
Y3212D01*
X1434Y3185D02*
X1413D01*
X1434Y3206D01*
Y3212D01*
X1429Y3217D01*
X1418D01*
X1413Y3212D01*
X1306Y3152D02*
X1285D01*
Y3136D01*
X1296Y3141D01*
X1301D01*
X1306Y3136D01*
Y3125D01*
X1301Y3120D01*
X1290D01*
X1285Y3125D01*
X1317Y3152D02*
Y3131D01*
X1328Y3120D01*
X1338Y3131D01*
Y3152D01*
X1349Y3147D02*
X1354Y3152D01*
X1365D01*
X1370Y3147D01*
Y3125D01*
X1365Y3120D01*
X1354D01*
X1349Y3125D01*
Y3147D01*
X1381D02*
X1402Y3125D01*
X1381D02*
X1402Y3147D01*
X1381Y3136D02*
X1402D01*
X1392Y3125D02*
Y3147D01*
X1434Y3120D02*
X1413D01*
X1434Y3141D01*
Y3147D01*
X1429Y3152D01*
X1418D01*
X1413Y3147D01*
X1781Y3212D02*
X1776Y3217D01*
X1765D01*
X1760Y3212D01*
Y3190D01*
X1765Y3185D01*
X1776D01*
X1781Y3190D01*
Y3201D01*
X1771D01*
X1792Y3185D02*
Y3217D01*
X1813Y3185D01*
Y3217D01*
X1824D02*
Y3185D01*
X1840D01*
X1845Y3190D01*
Y3212D01*
X1840Y3217D01*
X1824D01*
X1856Y3212D02*
X1877Y3190D01*
X1856D02*
X1877Y3212D01*
X1856Y3201D02*
X1877D01*
X1867Y3190D02*
Y3212D01*
X1909Y3185D02*
X1888D01*
X1909Y3206D01*
Y3212D01*
X1904Y3217D01*
X1893D01*
X1888Y3212D01*
X1781Y3147D02*
X1776Y3152D01*
X1765D01*
X1760Y3147D01*
Y3125D01*
X1765Y3120D01*
X1776D01*
X1781Y3125D01*
Y3136D01*
X1771D01*
X1792Y3120D02*
Y3152D01*
X1813Y3120D01*
Y3152D01*
X1824D02*
Y3120D01*
X1840D01*
X1845Y3125D01*
Y3147D01*
X1840Y3152D01*
X1824D01*
X1856Y3147D02*
X1877Y3125D01*
X1856D02*
X1877Y3147D01*
X1856Y3136D02*
X1877D01*
X1867Y3125D02*
Y3147D01*
X1909Y3120D02*
X1888D01*
X1909Y3141D01*
Y3147D01*
X1904Y3152D01*
X1893D01*
X1888Y3147D01*
X695Y3245D02*
Y3277D01*
X711D01*
X716Y3272D01*
Y3261D01*
X711Y3256D01*
X695D01*
X727Y3272D02*
X732Y3277D01*
X743D01*
X748Y3272D01*
Y3266D01*
X743Y3261D01*
X738D01*
X743D01*
X748Y3256D01*
Y3250D01*
X743Y3245D01*
X732D01*
X727Y3250D01*
X695Y3055D02*
Y3087D01*
X711D01*
X716Y3082D01*
Y3071D01*
X711Y3066D01*
X695D01*
X743Y3055D02*
Y3087D01*
X727Y3071D01*
X748D01*
X1255Y3245D02*
Y3277D01*
X1271D01*
X1276Y3272D01*
Y3261D01*
X1271Y3256D01*
X1255D01*
X1308Y3277D02*
X1287D01*
Y3261D01*
X1298Y3266D01*
X1303D01*
X1308Y3261D01*
Y3250D01*
X1303Y3245D01*
X1292D01*
X1287Y3250D01*
X1255Y3055D02*
Y3087D01*
X1271D01*
X1276Y3082D01*
Y3071D01*
X1271Y3066D01*
X1255D01*
X1308Y3087D02*
X1298Y3082D01*
X1287Y3071D01*
Y3060D01*
X1292Y3055D01*
X1303D01*
X1308Y3060D01*
Y3066D01*
X1303Y3071D01*
X1287D01*
X2910Y612D02*
X2915Y617D01*
X2926D01*
X2931Y612D01*
Y606D01*
X2926Y601D01*
X2921D01*
X2926D01*
X2931Y596D01*
Y590D01*
X2926Y585D01*
X2915D01*
X2910Y590D01*
X2942Y617D02*
Y596D01*
X2953Y585D01*
X2963Y596D01*
Y617D01*
X2974Y612D02*
X2979Y617D01*
X2990D01*
X2995Y612D01*
Y606D01*
X2990Y601D01*
X2985D01*
X2990D01*
X2995Y596D01*
Y590D01*
X2990Y585D01*
X2979D01*
X2974Y590D01*
X2931Y512D02*
X2926Y517D01*
X2915D01*
X2910Y512D01*
Y490D01*
X2915Y485D01*
X2926D01*
X2931Y490D01*
Y501D01*
X2921D01*
X2942Y485D02*
Y517D01*
X2963Y485D01*
Y517D01*
X2974D02*
Y485D01*
X2990D01*
X2995Y490D01*
Y512D01*
X2990Y517D01*
X2974D01*
X5600Y1862D02*
X5605Y1867D01*
X5616D01*
X5621Y1862D01*
Y1856D01*
X5616Y1851D01*
X5611D01*
X5616D01*
X5621Y1846D01*
Y1840D01*
X5616Y1835D01*
X5605D01*
X5600Y1840D01*
X5632Y1867D02*
Y1846D01*
X5643Y1835D01*
X5653Y1846D01*
Y1867D01*
X5664Y1862D02*
X5669Y1867D01*
X5680D01*
X5685Y1862D01*
Y1856D01*
X5680Y1851D01*
X5675D01*
X5680D01*
X5685Y1846D01*
Y1840D01*
X5680Y1835D01*
X5669D01*
X5664Y1840D01*
X5600Y1762D02*
X5605Y1767D01*
X5616D01*
X5621Y1762D01*
Y1756D01*
X5616Y1751D01*
X5611D01*
X5616D01*
X5621Y1746D01*
Y1740D01*
X5616Y1735D01*
X5605D01*
X5600Y1740D01*
X5632Y1767D02*
Y1746D01*
X5643Y1735D01*
X5653Y1746D01*
Y1767D01*
X5664Y1762D02*
X5669Y1767D01*
X5680D01*
X5685Y1762D01*
Y1756D01*
X5680Y1751D01*
X5675D01*
X5680D01*
X5685Y1746D01*
Y1740D01*
X5680Y1735D01*
X5669D01*
X5664Y1740D01*
X5621Y1662D02*
X5616Y1667D01*
X5605D01*
X5600Y1662D01*
Y1640D01*
X5605Y1635D01*
X5616D01*
X5621Y1640D01*
Y1651D01*
X5611D01*
X5632Y1635D02*
Y1667D01*
X5653Y1635D01*
Y1667D01*
X5664D02*
Y1635D01*
X5680D01*
X5685Y1640D01*
Y1662D01*
X5680Y1667D01*
X5664D01*
X5621Y1562D02*
X5616Y1567D01*
X5605D01*
X5600Y1562D01*
Y1540D01*
X5605Y1535D01*
X5616D01*
X5621Y1540D01*
Y1551D01*
X5611D01*
X5632Y1535D02*
Y1567D01*
X5653Y1535D01*
Y1567D01*
X5664D02*
Y1535D01*
X5680D01*
X5685Y1540D01*
Y1562D01*
X5680Y1567D01*
X5664D01*
X2926Y717D02*
X2905D01*
Y701D01*
X2916Y706D01*
X2921D01*
X2926Y701D01*
Y690D01*
X2921Y685D01*
X2910D01*
X2905Y690D01*
X2937Y717D02*
Y696D01*
X2948Y685D01*
X2958Y696D01*
Y717D01*
X2969Y712D02*
X2974Y717D01*
X2985D01*
X2990Y712D01*
Y690D01*
X2985Y685D01*
X2974D01*
X2969Y690D01*
Y712D01*
X936Y1872D02*
X915D01*
Y1856D01*
X926Y1861D01*
X931D01*
X936Y1856D01*
Y1845D01*
X931Y1840D01*
X920D01*
X915Y1845D01*
X947Y1872D02*
Y1851D01*
X958Y1840D01*
X968Y1851D01*
Y1872D01*
X979Y1867D02*
X984Y1872D01*
X995D01*
X1000Y1867D01*
Y1845D01*
X995Y1840D01*
X984D01*
X979Y1845D01*
Y1867D01*
D80*
X5955Y1675D02*
Y2472D01*
X5756Y1675D02*
Y2472D01*
Y1675D02*
X5955D01*
X5756Y2472D02*
X5955D01*
X5473Y3380D02*
Y3420D01*
X5273Y3380D02*
Y3420D01*
X5073Y3380D02*
Y3420D01*
X4873Y3380D02*
Y3420D01*
X4593Y3380D02*
Y3420D01*
X4395Y3380D02*
Y3420D01*
X4195Y3380D02*
Y3420D01*
X3995Y3380D02*
Y3420D01*
X3715Y3380D02*
Y3420D01*
X3515Y3380D02*
Y3420D01*
X3315Y3380D02*
Y3420D01*
X3115Y3380D02*
Y3420D01*
X2835Y3380D02*
Y3420D01*
X2635Y3380D02*
Y3420D01*
X2435Y3380D02*
Y3420D01*
X5268Y961D02*
Y1032D01*
X5072Y961D02*
Y1032D01*
X5268D01*
X5072Y961D02*
X5268D01*
X4218D02*
Y1032D01*
X4022Y961D02*
Y1032D01*
X4218D01*
X4022Y961D02*
X4218D01*
X2136Y2752D02*
X2404D01*
X2136Y2138D02*
X2404D01*
X2136D02*
Y2752D01*
X2404Y2138D02*
Y2752D01*
X3116Y2787D02*
X3384D01*
X3116Y2173D02*
X3384D01*
X3116D02*
Y2787D01*
X3384Y2173D02*
Y2787D01*
X4066D02*
X4334D01*
X4066Y2173D02*
X4334D01*
X4066D02*
Y2787D01*
X4334Y2173D02*
Y2787D01*
X5016D02*
X5284D01*
X5016Y2173D02*
X5284D01*
X5016D02*
Y2787D01*
X5284Y2173D02*
Y2787D01*
X2612Y1423D02*
X2938D01*
X2612Y1097D02*
X2938D01*
X2612D02*
Y1423D01*
X2938Y1097D02*
Y1423D01*
X548Y2977D02*
Y3363D01*
X402Y2977D02*
Y3363D01*
Y2977D02*
X548D01*
X402Y3363D02*
X548D01*
X1042Y1227D02*
Y1353D01*
X1238Y1227D02*
Y1353D01*
X397Y962D02*
X523D01*
X397Y1158D02*
X523D01*
X3245Y1975D02*
X3345D01*
Y1675D02*
Y1975D01*
X3245Y1675D02*
X3345D01*
X3245D02*
Y1975D01*
X3130D02*
X3230D01*
Y1675D02*
Y1975D01*
X3130Y1675D02*
X3230D01*
X3130D02*
Y1975D01*
X165Y486D02*
X488D01*
X165D02*
Y899D01*
X488D01*
Y486D02*
Y899D01*
X1240Y3895D02*
X2040D01*
Y3645D02*
Y3895D01*
X1240Y3645D02*
X2040D01*
X1240D02*
Y3895D01*
X3900D02*
X4700D01*
Y3645D02*
Y3895D01*
X3900Y3645D02*
X4700D01*
X3900D02*
Y3895D01*
X420D02*
X1220D01*
Y3645D02*
Y3895D01*
X420Y3645D02*
X1220D01*
X420D02*
Y3895D01*
X3020D02*
X3820D01*
Y3645D02*
Y3895D01*
X3020Y3645D02*
X3820D01*
X3020D02*
Y3895D01*
X2170Y460D02*
X2369D01*
Y58D02*
Y460D01*
X2170Y58D02*
Y460D01*
Y58D02*
X2369D01*
X2140Y3895D02*
X2940D01*
Y3645D02*
Y3895D01*
X2140Y3645D02*
X2940D01*
X2140D02*
Y3895D01*
X5875Y469D02*
Y1069D01*
X5975Y469D02*
Y1069D01*
X5875D02*
X5975D01*
X5875Y469D02*
X5975D01*
X1240Y3625D02*
X2040D01*
Y3375D02*
Y3625D01*
X1240Y3375D02*
X2040D01*
X1240D02*
Y3625D01*
X5285Y720D02*
Y760D01*
X4300Y710D02*
Y750D01*
X4050Y680D02*
X4090D01*
X5030Y1257D02*
X5070D01*
X3980Y1270D02*
X4020D01*
X1643Y526D02*
X1824D01*
X1643Y944D02*
X1824D01*
X1643Y526D02*
Y944D01*
X1824Y526D02*
Y944D01*
X1804Y526D02*
Y944D01*
X1183Y1836D02*
Y1934D01*
X1307Y1836D02*
Y1934D01*
X712Y1516D02*
Y1614D01*
X588Y1516D02*
Y1614D01*
X420Y3625D02*
X1220D01*
Y3375D02*
Y3625D01*
X420Y3375D02*
X1220D01*
X420D02*
Y3625D01*
X3487Y1389D02*
X3519D01*
Y1358D02*
Y1389D01*
X3487Y1271D02*
X3519D01*
Y1302D01*
X4780Y3895D02*
X5580D01*
Y3645D02*
Y3895D01*
X4780Y3645D02*
X5580D01*
X4780D02*
Y3895D01*
M02*
