M48
;Layer_Color=9474304
;FILE_FORMAT=2:3
INCH,LZ
;TYPE=PLATED
T1F00S00C0.014
T4F00S00C0.031
T5F00S00C0.035
T6F00S00C0.036
T7F00S00C0.039
T8F00S00C0.040
T9F00S00C0.043
T10F00S00C0.051
T11F00S00C0.063
T12F00S00C0.091
T13F00S00C0.138
%
T01
X0247Y00375
X0265Y0038
Y0033
X0292Y00425
X0302Y0014
X0351
X03395Y0041
X03895Y00395
X0403Y0014
X05575Y00375
X0538Y0074
X053Y0107
Y0116
X0554Y0121
X05525Y0135
X05575Y01345
Y0146
X0594Y01534
X0569Y0102
X05185Y0101
Y008
X0513Y01165
X05055Y0116
X0494Y0098
X0485Y01275
X0449Y0121
X04245Y01175
X0425Y0107
X04245Y01005
X0413Y0101
X04135Y00825
X0414Y00785
X0403Y00825
X03965Y00985
X03895Y0098
X03845Y01185
X04Y0118
X0408Y0117
X0374Y0132
Y01465
X0376Y01955
X03735Y01998
X03705Y01975
X0377Y02025
X04445Y02
X0448Y0203
X0488Y0201
X04395Y0073
X0414Y0059
X0407Y0058
X03615Y0112
X03645Y01175
X0347Y01145
X03415
X03385Y011
X03445Y0108
X0332
X03352Y01047
X03283
X03135Y01045
X03035Y00955
X03Y0093
X03125Y00865
X03185Y00895
X0323Y0088
X03282Y0086
X02875Y00855
X0269Y0085
X0271Y00795
X0268Y00735
X02645Y00765
X02658Y00897
X02596Y00904
X025Y0089
X0251Y00805
Y007
X02405Y0066
X0237Y00715
X0232
X0227Y0072
X02265Y01045
X02275Y0113
X02325Y01105
X0243Y0121
X02395Y0132
X02385Y0147
X02595Y0148
X0264Y0139
X02707Y01413
X0277Y01415
X0283
X02898Y01417
X02951Y01436
X03005Y0144
X03155Y01415
X0318Y01385
X03145Y01355
X03155Y0128
X03357Y01293
X0328Y0141
X03385Y015
X0338Y0154
Y0158
X0336Y01615
X03305
X0316Y01595
X0311Y0162
X03115Y0166
X0314Y0178
X02975Y01785
X0295Y0175
X0297Y01715
X02875Y01585
X02755
X02605Y0162
X02625Y01215
X02655Y0124
X02625Y0113
X02735Y0111
X02795Y01105
X0285
X02845Y012
X0292Y0119
X0286Y01315
X02765Y00955
X02735Y00935
X0277Y00705
X0347Y0147
X03445Y0164
X03415Y0167
X0336Y01855
X0352Y0195
X03575Y0192
X0133Y0191
X0129
X01245
X012
X0134Y02005
X00987Y01787
X01013Y01608
X01097Y01312
Y01268
X0114
Y01312
X01183
Y01268
X0078Y01125
X0157Y01085
X00482Y01103
Y0106
Y01017
X00438
Y0106
Y01103
X00145Y00985
X00165Y01665
X00205Y0165
X0025
X00295
X00335
X0038
X00425Y01655
X00475
X0052
X005Y01685
X00455
X00435Y0172
X00475
X0052
Y01765
X00475
X00435
X00365Y01905
X00122Y01837
X0017Y01735
X00145Y01705
X0024Y0296
X003Y0293
X0036Y02975
X00415Y03035
Y03135
X0044Y03185
X00475Y03205
X005Y03235
X00425Y03265
X00455Y03295
X0049Y0333
X0036Y03375
X0026Y0318
X005Y0297
X0053Y02995
X00575Y02955
X0061
X00645Y0296
Y0299
Y0302
Y02925
X0067Y03235
X0077Y0326
X0087Y03285
X01055
X01095Y0334
X0064Y03355
X0145Y03135
X0193Y0211
X02165Y0232
X0217Y02565
X02205Y0262
X0236Y02565
X02575Y0262
X0255Y0267
X0252Y0272
X02545Y03045
X0258Y03075
X0256Y0315
X02695
X0271Y032
X02645Y0325
X0265Y0335
X0245Y0334
X0235Y03465
Y0353
X0255
X0255Y03465
X0275
X0275Y0353
X0303
X0303Y03465
X029Y034
X0287Y03185
X02835Y0321
X02885Y03075
X02935Y02755
X02965Y02705
X0299Y02655
X0315Y026
X0316Y02465
X0314Y02755
X0334Y026
X03505Y02655
X03525Y02705
X0359Y027
X0355Y02755
X03525Y03335
X0333Y03345
X03295Y0318
X03323Y03135
X03125Y0334
X0323Y03465
Y0353
X0343
Y03465
X0363Y03465
X0363Y0353
X03355Y02315
X0287Y02205
X02375Y02275
X0381Y02205
Y0205
X03815Y02655
X0381Y02705
Y02765
X03845Y0279
X03885Y0282
X04085Y02755
X041Y026
X0429
X0445Y02655
X0448Y02705
X04515Y0273
X04475Y0279
X04543Y02823
X0459Y0283
X04785Y0276
X04825Y0279
X04885Y02705
X0488Y02655
X05045Y02705
X0508Y02755
X0505Y026
X0524
X05025Y02155
X0499Y02125
X04955Y021
X04925Y02075
X0475Y02205
X0488Y03335
X0508Y0334
X0499Y03465
X04988Y0353
X04788
X0479Y03465
X0451
X04508Y0353
X0431
X0431Y03465
X0411
X0411Y0353
X0391
X0391Y03465
X04005Y0334
X04205
X044Y03335
X04485Y03285
X0372Y03335
X0519Y03465
X05188Y0353
X05388
X0539Y03465
X05485Y0334
X05285
X05585Y035
Y03565
X05905Y0353
X05955Y0349
X05715Y0287
X0572Y0281
X05415Y02755
X0543Y02705
X0546Y02655
Y0214
X05425Y0211
X0411Y03705
X0235Y037
T04
X01015Y00633
Y0083
X01385
Y00633
T05
X0222Y0011
Y0021
Y0031
Y0041
X0232
Y0031
Y0021
Y0011
X05925Y00519
Y00619
Y00719
Y00819
Y00919
Y01019
X05905Y01725
Y01825
Y01925
X05805
Y02025
X05905
X05805Y01825
Y01725
X0555Y0175
Y0165
X0545
Y0175
X0535
Y0165
Y0155
X0545
X0555
X0525
Y0165
Y0175
Y0185
X0535
X0545
X0555
X0515
Y0175
Y0165
Y0155
X0505
Y0165
Y0175
X0495
Y0165
Y0155
X0485
X0475
Y0165
Y0175
X0465
Y0165
Y0155
X0455
Y0165
Y0175
X0445
X0435
X0425
X0415
X0405
X0395
X0385
X0375
Y0165
Y0155
X0385
Y0165
X0395
Y0155
X0405
Y0165
X0415
Y0155
X0425
Y0165
X0435
Y0155
X0445
Y0165
Y0185
X0455
X0465
X0475
X0485
Y0175
Y0165
X0495Y0185
X0505
X0435
X0425
X0415
X0405
X0375Y01
Y009
Y008
Y007
Y006
Y005
X0385
Y006
Y007
X0365
X0355
X0345
X0335
X0325
X0315
X0305
Y006
Y005
X0315
Y006
X0325
Y005
X0335
Y006
X0345
Y005
X0355
Y006
X0365
Y005
Y008
Y009
Y01
X0355Y009
Y008
X0345
X0285Y007
Y006
X0275
X0265
X0255
Y005
X0265
X0275
X0285
X0318Y01725
Y01825
Y01925
X03295
Y01825
Y01725
X0365Y0175
Y0165
Y0155
X022Y016
Y017
Y018
Y019
Y02
X023
Y019
Y018
X021
X02
X019
X018
Y019
Y02
X017
X016
X015
X019
Y019
X02
Y02
X021
Y019
Y017
Y016
X02
Y017
X019
Y016
Y015
Y014
X02
Y015
X021
Y014
Y013
X02
Y012
X019
Y013
Y011
X02
X021
Y012
Y01
X02
X019
X005Y022
X004
X003
Y023
Y024
Y025
Y026
Y027
X004
Y026
Y025
Y024
Y023
X005
Y024
Y025
Y026
Y027
X0047Y035
X0057
X0067
X0077
X0087
X0097
X0107
X0117
X0129
X0139
X0149
X0159
X0169
X0179
X0189
X0199
X02Y033
X021
Y032
X02
Y031
X021
Y03
X02
X017Y027
X016
X015
X014
X013
X012
X011
X01
X009
X008
X007
X006
Y026
Y025
Y024
Y023
Y022
X007
Y023
Y024
Y025
Y026
X008
Y025
Y024
Y023
Y022
X009
Y023
Y024
Y025
Y026
X01
Y025
Y024
Y023
Y022
X011
Y023
Y024
Y025
Y026
X012
Y025
Y024
Y023
Y022
X013
Y023
Y024
Y025
Y026
X014
Y025
Y024
Y023
Y022
X015
Y023
Y024
Y025
Y026
X016
Y025
Y024
Y023
Y022
X017
Y023
Y024
Y025
Y026
Y021
X016
X015
X018
Y022
X022Y03
Y031
Y032
Y033
X023
Y032
Y031
Y03
X0345Y0305
Y0295
X0355
Y0305
Y0315
X0365
Y0305
Y0295
X0435
Y0305
Y0315
X0445
Y0305
Y0295
X0505
X0515
Y0305
Y0315
X0505
Y0305
X0525
Y0315
X0535
X0545
Y0305
X0535
Y0295
X0525
X0545
X057Y0315
Y0325
Y0335
Y0345
X058
Y0335
Y0325
Y0315
X05805Y02425
Y02325
Y02225
Y02125
X05905
Y02225
Y02325
Y02425
X0553Y0377
X0543
X0533
X0523
X0513
X0503
X0493
X0483
X0465
X0455
X0445
X0435
X0425
X0415
X0405
X0395
X0377
X0367
X0357
X0347
X0337
X0327
X0317
X0307
X0289
X0279
X0269
X0259
X0249
X0239
X0229
X0219
X0199
X0189
X0179
X0169
X0159
X0149
X0139
X0129
X0117
X0107
X0097
X0087
X0077
X0067
X0057
X0047
T06
X0525Y00541
Y0062
X05152
Y00541
X0459
Y0062
X04492
Y00541
T07
X02839Y00207
X03016
X03339
X03516
X03839
X04016
X05878Y01284
Y01461
T08
X0446Y0104
X0365Y0135
X02285Y0127
Y0148
X0239Y0168
X0153Y01825
X00675Y01815
X01535Y0094
X0012Y0283
X03235Y0293
X04175Y02915
T09
X017Y00635
Y00835
T10
X0279Y00305
X03066
X0329
X03566
X0379
X04066
X0578Y01235
Y01511
T11
X0072Y00245
X01704
T12
X04304Y00435
X04792
X04964
X05452
T13
X0025Y0025
X0575
Y0367
X0025
M30
