G04 Layer_Color=16711935*
%FSLAX23Y23*%
%MOIN*%
G70*
G01*
G75*
%ADD14C,0.015*%
%ADD24C,0.010*%
%ADD42C,0.001*%
%ADD43C,0.006*%
D14*
X-343Y1878D02*
X4196D01*
Y3614D01*
X-343D02*
X4196D01*
X-343Y1878D02*
Y3614D01*
X4196Y3644D02*
Y4604D01*
X3077Y4364D02*
X4196D01*
X3077Y4244D02*
X4196D01*
X3077Y4124D02*
X4196D01*
X3077Y4004D02*
X4196D01*
X3077Y3884D02*
X4196D01*
X3077Y3764D02*
X4196D01*
X3077Y3644D02*
X4196D01*
X3077D02*
Y4604D01*
X2507Y4364D02*
X3077D01*
X2507Y4244D02*
X3077D01*
X2507Y4124D02*
X3077D01*
X2507Y4004D02*
X3077D01*
X2507Y3884D02*
X3077D01*
X2507Y3764D02*
X3077D01*
X2507Y3644D02*
X3077D01*
X2507D02*
Y4604D01*
X1857Y4364D02*
X2507D01*
X1857Y4244D02*
X2507D01*
X1857Y4124D02*
X2507D01*
X1857Y4004D02*
X2507D01*
X1857Y3884D02*
X2507D01*
X1857Y3764D02*
X2507D01*
X1857Y3644D02*
X2507D01*
X1857D02*
Y4604D01*
X997Y4364D02*
X1857D01*
X997Y4244D02*
X1857D01*
X997Y4124D02*
X1857D01*
X997Y4004D02*
X1857D01*
X997Y3884D02*
X1857D01*
X997Y3764D02*
X1857D01*
X997Y3644D02*
X1857D01*
X997D02*
Y4604D01*
X67Y4364D02*
X997D01*
X67Y4244D02*
X997D01*
X67Y4124D02*
X997D01*
X67Y4004D02*
X997D01*
X67Y3884D02*
X997D01*
X67Y3764D02*
X997D01*
X67Y3644D02*
X997D01*
X67D02*
Y4604D01*
X-342Y4364D02*
X67D01*
X-342Y4244D02*
X67D01*
X-342Y4124D02*
X67D01*
X-342Y4004D02*
X67D01*
X-342Y3884D02*
X67D01*
X-342Y3764D02*
X67D01*
X-342Y3644D02*
X67D01*
X-342D02*
Y4604D01*
X4196D01*
X-342Y4484D02*
X4196D01*
D24*
X3920Y-360D02*
Y-10D01*
X0Y-360D02*
Y-10D01*
X2065Y-350D02*
X3920D01*
X0D02*
X1823D01*
X3860Y-330D02*
X3920Y-350D01*
X3860Y-370D02*
X3920Y-350D01*
X0D02*
X60Y-370D01*
X0Y-350D02*
X60Y-330D01*
X-610Y0D02*
X-10D01*
X-610Y1500D02*
X-10D01*
X-600Y0D02*
Y623D01*
Y845D02*
Y1500D01*
Y0D02*
X-580Y60D01*
X-620D02*
X-600Y0D01*
X-620Y1440D02*
X-600Y1500D01*
X-580Y1440D01*
X3137Y4574D02*
Y4514D01*
X3167D01*
X3177Y4524D01*
Y4534D01*
X3167Y4544D01*
X3137D01*
X3167D01*
X3177Y4554D01*
Y4564D01*
X3167Y4574D01*
X3137D01*
X3207Y4514D02*
X3227D01*
X3237Y4524D01*
Y4544D01*
X3227Y4554D01*
X3207D01*
X3197Y4544D01*
Y4524D01*
X3207Y4514D01*
X3267Y4554D02*
X3287D01*
X3297Y4544D01*
Y4514D01*
X3267D01*
X3257Y4524D01*
X3267Y4534D01*
X3297D01*
X3317Y4554D02*
Y4514D01*
Y4534D01*
X3327Y4544D01*
X3337Y4554D01*
X3347D01*
X3417Y4574D02*
Y4514D01*
X3387D01*
X3377Y4524D01*
Y4544D01*
X3387Y4554D01*
X3417D01*
X3497Y4574D02*
Y4514D01*
X3536D01*
X3566Y4554D02*
X3586D01*
X3596Y4544D01*
Y4514D01*
X3566D01*
X3556Y4524D01*
X3566Y4534D01*
X3596D01*
X3616Y4554D02*
Y4524D01*
X3626Y4514D01*
X3656D01*
Y4504D01*
X3646Y4494D01*
X3636D01*
X3656Y4514D02*
Y4554D01*
X3706Y4514D02*
X3686D01*
X3676Y4524D01*
Y4544D01*
X3686Y4554D01*
X3706D01*
X3716Y4544D01*
Y4534D01*
X3676D01*
X3736Y4554D02*
Y4514D01*
Y4534D01*
X3746Y4544D01*
X3756Y4554D01*
X3766D01*
X3896Y4564D02*
X3886Y4574D01*
X3866D01*
X3856Y4564D01*
Y4554D01*
X3866Y4544D01*
X3886D01*
X3896Y4534D01*
Y4524D01*
X3886Y4514D01*
X3866D01*
X3856Y4524D01*
X3926Y4564D02*
Y4554D01*
X3916D01*
X3936D01*
X3926D01*
Y4524D01*
X3936Y4514D01*
X3976Y4554D02*
X3996D01*
X4006Y4544D01*
Y4514D01*
X3976D01*
X3966Y4524D01*
X3976Y4534D01*
X4006D01*
X4066Y4554D02*
X4036D01*
X4026Y4544D01*
Y4524D01*
X4036Y4514D01*
X4066D01*
X4086D02*
Y4574D01*
Y4534D02*
X4116Y4554D01*
X4086Y4534D02*
X4116Y4514D01*
X2567Y4324D02*
X2577Y4334D01*
X2597D01*
X2607Y4324D01*
Y4314D01*
X2597Y4304D01*
X2587D01*
X2597D01*
X2607Y4294D01*
Y4284D01*
X2597Y4274D01*
X2577D01*
X2567Y4284D01*
X2627Y4274D02*
Y4284D01*
X2637D01*
Y4274D01*
X2627D01*
X2717Y4334D02*
X2677D01*
Y4304D01*
X2697Y4314D01*
X2707D01*
X2717Y4304D01*
Y4284D01*
X2707Y4274D01*
X2687D01*
X2677Y4284D01*
X2597Y4034D02*
Y4094D01*
X2567Y4064D01*
X2607D01*
X2627Y4034D02*
Y4044D01*
X2637D01*
Y4034D01*
X2627D01*
X2677Y4084D02*
X2687Y4094D01*
X2707D01*
X2717Y4084D01*
Y4074D01*
X2707Y4064D01*
X2717Y4054D01*
Y4044D01*
X2707Y4034D01*
X2687D01*
X2677Y4044D01*
Y4054D01*
X2687Y4064D01*
X2677Y4074D01*
Y4084D01*
X2687Y4064D02*
X2707D01*
X2567Y3844D02*
X2577Y3854D01*
X2597D01*
X2607Y3844D01*
Y3834D01*
X2597Y3824D01*
X2587D01*
X2597D01*
X2607Y3814D01*
Y3804D01*
X2597Y3794D01*
X2577D01*
X2567Y3804D01*
X2627Y3794D02*
Y3804D01*
X2637D01*
Y3794D01*
X2627D01*
X2717Y3854D02*
X2677D01*
Y3824D01*
X2697Y3834D01*
X2707D01*
X2717Y3824D01*
Y3804D01*
X2707Y3794D01*
X2687D01*
X2677Y3804D01*
X2607Y4564D02*
X2597Y4574D01*
X2577D01*
X2567Y4564D01*
Y4524D01*
X2577Y4514D01*
X2597D01*
X2607Y4524D01*
X2637Y4514D02*
X2657D01*
X2667Y4524D01*
Y4544D01*
X2657Y4554D01*
X2637D01*
X2627Y4544D01*
Y4524D01*
X2637Y4514D01*
X2687D02*
Y4554D01*
X2717D01*
X2727Y4544D01*
Y4514D01*
X2747D02*
X2777D01*
X2787Y4524D01*
X2777Y4534D01*
X2757D01*
X2747Y4544D01*
X2757Y4554D01*
X2787D01*
X2817Y4564D02*
Y4554D01*
X2807D01*
X2827D01*
X2817D01*
Y4524D01*
X2827Y4514D01*
X2867Y4554D02*
X2887D01*
X2897Y4544D01*
Y4514D01*
X2867D01*
X2857Y4524D01*
X2867Y4534D01*
X2897D01*
X2917Y4514D02*
Y4554D01*
X2947D01*
X2957Y4544D01*
Y4514D01*
X2987Y4564D02*
Y4554D01*
X2977D01*
X2997D01*
X2987D01*
Y4524D01*
X2997Y4514D01*
X1917Y4324D02*
X1927Y4334D01*
X1947D01*
X1957Y4324D01*
Y4284D01*
X1947Y4274D01*
X1927D01*
X1917Y4284D01*
Y4324D01*
X1977Y4274D02*
Y4284D01*
X1987D01*
Y4274D01*
X1977D01*
X2057D02*
Y4334D01*
X2027Y4304D01*
X2067D01*
X2087Y4324D02*
X2097Y4334D01*
X2117D01*
X2127Y4324D01*
Y4284D01*
X2117Y4274D01*
X2097D01*
X2087Y4284D01*
Y4324D01*
X2147Y4274D02*
Y4314D01*
X2157D01*
X2167Y4304D01*
Y4274D01*
Y4304D01*
X2177Y4314D01*
X2187Y4304D01*
Y4274D01*
X2207D02*
X2227D01*
X2217D01*
Y4314D01*
X2207D01*
X2257Y4274D02*
X2277D01*
X2267D01*
Y4334D01*
X2257D01*
X1917Y4154D02*
X1937D01*
X1927D01*
Y4214D01*
X1917Y4204D01*
X1967Y4154D02*
Y4164D01*
X1977D01*
Y4154D01*
X1967D01*
X2047D02*
Y4214D01*
X2017Y4184D01*
X2057D01*
X2077Y4204D02*
X2087Y4214D01*
X2107D01*
X2117Y4204D01*
Y4164D01*
X2107Y4154D01*
X2087D01*
X2077Y4164D01*
Y4204D01*
X2137Y4154D02*
Y4194D01*
X2147D01*
X2157Y4184D01*
Y4154D01*
Y4184D01*
X2167Y4194D01*
X2177Y4184D01*
Y4154D01*
X2197D02*
X2217D01*
X2207D01*
Y4194D01*
X2197D01*
X2247Y4154D02*
X2267D01*
X2257D01*
Y4214D01*
X2247D01*
X1917Y4034D02*
X1937D01*
X1927D01*
Y4094D01*
X1917Y4084D01*
X2007Y4034D02*
X1967D01*
X2007Y4074D01*
Y4084D01*
X1997Y4094D01*
X1977D01*
X1967Y4084D01*
X2027Y4034D02*
Y4044D01*
X2037D01*
Y4034D01*
X2027D01*
X2117Y4094D02*
X2097Y4084D01*
X2077Y4064D01*
Y4044D01*
X2087Y4034D01*
X2107D01*
X2117Y4044D01*
Y4054D01*
X2107Y4064D01*
X2077D01*
X2137Y4084D02*
X2147Y4094D01*
X2167D01*
X2177Y4084D01*
Y4044D01*
X2167Y4034D01*
X2147D01*
X2137Y4044D01*
Y4084D01*
X2197Y4034D02*
Y4074D01*
X2207D01*
X2217Y4064D01*
Y4034D01*
Y4064D01*
X2227Y4074D01*
X2237Y4064D01*
Y4034D01*
X2257D02*
X2277D01*
X2267D01*
Y4074D01*
X2257D01*
X2307Y4034D02*
X2327D01*
X2317D01*
Y4094D01*
X2307D01*
X1917Y3914D02*
X1937D01*
X1927D01*
Y3974D01*
X1917Y3964D01*
X1967Y3914D02*
Y3924D01*
X1977D01*
Y3914D01*
X1967D01*
X2047D02*
Y3974D01*
X2017Y3944D01*
X2057D01*
X2077Y3964D02*
X2087Y3974D01*
X2107D01*
X2117Y3964D01*
Y3924D01*
X2107Y3914D01*
X2087D01*
X2077Y3924D01*
Y3964D01*
X2137Y3914D02*
Y3954D01*
X2147D01*
X2157Y3944D01*
Y3914D01*
Y3944D01*
X2167Y3954D01*
X2177Y3944D01*
Y3914D01*
X2197D02*
X2217D01*
X2207D01*
Y3954D01*
X2197D01*
X2247Y3914D02*
X2267D01*
X2257D01*
Y3974D01*
X2247D01*
X1917Y3844D02*
X1927Y3854D01*
X1947D01*
X1957Y3844D01*
Y3804D01*
X1947Y3794D01*
X1927D01*
X1917Y3804D01*
Y3844D01*
X1977Y3794D02*
Y3804D01*
X1987D01*
Y3794D01*
X1977D01*
X2057D02*
Y3854D01*
X2027Y3824D01*
X2067D01*
X2087Y3844D02*
X2097Y3854D01*
X2117D01*
X2127Y3844D01*
Y3804D01*
X2117Y3794D01*
X2097D01*
X2087Y3804D01*
Y3844D01*
X2147Y3794D02*
Y3834D01*
X2157D01*
X2167Y3824D01*
Y3794D01*
Y3824D01*
X2177Y3834D01*
X2187Y3824D01*
Y3794D01*
X2207D02*
X2227D01*
X2217D01*
Y3834D01*
X2207D01*
X2257Y3794D02*
X2277D01*
X2267D01*
Y3854D01*
X2257D01*
X1917Y4574D02*
X1957D01*
X1937D01*
Y4514D01*
X1977Y4574D02*
Y4514D01*
Y4544D01*
X1987Y4554D01*
X2007D01*
X2017Y4544D01*
Y4514D01*
X2037D02*
X2057D01*
X2047D01*
Y4554D01*
X2037D01*
X2127D02*
X2097D01*
X2087Y4544D01*
Y4524D01*
X2097Y4514D01*
X2127D01*
X2147D02*
Y4574D01*
Y4534D02*
X2177Y4554D01*
X2147Y4534D02*
X2177Y4514D01*
X2207D02*
Y4554D01*
X2237D01*
X2247Y4544D01*
Y4514D01*
X2297D02*
X2277D01*
X2267Y4524D01*
Y4544D01*
X2277Y4554D01*
X2297D01*
X2307Y4544D01*
Y4534D01*
X2267D01*
X2327Y4514D02*
X2357D01*
X2367Y4524D01*
X2357Y4534D01*
X2337D01*
X2327Y4544D01*
X2337Y4554D01*
X2367D01*
X2387Y4514D02*
X2417D01*
X2427Y4524D01*
X2417Y4534D01*
X2397D01*
X2387Y4544D01*
X2397Y4554D01*
X2427D01*
X1097Y4324D02*
X1087Y4334D01*
X1067D01*
X1057Y4324D01*
Y4314D01*
X1067Y4304D01*
X1087D01*
X1097Y4294D01*
Y4284D01*
X1087Y4274D01*
X1067D01*
X1057Y4284D01*
X1127Y4274D02*
X1147D01*
X1157Y4284D01*
Y4304D01*
X1147Y4314D01*
X1127D01*
X1117Y4304D01*
Y4284D01*
X1127Y4274D01*
X1177D02*
X1197D01*
X1187D01*
Y4334D01*
X1177D01*
X1267D02*
Y4274D01*
X1237D01*
X1227Y4284D01*
Y4304D01*
X1237Y4314D01*
X1267D01*
X1317Y4274D02*
X1297D01*
X1287Y4284D01*
Y4304D01*
X1297Y4314D01*
X1317D01*
X1327Y4304D01*
Y4294D01*
X1287D01*
X1347Y4314D02*
Y4274D01*
Y4294D01*
X1357Y4304D01*
X1367Y4314D01*
X1377D01*
X1467Y4274D02*
Y4334D01*
X1497D01*
X1507Y4324D01*
Y4304D01*
X1497Y4294D01*
X1467D01*
X1487D02*
X1507Y4274D01*
X1557D02*
X1537D01*
X1527Y4284D01*
Y4304D01*
X1537Y4314D01*
X1557D01*
X1567Y4304D01*
Y4294D01*
X1527D01*
X1587Y4274D02*
X1617D01*
X1627Y4284D01*
X1617Y4294D01*
X1597D01*
X1587Y4304D01*
X1597Y4314D01*
X1627D01*
X1647Y4274D02*
X1667D01*
X1657D01*
Y4314D01*
X1647D01*
X1697Y4274D02*
X1727D01*
X1737Y4284D01*
X1727Y4294D01*
X1707D01*
X1697Y4304D01*
X1707Y4314D01*
X1737D01*
X1767Y4324D02*
Y4314D01*
X1757D01*
X1777D01*
X1767D01*
Y4284D01*
X1777Y4274D01*
X1097Y4204D02*
X1087Y4214D01*
X1067D01*
X1057Y4204D01*
Y4164D01*
X1067Y4154D01*
X1087D01*
X1097Y4164D01*
X1127Y4154D02*
X1147D01*
X1157Y4164D01*
Y4184D01*
X1147Y4194D01*
X1127D01*
X1117Y4184D01*
Y4164D01*
X1127Y4154D01*
X1177Y4134D02*
Y4194D01*
X1207D01*
X1217Y4184D01*
Y4164D01*
X1207Y4154D01*
X1177D01*
X1237Y4134D02*
Y4194D01*
X1267D01*
X1277Y4184D01*
Y4164D01*
X1267Y4154D01*
X1237D01*
X1327D02*
X1307D01*
X1297Y4164D01*
Y4184D01*
X1307Y4194D01*
X1327D01*
X1337Y4184D01*
Y4174D01*
X1297D01*
X1357Y4194D02*
Y4154D01*
Y4174D01*
X1367Y4184D01*
X1377Y4194D01*
X1387D01*
X1097Y4094D02*
X1057D01*
Y4064D01*
X1077D01*
X1057D01*
Y4034D01*
X1117D02*
Y4094D01*
X1147D01*
X1157Y4084D01*
Y4064D01*
X1147Y4054D01*
X1117D01*
X1137D02*
X1157Y4034D01*
X1177Y4064D02*
X1217D01*
X1267Y4034D02*
Y4094D01*
X1237Y4064D01*
X1277D01*
X1097Y3964D02*
X1087Y3974D01*
X1067D01*
X1057Y3964D01*
Y3924D01*
X1067Y3914D01*
X1087D01*
X1097Y3924D01*
X1127Y3914D02*
X1147D01*
X1157Y3924D01*
Y3944D01*
X1147Y3954D01*
X1127D01*
X1117Y3944D01*
Y3924D01*
X1127Y3914D01*
X1177Y3894D02*
Y3954D01*
X1207D01*
X1217Y3944D01*
Y3924D01*
X1207Y3914D01*
X1177D01*
X1237Y3894D02*
Y3954D01*
X1267D01*
X1277Y3944D01*
Y3924D01*
X1267Y3914D01*
X1237D01*
X1327D02*
X1307D01*
X1297Y3924D01*
Y3944D01*
X1307Y3954D01*
X1327D01*
X1337Y3944D01*
Y3934D01*
X1297D01*
X1357Y3954D02*
Y3914D01*
Y3934D01*
X1367Y3944D01*
X1377Y3954D01*
X1387D01*
X1097Y3844D02*
X1087Y3854D01*
X1067D01*
X1057Y3844D01*
Y3834D01*
X1067Y3824D01*
X1087D01*
X1097Y3814D01*
Y3804D01*
X1087Y3794D01*
X1067D01*
X1057Y3804D01*
X1127Y3794D02*
X1147D01*
X1157Y3804D01*
Y3824D01*
X1147Y3834D01*
X1127D01*
X1117Y3824D01*
Y3804D01*
X1127Y3794D01*
X1177D02*
X1197D01*
X1187D01*
Y3854D01*
X1177D01*
X1267D02*
Y3794D01*
X1237D01*
X1227Y3804D01*
Y3824D01*
X1237Y3834D01*
X1267D01*
X1317Y3794D02*
X1297D01*
X1287Y3804D01*
Y3824D01*
X1297Y3834D01*
X1317D01*
X1327Y3824D01*
Y3814D01*
X1287D01*
X1347Y3834D02*
Y3794D01*
Y3814D01*
X1357Y3824D01*
X1367Y3834D01*
X1377D01*
X1467Y3794D02*
Y3854D01*
X1497D01*
X1507Y3844D01*
Y3824D01*
X1497Y3814D01*
X1467D01*
X1487D02*
X1507Y3794D01*
X1557D02*
X1537D01*
X1527Y3804D01*
Y3824D01*
X1537Y3834D01*
X1557D01*
X1567Y3824D01*
Y3814D01*
X1527D01*
X1587Y3794D02*
X1617D01*
X1627Y3804D01*
X1617Y3814D01*
X1597D01*
X1587Y3824D01*
X1597Y3834D01*
X1627D01*
X1647Y3794D02*
X1667D01*
X1657D01*
Y3834D01*
X1647D01*
X1697Y3794D02*
X1727D01*
X1737Y3804D01*
X1727Y3814D01*
X1707D01*
X1697Y3824D01*
X1707Y3834D01*
X1737D01*
X1767Y3844D02*
Y3834D01*
X1757D01*
X1777D01*
X1767D01*
Y3804D01*
X1777Y3794D01*
X1057Y4514D02*
Y4574D01*
X1077Y4554D01*
X1097Y4574D01*
Y4514D01*
X1127Y4554D02*
X1147D01*
X1157Y4544D01*
Y4514D01*
X1127D01*
X1117Y4524D01*
X1127Y4534D01*
X1157D01*
X1187Y4564D02*
Y4554D01*
X1177D01*
X1197D01*
X1187D01*
Y4524D01*
X1197Y4514D01*
X1257D02*
X1237D01*
X1227Y4524D01*
Y4544D01*
X1237Y4554D01*
X1257D01*
X1267Y4544D01*
Y4534D01*
X1227D01*
X1287Y4554D02*
Y4514D01*
Y4534D01*
X1297Y4544D01*
X1307Y4554D01*
X1317D01*
X1347Y4514D02*
X1367D01*
X1357D01*
Y4554D01*
X1347D01*
X1407D02*
X1427D01*
X1437Y4544D01*
Y4514D01*
X1407D01*
X1397Y4524D01*
X1407Y4534D01*
X1437D01*
X1457Y4514D02*
X1477D01*
X1467D01*
Y4574D01*
X1457D01*
X127Y4454D02*
X167D01*
X147D01*
Y4394D01*
X197D02*
X217D01*
X227Y4404D01*
Y4424D01*
X217Y4434D01*
X197D01*
X187Y4424D01*
Y4404D01*
X197Y4394D01*
X247Y4374D02*
Y4434D01*
X277D01*
X287Y4424D01*
Y4404D01*
X277Y4394D01*
X247D01*
X397Y4454D02*
X377D01*
X367Y4444D01*
Y4404D01*
X377Y4394D01*
X397D01*
X407Y4404D01*
Y4444D01*
X397Y4454D01*
X427Y4434D02*
X447Y4394D01*
X467Y4434D01*
X517Y4394D02*
X497D01*
X487Y4404D01*
Y4424D01*
X497Y4434D01*
X517D01*
X527Y4424D01*
Y4414D01*
X487D01*
X547Y4434D02*
Y4394D01*
Y4414D01*
X557Y4424D01*
X567Y4434D01*
X577D01*
X607Y4394D02*
X627D01*
X617D01*
Y4454D01*
X607D01*
X667Y4434D02*
X687D01*
X697Y4424D01*
Y4394D01*
X667D01*
X657Y4404D01*
X667Y4414D01*
X697D01*
X717Y4434D02*
Y4404D01*
X727Y4394D01*
X757D01*
Y4384D01*
X747Y4374D01*
X737D01*
X757Y4394D02*
Y4434D01*
X127Y4334D02*
X167D01*
X147D01*
Y4274D01*
X197D02*
X217D01*
X227Y4284D01*
Y4304D01*
X217Y4314D01*
X197D01*
X187Y4304D01*
Y4284D01*
X197Y4274D01*
X247Y4254D02*
Y4314D01*
X277D01*
X287Y4304D01*
Y4284D01*
X277Y4274D01*
X247D01*
X407Y4324D02*
X397Y4334D01*
X377D01*
X367Y4324D01*
Y4314D01*
X377Y4304D01*
X397D01*
X407Y4294D01*
Y4284D01*
X397Y4274D01*
X377D01*
X367Y4284D01*
X437Y4274D02*
X457D01*
X467Y4284D01*
Y4304D01*
X457Y4314D01*
X437D01*
X427Y4304D01*
Y4284D01*
X437Y4274D01*
X487D02*
X507D01*
X497D01*
Y4334D01*
X487D01*
X577D02*
Y4274D01*
X547D01*
X537Y4284D01*
Y4304D01*
X547Y4314D01*
X577D01*
X627Y4274D02*
X607D01*
X597Y4284D01*
Y4304D01*
X607Y4314D01*
X627D01*
X637Y4304D01*
Y4294D01*
X597D01*
X657Y4314D02*
Y4274D01*
Y4294D01*
X667Y4304D01*
X677Y4314D01*
X687D01*
X127Y4214D02*
X167D01*
X147D01*
Y4154D01*
X197D02*
X217D01*
X227Y4164D01*
Y4184D01*
X217Y4194D01*
X197D01*
X187Y4184D01*
Y4164D01*
X197Y4154D01*
X247Y4134D02*
Y4194D01*
X277D01*
X287Y4184D01*
Y4164D01*
X277Y4154D01*
X247D01*
X367Y4214D02*
Y4154D01*
X407D01*
X437Y4194D02*
X457D01*
X467Y4184D01*
Y4154D01*
X437D01*
X427Y4164D01*
X437Y4174D01*
X467D01*
X487Y4194D02*
Y4164D01*
X497Y4154D01*
X527D01*
Y4144D01*
X517Y4134D01*
X507D01*
X527Y4154D02*
Y4194D01*
X577Y4154D02*
X557D01*
X547Y4164D01*
Y4184D01*
X557Y4194D01*
X577D01*
X587Y4184D01*
Y4174D01*
X547D01*
X607Y4194D02*
Y4154D01*
Y4174D01*
X617Y4184D01*
X627Y4194D01*
X637D01*
X127Y4094D02*
Y4034D01*
X157D01*
X167Y4044D01*
Y4084D01*
X157Y4094D01*
X127D01*
X187Y4034D02*
X207D01*
X197D01*
Y4074D01*
X187D01*
X267Y4034D02*
X247D01*
X237Y4044D01*
Y4064D01*
X247Y4074D01*
X267D01*
X277Y4064D01*
Y4054D01*
X237D01*
X297Y4034D02*
X317D01*
X307D01*
Y4094D01*
X297D01*
X377Y4034D02*
X357D01*
X347Y4044D01*
Y4064D01*
X357Y4074D01*
X377D01*
X387Y4064D01*
Y4054D01*
X347D01*
X447Y4074D02*
X417D01*
X407Y4064D01*
Y4044D01*
X417Y4034D01*
X447D01*
X477Y4084D02*
Y4074D01*
X467D01*
X487D01*
X477D01*
Y4044D01*
X487Y4034D01*
X517Y4074D02*
Y4034D01*
Y4054D01*
X527Y4064D01*
X537Y4074D01*
X547D01*
X577Y4034D02*
X597D01*
X587D01*
Y4074D01*
X577D01*
X667D02*
X637D01*
X627Y4064D01*
Y4044D01*
X637Y4034D01*
X667D01*
X747D02*
X767D01*
X757D01*
Y4094D01*
X747Y4084D01*
X127Y3974D02*
Y3914D01*
X157D01*
X167Y3924D01*
Y3934D01*
X157Y3944D01*
X127D01*
X157D01*
X167Y3954D01*
Y3964D01*
X157Y3974D01*
X127D01*
X197Y3914D02*
X217D01*
X227Y3924D01*
Y3944D01*
X217Y3954D01*
X197D01*
X187Y3944D01*
Y3924D01*
X197Y3914D01*
X257Y3964D02*
Y3954D01*
X247D01*
X267D01*
X257D01*
Y3924D01*
X267Y3914D01*
X307Y3964D02*
Y3954D01*
X297D01*
X317D01*
X307D01*
Y3924D01*
X317Y3914D01*
X357D02*
X377D01*
X387Y3924D01*
Y3944D01*
X377Y3954D01*
X357D01*
X347Y3944D01*
Y3924D01*
X357Y3914D01*
X407D02*
Y3954D01*
X417D01*
X427Y3944D01*
Y3914D01*
Y3944D01*
X437Y3954D01*
X447Y3944D01*
Y3914D01*
X527Y3974D02*
Y3914D01*
X567D01*
X597Y3954D02*
X617D01*
X627Y3944D01*
Y3914D01*
X597D01*
X587Y3924D01*
X597Y3934D01*
X627D01*
X647Y3954D02*
Y3924D01*
X657Y3914D01*
X687D01*
Y3904D01*
X677Y3894D01*
X667D01*
X687Y3914D02*
Y3954D01*
X737Y3914D02*
X717D01*
X707Y3924D01*
Y3944D01*
X717Y3954D01*
X737D01*
X747Y3944D01*
Y3934D01*
X707D01*
X767Y3954D02*
Y3914D01*
Y3934D01*
X777Y3944D01*
X787Y3954D01*
X797D01*
X127Y3854D02*
Y3794D01*
X157D01*
X167Y3804D01*
Y3814D01*
X157Y3824D01*
X127D01*
X157D01*
X167Y3834D01*
Y3844D01*
X157Y3854D01*
X127D01*
X197Y3794D02*
X217D01*
X227Y3804D01*
Y3824D01*
X217Y3834D01*
X197D01*
X187Y3824D01*
Y3804D01*
X197Y3794D01*
X257Y3844D02*
Y3834D01*
X247D01*
X267D01*
X257D01*
Y3804D01*
X267Y3794D01*
X307Y3844D02*
Y3834D01*
X297D01*
X317D01*
X307D01*
Y3804D01*
X317Y3794D01*
X357D02*
X377D01*
X387Y3804D01*
Y3824D01*
X377Y3834D01*
X357D01*
X347Y3824D01*
Y3804D01*
X357Y3794D01*
X407D02*
Y3834D01*
X417D01*
X427Y3824D01*
Y3794D01*
Y3824D01*
X437Y3834D01*
X447Y3824D01*
Y3794D01*
X567Y3844D02*
X557Y3854D01*
X537D01*
X527Y3844D01*
Y3834D01*
X537Y3824D01*
X557D01*
X567Y3814D01*
Y3804D01*
X557Y3794D01*
X537D01*
X527Y3804D01*
X597Y3794D02*
X617D01*
X627Y3804D01*
Y3824D01*
X617Y3834D01*
X597D01*
X587Y3824D01*
Y3804D01*
X597Y3794D01*
X647D02*
X667D01*
X657D01*
Y3854D01*
X647D01*
X737D02*
Y3794D01*
X707D01*
X697Y3804D01*
Y3824D01*
X707Y3834D01*
X737D01*
X787Y3794D02*
X767D01*
X757Y3804D01*
Y3824D01*
X767Y3834D01*
X787D01*
X797Y3824D01*
Y3814D01*
X757D01*
X817Y3834D02*
Y3794D01*
Y3814D01*
X827Y3824D01*
X837Y3834D01*
X847D01*
X127Y3734D02*
Y3674D01*
X157D01*
X167Y3684D01*
Y3694D01*
X157Y3704D01*
X127D01*
X157D01*
X167Y3714D01*
Y3724D01*
X157Y3734D01*
X127D01*
X197Y3674D02*
X217D01*
X227Y3684D01*
Y3704D01*
X217Y3714D01*
X197D01*
X187Y3704D01*
Y3684D01*
X197Y3674D01*
X257Y3724D02*
Y3714D01*
X247D01*
X267D01*
X257D01*
Y3684D01*
X267Y3674D01*
X307Y3724D02*
Y3714D01*
X297D01*
X317D01*
X307D01*
Y3684D01*
X317Y3674D01*
X357D02*
X377D01*
X387Y3684D01*
Y3704D01*
X377Y3714D01*
X357D01*
X347Y3704D01*
Y3684D01*
X357Y3674D01*
X407D02*
Y3714D01*
X417D01*
X427Y3704D01*
Y3674D01*
Y3704D01*
X437Y3714D01*
X447Y3704D01*
Y3674D01*
X557Y3734D02*
X537D01*
X527Y3724D01*
Y3684D01*
X537Y3674D01*
X557D01*
X567Y3684D01*
Y3724D01*
X557Y3734D01*
X587Y3714D02*
X607Y3674D01*
X627Y3714D01*
X677Y3674D02*
X657D01*
X647Y3684D01*
Y3704D01*
X657Y3714D01*
X677D01*
X687Y3704D01*
Y3694D01*
X647D01*
X707Y3714D02*
Y3674D01*
Y3694D01*
X717Y3704D01*
X727Y3714D01*
X737D01*
X767Y3674D02*
X787D01*
X777D01*
Y3734D01*
X767D01*
X827Y3714D02*
X847D01*
X857Y3704D01*
Y3674D01*
X827D01*
X817Y3684D01*
X827Y3694D01*
X857D01*
X877Y3714D02*
Y3684D01*
X887Y3674D01*
X917D01*
Y3664D01*
X907Y3654D01*
X897D01*
X917Y3674D02*
Y3714D01*
X127Y4514D02*
Y4574D01*
X167Y4514D01*
Y4574D01*
X197Y4554D02*
X217D01*
X227Y4544D01*
Y4514D01*
X197D01*
X187Y4524D01*
X197Y4534D01*
X227D01*
X247Y4514D02*
Y4554D01*
X257D01*
X267Y4544D01*
Y4514D01*
Y4544D01*
X277Y4554D01*
X287Y4544D01*
Y4514D01*
X337D02*
X317D01*
X307Y4524D01*
Y4544D01*
X317Y4554D01*
X337D01*
X347Y4544D01*
Y4534D01*
X307D01*
X-282Y4394D02*
X-263D01*
X-273D01*
Y4454D01*
X-282Y4444D01*
X-243Y4274D02*
X-282D01*
X-243Y4314D01*
Y4324D01*
X-253Y4334D01*
X-273D01*
X-282Y4324D01*
Y4204D02*
X-273Y4214D01*
X-253D01*
X-243Y4204D01*
Y4194D01*
X-253Y4184D01*
X-263D01*
X-253D01*
X-243Y4174D01*
Y4164D01*
X-253Y4154D01*
X-273D01*
X-282Y4164D01*
X-253Y4034D02*
Y4094D01*
X-282Y4064D01*
X-243D01*
Y3974D02*
X-282D01*
Y3944D01*
X-263Y3954D01*
X-253D01*
X-243Y3944D01*
Y3924D01*
X-253Y3914D01*
X-273D01*
X-282Y3924D01*
X-243Y3854D02*
X-263Y3844D01*
X-282Y3824D01*
Y3804D01*
X-273Y3794D01*
X-253D01*
X-243Y3804D01*
Y3814D01*
X-253Y3824D01*
X-282D01*
Y3734D02*
X-243D01*
Y3724D01*
X-282Y3684D01*
Y3674D01*
Y4574D02*
Y4514D01*
X-243D01*
X-213Y4554D02*
X-193D01*
X-183Y4544D01*
Y4514D01*
X-213D01*
X-223Y4524D01*
X-213Y4534D01*
X-183D01*
X-163Y4554D02*
Y4524D01*
X-153Y4514D01*
X-123D01*
Y4504D01*
X-133Y4494D01*
X-143D01*
X-123Y4514D02*
Y4554D01*
X-73Y4514D02*
X-93D01*
X-103Y4524D01*
Y4544D01*
X-93Y4554D01*
X-73D01*
X-63Y4544D01*
Y4534D01*
X-103D01*
X-43Y4554D02*
Y4514D01*
Y4534D01*
X-33Y4544D01*
X-23Y4554D01*
X-13D01*
D42*
X-343Y3579D02*
X-306Y3615D01*
X-343Y3519D02*
X-246Y3615D01*
X-343Y3459D02*
X-186Y3615D01*
X-343Y3399D02*
X-126Y3615D01*
X-343Y3339D02*
X-66Y3615D01*
X-343Y3279D02*
X-6Y3615D01*
X-343Y3219D02*
X54Y3615D01*
X-343Y3159D02*
X114Y3615D01*
X-343Y3099D02*
X174Y3615D01*
X-343Y3039D02*
X234Y3615D01*
X-343Y2979D02*
X294Y3615D01*
X-343Y2919D02*
X354Y3615D01*
X-343Y2859D02*
X414Y3615D01*
X-343Y2799D02*
X474Y3615D01*
X-343Y2739D02*
X534Y3615D01*
X-343Y2679D02*
X594Y3615D01*
X-343Y2619D02*
X654Y3615D01*
X-343Y2559D02*
X714Y3615D01*
X-343Y2499D02*
X774Y3615D01*
X-343Y2439D02*
X834Y3615D01*
X-343Y2379D02*
X894Y3615D01*
X-343Y2319D02*
X954Y3615D01*
X-343Y2259D02*
X1014Y3615D01*
X-343Y2199D02*
X1074Y3615D01*
X-343Y2139D02*
X1134Y3615D01*
X-343Y2079D02*
X1194Y3615D01*
X-343Y2019D02*
X1254Y3615D01*
X-343Y1959D02*
X1314Y3615D01*
X-343Y1899D02*
X1374Y3615D01*
X-304Y1877D02*
X1434Y3615D01*
X-244Y1877D02*
X1494Y3615D01*
X-184Y1877D02*
X1554Y3615D01*
X-124Y1877D02*
X1614Y3615D01*
X-64Y1877D02*
X1674Y3615D01*
X-4Y1877D02*
X1734Y3615D01*
X56Y1877D02*
X1794Y3615D01*
X116Y1877D02*
X1854Y3615D01*
X176Y1877D02*
X1914Y3615D01*
X236Y1877D02*
X1974Y3615D01*
X296Y1877D02*
X2034Y3615D01*
X356Y1877D02*
X2094Y3615D01*
X416Y1877D02*
X2154Y3615D01*
X476Y1877D02*
X2214Y3615D01*
X536Y1877D02*
X2274Y3615D01*
X596Y1877D02*
X2334Y3615D01*
X656Y1877D02*
X2394Y3615D01*
X716Y1877D02*
X2454Y3615D01*
X776Y1877D02*
X2514Y3615D01*
X836Y1877D02*
X2574Y3615D01*
X896Y1877D02*
X2634Y3615D01*
X956Y1877D02*
X2694Y3615D01*
X1016Y1877D02*
X2754Y3615D01*
X1076Y1877D02*
X2814Y3615D01*
X1136Y1877D02*
X2874Y3615D01*
X1196Y1877D02*
X2934Y3615D01*
X1256Y1877D02*
X2994Y3615D01*
X1316Y1877D02*
X3054Y3615D01*
X1376Y1877D02*
X3114Y3615D01*
X1436Y1877D02*
X3174Y3615D01*
X1496Y1877D02*
X3234Y3615D01*
X1556Y1877D02*
X3294Y3615D01*
X1616Y1877D02*
X3354Y3615D01*
X1676Y1877D02*
X3414Y3615D01*
X1736Y1877D02*
X3474Y3615D01*
X1796Y1877D02*
X3534Y3615D01*
X1856Y1877D02*
X3594Y3615D01*
X1916Y1877D02*
X3654Y3615D01*
X1976Y1877D02*
X3714Y3615D01*
X2036Y1877D02*
X3774Y3615D01*
X2096Y1877D02*
X3834Y3615D01*
X2156Y1877D02*
X3894Y3615D01*
X2216Y1877D02*
X3954Y3615D01*
X2276Y1877D02*
X4014Y3615D01*
X2336Y1877D02*
X4074Y3615D01*
X2396Y1877D02*
X4134Y3615D01*
X2456Y1877D02*
X4194Y3615D01*
X2516Y1877D02*
X4196Y3557D01*
X2576Y1877D02*
X4196Y3497D01*
X2636Y1877D02*
X4196Y3438D01*
X2696Y1877D02*
X4196Y3378D01*
X2756Y1877D02*
X4196Y3318D01*
X2816Y1877D02*
X4196Y3257D01*
X2876Y1877D02*
X4196Y3197D01*
X2936Y1877D02*
X4196Y3138D01*
X2996Y1877D02*
X4196Y3078D01*
X3056Y1877D02*
X4196Y3017D01*
X3116Y1877D02*
X4196Y2957D01*
X3176Y1877D02*
X4196Y2898D01*
X3236Y1877D02*
X4196Y2838D01*
X3296Y1877D02*
X4196Y2777D01*
X3356Y1877D02*
X4196Y2717D01*
X3416Y1877D02*
X4196Y2658D01*
X3476Y1877D02*
X4196Y2598D01*
X3536Y1877D02*
X4196Y2537D01*
X3596Y1877D02*
X4196Y2477D01*
X3656Y1877D02*
X4196Y2418D01*
X3716Y1877D02*
X4196Y2358D01*
X3776Y1877D02*
X4196Y2297D01*
X3836Y1877D02*
X4196Y2237D01*
X3896Y1877D02*
X4196Y2178D01*
X3956Y1877D02*
X4196Y2118D01*
X4016Y1877D02*
X4196Y2057D01*
X4076Y1877D02*
X4196Y1997D01*
X4136Y1877D02*
X4196Y1938D01*
X3077Y4445D02*
X3116Y4484D01*
X3077Y4385D02*
X3176Y4484D01*
X3116Y4364D02*
X3236Y4484D01*
X3176Y4364D02*
X3296Y4484D01*
X3236Y4364D02*
X3356Y4484D01*
X3296Y4364D02*
X3416Y4484D01*
X3356Y4364D02*
X3476Y4484D01*
X3416Y4364D02*
X3536Y4484D01*
X3476Y4364D02*
X3596Y4484D01*
X3536Y4364D02*
X3656Y4484D01*
X3596Y4364D02*
X3716Y4484D01*
X3656Y4364D02*
X3776Y4484D01*
X3716Y4364D02*
X3836Y4484D01*
X3776Y4364D02*
X3896Y4484D01*
X3836Y4364D02*
X3956Y4484D01*
X3896Y4364D02*
X4016Y4484D01*
X3956Y4364D02*
X4076Y4484D01*
X4016Y4364D02*
X4136Y4484D01*
X4076Y4364D02*
X4196Y4484D01*
X4136Y4364D02*
X4196Y4424D01*
X3077Y4325D02*
X3116Y4364D01*
X3077Y4265D02*
X3176Y4364D01*
X3116Y4244D02*
X3236Y4364D01*
X3176Y4244D02*
X3296Y4364D01*
X3236Y4244D02*
X3356Y4364D01*
X3296Y4244D02*
X3416Y4364D01*
X3356Y4244D02*
X3476Y4364D01*
X3416Y4244D02*
X3536Y4364D01*
X3476Y4244D02*
X3596Y4364D01*
X3536Y4244D02*
X3656Y4364D01*
X3596Y4244D02*
X3716Y4364D01*
X3656Y4244D02*
X3776Y4364D01*
X3716Y4244D02*
X3836Y4364D01*
X3776Y4244D02*
X3896Y4364D01*
X3836Y4244D02*
X3956Y4364D01*
X3896Y4244D02*
X4016Y4364D01*
X3956Y4244D02*
X4076Y4364D01*
X4016Y4244D02*
X4136Y4364D01*
X4076Y4244D02*
X4196Y4364D01*
X4136Y4244D02*
X4196Y4304D01*
X3077Y4205D02*
X3116Y4244D01*
X3077Y4145D02*
X3176Y4244D01*
X3116Y4124D02*
X3236Y4244D01*
X3176Y4124D02*
X3296Y4244D01*
X3236Y4124D02*
X3356Y4244D01*
X3296Y4124D02*
X3416Y4244D01*
X3356Y4124D02*
X3476Y4244D01*
X3416Y4124D02*
X3536Y4244D01*
X3476Y4124D02*
X3596Y4244D01*
X3536Y4124D02*
X3656Y4244D01*
X3596Y4124D02*
X3716Y4244D01*
X3656Y4124D02*
X3776Y4244D01*
X3716Y4124D02*
X3836Y4244D01*
X3776Y4124D02*
X3896Y4244D01*
X3836Y4124D02*
X3956Y4244D01*
X3896Y4124D02*
X4016Y4244D01*
X3956Y4124D02*
X4076Y4244D01*
X4016Y4124D02*
X4136Y4244D01*
X4076Y4124D02*
X4196Y4244D01*
X4136Y4124D02*
X4196Y4184D01*
X3077Y4085D02*
X3116Y4124D01*
X3077Y4025D02*
X3176Y4124D01*
X3116Y4004D02*
X3236Y4124D01*
X3176Y4004D02*
X3296Y4124D01*
X3236Y4004D02*
X3356Y4124D01*
X3296Y4004D02*
X3416Y4124D01*
X3356Y4004D02*
X3476Y4124D01*
X3416Y4004D02*
X3536Y4124D01*
X3476Y4004D02*
X3596Y4124D01*
X3536Y4004D02*
X3656Y4124D01*
X3596Y4004D02*
X3716Y4124D01*
X3656Y4004D02*
X3776Y4124D01*
X3716Y4004D02*
X3836Y4124D01*
X3776Y4004D02*
X3896Y4124D01*
X3836Y4004D02*
X3956Y4124D01*
X3896Y4004D02*
X4016Y4124D01*
X3956Y4004D02*
X4076Y4124D01*
X4016Y4004D02*
X4136Y4124D01*
X4076Y4004D02*
X4196Y4124D01*
X4136Y4004D02*
X4196Y4064D01*
X3077Y3965D02*
X3116Y4004D01*
X3077Y3905D02*
X3176Y4004D01*
X3116Y3884D02*
X3236Y4004D01*
X3176Y3884D02*
X3296Y4004D01*
X3236Y3884D02*
X3356Y4004D01*
X3296Y3884D02*
X3416Y4004D01*
X3356Y3884D02*
X3476Y4004D01*
X3416Y3884D02*
X3536Y4004D01*
X3476Y3884D02*
X3596Y4004D01*
X3536Y3884D02*
X3656Y4004D01*
X3596Y3884D02*
X3716Y4004D01*
X3656Y3884D02*
X3776Y4004D01*
X3716Y3884D02*
X3836Y4004D01*
X3776Y3884D02*
X3896Y4004D01*
X3836Y3884D02*
X3956Y4004D01*
X3896Y3884D02*
X4016Y4004D01*
X3956Y3884D02*
X4076Y4004D01*
X4016Y3884D02*
X4136Y4004D01*
X4076Y3884D02*
X4196Y4004D01*
X4136Y3884D02*
X4196Y3944D01*
X3077Y3845D02*
X3116Y3884D01*
X3077Y3785D02*
X3176Y3884D01*
X3116Y3764D02*
X3236Y3884D01*
X3176Y3764D02*
X3296Y3884D01*
X3236Y3764D02*
X3356Y3884D01*
X3296Y3764D02*
X3416Y3884D01*
X3356Y3764D02*
X3476Y3884D01*
X3416Y3764D02*
X3536Y3884D01*
X3476Y3764D02*
X3596Y3884D01*
X3536Y3764D02*
X3656Y3884D01*
X3596Y3764D02*
X3716Y3884D01*
X3656Y3764D02*
X3776Y3884D01*
X3716Y3764D02*
X3836Y3884D01*
X3776Y3764D02*
X3896Y3884D01*
X3836Y3764D02*
X3956Y3884D01*
X3896Y3764D02*
X4016Y3884D01*
X3956Y3764D02*
X4076Y3884D01*
X4016Y3764D02*
X4136Y3884D01*
X4076Y3764D02*
X4196Y3884D01*
X4136Y3764D02*
X4196Y3824D01*
X3077Y3725D02*
X3116Y3764D01*
X3077Y3665D02*
X3176Y3764D01*
X3116Y3644D02*
X3236Y3764D01*
X3176Y3644D02*
X3296Y3764D01*
X3236Y3644D02*
X3356Y3764D01*
X3296Y3644D02*
X3416Y3764D01*
X3356Y3644D02*
X3476Y3764D01*
X3416Y3644D02*
X3536Y3764D01*
X3476Y3644D02*
X3596Y3764D01*
X3536Y3644D02*
X3656Y3764D01*
X3596Y3644D02*
X3716Y3764D01*
X3656Y3644D02*
X3776Y3764D01*
X3716Y3644D02*
X3836Y3764D01*
X3776Y3644D02*
X3896Y3764D01*
X3836Y3644D02*
X3956Y3764D01*
X3896Y3644D02*
X4016Y3764D01*
X3956Y3644D02*
X4076Y3764D01*
X4016Y3644D02*
X4136Y3764D01*
X4076Y3644D02*
X4196Y3764D01*
X4136Y3644D02*
X4196Y3704D01*
D43*
X0Y0D02*
X3920D01*
Y1500D01*
X0D02*
X3920D01*
X0Y0D02*
Y1500D01*
X1839Y-376D02*
X1849Y-386D01*
X1869D01*
X1879Y-376D01*
Y-336D01*
X1869Y-326D01*
X1849D01*
X1839Y-336D01*
Y-346D01*
X1849Y-356D01*
X1879D01*
X1899Y-386D02*
Y-376D01*
X1909D01*
Y-386D01*
X1899D01*
X1949Y-376D02*
X1959Y-386D01*
X1979D01*
X1989Y-376D01*
Y-336D01*
X1979Y-326D01*
X1959D01*
X1949Y-336D01*
Y-346D01*
X1959Y-356D01*
X1989D01*
X2049Y-326D02*
X2029Y-336D01*
X2009Y-356D01*
Y-376D01*
X2019Y-386D01*
X2039D01*
X2049Y-376D01*
Y-366D01*
X2039Y-356D01*
X2009D01*
X-614Y639D02*
X-624Y649D01*
Y669D01*
X-614Y679D01*
X-604D01*
X-594Y669D01*
Y659D01*
Y669D01*
X-584Y679D01*
X-574D01*
X-564Y669D01*
Y649D01*
X-574Y639D01*
X-564Y699D02*
X-574D01*
Y709D01*
X-564D01*
Y699D01*
X-614Y749D02*
X-624Y759D01*
Y779D01*
X-614Y789D01*
X-604D01*
X-594Y779D01*
X-584Y789D01*
X-574D01*
X-564Y779D01*
Y759D01*
X-574Y749D01*
X-584D01*
X-594Y759D01*
X-604Y749D01*
X-614D01*
X-594Y759D02*
Y779D01*
X-564Y809D02*
Y829D01*
Y819D01*
X-624D01*
X-614Y809D01*
M02*
