G04 Layer_Color=32896*
%FSLAX23Y23*%
%MOIN*%
G70*
G01*
G75*
%ADD24C,0.010*%
%ADD27C,0.005*%
G36*
X2838Y730D02*
X2783Y730D01*
X2810Y757D01*
X2838Y730D01*
D02*
G37*
G36*
X1143Y725D02*
X1087Y725D01*
X1115Y752D01*
X1143Y725D01*
D02*
G37*
G36*
X2838Y1280D02*
X2783Y1280D01*
X2810Y1308D01*
X2838Y1280D01*
D02*
G37*
G36*
X1143Y1275D02*
X1087Y1275D01*
X1115Y1303D01*
X1143Y1275D01*
D02*
G37*
D24*
X2580Y775D02*
X2620D01*
X2600Y660D02*
Y700D01*
X2580Y680D02*
X2620D01*
X2580Y1330D02*
X2620D01*
X2600Y1215D02*
Y1255D01*
X2580Y1235D02*
X2620D01*
X1305Y680D02*
X1345D01*
X1325Y660D02*
Y700D01*
X1305Y775D02*
X1345D01*
X1305Y1330D02*
X1345D01*
X1325Y1215D02*
Y1255D01*
X1305Y1235D02*
X1345D01*
X1280Y277D02*
Y217D01*
X1240D01*
X1180Y277D02*
X1220D01*
Y217D01*
X1180D01*
X1220Y247D02*
X1200D01*
X1160Y277D02*
Y217D01*
X1130D01*
X1120Y227D01*
Y267D01*
X1130Y277D01*
X1160D01*
X1000D02*
Y217D01*
X1030D01*
X1040Y227D01*
Y247D01*
X1030Y257D01*
X1000D01*
X980D02*
Y217D01*
Y237D01*
X970Y247D01*
X960Y257D01*
X950D01*
X920Y217D02*
X900D01*
X910D01*
Y257D01*
X920D01*
X870D02*
X850Y217D01*
X830Y257D01*
X780Y217D02*
X800D01*
X810Y227D01*
Y247D01*
X800Y257D01*
X780D01*
X770Y247D01*
Y237D01*
X810D01*
X750Y257D02*
Y217D01*
Y237D01*
X740Y247D01*
X730Y257D01*
X720D01*
X630D02*
X610Y217D01*
X590Y257D01*
X570Y217D02*
X550D01*
X560D01*
Y277D01*
X570Y267D01*
X520Y217D02*
Y227D01*
X510D01*
Y217D01*
X520D01*
X430D02*
X470D01*
X430Y257D01*
Y267D01*
X440Y277D01*
X460D01*
X470Y267D01*
X1240Y181D02*
X1280D01*
Y151D01*
X1260D01*
X1280D01*
Y121D01*
X1220Y161D02*
Y121D01*
Y141D01*
X1210Y151D01*
X1200Y161D01*
X1190D01*
X1130Y121D02*
X1150D01*
X1160Y131D01*
Y151D01*
X1150Y161D01*
X1130D01*
X1120Y151D01*
Y141D01*
X1160D01*
X1060Y181D02*
Y121D01*
X1090D01*
X1100Y131D01*
Y151D01*
X1090Y161D01*
X1060D01*
X1010Y121D02*
X1030D01*
X1040Y131D01*
Y151D01*
X1030Y161D01*
X1010D01*
X1000Y151D01*
Y141D01*
X1040D01*
X980Y161D02*
Y121D01*
Y141D01*
X970Y151D01*
X960Y161D01*
X950D01*
X920Y121D02*
X900D01*
X910D01*
Y161D01*
X920D01*
X830D02*
X860D01*
X870Y151D01*
Y131D01*
X860Y121D01*
X830D01*
X710Y171D02*
X720Y181D01*
X740D01*
X750Y171D01*
Y131D01*
X740Y121D01*
X720D01*
X710Y131D01*
X690Y181D02*
Y121D01*
Y151D01*
X680Y161D01*
X660D01*
X650Y151D01*
Y121D01*
X620Y161D02*
X600D01*
X590Y151D01*
Y121D01*
X620D01*
X630Y131D01*
X620Y141D01*
X590D01*
X570Y121D02*
X540D01*
X530Y131D01*
X540Y141D01*
X560D01*
X570Y151D01*
X560Y161D01*
X530D01*
X510Y121D02*
X480D01*
X470Y131D01*
X480Y141D01*
X500D01*
X510Y151D01*
X500Y161D01*
X470D01*
X420Y121D02*
X440D01*
X450Y131D01*
Y151D01*
X440Y161D01*
X420D01*
X410Y151D01*
Y141D01*
X450D01*
X1280Y85D02*
Y25D01*
X1260Y45D01*
X1240Y25D01*
Y85D01*
X1220Y25D02*
X1200D01*
X1210D01*
Y65D01*
X1220D01*
X1170Y25D02*
Y65D01*
X1140D01*
X1130Y55D01*
Y25D01*
X1100Y75D02*
Y65D01*
X1110D01*
X1090D01*
X1100D01*
Y35D01*
X1090Y25D01*
X1030D02*
X1050D01*
X1060Y35D01*
Y55D01*
X1050Y65D01*
X1030D01*
X1020Y55D01*
Y45D01*
X1060D01*
X1000Y65D02*
Y25D01*
Y45D01*
X990Y55D01*
X980Y65D01*
X970D01*
X840Y25D02*
X880D01*
X840Y65D01*
Y75D01*
X850Y85D01*
X870D01*
X880Y75D01*
X820D02*
X810Y85D01*
X790D01*
X780Y75D01*
Y35D01*
X790Y25D01*
X810D01*
X820Y35D01*
Y75D01*
X760Y25D02*
X740D01*
X750D01*
Y85D01*
X760Y75D01*
X670Y85D02*
X690Y75D01*
X710Y55D01*
Y35D01*
X700Y25D01*
X680D01*
X670Y35D01*
Y45D01*
X680Y55D01*
X710D01*
D27*
X1090Y1300D02*
X1140D01*
X1115Y1260D02*
Y1280D01*
Y1300D02*
Y1315D01*
Y750D02*
Y765D01*
Y710D02*
Y730D01*
X1090Y750D02*
X1140D01*
X2810Y1305D02*
Y1320D01*
Y1265D02*
Y1285D01*
X2785Y1305D02*
X2835D01*
X2810Y755D02*
Y770D01*
Y715D02*
Y735D01*
X2785Y755D02*
X2835D01*
M02*
