G04 Layer_Physical_Order=2*
G04 Layer_Color=16711680*
%FSLAX23Y23*%
%MOIN*%
G70*
G01*
G75*
%ADD15C,0.063*%
%ADD16C,0.060*%
%ADD17C,0.063*%
%ADD18R,0.063X0.063*%
%ADD19C,0.059*%
%ADD20R,0.059X0.059*%
G04:AMPARAMS|DCode=21|XSize=67mil|YSize=67mil|CornerRadius=8mil|HoleSize=0mil|Usage=FLASHONLY|Rotation=0.000|XOffset=0mil|YOffset=0mil|HoleType=Round|Shape=RoundedRectangle|*
%AMROUNDEDRECTD21*
21,1,0.067,0.050,0,0,0.0*
21,1,0.050,0.067,0,0,0.0*
1,1,0.017,0.025,-0.025*
1,1,0.017,-0.025,-0.025*
1,1,0.017,-0.025,0.025*
1,1,0.017,0.025,0.025*
%
%ADD21ROUNDEDRECTD21*%
%ADD22C,0.067*%
%ADD23C,0.303*%
G36*
X3375Y1445D02*
Y1240D01*
X3325Y1190D01*
X3100D01*
X2790Y880D01*
X2490Y880D01*
X2405Y795D01*
X2405Y575D01*
X2280Y450D01*
X2150Y450D01*
X2050Y350D01*
Y190D01*
X2030Y170D01*
X1990D01*
X1970Y190D01*
Y360D01*
X2130Y520D01*
X2240Y520D01*
X2325Y605D01*
X2325Y825D01*
X2450Y950D01*
X2730Y950D01*
X2820Y1040D01*
X3060Y1280D01*
X3080Y1280D01*
X3240D01*
X3275Y1315D01*
Y1440D01*
X3300Y1465D01*
X3355D01*
X3375Y1445D01*
D02*
G37*
G36*
X3040Y740D02*
X3570D01*
X3600Y710D01*
X3600Y670D01*
X3570Y640D01*
X3070D01*
X3040Y610D01*
Y530D01*
X2810Y300D01*
X2190D01*
X2150Y260D01*
Y190D01*
X2130Y170D01*
X2090D01*
X2070Y190D01*
Y310D01*
X2140Y380D01*
X2770Y380D01*
X2840Y450D01*
X2840Y505D01*
X3015Y680D01*
X3015D01*
Y715D01*
X3040Y740D01*
Y740D01*
X3040D01*
X3040Y740D01*
Y740D01*
D02*
G37*
G36*
X835Y1280D02*
X925Y1190D01*
Y995D01*
X1010Y910D01*
X1515Y910D01*
X1590Y835D01*
X1590Y565D01*
X1635Y520D01*
X1780Y520D01*
X1950Y350D01*
Y190D01*
X1930Y170D01*
X1890D01*
X1870Y190D01*
Y340D01*
X1750Y460D01*
X1590Y460D01*
X1520Y530D01*
Y795D01*
X1465Y850D01*
X930Y850D01*
X835Y945D01*
X830Y1165D01*
X825Y1170D01*
X815Y1180D01*
X770D01*
X750Y1200D01*
X730Y1220D01*
Y1260D01*
X750Y1280D01*
X835Y1280D01*
D02*
G37*
G36*
X835Y710D02*
Y660D01*
X815Y640D01*
X755D01*
X710Y595D01*
Y550D01*
Y535D01*
X740Y505D01*
X960D01*
X1055Y410D01*
X1740Y410D01*
X1850Y300D01*
X1850Y190D01*
X1830Y170D01*
X1790Y170D01*
X1770Y190D01*
X1770Y265D01*
X1745Y290D01*
X905Y290D01*
X905Y290D01*
X440D01*
X400Y330D01*
Y375D01*
X430Y405D01*
X475D01*
X575Y505D01*
X600Y530D01*
Y550D01*
Y600D01*
X620Y620D01*
X725Y725D01*
X820Y725D01*
X835Y710D01*
D02*
G37*
D15*
X2475Y780D02*
D03*
Y680D02*
D03*
X2710Y780D02*
D03*
Y680D02*
D03*
X2475Y1330D02*
D03*
Y1230D02*
D03*
X2710Y1330D02*
D03*
Y1230D02*
D03*
X1445Y1330D02*
D03*
Y1230D02*
D03*
X1210Y1330D02*
D03*
Y1230D02*
D03*
X1445Y780D02*
D03*
Y680D02*
D03*
X1210Y780D02*
D03*
Y680D02*
D03*
X975Y780D02*
D03*
Y680D02*
D03*
Y1330D02*
D03*
Y1230D02*
D03*
X2945Y1335D02*
D03*
Y1235D02*
D03*
Y780D02*
D03*
Y680D02*
D03*
D16*
X2715Y185D02*
D03*
X2115Y850D02*
D03*
X3520Y690D02*
D03*
X3325Y1415D02*
D03*
X370Y1130D02*
D03*
X450Y340D02*
D03*
Y750D02*
D03*
Y650D02*
D03*
X350Y750D02*
D03*
Y650D02*
D03*
Y550D02*
D03*
X3450Y200D02*
D03*
Y100D02*
D03*
X3350D02*
D03*
X3150D02*
D03*
X3250D02*
D03*
Y200D02*
D03*
X3350D02*
D03*
Y300D02*
D03*
X3450D02*
D03*
Y400D02*
D03*
X3550Y300D02*
D03*
Y400D02*
D03*
Y500D02*
D03*
Y600D02*
D03*
X3650Y400D02*
D03*
Y500D02*
D03*
Y600D02*
D03*
Y700D02*
D03*
X3750D02*
D03*
Y600D02*
D03*
Y500D02*
D03*
Y400D02*
D03*
X3850Y700D02*
D03*
Y600D02*
D03*
Y500D02*
D03*
Y400D02*
D03*
Y800D02*
D03*
Y900D02*
D03*
Y1000D02*
D03*
Y1100D02*
D03*
X3750Y800D02*
D03*
Y900D02*
D03*
Y1000D02*
D03*
Y1100D02*
D03*
X3650Y800D02*
D03*
Y900D02*
D03*
Y1000D02*
D03*
Y1100D02*
D03*
X3550D02*
D03*
Y1000D02*
D03*
Y900D02*
D03*
Y800D02*
D03*
X450Y950D02*
D03*
Y850D02*
D03*
X350D02*
D03*
Y950D02*
D03*
X250Y450D02*
D03*
X150D02*
D03*
X50D02*
D03*
X250Y550D02*
D03*
X150D02*
D03*
X50D02*
D03*
X250Y650D02*
D03*
X150D02*
D03*
X50D02*
D03*
X250Y750D02*
D03*
X150D02*
D03*
X50D02*
D03*
Y850D02*
D03*
X150D02*
D03*
X250D02*
D03*
Y950D02*
D03*
X150D02*
D03*
X50D02*
D03*
Y1050D02*
D03*
X150D02*
D03*
X250D02*
D03*
X350Y450D02*
D03*
X450D02*
D03*
Y550D02*
D03*
D17*
X3105Y580D02*
D03*
Y680D02*
D03*
Y1130D02*
D03*
Y1230D02*
D03*
X790Y1130D02*
D03*
Y1230D02*
D03*
Y580D02*
D03*
Y680D02*
D03*
D18*
X3105Y780D02*
D03*
Y1330D02*
D03*
X790D02*
D03*
Y780D02*
D03*
D19*
X2310Y230D02*
D03*
X2210D02*
D03*
X2110D02*
D03*
X2010D02*
D03*
X1910D02*
D03*
X1810D02*
D03*
X1710D02*
D03*
D20*
X1610D02*
D03*
D21*
X1870Y540D02*
D03*
D22*
X2067D02*
D03*
D23*
X200Y200D02*
D03*
X3720D02*
D03*
X200Y1300D02*
D03*
X3720D02*
D03*
M02*
