G04 Layer_Physical_Order=1*
G04 Layer_Color=255*
%FSLAX23Y23*%
%MOIN*%
G70*
G01*
G75*
G04:AMPARAMS|DCode=10|XSize=39mil|YSize=35mil|CornerRadius=4mil|HoleSize=0mil|Usage=FLASHONLY|Rotation=270.000|XOffset=0mil|YOffset=0mil|HoleType=Round|Shape=RoundedRectangle|*
%AMROUNDEDRECTD10*
21,1,0.039,0.027,0,0,270.0*
21,1,0.031,0.035,0,0,270.0*
1,1,0.009,-0.013,-0.015*
1,1,0.009,-0.013,0.015*
1,1,0.009,0.013,0.015*
1,1,0.009,0.013,-0.015*
%
%ADD10ROUNDEDRECTD10*%
G04:AMPARAMS|DCode=11|XSize=39mil|YSize=35mil|CornerRadius=4mil|HoleSize=0mil|Usage=FLASHONLY|Rotation=180.000|XOffset=0mil|YOffset=0mil|HoleType=Round|Shape=RoundedRectangle|*
%AMROUNDEDRECTD11*
21,1,0.039,0.027,0,0,180.0*
21,1,0.031,0.035,0,0,180.0*
1,1,0.009,-0.015,0.013*
1,1,0.009,0.015,0.013*
1,1,0.009,0.015,-0.013*
1,1,0.009,-0.015,-0.013*
%
%ADD11ROUNDEDRECTD11*%
G04:AMPARAMS|DCode=12|XSize=31mil|YSize=31mil|CornerRadius=4mil|HoleSize=0mil|Usage=FLASHONLY|Rotation=270.000|XOffset=0mil|YOffset=0mil|HoleType=Round|Shape=RoundedRectangle|*
%AMROUNDEDRECTD12*
21,1,0.031,0.024,0,0,270.0*
21,1,0.024,0.031,0,0,270.0*
1,1,0.008,-0.012,-0.012*
1,1,0.008,-0.012,0.012*
1,1,0.008,0.012,0.012*
1,1,0.008,0.012,-0.012*
%
%ADD12ROUNDEDRECTD12*%
G04:AMPARAMS|DCode=13|XSize=26mil|YSize=20mil|CornerRadius=2mil|HoleSize=0mil|Usage=FLASHONLY|Rotation=180.000|XOffset=0mil|YOffset=0mil|HoleType=Round|Shape=RoundedRectangle|*
%AMROUNDEDRECTD13*
21,1,0.026,0.016,0,0,180.0*
21,1,0.022,0.020,0,0,180.0*
1,1,0.004,-0.011,0.008*
1,1,0.004,0.011,0.008*
1,1,0.004,0.011,-0.008*
1,1,0.004,-0.011,-0.008*
%
%ADD13ROUNDEDRECTD13*%
%ADD14R,0.071X0.079*%
%ADD15R,0.014X0.087*%
%ADD16O,0.075X0.024*%
%ADD17O,0.012X0.083*%
%ADD18O,0.083X0.012*%
%ADD19O,0.055X0.018*%
%ADD20R,0.122X0.102*%
%ADD21R,0.024X0.057*%
%ADD22R,0.102X0.122*%
%ADD23R,0.057X0.024*%
G04:AMPARAMS|DCode=24|XSize=24mil|YSize=24mil|CornerRadius=2mil|HoleSize=0mil|Usage=FLASHONLY|Rotation=270.000|XOffset=0mil|YOffset=0mil|HoleType=Round|Shape=RoundedRectangle|*
%AMROUNDEDRECTD24*
21,1,0.024,0.019,0,0,270.0*
21,1,0.019,0.024,0,0,270.0*
1,1,0.005,-0.009,-0.009*
1,1,0.005,-0.009,0.009*
1,1,0.005,0.009,0.009*
1,1,0.005,0.009,-0.009*
%
%ADD24ROUNDEDRECTD24*%
%ADD25R,0.213X0.114*%
G04:AMPARAMS|DCode=26|XSize=26mil|YSize=20mil|CornerRadius=2mil|HoleSize=0mil|Usage=FLASHONLY|Rotation=270.000|XOffset=0mil|YOffset=0mil|HoleType=Round|Shape=RoundedRectangle|*
%AMROUNDEDRECTD26*
21,1,0.026,0.016,0,0,270.0*
21,1,0.022,0.020,0,0,270.0*
1,1,0.004,-0.008,-0.011*
1,1,0.004,-0.008,0.011*
1,1,0.004,0.008,0.011*
1,1,0.004,0.008,-0.011*
%
%ADD26ROUNDEDRECTD26*%
G04:AMPARAMS|DCode=27|XSize=31mil|YSize=31mil|CornerRadius=4mil|HoleSize=0mil|Usage=FLASHONLY|Rotation=0.000|XOffset=0mil|YOffset=0mil|HoleType=Round|Shape=RoundedRectangle|*
%AMROUNDEDRECTD27*
21,1,0.031,0.024,0,0,0.0*
21,1,0.024,0.031,0,0,0.0*
1,1,0.008,0.012,-0.012*
1,1,0.008,-0.012,-0.012*
1,1,0.008,-0.012,0.012*
1,1,0.008,0.012,0.012*
%
%ADD27ROUNDEDRECTD27*%
G04:AMPARAMS|DCode=28|XSize=98mil|YSize=67mil|CornerRadius=8mil|HoleSize=0mil|Usage=FLASHONLY|Rotation=0.000|XOffset=0mil|YOffset=0mil|HoleType=Round|Shape=RoundedRectangle|*
%AMROUNDEDRECTD28*
21,1,0.098,0.050,0,0,0.0*
21,1,0.082,0.067,0,0,0.0*
1,1,0.017,0.041,-0.025*
1,1,0.017,-0.041,-0.025*
1,1,0.017,-0.041,0.025*
1,1,0.017,0.041,0.025*
%
%ADD28ROUNDEDRECTD28*%
%ADD29R,0.132X0.071*%
G04:AMPARAMS|DCode=30|XSize=71mil|YSize=51mil|CornerRadius=6mil|HoleSize=0mil|Usage=FLASHONLY|Rotation=0.000|XOffset=0mil|YOffset=0mil|HoleType=Round|Shape=RoundedRectangle|*
%AMROUNDEDRECTD30*
21,1,0.071,0.038,0,0,0.0*
21,1,0.058,0.051,0,0,0.0*
1,1,0.013,0.029,-0.019*
1,1,0.013,-0.029,-0.019*
1,1,0.013,-0.029,0.019*
1,1,0.013,0.029,0.019*
%
%ADD30ROUNDEDRECTD30*%
%ADD31C,0.010*%
%ADD32C,0.008*%
%ADD33C,0.020*%
%ADD34C,0.015*%
%ADD35C,0.060*%
%ADD36C,0.059*%
%ADD37R,0.059X0.059*%
%ADD38C,0.079*%
%ADD39R,0.039X0.157*%
%ADD40O,0.039X0.157*%
%ADD41O,0.138X0.039*%
%ADD42R,0.059X0.059*%
%ADD43C,0.130*%
%ADD44C,0.118*%
%ADD45C,0.067*%
%ADD46R,0.067X0.067*%
G04:AMPARAMS|DCode=47|XSize=67mil|YSize=67mil|CornerRadius=8mil|HoleSize=0mil|Usage=FLASHONLY|Rotation=270.000|XOffset=0mil|YOffset=0mil|HoleType=Round|Shape=RoundedRectangle|*
%AMROUNDEDRECTD47*
21,1,0.067,0.050,0,0,270.0*
21,1,0.050,0.067,0,0,270.0*
1,1,0.017,-0.025,-0.025*
1,1,0.017,-0.025,0.025*
1,1,0.017,0.025,0.025*
1,1,0.017,0.025,-0.025*
%
%ADD47ROUNDEDRECTD47*%
%ADD48C,0.067*%
%ADD49C,0.303*%
%ADD50C,0.028*%
G36*
X580Y3885D02*
X1400D01*
X1445Y3840D01*
Y3725D01*
D01*
X1445Y3480D01*
X1400Y3435D01*
X1245Y3435D01*
X1215Y3465D01*
Y3740D01*
Y3790D01*
X1190Y3815D01*
X645D01*
X625Y3795D01*
X625Y3795D01*
Y3465D01*
X560Y3400D01*
X520D01*
D01*
X275D01*
X200Y3325D01*
Y2300D01*
X260Y2240D01*
X315D01*
X340Y2215D01*
Y2160D01*
X405Y2095D01*
X565Y2095D01*
X565Y2095D01*
X805D01*
X940Y1960D01*
Y1775D01*
X965Y1750D01*
X1085D01*
Y1810D01*
X1095Y1820D01*
X1150D01*
X1180Y1850D01*
X1340Y1850D01*
X1370Y1880D01*
X1595Y1880D01*
X1740Y1735D01*
Y1600D01*
X1715Y1575D01*
X1140D01*
X1115Y1600D01*
Y1635D01*
X1100Y1650D01*
X840Y1650D01*
X810Y1680D01*
X810Y1850D01*
X760Y1900D01*
X540Y1900D01*
Y1900D01*
X425D01*
X375Y1950D01*
X125D01*
X50Y2025D01*
Y3325D01*
X50D01*
X50Y3400D01*
X150Y3500D01*
X375Y3500D01*
X415Y3540D01*
Y3825D01*
X445Y3855D01*
X475Y3885D01*
X580Y3885D01*
X580Y3885D01*
D02*
G37*
G36*
X685Y3365D02*
Y3340D01*
X675Y3330D01*
Y3375D01*
X685Y3365D01*
D02*
G37*
G36*
X675Y3375D02*
X675Y3330D01*
X560Y3330D01*
X555Y3335D01*
Y3350D01*
X580Y3375D01*
X675Y3375D01*
D02*
G37*
G36*
X670Y3095D02*
Y2825D01*
X660Y2815D01*
X500D01*
X485Y2830D01*
Y3095D01*
X500Y3110D01*
X655D01*
X670Y3095D01*
D02*
G37*
G36*
X1420Y1955D02*
Y1900D01*
X1410Y1890D01*
X1185D01*
X1155Y1920D01*
Y2020D01*
X1170Y2035D01*
X1340D01*
X1420Y1955D01*
D02*
G37*
G36*
X420Y1865D02*
X735D01*
X775Y1825D01*
Y1675D01*
X725Y1625D01*
X150D01*
X115Y1660D01*
Y1725D01*
X200Y1810D01*
Y1845D01*
X220Y1865D01*
X420Y1865D01*
D02*
G37*
G36*
X1190Y1560D02*
Y1500D01*
X1160Y1470D01*
X1110D01*
X1085Y1445D01*
Y1370D01*
X1075Y1360D01*
X1055D01*
X1045Y1370D01*
Y1560D01*
X1050Y1565D01*
X1185D01*
X1190Y1560D01*
D02*
G37*
G36*
X1295Y1435D02*
X1308Y1423D01*
Y1315D01*
X1293Y1300D01*
X1268D01*
X1253Y1315D01*
Y1337D01*
X1225Y1365D01*
X1205Y1365D01*
X1195Y1375D01*
X1195Y1425D01*
X1205Y1435D01*
X1295Y1435D01*
D02*
G37*
G36*
X900Y1475D02*
Y1425D01*
X975Y1350D01*
X1205D01*
X1215Y1340D01*
Y1240D01*
X1205Y1230D01*
X1150Y1230D01*
X1130Y1210D01*
Y1125D01*
Y1040D01*
X1110Y1020D01*
Y1125D01*
X1080D01*
X1095Y1140D01*
Y1210D01*
X1070Y1235D01*
X950D01*
Y1150D01*
X975Y1125D01*
X1110Y1125D01*
X1110Y1020D01*
X880Y1020D01*
X700D01*
X695Y1015D01*
X680Y1030D01*
Y1165D01*
X700Y1185D01*
X740D01*
X760Y1205D01*
Y1285D01*
Y1315D01*
X675Y1400D01*
X590Y1400D01*
X570Y1420D01*
Y1515D01*
X580Y1525D01*
X850D01*
X900Y1475D01*
D02*
G37*
G36*
X445Y1225D02*
Y1190D01*
X440Y1185D01*
X400D01*
X385Y1170D01*
Y1125D01*
X375Y1115D01*
X315D01*
X305Y1125D01*
Y1215D01*
X320Y1230D01*
X440D01*
X445Y1225D01*
D02*
G37*
G36*
X550Y1425D02*
Y1325D01*
X555D01*
X575Y1305D01*
X725D01*
X750Y1280D01*
Y1230D01*
X730Y1210D01*
X670D01*
X650Y1190D01*
Y1135D01*
X630Y1115D01*
X545D01*
X530Y1130D01*
Y1140D01*
X520Y1150D01*
X475D01*
X460Y1165D01*
Y1250D01*
X435Y1275D01*
X200D01*
X175Y1300D01*
Y1425D01*
X200Y1450D01*
X525D01*
X550Y1425D01*
D02*
G37*
G36*
X1730Y1350D02*
Y1225D01*
X1725Y1220D01*
X1495D01*
X1485Y1210D01*
Y1125D01*
X1465Y1105D01*
X1270D01*
X1225Y1150D01*
X1205D01*
X1200Y1155D01*
Y1210D01*
X1210Y1220D01*
X1245D01*
X1255Y1230D01*
Y1275D01*
X1265Y1285D01*
X1425D01*
X1465Y1325D01*
Y1345D01*
X1485Y1365D01*
X1715D01*
X1730Y1350D01*
D02*
G37*
G36*
X1190Y1215D02*
Y1150D01*
X1245Y1095D01*
X1265Y1075D01*
Y1075D01*
X1490D01*
X1525Y1040D01*
X1685D01*
X1725Y1000D01*
X1775Y950D01*
Y875D01*
Y775D01*
X1750Y750D01*
X1625D01*
X1600Y725D01*
X875D01*
X835Y685D01*
X690D01*
Y835D01*
X660Y865D01*
X660D01*
X630Y895D01*
X630Y1050D01*
X615Y1065D01*
X540D01*
X530Y1075D01*
Y1095D01*
X540Y1105D01*
X650D01*
X665Y1090D01*
Y1025D01*
X690Y1000D01*
X1130D01*
X1145Y1015D01*
X1145Y1145D01*
Y1210D01*
X1155Y1220D01*
X1185D01*
X1190Y1215D01*
D02*
G37*
G36*
X520Y1115D02*
Y1070D01*
X535Y1055D01*
X605D01*
X615Y1045D01*
Y1020D01*
X605Y1010D01*
X530D01*
X510Y990D01*
X410D01*
X395Y1005D01*
Y1120D01*
X405Y1130D01*
X505D01*
X520Y1115D01*
D02*
G37*
G36*
X295Y1080D02*
Y1020D01*
X310Y1005D01*
X375D01*
X385Y995D01*
Y960D01*
X370Y945D01*
X255D01*
X240Y960D01*
Y1080D01*
X255Y1095D01*
X280D01*
X295Y1080D01*
D02*
G37*
G36*
X740Y665D02*
X750Y655D01*
X750Y545D01*
X740Y535D01*
X705D01*
X695Y545D01*
Y655D01*
X705Y665D01*
X740Y665D01*
D02*
G37*
G36*
X1530Y655D02*
X1545Y640D01*
Y555D01*
X1515Y525D01*
X785Y515D01*
X760Y540D01*
Y650D01*
X777Y670D01*
X1515D01*
X1530Y655D01*
D02*
G37*
G36*
X1825Y675D02*
X1825Y175D01*
X1775Y125D01*
X1650D01*
X1600Y175D01*
Y675D01*
X1650Y725D01*
X1775D01*
X1825Y675D01*
D02*
G37*
G36*
X575Y800D02*
Y425D01*
X625Y375D01*
X800D01*
X850Y325D01*
Y125D01*
X825Y100D01*
X450D01*
X425Y125D01*
Y550D01*
X400Y575D01*
X350Y625D01*
Y800D01*
X400Y850D01*
X525D01*
X575Y800D01*
D02*
G37*
D10*
X197Y985D02*
D03*
X263D02*
D03*
X263Y1060D02*
D03*
X197D02*
D03*
X5497Y3465D02*
D03*
X5430D02*
D03*
X5297D02*
D03*
X5230D02*
D03*
X5097D02*
D03*
X5030D02*
D03*
X4897D02*
D03*
X4830D02*
D03*
X4617D02*
D03*
X4550D02*
D03*
X4418D02*
D03*
X4352D02*
D03*
X4218D02*
D03*
X4152D02*
D03*
X4018D02*
D03*
X3952D02*
D03*
X3738D02*
D03*
X3672D02*
D03*
X3538D02*
D03*
X3472D02*
D03*
X3338D02*
D03*
X3272D02*
D03*
X3138D02*
D03*
X3072D02*
D03*
X2858D02*
D03*
X2792D02*
D03*
X2658D02*
D03*
X2592D02*
D03*
X2458D02*
D03*
X2392D02*
D03*
X5430Y3600D02*
D03*
X5497D02*
D03*
X5230D02*
D03*
X5297D02*
D03*
X5030D02*
D03*
X5097D02*
D03*
X4830D02*
D03*
X4897D02*
D03*
X4550D02*
D03*
X4617D02*
D03*
X4352D02*
D03*
X4418D02*
D03*
X4152D02*
D03*
X4218D02*
D03*
X3952D02*
D03*
X4018D02*
D03*
X3672D02*
D03*
X3738D02*
D03*
X3472D02*
D03*
X3538D02*
D03*
X3272D02*
D03*
X3338D02*
D03*
X3072D02*
D03*
X3138D02*
D03*
X2792D02*
D03*
X2858D02*
D03*
X2592D02*
D03*
X2658D02*
D03*
X2392D02*
D03*
X2458D02*
D03*
X5497Y3530D02*
D03*
X5430D02*
D03*
X5297D02*
D03*
X5230D02*
D03*
X5097D02*
D03*
X5030D02*
D03*
X4897D02*
D03*
X4830D02*
D03*
X4617D02*
D03*
X4550D02*
D03*
X4418D02*
D03*
X4352D02*
D03*
X4218D02*
D03*
X4152D02*
D03*
X4018D02*
D03*
X3952D02*
D03*
X3738D02*
D03*
X3672D02*
D03*
X3538D02*
D03*
X3472D02*
D03*
X3338D02*
D03*
X3272D02*
D03*
X3138D02*
D03*
X3072D02*
D03*
X2858D02*
D03*
X2792D02*
D03*
X2658D02*
D03*
X2592D02*
D03*
X2458D02*
D03*
X2392D02*
D03*
X5328Y805D02*
D03*
X5262D02*
D03*
X4947Y867D02*
D03*
X5013D02*
D03*
X3897D02*
D03*
X3963D02*
D03*
X4947Y927D02*
D03*
X5013D02*
D03*
X3897D02*
D03*
X3963D02*
D03*
X2547Y2515D02*
D03*
X2613D02*
D03*
X3527Y2560D02*
D03*
X3593D02*
D03*
X4477Y2550D02*
D03*
X4543D02*
D03*
X5427D02*
D03*
X5493D02*
D03*
X2003Y2495D02*
D03*
X1937D02*
D03*
X2983Y2530D02*
D03*
X2917D02*
D03*
X3933D02*
D03*
X3867D02*
D03*
X4883D02*
D03*
X4817D02*
D03*
X2542Y2270D02*
D03*
X2608D02*
D03*
X3527Y2350D02*
D03*
X3593D02*
D03*
X4477D02*
D03*
X4543D02*
D03*
X5427D02*
D03*
X5493D02*
D03*
X2003Y2275D02*
D03*
X1937D02*
D03*
X2983Y2310D02*
D03*
X2917D02*
D03*
X3933D02*
D03*
X3867D02*
D03*
X4883D02*
D03*
X4817D02*
D03*
X5823Y700D02*
D03*
X5757D02*
D03*
X5823Y635D02*
D03*
X5757D02*
D03*
X5823Y1020D02*
D03*
X5757D02*
D03*
X447Y2925D02*
D03*
X513D02*
D03*
X493Y1210D02*
D03*
X427D02*
D03*
X1673Y3325D02*
D03*
X1607D02*
D03*
X513Y2855D02*
D03*
X447D02*
D03*
X3862Y2420D02*
D03*
X3928D02*
D03*
X4817D02*
D03*
X4883D02*
D03*
X4543Y2255D02*
D03*
X4477D02*
D03*
X5493D02*
D03*
X5427D02*
D03*
X4543Y2455D02*
D03*
X4477D02*
D03*
X5493D02*
D03*
X5427D02*
D03*
X1932Y2170D02*
D03*
X1998D02*
D03*
X2917Y2205D02*
D03*
X2983D02*
D03*
X3867D02*
D03*
X3933D02*
D03*
X4817D02*
D03*
X4883D02*
D03*
X2003Y2340D02*
D03*
X1937D02*
D03*
X2983Y2380D02*
D03*
X2917D02*
D03*
X2547Y2160D02*
D03*
X2613D02*
D03*
X3593Y2255D02*
D03*
X3527D02*
D03*
X2547Y2380D02*
D03*
X2613D02*
D03*
X3593Y2455D02*
D03*
X3527D02*
D03*
D11*
X235Y1903D02*
D03*
Y1837D02*
D03*
X4210Y637D02*
D03*
Y703D02*
D03*
X4140Y637D02*
D03*
Y703D02*
D03*
X5490Y1213D02*
D03*
Y1280D02*
D03*
X4440Y1222D02*
D03*
Y1288D02*
D03*
X5370Y1213D02*
D03*
Y1280D02*
D03*
X4320Y1222D02*
D03*
Y1288D02*
D03*
X2155Y877D02*
D03*
Y943D02*
D03*
X725Y708D02*
D03*
Y642D02*
D03*
X1065Y1608D02*
D03*
Y1542D02*
D03*
X1165Y1542D02*
D03*
Y1608D02*
D03*
X1110Y1853D02*
D03*
Y1787D02*
D03*
X5230Y1213D02*
D03*
Y1280D02*
D03*
X4180Y1227D02*
D03*
Y1293D02*
D03*
X5110Y1213D02*
D03*
Y1280D02*
D03*
X4060Y1227D02*
D03*
Y1293D02*
D03*
X5170Y1213D02*
D03*
Y1280D02*
D03*
X4120Y1227D02*
D03*
Y1293D02*
D03*
X2560Y867D02*
D03*
Y933D02*
D03*
X795Y642D02*
D03*
Y708D02*
D03*
X1385Y1913D02*
D03*
Y1847D02*
D03*
X1280Y1257D02*
D03*
Y1323D02*
D03*
X300Y1903D02*
D03*
Y1837D02*
D03*
X2530Y333D02*
D03*
Y267D02*
D03*
X2600Y333D02*
D03*
Y267D02*
D03*
D12*
X170Y1903D02*
D03*
Y1837D02*
D03*
X5430Y1280D02*
D03*
Y1213D02*
D03*
X4380Y1288D02*
D03*
Y1222D02*
D03*
X5310Y1280D02*
D03*
Y1213D02*
D03*
X4260Y1293D02*
D03*
Y1227D02*
D03*
X1040Y1853D02*
D03*
Y1787D02*
D03*
X2530Y87D02*
D03*
Y153D02*
D03*
X2600Y87D02*
D03*
Y153D02*
D03*
D13*
X5428Y3400D02*
D03*
X5499D02*
D03*
X5228D02*
D03*
X5299D02*
D03*
X5028D02*
D03*
X5099D02*
D03*
X4828D02*
D03*
X4899D02*
D03*
X4548D02*
D03*
X4619D02*
D03*
X4350D02*
D03*
X4420D02*
D03*
X4150D02*
D03*
X4220D02*
D03*
X3950D02*
D03*
X4020D02*
D03*
X3670D02*
D03*
X3740D02*
D03*
X3470D02*
D03*
X3540D02*
D03*
X3270D02*
D03*
X3340D02*
D03*
X3070D02*
D03*
X3140D02*
D03*
X2790D02*
D03*
X2860D02*
D03*
X2590D02*
D03*
X2660D02*
D03*
X2390D02*
D03*
X2460D02*
D03*
X5330Y740D02*
D03*
X5260D02*
D03*
X4345Y730D02*
D03*
X4275D02*
D03*
D14*
X2235Y973D02*
D03*
X2435D02*
D03*
Y807D02*
D03*
X2235D02*
D03*
D15*
X5258Y1091D02*
D03*
X5233D02*
D03*
X5207D02*
D03*
X5182D02*
D03*
X5157D02*
D03*
X5133D02*
D03*
X5108D02*
D03*
X5082D02*
D03*
X5258Y902D02*
D03*
X5233D02*
D03*
X5207D02*
D03*
X5182D02*
D03*
X5157D02*
D03*
X5133D02*
D03*
X5108D02*
D03*
X5082D02*
D03*
X4207Y1091D02*
D03*
X4182D02*
D03*
X4157D02*
D03*
X4133D02*
D03*
X4108D02*
D03*
X4082D02*
D03*
X4057D02*
D03*
X4032D02*
D03*
X4207Y902D02*
D03*
X4182D02*
D03*
X4157D02*
D03*
X4133D02*
D03*
X4108D02*
D03*
X4082D02*
D03*
X4057D02*
D03*
X4032D02*
D03*
D16*
X2083Y2720D02*
D03*
Y2670D02*
D03*
Y2620D02*
D03*
Y2570D02*
D03*
Y2520D02*
D03*
Y2470D02*
D03*
Y2420D02*
D03*
Y2370D02*
D03*
Y2320D02*
D03*
Y2270D02*
D03*
Y2220D02*
D03*
Y2170D02*
D03*
X2457Y2720D02*
D03*
Y2670D02*
D03*
Y2620D02*
D03*
Y2570D02*
D03*
Y2520D02*
D03*
Y2470D02*
D03*
Y2420D02*
D03*
Y2370D02*
D03*
Y2320D02*
D03*
Y2270D02*
D03*
Y2220D02*
D03*
Y2170D02*
D03*
X3063Y2755D02*
D03*
Y2705D02*
D03*
Y2655D02*
D03*
Y2605D02*
D03*
Y2555D02*
D03*
Y2505D02*
D03*
Y2455D02*
D03*
Y2405D02*
D03*
Y2355D02*
D03*
Y2305D02*
D03*
Y2255D02*
D03*
Y2205D02*
D03*
X3437Y2755D02*
D03*
Y2705D02*
D03*
Y2655D02*
D03*
Y2605D02*
D03*
Y2555D02*
D03*
Y2505D02*
D03*
Y2455D02*
D03*
Y2405D02*
D03*
Y2355D02*
D03*
Y2305D02*
D03*
Y2255D02*
D03*
Y2205D02*
D03*
X4013Y2755D02*
D03*
Y2705D02*
D03*
Y2655D02*
D03*
Y2605D02*
D03*
Y2555D02*
D03*
Y2505D02*
D03*
Y2455D02*
D03*
Y2405D02*
D03*
Y2355D02*
D03*
Y2305D02*
D03*
Y2255D02*
D03*
Y2205D02*
D03*
X4387Y2755D02*
D03*
Y2705D02*
D03*
Y2655D02*
D03*
Y2605D02*
D03*
Y2555D02*
D03*
Y2505D02*
D03*
Y2455D02*
D03*
Y2405D02*
D03*
Y2355D02*
D03*
Y2305D02*
D03*
Y2255D02*
D03*
Y2205D02*
D03*
X4963Y2755D02*
D03*
Y2705D02*
D03*
Y2655D02*
D03*
Y2605D02*
D03*
Y2555D02*
D03*
Y2505D02*
D03*
Y2455D02*
D03*
Y2405D02*
D03*
Y2355D02*
D03*
Y2305D02*
D03*
Y2255D02*
D03*
Y2205D02*
D03*
X5337Y2755D02*
D03*
Y2705D02*
D03*
Y2655D02*
D03*
Y2605D02*
D03*
Y2555D02*
D03*
Y2505D02*
D03*
Y2455D02*
D03*
Y2405D02*
D03*
Y2355D02*
D03*
Y2305D02*
D03*
Y2255D02*
D03*
Y2205D02*
D03*
D17*
X2923Y1040D02*
D03*
X2903D02*
D03*
X2883D02*
D03*
X2864D02*
D03*
X2844D02*
D03*
X2824D02*
D03*
X2805D02*
D03*
X2785D02*
D03*
X2765D02*
D03*
X2745D02*
D03*
X2726D02*
D03*
X2706D02*
D03*
X2686D02*
D03*
X2667D02*
D03*
X2647D02*
D03*
X2627D02*
D03*
Y1480D02*
D03*
X2647D02*
D03*
X2667D02*
D03*
X2686D02*
D03*
X2706D02*
D03*
X2726D02*
D03*
X2745D02*
D03*
X2765D02*
D03*
X2785D02*
D03*
X2805D02*
D03*
X2824D02*
D03*
X2844D02*
D03*
X2864D02*
D03*
X2883D02*
D03*
X2903D02*
D03*
X2923D02*
D03*
D18*
X2555Y1112D02*
D03*
Y1132D02*
D03*
Y1152D02*
D03*
Y1171D02*
D03*
Y1191D02*
D03*
Y1211D02*
D03*
Y1230D02*
D03*
Y1250D02*
D03*
Y1270D02*
D03*
Y1290D02*
D03*
Y1309D02*
D03*
Y1329D02*
D03*
Y1349D02*
D03*
Y1368D02*
D03*
Y1388D02*
D03*
Y1408D02*
D03*
X2995D02*
D03*
Y1388D02*
D03*
Y1368D02*
D03*
Y1349D02*
D03*
Y1329D02*
D03*
Y1309D02*
D03*
Y1290D02*
D03*
Y1270D02*
D03*
Y1250D02*
D03*
Y1230D02*
D03*
Y1211D02*
D03*
Y1191D02*
D03*
Y1171D02*
D03*
Y1152D02*
D03*
Y1132D02*
D03*
Y1112D02*
D03*
D19*
X591Y3004D02*
D03*
Y3029D02*
D03*
Y3055D02*
D03*
Y3081D02*
D03*
Y3106D02*
D03*
Y3132D02*
D03*
Y3157D02*
D03*
Y3183D02*
D03*
Y3209D02*
D03*
Y3234D02*
D03*
Y3260D02*
D03*
Y3285D02*
D03*
Y3311D02*
D03*
Y3337D02*
D03*
X359Y3004D02*
D03*
Y3029D02*
D03*
Y3055D02*
D03*
Y3081D02*
D03*
Y3106D02*
D03*
Y3132D02*
D03*
Y3157D02*
D03*
Y3183D02*
D03*
Y3209D02*
D03*
Y3234D02*
D03*
Y3260D02*
D03*
Y3285D02*
D03*
Y3311D02*
D03*
Y3337D02*
D03*
D20*
X1140Y1290D02*
D03*
D21*
X1065Y1183D02*
D03*
X1115D02*
D03*
X1165D02*
D03*
X1215D02*
D03*
X1065Y1397D02*
D03*
X1115D02*
D03*
X1165D02*
D03*
X1215D02*
D03*
D22*
X460Y1060D02*
D03*
D23*
X567Y985D02*
D03*
Y1035D02*
D03*
Y1085D02*
D03*
Y1135D02*
D03*
X353Y985D02*
D03*
Y1035D02*
D03*
Y1085D02*
D03*
Y1135D02*
D03*
X3445Y1367D02*
D03*
Y1293D02*
D03*
X3537Y1330D02*
D03*
D24*
X240Y3005D02*
D03*
X280D02*
D03*
X240Y3065D02*
D03*
X280D02*
D03*
X240Y3130D02*
D03*
X280D02*
D03*
D25*
X1595Y1289D02*
D03*
Y1671D02*
D03*
X300Y1359D02*
D03*
Y1741D02*
D03*
D26*
X4070Y635D02*
D03*
Y705D02*
D03*
X5050Y1211D02*
D03*
Y1282D02*
D03*
X4000Y1225D02*
D03*
Y1295D02*
D03*
D27*
X727Y565D02*
D03*
X793D02*
D03*
D28*
X1569Y1160D02*
D03*
X1411D02*
D03*
X834Y1255D02*
D03*
X676D02*
D03*
D29*
X1245Y1786D02*
D03*
Y1984D02*
D03*
X650Y1664D02*
D03*
Y1466D02*
D03*
D30*
X1060Y1067D02*
D03*
Y953D02*
D03*
X950Y1062D02*
D03*
Y948D02*
D03*
X835Y1062D02*
D03*
Y948D02*
D03*
X725Y1062D02*
D03*
Y948D02*
D03*
D31*
X2742Y2077D02*
X4923D01*
X2726Y2061D02*
X2742Y2077D01*
X4923D02*
X4925Y2075D01*
X5182Y803D02*
Y902D01*
Y803D02*
X5185Y800D01*
X5150Y840D02*
X5157Y848D01*
X5040Y840D02*
X5150D01*
X5186Y1011D02*
Y1088D01*
X5185Y1010D02*
X5186Y1011D01*
X4980Y1010D02*
X5185D01*
X5140Y980D02*
X5200D01*
X5215Y995D01*
Y1020D01*
X5235Y904D02*
Y1015D01*
X5250Y1030D01*
X4950Y1040D02*
X4980Y1010D01*
X5207Y1028D02*
X5215Y1020D01*
X5233Y902D02*
X5235Y904D01*
X2995Y1171D02*
X2996Y1172D01*
X3437Y2655D02*
X3505D01*
X3590Y2815D02*
X3620Y2785D01*
X4115Y2790D02*
X4150Y2755D01*
X3783Y3203D02*
X3870Y3290D01*
X3783Y2552D02*
X3805Y2530D01*
X3783Y2552D02*
Y3203D01*
X3845Y2790D02*
X4115D01*
X3765Y2510D02*
Y3220D01*
X2830Y2025D02*
X3770D01*
X3753Y1948D02*
X3760Y1955D01*
X3522Y1948D02*
X3753D01*
X3520Y1950D02*
X3522Y1948D01*
X280Y3005D02*
X300Y2985D01*
Y2930D02*
Y2985D01*
X260Y3175D02*
Y3180D01*
Y3175D02*
X280Y3155D01*
X360Y3210D02*
X365Y3205D01*
X360Y3210D02*
X360Y3210D01*
X359D02*
X360D01*
X422Y3205D02*
X429Y3212D01*
X468D01*
X365Y3205D02*
X422D01*
X468Y3212D02*
X475Y3205D01*
X359Y3183D02*
X438D01*
X3954Y1012D02*
X4128D01*
X4130Y1010D01*
X3952D02*
X3954Y1012D01*
X3930Y1010D02*
X3952D01*
X4130D02*
X4131D01*
X4136Y1014D01*
Y1088D01*
X4157Y1028D02*
Y1091D01*
Y1028D02*
X4165Y1020D01*
Y995D02*
Y1020D01*
X4185Y904D02*
Y1015D01*
X4150Y980D02*
X4165Y995D01*
X4090Y980D02*
X4150D01*
X4182Y902D02*
X4185Y904D01*
X2630Y930D02*
X2646Y946D01*
X2630Y780D02*
Y930D01*
Y780D02*
X2645Y765D01*
X2647Y1035D02*
Y1040D01*
X2646Y946D02*
Y1035D01*
X2686Y851D02*
Y1040D01*
X2680Y735D02*
Y825D01*
X2457Y2670D02*
X2550D01*
X2457Y2620D02*
X2575D01*
X2615Y1620D02*
X2647Y1588D01*
X2605Y1620D02*
X2615D01*
X3040Y1510D02*
Y1725D01*
X2950Y1750D02*
X3015D01*
X3040Y1725D01*
X2970Y1715D02*
X2990D01*
X3020Y1685D01*
X3137Y1682D02*
Y1777D01*
X3140Y1780D01*
X3135Y1680D02*
X3137Y1682D01*
X240Y2960D02*
Y3130D01*
X280Y3130D02*
Y3155D01*
X395Y3055D02*
X415Y3035D01*
X359Y3055D02*
X395D01*
X240Y3130D02*
X240Y3130D01*
X280Y3005D02*
X304Y3029D01*
X359D01*
X280Y3065D02*
X290Y3055D01*
X359D01*
X282Y3132D02*
X359D01*
X185Y1060D02*
X197D01*
X427Y1210D02*
X430D01*
X4850Y850D02*
Y1275D01*
X5330Y740D02*
X5380D01*
X5150Y540D02*
X5210Y480D01*
X5355D01*
X5410Y535D01*
Y780D01*
X5385Y805D02*
X5410Y780D01*
X5328Y805D02*
X5385D01*
X5258Y803D02*
Y902D01*
Y803D02*
X5260Y800D01*
Y805D01*
Y740D02*
Y800D01*
X4245Y820D02*
Y1005D01*
Y820D02*
X4270Y795D01*
X4140Y590D02*
Y637D01*
X4490Y541D02*
X4492D01*
X4318Y642D02*
X4420Y540D01*
X4490D01*
X4395Y730D02*
X4395Y730D01*
X4345Y730D02*
X4395D01*
X4248Y703D02*
X4275Y730D01*
X4210Y703D02*
X4248D01*
X4140D02*
Y785D01*
X4210Y703D02*
Y900D01*
X4070Y705D02*
X4135D01*
X4070Y580D02*
X4070Y580D01*
Y635D01*
X3300Y1370D02*
X3450D01*
X3445Y1365D02*
X3620D01*
X3635Y1350D01*
X3650D01*
X3710Y1270D02*
Y1330D01*
X3690Y1250D02*
X3710Y1270D01*
X2995Y1250D02*
X3690D01*
X3710Y1330D02*
X3730Y1350D01*
X5525D01*
X3208Y1328D02*
X3225Y1345D01*
X3134Y1328D02*
X3208D01*
X3133Y1329D02*
X3134Y1328D01*
X2995Y1329D02*
X3133D01*
X3135Y1680D02*
X3155Y1660D01*
X3225Y1345D02*
Y1650D01*
X3245Y1335D02*
Y1630D01*
X3219Y1309D02*
X3245Y1335D01*
X2995Y1309D02*
X3219D01*
X3357Y1293D02*
X3445D01*
X3280Y1390D02*
Y1410D01*
Y1390D02*
X3300Y1370D01*
X3245Y1630D02*
X3260Y1645D01*
X2550Y3530D02*
X2592D01*
X2590Y3400D02*
Y3465D01*
X2750Y3530D02*
X2792D01*
X2790Y3400D02*
Y3465D01*
X3030Y3530D02*
X3072D01*
X3070Y3400D02*
Y3465D01*
X3230Y3530D02*
X3272D01*
X3270Y3400D02*
Y3465D01*
X3430Y3530D02*
X3472D01*
X3470Y3400D02*
Y3465D01*
X3630Y3530D02*
X3672D01*
X3670Y3400D02*
Y3465D01*
X3910Y3530D02*
X3952D01*
X3950Y3400D02*
Y3465D01*
X4110Y3530D02*
X4152D01*
X4150Y3400D02*
Y3465D01*
X4310Y3530D02*
X4352D01*
X4350Y3400D02*
Y3465D01*
X4508Y3530D02*
X4550D01*
X4548Y3400D02*
Y3465D01*
X4788Y3530D02*
X4830D01*
X4828Y3400D02*
Y3465D01*
X4988Y3530D02*
X5030D01*
X5028Y3400D02*
Y3465D01*
X5188Y3530D02*
X5230D01*
X5228Y3400D02*
Y3465D01*
X5388Y3530D02*
X5430D01*
X5428Y3400D02*
Y3465D01*
X2350Y3530D02*
X2392D01*
X2390Y3400D02*
Y3465D01*
X3368Y2897D02*
X3387Y2878D01*
X5422Y2255D02*
X5427Y2250D01*
X5472Y2300D02*
X5570D01*
X5427Y2255D02*
X5472Y2300D01*
X5422Y2455D02*
X5427Y2450D01*
X5545Y2505D02*
X5555Y2515D01*
X5477Y2505D02*
X5545D01*
X5427Y2455D02*
X5477Y2505D01*
X5445Y2205D02*
X5495Y2255D01*
X5337Y2205D02*
X5445D01*
Y2405D02*
X5495Y2455D01*
X5337Y2405D02*
X5445D01*
X4883Y2200D02*
X4888Y2205D01*
X4685Y2290D02*
X4725Y2250D01*
X4840D01*
X4883Y2207D01*
Y2205D02*
Y2207D01*
X4735Y2510D02*
X4775Y2470D01*
X4840D01*
X4883Y2427D01*
Y2420D02*
Y2427D01*
X4495Y2205D02*
X4545Y2255D01*
X4387Y2205D02*
X4495D01*
X4472Y2255D02*
X4477Y2250D01*
X4330Y2898D02*
X4597D01*
X4645Y2850D01*
Y2340D02*
Y2850D01*
X4610Y2305D02*
X4645Y2340D01*
X4527Y2305D02*
X4610D01*
X4477Y2255D02*
X4527Y2305D01*
X4472Y2455D02*
X4477Y2450D01*
X4570Y2505D02*
X4600Y2535D01*
X4525Y2505D02*
X4570D01*
X4477Y2457D02*
X4525Y2505D01*
X4477Y2455D02*
Y2457D01*
X4500Y2405D02*
X4545Y2450D01*
X4387Y2405D02*
X4500D01*
X3810Y2205D02*
X3867D01*
X3933Y2200D02*
X3938Y2205D01*
X3720Y2295D02*
X3755Y2260D01*
X3878D01*
X3933Y2205D01*
X3765Y2510D02*
X3800Y2475D01*
X3875D01*
X3928Y2422D01*
Y2420D02*
Y2422D01*
X3860Y2415D02*
X3920Y2355D01*
X4013D01*
X3387Y2878D02*
X3662D01*
X3370Y2860D02*
X3645D01*
X3350Y2880D02*
X3370Y2860D01*
X3662Y2878D02*
X3695Y2845D01*
Y2320D02*
Y2845D01*
X3675Y2300D02*
X3695Y2320D01*
X3560Y2300D02*
X3675D01*
X3527Y2267D02*
X3560Y2300D01*
X3527Y2255D02*
Y2267D01*
X3610Y2835D02*
X3645Y2800D01*
Y2520D02*
Y2800D01*
X3620Y2495D02*
X3645Y2520D01*
X3570Y2495D02*
X3620D01*
X3530Y2455D02*
X3570Y2495D01*
X3527Y2455D02*
X3530D01*
X3545Y2405D02*
X3595Y2455D01*
X3437Y2405D02*
X3545D01*
X3437Y2455D02*
X3527D01*
X3545Y2205D02*
X3595Y2255D01*
X3437Y2205D02*
X3545D01*
X3437Y2255D02*
X3525D01*
X3063Y2205D02*
X3065D01*
X2983D02*
X3063D01*
X2985Y2380D02*
X3010Y2355D01*
X3063D01*
X2830Y2420D02*
X3020D01*
X2917Y2380D02*
Y2418D01*
X1855Y2275D02*
X1915Y2215D01*
X1955D01*
X1910Y2275D02*
X1937D01*
X1875Y2310D02*
X1910Y2275D01*
X1895Y2450D02*
X1937Y2408D01*
Y2405D02*
Y2408D01*
Y2495D02*
X1940Y2498D01*
X1955Y2215D02*
X2000Y2170D01*
X2083D01*
X1932Y2112D02*
Y2170D01*
X2083D02*
X2085D01*
X1937Y2405D02*
X2005D01*
X2595Y2420D02*
X2660Y2485D01*
X2595Y2420D02*
X2615Y2400D01*
X2457Y2420D02*
X2595D01*
X2615Y2385D02*
Y2400D01*
X2790Y2460D02*
Y3165D01*
Y2460D02*
X2830Y2420D01*
X3160Y2400D02*
Y2465D01*
Y2520D01*
X3125Y2555D02*
X3160Y2520D01*
X3063Y2555D02*
X3125D01*
X3115Y2355D02*
X3160Y2400D01*
X3355Y2235D02*
Y2315D01*
Y2375D01*
X3385Y2405D02*
X3437D01*
X3355Y2375D02*
X3385Y2405D01*
X3355Y2235D02*
X3385Y2205D01*
X2613Y2162D02*
Y2215D01*
X2540Y2170D02*
X2550Y2160D01*
X2457Y2170D02*
X2540D01*
X2375Y2275D02*
Y2340D01*
Y2200D02*
Y2275D01*
X2405Y2370D02*
X2457D01*
X2375Y2340D02*
X2405Y2370D01*
X2375Y2200D02*
X2405Y2170D01*
X2535Y2370D02*
X2545Y2380D01*
X2457Y2370D02*
X2535D01*
X2083Y2320D02*
X2165D01*
X2005Y2340D02*
X2025Y2320D01*
X2083D01*
X1937Y2340D02*
Y2405D01*
X2005D02*
X2040Y2370D01*
X2083D01*
X1845Y3455D02*
X1890Y3500D01*
X1715Y3455D02*
X1845D01*
X1673Y3413D02*
X1715Y3455D01*
X1673Y3325D02*
Y3413D01*
X420Y3260D02*
X425Y3265D01*
X359Y3260D02*
Y3260D01*
X2765Y2330D02*
X2785Y2310D01*
X5058Y927D02*
X5085Y900D01*
X5013Y927D02*
X5058D01*
X447Y2855D02*
Y2925D01*
X513Y2855D02*
Y2925D01*
X430Y2965D02*
X447Y2948D01*
Y2925D02*
Y2948D01*
X370Y2965D02*
X430D01*
X360Y2975D02*
X370Y2965D01*
X360Y2975D02*
Y3003D01*
X357Y3005D02*
X359Y3004D01*
X360Y3003D01*
X5430Y1280D02*
X5490D01*
X5207Y1091D02*
X5233D01*
X5013Y867D02*
X5040Y840D01*
X5157Y848D02*
Y902D01*
X5052Y1280D02*
X5110D01*
X5170D01*
X5182Y1091D02*
X5186Y1088D01*
X5050Y1282D02*
X5052Y1280D01*
X2883Y1432D02*
Y1480D01*
X2745Y1435D02*
Y1480D01*
X5133Y902D02*
Y973D01*
X5140Y980D01*
X5207Y1028D02*
Y1091D01*
X5420Y1170D02*
X5430Y1180D01*
Y1213D01*
X5250Y1030D02*
X5320D01*
X5350Y1170D02*
X5420D01*
X5279Y1070D02*
X5300D01*
X5258Y1091D02*
X5279Y1070D01*
X2155Y970D02*
X2158Y973D01*
X2155Y943D02*
Y970D01*
X2158Y807D02*
X2235D01*
X2155Y810D02*
X2158Y807D01*
X2155Y810D02*
Y877D01*
X359Y3081D02*
Y3106D01*
Y3209D02*
Y3210D01*
X4207Y1091D02*
X4229Y1070D01*
X4250D01*
X4082Y902D02*
Y973D01*
X4090Y980D01*
X4157Y1091D02*
X4182D01*
X4180Y1094D02*
X4182Y1091D01*
X3900Y1040D02*
X3930Y1010D01*
X4133Y1091D02*
X4136Y1088D01*
X4300Y1170D02*
X4370D01*
X4380Y1180D01*
Y1213D01*
Y1290D02*
X4440D01*
X4260D02*
X4320D01*
X5013Y843D02*
Y867D01*
X5000Y830D02*
X5013Y843D01*
X4870Y830D02*
X5000D01*
X4850Y850D02*
X4870Y830D01*
X2530Y153D02*
Y267D01*
Y270D01*
X2600Y150D02*
Y153D01*
Y267D01*
X2530Y333D02*
X2597D01*
X2600Y330D01*
X2650D01*
X438Y3183D02*
X440Y3185D01*
X359Y3081D02*
X589D01*
X590Y3080D01*
X2495Y1270D02*
X2555D01*
X2285Y1270D02*
X2509D01*
X2083Y2570D02*
X2088Y2565D01*
X2405Y2170D02*
X2457D01*
X2083Y2520D02*
X2355D01*
X2360Y2525D01*
Y2565D01*
X2040Y2495D02*
X2065Y2470D01*
X2003Y2495D02*
X2040D01*
X2083Y2420D02*
Y2470D01*
X2065D02*
X2083D01*
X2003Y2275D02*
X2008Y2270D01*
X2083D01*
Y2220D02*
Y2270D01*
X2457Y2520D02*
X2542D01*
X2457Y2470D02*
Y2520D01*
X2542D02*
X2547Y2515D01*
X2457Y2270D02*
Y2320D01*
X3063Y2605D02*
X3068Y2600D01*
X3063Y2355D02*
X3115D01*
X3385Y2205D02*
X3437D01*
X3020Y2530D02*
X3045Y2505D01*
X2983Y2530D02*
X3020D01*
X3063Y2455D02*
Y2505D01*
X3045D02*
X3063D01*
X3020Y2420D02*
X3035Y2405D01*
X3063D01*
X2983Y2310D02*
X2988Y2305D01*
X3063D01*
Y2255D02*
Y2305D01*
X3437Y2555D02*
X3522D01*
X3437Y2505D02*
Y2555D01*
X3522D02*
X3527Y2550D01*
X3437Y2305D02*
Y2355D01*
X3522D01*
X4013Y2605D02*
X4018Y2600D01*
X4013Y2355D02*
X4065D01*
X4013Y2555D02*
X4080D01*
X4065Y2355D02*
X4080Y2370D01*
Y2555D01*
X4285D01*
X4330Y2210D02*
X4335Y2205D01*
X4330Y2405D02*
Y2600D01*
Y2210D02*
Y2405D01*
X4335Y2205D02*
X4387D01*
X4330Y2405D02*
X4387D01*
X4285Y2555D02*
X4290Y2560D01*
Y2600D01*
X3970Y2530D02*
X3995Y2505D01*
X3933Y2530D02*
X3970D01*
X4013Y2455D02*
Y2505D01*
X3995D02*
X4013D01*
X3933Y2420D02*
X3970D01*
X3985Y2405D01*
X4013D01*
X3933Y2310D02*
X3938Y2305D01*
X4013D01*
Y2255D02*
Y2305D01*
X3938Y2205D02*
X4013D01*
X4387Y2555D02*
X4472D01*
X4387Y2505D02*
Y2555D01*
X4472D02*
X4477Y2550D01*
X4387Y2455D02*
X4472D01*
X4387Y2305D02*
Y2355D01*
X4472D01*
X4387Y2255D02*
X4472D01*
X4963Y2605D02*
X4968Y2600D01*
X4963Y2555D02*
X5030D01*
X5015Y2355D02*
X5030Y2370D01*
Y2555D01*
X5235D01*
X5280Y2210D02*
X5285Y2205D01*
X5280Y2405D02*
Y2600D01*
Y2210D02*
Y2405D01*
X5285Y2205D02*
X5337D01*
X5280Y2405D02*
X5337D01*
X5235Y2555D02*
X5240Y2560D01*
Y2600D01*
X4920Y2530D02*
X4945Y2505D01*
X4883Y2530D02*
X4920D01*
X4963Y2455D02*
Y2505D01*
X4945D02*
X4963D01*
X4883Y2420D02*
X4920D01*
X4935Y2405D01*
X4963D01*
X4883Y2310D02*
X4888Y2305D01*
X4963D01*
Y2255D02*
Y2305D01*
X4888Y2205D02*
X4963D01*
X5337Y2555D02*
X5422D01*
X5337Y2505D02*
Y2555D01*
X5422D02*
X5427Y2550D01*
X5337Y2455D02*
X5422D01*
X5337Y2305D02*
Y2355D01*
X5422D01*
X5337Y2255D02*
X5422D01*
X2613Y2515D02*
X2615Y2517D01*
X2457Y2720D02*
X2520D01*
X2355Y1310D02*
Y1455D01*
X2330Y1480D02*
X2355Y1455D01*
X2285Y1480D02*
X2330D01*
X2785Y2310D02*
X2917D01*
X2830Y2530D02*
X2917D01*
X3593Y2350D02*
X3660D01*
X3675Y2365D01*
Y2830D01*
X3645Y2860D02*
X3675Y2830D01*
X3437Y2755D02*
X3550D01*
X3760Y2310D02*
X3867D01*
X3805Y2530D02*
X3867D01*
X4543Y2350D02*
X4610D01*
X4625Y2365D01*
Y2845D01*
X4590Y2880D02*
X4625Y2845D01*
X4315Y2880D02*
X4590D01*
X3740Y2330D02*
X3760Y2310D01*
X4780Y2530D02*
X4817D01*
X4760Y2550D02*
X4780Y2530D01*
X4740Y2310D02*
X4817D01*
X4710Y2340D02*
X4740Y2310D01*
X5493Y2550D02*
X5498Y2555D01*
X5493Y2350D02*
X5535D01*
X5585Y2400D01*
X2215Y1480D02*
X2285D01*
X2195Y1460D02*
X2215Y1480D01*
X2195Y1100D02*
Y1460D01*
Y1100D02*
X2220Y1075D01*
X2410D01*
X2435Y1050D01*
Y975D02*
Y1050D01*
X2765Y1480D02*
Y1575D01*
X2755Y1585D02*
X2765Y1575D01*
X2864Y1480D02*
Y1574D01*
X2875Y1585D01*
X2995Y1368D02*
X3073D01*
X5823Y700D02*
X5905D01*
X5925Y720D01*
X5823Y635D02*
X5910D01*
X5925Y620D01*
X2667Y1480D02*
Y2127D01*
X2706Y1480D02*
Y2086D01*
X2726Y1480D02*
Y2061D01*
X2785Y2030D02*
X2785D01*
X2785Y1480D02*
Y2030D01*
X2824Y1480D02*
Y1975D01*
X2844Y1480D02*
X2845Y1910D01*
Y1955D01*
X2805Y2000D02*
X2805D01*
X2805Y1480D02*
Y2000D01*
X3295Y1825D02*
Y1860D01*
X3280Y1875D02*
X3295Y1860D01*
X2903Y1480D02*
Y1843D01*
X2935Y1875D01*
X3280D01*
X2923Y1480D02*
Y1793D01*
X2955Y1825D01*
X3180D01*
X3360Y1670D02*
Y1855D01*
X3335Y1645D02*
X3360Y1670D01*
X3260Y1645D02*
X3335D01*
X2995Y1388D02*
X3048D01*
X3065Y1405D01*
Y1430D01*
X3040Y1510D02*
X3095Y1455D01*
Y1390D02*
Y1455D01*
X3074Y1369D02*
X3095Y1390D01*
X2975Y1785D02*
X3040D01*
X3065Y1760D01*
Y1530D02*
Y1760D01*
Y1530D02*
X3115Y1480D01*
X3094Y1349D02*
X3115Y1370D01*
Y1480D01*
X2995Y1349D02*
X3094D01*
X3020Y1475D02*
Y1685D01*
X4133Y827D02*
Y902D01*
Y827D02*
X4135Y825D01*
X4387Y2755D02*
X4495D01*
X4515Y2735D01*
Y2730D02*
Y2735D01*
X4150Y2755D02*
X4387D01*
X2555Y1230D02*
X2610D01*
X2625Y1215D01*
X2375Y765D02*
Y860D01*
Y765D02*
X2400Y740D01*
X2635D01*
X2595Y1480D02*
X2625D01*
X2647Y1480D02*
Y1588D01*
X2401Y1349D02*
X2555D01*
X2385Y1365D02*
X2401Y1349D01*
X3215Y1660D02*
X3225Y1650D01*
X3155Y1660D02*
X3215D01*
X5905Y2120D02*
X5955Y2170D01*
X5855Y2270D02*
X5905Y2220D01*
X575Y2955D02*
Y2960D01*
X2820Y2540D02*
X2830Y2530D01*
X2080Y2620D02*
X2083D01*
X2205D01*
X2385Y1365D02*
Y1470D01*
X4280Y1150D02*
X4300Y1170D01*
X4245Y1198D02*
X4260Y1213D01*
X5310Y1280D02*
X5370D01*
Y1213D02*
Y1230D01*
X5385Y1245D02*
X5460D01*
X5490Y1215D01*
X5370Y1230D02*
X5385Y1245D01*
X5489Y1214D02*
X5490Y1213D01*
X5170Y1235D02*
X5181Y1246D01*
X5221D01*
X5230Y1255D01*
Y1275D01*
X4320Y1213D02*
Y1235D01*
X4440Y1215D02*
Y1235D01*
X4320D02*
X4340Y1255D01*
X4420D01*
X4440Y1235D01*
X3900Y1265D02*
X3930Y1295D01*
X3900Y1040D02*
Y1265D01*
X3930Y1295D02*
X4125D01*
X4080Y1094D02*
X4081Y1092D01*
X4245Y1175D02*
Y1198D01*
X4082Y1091D02*
Y1168D01*
X4080Y1170D02*
X4082Y1168D01*
X4108Y1091D02*
Y1212D01*
X4120Y1225D01*
X4000Y1180D02*
Y1225D01*
X4180Y1094D02*
Y1225D01*
X4120Y1227D02*
Y1250D01*
X4130Y1260D01*
X4170D01*
X4180Y1270D01*
X4000Y1225D02*
X4120D01*
X4180Y1270D02*
Y1293D01*
Y1295D01*
X5130Y1094D02*
X5131Y1092D01*
X5130Y1094D02*
Y1165D01*
X5157Y1091D02*
Y1202D01*
X5170Y1215D01*
Y1213D02*
Y1215D01*
Y1235D01*
X5055Y1160D02*
Y1205D01*
X5050Y1210D02*
X5055Y1205D01*
Y1215D02*
X5170D01*
X2805Y2000D02*
X2830Y2025D01*
X3437Y2705D02*
X3525D01*
X5337Y2755D02*
X5415D01*
X5320Y1030D02*
X5330Y1040D01*
Y1150D01*
X5350Y1170D01*
X5300Y1160D02*
Y1203D01*
X5310Y1213D01*
X4972Y1282D02*
X5050D01*
X4950Y1260D02*
X4972Y1282D01*
X4950Y1040D02*
Y1260D01*
X5233Y1091D02*
Y1207D01*
X5230Y1210D02*
X5233Y1207D01*
X2735Y1110D02*
X2745D01*
X2804Y1039D02*
X2805Y1040D01*
X2480Y920D02*
X2493Y933D01*
X2235Y930D02*
X2245Y920D01*
X2235Y930D02*
Y973D01*
X2245Y920D02*
X2480D01*
X2158Y973D02*
X2235D01*
X2493Y933D02*
X2560D01*
X2555Y865D02*
X2560Y860D01*
X2515Y810D02*
X2540D01*
X2560Y830D01*
Y860D01*
X2405Y890D02*
X2500D01*
X2375Y860D02*
X2405Y890D01*
X2235Y973D02*
X2265Y1003D01*
Y1045D01*
X5823Y1020D02*
X5925D01*
X5855Y2270D02*
Y3480D01*
X5905Y3530D01*
X2350Y3465D02*
X2392D01*
X2550Y3465D02*
X2590D01*
X2750D02*
X2790D01*
X3030D02*
X3070D01*
X3230Y3465D02*
X3272D01*
X3430D02*
X3472D01*
X3630Y3465D02*
X3670D01*
X3910D02*
X3950D01*
X4110D02*
X4150D01*
X4310D02*
X4350D01*
X4510Y3465D02*
X4550D01*
X4790D02*
X4830D01*
X4990D02*
X5030D01*
X5190D02*
X5230D01*
X5390D02*
X5430D01*
X2065Y3785D02*
X2115Y3835D01*
X2225D01*
X2290Y3770D01*
X2090Y3670D02*
X2190Y3770D01*
X2110Y3650D02*
X2187Y3727D01*
X2308D01*
X2333Y3752D01*
Y3808D01*
X2355Y3830D01*
X2630D01*
X2690Y3770D01*
X2128Y3637D02*
X2191Y3700D01*
X2350D01*
X2590Y3595D02*
Y3770D01*
X2870Y2205D02*
X2917D01*
X2983D02*
Y2207D01*
X2925Y2265D02*
X2983Y2207D01*
X2770Y2265D02*
X2925D01*
X2745Y2290D02*
X2770Y2265D01*
X2460Y3400D02*
Y3600D01*
X2660Y3400D02*
Y3600D01*
X2660Y3400D02*
X2660D01*
X2860D02*
X2860D01*
X2900D01*
X2860D02*
Y3600D01*
X2635Y740D02*
X2650Y755D01*
X2700Y3575D02*
X2725Y3600D01*
X2790D01*
Y3770D01*
X2650Y3390D02*
X2660Y3400D01*
X2650Y3350D02*
Y3390D01*
X2700Y3260D02*
Y3575D01*
X2718Y3253D02*
Y3303D01*
X2785Y3370D01*
X2890Y3770D02*
X2930Y3730D01*
X2785Y3370D02*
X2910D01*
X2930Y3390D01*
Y3730D01*
X2695Y3150D02*
X2700Y3145D01*
X2390Y3150D02*
X2560D01*
X2350Y3190D02*
X2390Y3150D01*
X2350Y3190D02*
Y3405D01*
X2315Y3440D02*
X2350Y3405D01*
X2315Y3440D02*
Y3570D01*
X2345Y3600D01*
X2390D01*
Y3770D01*
X2490D02*
X2515Y3745D01*
X2450Y3340D02*
Y3385D01*
X2465Y3400D01*
X2515Y3280D02*
X2545Y3250D01*
X2645D01*
X2515Y3280D02*
Y3745D01*
X2615Y2517D02*
Y3175D01*
X2660Y2485D02*
Y3195D01*
X2615Y3175D02*
X2700Y3260D01*
X2660Y3195D02*
X2718Y3253D01*
X2745Y2290D02*
Y3305D01*
X2792Y3352D01*
X2917D01*
X2948Y3383D01*
Y3788D01*
X2975Y3815D01*
X3125D01*
X3170Y3770D01*
X2765Y2330D02*
Y3299D01*
X2796Y3330D01*
X2925D01*
X2970Y3375D01*
Y3570D01*
X3000Y3600D01*
X3070D01*
Y3770D01*
X2790Y3165D02*
X2835Y3210D01*
X2820Y3145D02*
X2860Y3185D01*
X2870D01*
X2820Y2540D02*
Y3145D01*
X3470Y3595D02*
Y3770D01*
X3125Y3340D02*
X3140Y3355D01*
Y3400D01*
X3140Y3400D02*
Y3600D01*
X3330Y3345D02*
X3340Y3355D01*
Y3400D01*
X3340Y3400D02*
Y3600D01*
X3350Y2880D02*
Y3275D01*
X3310Y3315D02*
X3350Y3275D01*
X3235Y3315D02*
X3310D01*
X3200Y3350D02*
X3235Y3315D01*
X3200Y3350D02*
Y3570D01*
X3230Y3600D01*
X3270D01*
Y3770D01*
X3368Y2897D02*
Y3368D01*
X3385Y3385D01*
Y3755D01*
X3370Y3770D02*
X3385Y3755D01*
X3295Y2845D02*
X3325Y2815D01*
X3590D01*
X3320Y2860D02*
X3345Y2835D01*
X3610D01*
X3295Y2845D02*
Y3180D01*
X3670Y3595D02*
Y3770D01*
X3320Y3132D02*
X3323Y3135D01*
X3320Y2860D02*
Y3132D01*
X3525Y3335D02*
X3540Y3350D01*
Y3400D01*
X3540Y3400D02*
Y3600D01*
X3720Y3335D02*
X3740Y3355D01*
Y3400D01*
X3740Y3400D02*
Y3600D01*
X3720Y2295D02*
Y3270D01*
X3825Y3375D01*
Y3780D01*
X3870Y3825D01*
X3995D01*
X4050Y3770D01*
X3740Y2330D02*
Y3240D01*
X3860Y3360D01*
Y3560D01*
X3900Y3600D01*
X3950D01*
Y3770D01*
X4005Y3340D02*
X4020Y3355D01*
Y3400D01*
X4020Y3400D02*
Y3600D01*
X4205Y3340D02*
X4220Y3355D01*
Y3400D01*
X4220Y3400D02*
Y3600D01*
X3765Y3220D02*
X3855Y3310D01*
X4025D01*
X4055Y3340D01*
Y3710D01*
X4095Y3750D01*
Y3790D01*
X4135Y3830D01*
X4390D01*
X4450Y3770D01*
X3870Y3290D02*
X4040D01*
X4350Y3595D02*
Y3770D01*
X4040Y3290D02*
X4080Y3330D01*
Y3675D01*
X4110Y3705D01*
X2435Y807D02*
X2437Y805D01*
X2510D01*
X2515Y810D01*
X4260Y3355D02*
Y3640D01*
X4240Y3660D02*
X4260Y3640D01*
X4150Y3660D02*
X4240D01*
X4150Y3595D02*
Y3660D01*
Y3770D01*
X4280Y3370D02*
Y3740D01*
X4250Y3770D02*
X4280Y3740D01*
X4543Y2550D02*
Y2823D01*
X4548Y3595D02*
Y3770D01*
X4600Y2535D02*
Y2820D01*
X4590Y2830D02*
X4600Y2820D01*
X4400Y3335D02*
X4420Y3355D01*
Y3400D01*
X4420Y3400D02*
Y3600D01*
X4485Y3285D02*
X4555Y3355D01*
X4595D01*
X4620Y3380D01*
Y3400D01*
X4619Y3400D02*
Y3600D01*
X4685Y3740D02*
X4775Y3830D01*
X4870D01*
X4930Y3770D01*
X4685Y2290D02*
Y3740D01*
X4710Y2340D02*
Y3555D01*
X4755Y3600D01*
X4828D01*
X4830D01*
X4828D02*
Y3770D01*
X4945Y3720D02*
X4975Y3750D01*
Y3795D01*
X5000Y3820D01*
X5280D01*
X5330Y3770D01*
X5135Y3345D02*
Y3575D01*
X5160Y3600D01*
X5228D01*
X5230D01*
X5228D02*
Y3770D01*
X4760Y2550D02*
Y2742D01*
X4758Y2744D02*
X4760Y2742D01*
X4825Y2790D02*
X5380D01*
X4758Y2744D02*
Y3233D01*
X5380Y2790D02*
X5415Y2755D01*
X4758Y3233D02*
X4805Y3280D01*
X5070D01*
X5135Y3345D01*
X4735Y2510D02*
Y3240D01*
X4795Y3300D01*
X4905D01*
X4945Y3340D01*
Y3720D01*
X4880Y3335D02*
X4900Y3355D01*
Y3400D01*
X4899Y3400D02*
Y3600D01*
X5080Y3340D02*
X5100Y3360D01*
Y3400D01*
X5099Y3400D02*
Y3600D01*
X5285Y3340D02*
X5300Y3355D01*
Y3400D01*
X5299Y3400D02*
Y3600D01*
X5485Y3340D02*
X5500Y3355D01*
Y3400D01*
X5499Y3400D02*
Y3600D01*
X5355Y3575D02*
X5380Y3600D01*
X5428D01*
X5430D01*
X5428D02*
Y3770D01*
X5555Y2515D02*
Y3745D01*
X5530Y3770D02*
X5555Y3745D01*
X5028Y3595D02*
Y3770D01*
X5585Y2400D02*
Y3500D01*
X5620Y2350D02*
Y3530D01*
X5585Y3565D02*
X5620Y3530D01*
X5493Y2550D02*
X5530Y2587D01*
X5355Y3355D02*
Y3575D01*
Y3355D02*
X5530Y3180D01*
Y2587D02*
Y3180D01*
X4265Y2930D02*
X4315Y2880D01*
X4265Y2930D02*
Y3350D01*
X4260Y3355D02*
X4265Y3350D01*
X4290Y2938D02*
X4330Y2898D01*
X4290Y2938D02*
Y3360D01*
X4280Y3370D02*
X4290Y3360D01*
X3703Y1977D02*
X3705Y1975D01*
X2867Y1977D02*
X3703D01*
X3731Y2002D02*
X3735Y1998D01*
X2851Y2002D02*
X3731D01*
X3808Y2052D02*
X3810Y2050D01*
X2807Y2052D02*
X3808D01*
X2785Y2030D02*
X2807Y2052D01*
X2824Y1975D02*
X2851Y2002D01*
X2845Y1955D02*
X2867Y1977D01*
X2722Y2102D02*
X4953D01*
X2706Y2086D02*
X2722Y2102D01*
X4953D02*
X4955Y2100D01*
X2667Y2127D02*
X2695Y2155D01*
X5025D01*
X4988Y2127D02*
X4990Y2125D01*
X2707Y2127D02*
X4988D01*
X2613Y2270D02*
X2645D01*
X2700Y2325D01*
Y3145D01*
X2725Y2275D02*
Y3185D01*
X2670Y2220D02*
X2725Y2275D01*
X2457Y2220D02*
X2670D01*
X2710Y3200D02*
X2725Y3185D01*
X2457Y2270D02*
X2542D01*
X2545D01*
X4817Y2398D02*
Y2420D01*
Y2398D02*
X4860Y2355D01*
X4963D01*
X5015D01*
X4750Y2205D02*
X4817D01*
X2995Y1408D02*
X3005Y1417D01*
X2920Y1190D02*
Y1255D01*
X2935Y1270D01*
X2995D01*
X2885Y1290D02*
X2995D01*
X2860Y1315D02*
X2885Y1290D01*
X3020Y1475D02*
X3065Y1430D01*
X3005Y1417D02*
Y1440D01*
X2883Y1432D02*
X2898Y1417D01*
X2745Y1110D02*
X2765Y1090D01*
Y1040D02*
Y1090D01*
X2785Y1040D02*
Y1095D01*
X2795Y1105D01*
X2996Y1172D02*
X3563D01*
X3615Y1120D01*
X360Y3160D02*
X390D01*
X415Y3135D01*
X359Y3157D02*
X360D01*
X4185Y1015D02*
X4205Y1035D01*
X4260D01*
X4280Y1055D01*
Y1150D01*
X2355Y1310D02*
X2375Y1290D01*
X2555D01*
X3593Y2550D02*
Y2553D01*
X3620Y2580D01*
Y2785D01*
X1895Y2450D02*
Y3310D01*
X1992Y3407D01*
X1940Y2498D02*
Y3330D01*
X1999Y3389D01*
X1855Y2275D02*
Y3325D01*
X1975Y3445D01*
X1875Y2310D02*
Y3320D01*
X1980Y3425D01*
X1975Y3445D02*
X2035D01*
X2065Y3475D01*
Y3785D01*
X2055Y3389D02*
X2128Y3462D01*
X2048Y3407D02*
X2110Y3469D01*
X2040Y3425D02*
X2090Y3475D01*
X1980Y3425D02*
X2040D01*
X2090Y3475D02*
Y3670D01*
X1992Y3407D02*
X2048D01*
X2110Y3469D02*
Y3650D01*
X1999Y3389D02*
X2055D01*
X2128Y3462D02*
Y3637D01*
X2508Y660D02*
X2526Y678D01*
X2405Y660D02*
X2508D01*
X2730Y1420D02*
X2745Y1435D01*
X2766Y1419D02*
X2770Y1415D01*
X2766Y1419D02*
Y1479D01*
X2765Y1480D02*
X2766Y1479D01*
X2555Y1369D02*
X2619D01*
X2555Y1309D02*
X2609D01*
X2620Y1320D01*
Y1370D01*
X2619Y1369D02*
X2620Y1370D01*
X2640Y1390D01*
X2653Y1242D02*
X2655Y1240D01*
X2628Y1242D02*
X2653D01*
X2620Y1250D02*
X2628Y1242D01*
X2560Y1250D02*
X2620D01*
X2686Y2106D02*
X2707Y2127D01*
X2686Y1480D02*
Y2106D01*
X2707Y1413D02*
X2723D01*
X2745Y1435D01*
X2845Y915D02*
Y1040D01*
X2807Y877D02*
X2845Y915D01*
X2526Y678D02*
X2783D01*
X2807Y702D01*
Y877D01*
X4210Y642D02*
X4318D01*
X4520Y690D02*
X4590Y620D01*
X4270Y795D02*
X4405D01*
X4430Y770D01*
Y720D02*
X4460Y690D01*
X4430Y720D02*
Y770D01*
X4460Y690D02*
X4520D01*
X5955Y2170D02*
Y3490D01*
X2706Y904D02*
X2720Y890D01*
Y805D02*
Y890D01*
X2710Y795D02*
X2720Y805D01*
X2706Y904D02*
Y1040D01*
X2685Y853D02*
X2686Y851D01*
X2685Y853D02*
X2688Y850D01*
X2690D01*
Y835D02*
Y850D01*
X2680Y825D02*
X2690Y835D01*
X5570Y2300D02*
X5620Y2350D01*
D32*
X4495Y1970D02*
X4570Y2045D01*
X5315D01*
X5410Y2140D01*
X570Y3390D02*
X695D01*
X535Y3355D02*
X570Y3390D01*
X535Y3160D02*
Y3355D01*
X3740Y1465D02*
X5530D01*
X5555Y1490D01*
X3390Y1435D02*
X5555D01*
X3354Y1471D02*
X3390Y1435D01*
X3530Y1470D02*
X3575Y1515D01*
X3485Y1500D02*
X3550Y1565D01*
X3354Y1471D02*
Y1609D01*
X3360Y1615D01*
X3414Y1144D02*
X3415Y1145D01*
X3380Y1580D02*
X3470D01*
X3380Y1540D02*
X3480D01*
X3470Y1470D02*
X3530D01*
X3385Y1500D02*
X3485D01*
X3495Y1605D02*
Y1845D01*
X3470Y1580D02*
X3495Y1605D01*
X3560Y2790D02*
X3590Y2760D01*
Y2700D02*
Y2760D01*
X3820Y2755D02*
X4013D01*
X3810Y2765D02*
X3820Y2755D01*
X3885Y2820D02*
X4155D01*
X4190Y2785D01*
X3875Y1970D02*
X4495D01*
X3860Y1955D02*
X3875Y1970D01*
X3855Y2000D02*
X4445D01*
X5337Y2655D02*
X5460D01*
X4963Y2705D02*
X5045D01*
X500Y3235D02*
X500Y3235D01*
X359Y3235D02*
X500D01*
X2627Y977D02*
Y1040D01*
X2596Y946D02*
X2627Y977D01*
X2596Y904D02*
Y946D01*
X2658Y897D02*
Y905D01*
X2873Y857D02*
X2875Y855D01*
X2740Y745D02*
Y890D01*
X3180Y1385D02*
X3186Y1391D01*
Y1606D01*
X3111Y1621D02*
X3171D01*
X3110Y1620D02*
X3111Y1621D01*
X3115Y1655D02*
Y1660D01*
Y1655D02*
X3130Y1640D01*
X3171Y1621D02*
X3186Y1606D01*
X715Y3410D02*
Y3725D01*
X670Y3770D02*
X715Y3725D01*
X3283Y1047D02*
Y1097D01*
X3268Y1112D02*
X3283Y1097D01*
X2995Y1112D02*
X3268D01*
X2995Y1132D02*
X3298D01*
X5575Y375D02*
Y1345D01*
X3333Y1152D02*
X3352Y1133D01*
X3190Y1640D02*
X3206Y1624D01*
Y1374D02*
Y1624D01*
X3187Y1355D02*
X3206Y1374D01*
X3145Y1355D02*
X3187D01*
X3352Y1047D02*
Y1133D01*
X3155Y1415D02*
X3165D01*
X3160Y1595D02*
X3165Y1590D01*
X3130Y1640D02*
X3190D01*
X3165Y1415D02*
Y1590D01*
X3365Y1415D02*
X5545D01*
X3305Y1475D02*
X3365Y1415D01*
X5545D02*
X5605Y1355D01*
X5555Y1435D02*
X5625Y1365D01*
X3305Y1475D02*
Y1615D01*
X1490Y3500D02*
X1495Y3495D01*
X415Y3295D02*
X455D01*
X405Y3285D02*
X415Y3295D01*
X359Y3285D02*
X405D01*
X359Y3260D02*
X420D01*
X970Y3350D02*
Y3500D01*
X931Y3311D02*
X970Y3350D01*
X881Y3311D02*
X881Y3311D01*
X591Y3311D02*
X881D01*
X881Y3311D02*
X931D01*
X591D02*
X591Y3311D01*
X425Y3330D02*
X490D01*
X359Y3311D02*
X406D01*
X425Y3330D01*
X359Y3374D02*
X360Y3375D01*
X359Y3337D02*
Y3374D01*
X919Y3209D02*
X1050Y3340D01*
X1095D01*
X1125Y3210D02*
Y3525D01*
X1072Y3157D02*
X1125Y3210D01*
X1080Y3570D02*
X1125Y3525D01*
X591Y3157D02*
X1072D01*
X795Y3570D02*
X1080D01*
X591Y3209D02*
X919D01*
X770Y3595D02*
Y3770D01*
Y3595D02*
X795Y3570D01*
X535Y3160D02*
X563Y3132D01*
X591D01*
X870Y3281D02*
Y3285D01*
X865Y3286D02*
X870Y3281D01*
X592Y3286D02*
X865D01*
X591Y3285D02*
X592Y3286D01*
X770Y3260D02*
Y3260D01*
X769Y3261D02*
X770Y3260D01*
X591Y3234D02*
X669D01*
X670Y3235D01*
X592Y3261D02*
X769D01*
X591Y3260D02*
X592Y3261D01*
X3880Y1155D02*
Y1220D01*
Y1010D02*
Y1155D01*
X3965Y815D02*
X3985Y795D01*
X3963Y817D02*
X3965Y815D01*
X3740Y1265D02*
Y1320D01*
X3885Y815D02*
X3965D01*
X3860Y840D02*
X3885Y815D01*
X3860Y840D02*
Y990D01*
X3880Y1010D01*
X3860Y1240D02*
X3880Y1220D01*
X3765Y1240D02*
X3860D01*
X3740Y1265D02*
X3765Y1240D01*
X4105Y816D02*
Y900D01*
X4084Y795D02*
X4105Y816D01*
X3985Y795D02*
X4084D01*
X3963Y817D02*
Y867D01*
X4030Y825D02*
Y900D01*
X359Y3234D02*
Y3235D01*
X4013Y927D02*
X4032Y908D01*
X3963Y927D02*
X4013D01*
X2965Y2705D02*
X3063D01*
X2600Y87D02*
X2647D01*
X2685Y125D01*
X2493Y87D02*
X2530D01*
X2470Y110D02*
X2493Y87D01*
X4015Y2755D02*
X4085D01*
X3063D02*
X3140D01*
X2935D02*
X3063D01*
X2864Y859D02*
Y1040D01*
X2431Y1211D02*
X2555D01*
X2430Y1210D02*
X2431Y1211D01*
X5337Y2705D02*
X5430D01*
X4387Y2655D02*
X4450D01*
X4387Y2705D02*
X4480D01*
X2080Y2670D02*
X2083D01*
X2365D01*
X3810Y2705D02*
X4013D01*
X3200Y2790D02*
X3560D01*
X3180Y2770D02*
X3200Y2790D01*
X3180Y2720D02*
Y2770D01*
X3165Y2705D02*
X3180Y2720D01*
X3070Y2705D02*
X3165D01*
X4885D02*
X4960D01*
X4963Y2755D02*
X5080D01*
X5720Y1850D02*
Y2810D01*
Y1850D02*
X5745Y1825D01*
X5805D01*
X5755Y1945D02*
X5775Y1925D01*
X5805D01*
X5905Y1800D02*
Y1825D01*
X5880Y1775D02*
X5905Y1800D01*
X5730Y1775D02*
X5880D01*
X5905Y1680D02*
Y1725D01*
X2745Y975D02*
Y1040D01*
X2903Y967D02*
Y1040D01*
Y967D02*
X2915Y955D01*
X2883Y952D02*
Y1040D01*
Y952D02*
X2900Y935D01*
X2962D01*
X2980Y953D01*
Y985D01*
X2915Y955D02*
X2945D01*
X2960Y970D01*
X4880Y2655D02*
X4963D01*
X2332Y1112D02*
X2555D01*
X3815Y2655D02*
X4013D01*
X3415Y1895D02*
X3440Y1920D01*
X3415Y1670D02*
Y1895D01*
X3445Y1640D02*
Y1865D01*
X2995Y1230D02*
X3685D01*
X3730Y1185D01*
X5625Y750D02*
Y1365D01*
Y750D02*
X5675Y700D01*
X5755D01*
X5605Y680D02*
Y1355D01*
Y680D02*
X5650Y635D01*
X5757D01*
X5760D01*
X3800Y1875D02*
X3835Y1910D01*
X3480Y1540D02*
X3520Y1580D01*
Y1830D01*
X3832Y1857D02*
X3860Y1885D01*
Y1955D01*
X3550Y1565D02*
Y1805D01*
X3850Y1835D02*
X3880Y1865D01*
Y1925D01*
X3905Y1950D01*
X3575Y1515D02*
Y1780D01*
X3875Y1810D02*
X3900Y1835D01*
Y1885D01*
X3930Y1915D01*
X3905Y1950D02*
X4525D01*
X3930Y1915D02*
X4540D01*
X5575Y1460D02*
X5700D01*
X5725Y1485D01*
Y1630D01*
X5755Y1660D01*
X5885D01*
X5905Y1680D01*
X5705Y1750D02*
X5730Y1775D01*
X5555Y1490D02*
X5670D01*
X5705Y1525D01*
Y1750D01*
X2399Y1329D02*
X2555D01*
X2685Y125D02*
Y345D01*
X2995Y1152D02*
X3333D01*
X3135Y1040D02*
Y1045D01*
X2923Y1040D02*
X3135D01*
X2325Y1105D02*
X2332Y1112D01*
X2365Y2670D02*
X2395Y2700D01*
X3963Y983D02*
X3965Y985D01*
X3963Y927D02*
Y983D01*
X2990Y2655D02*
X3063D01*
X2667Y912D02*
Y1040D01*
X2864Y859D02*
X2867Y855D01*
X2995Y1191D02*
X3629D01*
X3645Y1175D01*
X5715Y2870D02*
X5740D01*
X5755Y2855D01*
Y1945D02*
Y2855D01*
X2745Y975D02*
X2765Y955D01*
X2726Y935D02*
Y1040D01*
X2165Y615D02*
X2270Y720D01*
X2165Y365D02*
Y615D01*
Y365D02*
X2220Y310D01*
X2275Y670D02*
X2320Y715D01*
X2275Y260D02*
Y670D01*
X2220Y205D02*
X2275Y260D01*
X2370Y355D02*
Y715D01*
X2320Y305D02*
X2370Y355D01*
X2950Y865D02*
X3125D01*
X2390Y590D02*
X2440Y640D01*
X2390Y280D02*
Y590D01*
X2320Y210D02*
X2390Y280D01*
X2695Y700D02*
X2740Y745D01*
X2510Y700D02*
X2695D01*
X2470Y110D02*
Y375D01*
X2824Y929D02*
Y1040D01*
X2770Y875D02*
X2824Y929D01*
X2770Y705D02*
Y875D01*
X2650Y380D02*
X2685Y345D01*
X3185Y865D02*
Y895D01*
X3155Y835D02*
X3185Y865D01*
X2965Y835D02*
X3155D01*
X2920Y790D02*
X2965Y835D01*
X2920Y425D02*
Y790D01*
X3160Y810D02*
X3230Y880D01*
X2970Y810D02*
X3160D01*
X2945Y785D02*
X2970Y810D01*
X2945Y445D02*
Y785D01*
Y445D02*
X2980Y410D01*
X3395D01*
X3216Y794D02*
X3282Y860D01*
X2984Y794D02*
X3216D01*
X2965Y775D02*
X2984Y794D01*
X2965Y455D02*
Y775D01*
Y455D02*
X2980Y440D01*
X3425D01*
X3470Y395D01*
X2395Y2740D02*
X2425Y2770D01*
X2545D01*
X2580Y2805D01*
Y3075D01*
X2395Y2700D02*
Y2740D01*
X2153Y2790D02*
X2525D01*
X2545Y2810D01*
Y3045D01*
X2083Y2720D02*
X2153Y2790D01*
X2660Y905D02*
X2667Y912D01*
X3000Y930D02*
Y960D01*
X2867Y855D02*
X2869Y857D01*
X2873D01*
X2658Y905D02*
X2660D01*
X2658Y905D02*
X2658Y905D01*
X3769Y1894D02*
X3800Y1925D01*
X4958Y2760D02*
X4963Y2755D01*
X4785Y2760D02*
X4958D01*
X4190Y2785D02*
X4195Y2790D01*
X4475D01*
X3575Y1780D02*
X3605Y1810D01*
X3875D01*
X3550Y1805D02*
X3580Y1835D01*
X3850D01*
X3495Y1845D02*
X3525Y1875D01*
X3835Y1910D02*
Y1980D01*
X3855Y2000D01*
X3520Y1830D02*
X3547Y1857D01*
X3832D01*
X3525Y1875D02*
X3800D01*
X3445Y1865D02*
X3475Y1895D01*
X3563D01*
X3564Y1894D01*
X3769D01*
X3800Y1925D02*
Y2000D01*
X3440Y1920D02*
X3575D01*
X3800Y2000D02*
X3830Y2030D01*
X4480D01*
X5425Y2040D02*
Y2110D01*
X5410Y2140D02*
X5460D01*
X4605Y1980D02*
X5365D01*
X5425Y2040D01*
X4540Y1915D02*
X4605Y1980D01*
X4525Y1950D02*
X4585Y2010D01*
X4880D01*
X695Y3390D02*
X715Y3410D01*
X2800Y1365D02*
X2820Y1385D01*
X2910D02*
X2951Y1426D01*
X2820Y1385D02*
X2910D01*
X2800Y1225D02*
Y1365D01*
X2951Y1426D02*
Y1436D01*
X2850Y1105D02*
Y1150D01*
X2760Y1185D02*
X2800Y1225D01*
X2555Y1191D02*
X2556Y1189D01*
X2605Y1185D02*
X2760D01*
X2556Y1189D02*
X2600D01*
X2605Y1185D01*
X2550Y1170D02*
X2597D01*
X2835Y1165D02*
X2850Y1150D01*
X2597Y1170D02*
X2602Y1165D01*
X2835D01*
X3730Y1185D02*
X3845D01*
X2995Y1211D02*
X3664D01*
X3720Y1155D01*
X3880D01*
X2885Y2730D02*
Y3075D01*
Y2730D02*
X2910Y2705D01*
X2965D01*
X5690Y1020D02*
X5757D01*
X2275Y1130D02*
X2277Y1132D01*
X2555D01*
X2390Y1320D02*
X2395D01*
X2390D02*
X2399Y1329D01*
X1755Y3280D02*
X1940Y3465D01*
Y3615D01*
X1790Y3765D02*
X1940Y3615D01*
X1450Y3135D02*
Y3245D01*
X1485Y3280D01*
X1755D01*
X1020Y3185D02*
X1055Y3220D01*
X595Y3185D02*
X1020D01*
X1055Y3220D02*
Y3285D01*
X591Y3183D02*
X595D01*
X2440Y640D02*
X2515D01*
X2740Y890D02*
X2805Y955D01*
Y1040D01*
X2900Y815D02*
X2950Y865D01*
X2515Y640D02*
X2530Y655D01*
X2880D01*
X2900Y675D01*
Y815D01*
X3470Y395D02*
X3895D01*
X3320Y1080D02*
Y1110D01*
X3298Y1132D02*
X3320Y1110D01*
X3470Y1145D02*
X3471Y1144D01*
X3385Y1035D02*
Y1100D01*
X3035Y955D02*
X3430D01*
X3471Y996D01*
Y1144D01*
X3445Y1020D02*
Y1080D01*
X3414Y1029D02*
Y1144D01*
X2980Y985D02*
X2994Y999D01*
X3000Y960D02*
X3023Y983D01*
X3408D01*
X2994Y999D02*
X3384D01*
X3414Y1029D01*
X3408Y983D02*
X3445Y1020D01*
X3365Y1015D02*
X3385Y1035D01*
X2960Y970D02*
Y995D01*
X2980Y1015D01*
X3365D01*
D33*
X987Y1787D02*
X1040D01*
X1042Y1853D02*
X1110D01*
X1013Y1608D02*
X1065D01*
X1569Y1086D02*
X1570Y1085D01*
X1569Y1086D02*
Y1160D01*
X172Y1903D02*
X235D01*
X300Y1903D02*
X363D01*
X122Y1837D02*
X170D01*
X130Y1115D02*
Y1705D01*
Y1115D02*
X185Y1060D01*
X145Y985D02*
X197D01*
X1715Y1410D02*
Y1590D01*
Y1410D02*
X1765Y1360D01*
Y1025D02*
Y1360D01*
Y1025D02*
X1885Y905D01*
Y195D02*
Y905D01*
Y195D02*
X1970Y110D01*
X2220D01*
D34*
X363Y1903D02*
X365Y1905D01*
X263Y982D02*
Y985D01*
X725Y1062D02*
X835D01*
X4940Y980D02*
X4947Y973D01*
Y927D02*
Y973D01*
X5108Y1211D02*
X5110Y1213D01*
X4947Y867D02*
Y927D01*
X5537Y1213D02*
X5540Y1210D01*
X4487Y1213D02*
X4490Y1210D01*
X3897Y867D02*
Y927D01*
X2088Y2565D02*
X2170D01*
X2360D02*
X2452D01*
X2457Y2570D01*
X3068Y2600D02*
X3150D01*
X3340D02*
X3432D01*
X3437Y2605D01*
X4018Y2600D02*
X4100D01*
X4290D02*
X4330D01*
X4382D01*
X4387Y2605D01*
X5240Y2600D02*
X5280D01*
X5332D01*
X5337Y2605D01*
X4968Y2600D02*
X5050D01*
X5490Y1213D02*
X5537D01*
X4440D02*
X4487D01*
X3895Y980D02*
X3897Y978D01*
Y927D02*
Y978D01*
X4000Y1180D02*
X4001Y1181D01*
X1607Y3325D02*
Y3388D01*
X1545Y3450D02*
X1607Y3388D01*
X1395Y3450D02*
X1545D01*
D35*
X120Y2830D02*
D03*
X2285Y1270D02*
D03*
X1530Y1825D02*
D03*
X675Y1815D02*
D03*
X1535Y940D02*
D03*
X4175Y2915D02*
D03*
X4460Y1040D02*
D03*
X2390Y1680D02*
D03*
X2285Y1480D02*
D03*
X3235Y2930D02*
D03*
X3650Y1350D02*
D03*
X300Y2700D02*
D03*
Y2600D02*
D03*
Y2500D02*
D03*
Y2400D02*
D03*
Y2300D02*
D03*
Y2200D02*
D03*
X400D02*
D03*
Y2300D02*
D03*
Y2400D02*
D03*
Y2500D02*
D03*
Y2600D02*
D03*
Y2700D02*
D03*
X500Y2200D02*
D03*
Y2300D02*
D03*
Y2400D02*
D03*
Y2500D02*
D03*
Y2600D02*
D03*
Y2700D02*
D03*
X600Y2200D02*
D03*
Y2300D02*
D03*
Y2400D02*
D03*
Y2500D02*
D03*
Y2600D02*
D03*
Y2700D02*
D03*
X700Y2200D02*
D03*
Y2300D02*
D03*
Y2400D02*
D03*
Y2500D02*
D03*
Y2600D02*
D03*
Y2700D02*
D03*
X800Y2200D02*
D03*
Y2300D02*
D03*
Y2400D02*
D03*
Y2500D02*
D03*
Y2600D02*
D03*
Y2700D02*
D03*
X900Y2200D02*
D03*
Y2300D02*
D03*
Y2400D02*
D03*
Y2500D02*
D03*
Y2600D02*
D03*
Y2700D02*
D03*
X1000Y2200D02*
D03*
Y2300D02*
D03*
Y2400D02*
D03*
Y2500D02*
D03*
Y2600D02*
D03*
Y2700D02*
D03*
X1100Y2200D02*
D03*
Y2300D02*
D03*
Y2400D02*
D03*
Y2500D02*
D03*
Y2600D02*
D03*
Y2700D02*
D03*
X1200Y2200D02*
D03*
Y2300D02*
D03*
Y2400D02*
D03*
Y2500D02*
D03*
Y2600D02*
D03*
Y2700D02*
D03*
X1300Y2200D02*
D03*
Y2300D02*
D03*
Y2400D02*
D03*
Y2500D02*
D03*
Y2600D02*
D03*
Y2700D02*
D03*
X1400Y2200D02*
D03*
Y2300D02*
D03*
Y2400D02*
D03*
Y2500D02*
D03*
Y2600D02*
D03*
Y2700D02*
D03*
X1500Y2200D02*
D03*
Y2300D02*
D03*
Y2400D02*
D03*
Y2500D02*
D03*
Y2600D02*
D03*
Y2700D02*
D03*
X1600Y2200D02*
D03*
Y2300D02*
D03*
Y2400D02*
D03*
Y2500D02*
D03*
Y2600D02*
D03*
Y2700D02*
D03*
X1700Y2200D02*
D03*
Y2300D02*
D03*
Y2400D02*
D03*
Y2500D02*
D03*
Y2600D02*
D03*
Y2700D02*
D03*
X2000Y3300D02*
D03*
X2100D02*
D03*
X2000Y3200D02*
D03*
X2100D02*
D03*
Y3100D02*
D03*
X2000D02*
D03*
X2200Y3300D02*
D03*
Y3200D02*
D03*
Y3100D02*
D03*
X2000Y3000D02*
D03*
X2100D02*
D03*
X2200D02*
D03*
X2300Y3300D02*
D03*
Y3200D02*
D03*
Y3100D02*
D03*
Y3000D02*
D03*
X3450Y3050D02*
D03*
Y2950D02*
D03*
X3550D02*
D03*
Y3050D02*
D03*
Y3150D02*
D03*
X3650D02*
D03*
Y3050D02*
D03*
Y2950D02*
D03*
X4350Y3150D02*
D03*
Y3050D02*
D03*
Y2950D02*
D03*
X4450D02*
D03*
Y3050D02*
D03*
Y3150D02*
D03*
X5150D02*
D03*
X5250D02*
D03*
X5350D02*
D03*
X5450D02*
D03*
Y3050D02*
D03*
X5350D02*
D03*
X5250D02*
D03*
X5150D02*
D03*
Y2950D02*
D03*
X5250D02*
D03*
X5350D02*
D03*
X5450D02*
D03*
X3650Y1750D02*
D03*
Y1650D02*
D03*
Y1550D02*
D03*
X3750D02*
D03*
Y1650D02*
D03*
Y1750D02*
D03*
X3850Y1550D02*
D03*
Y1650D02*
D03*
Y1750D02*
D03*
X3950Y1550D02*
D03*
Y1650D02*
D03*
Y1750D02*
D03*
X4050Y1550D02*
D03*
Y1650D02*
D03*
Y1750D02*
D03*
X4150Y1550D02*
D03*
Y1650D02*
D03*
Y1750D02*
D03*
X4250Y1550D02*
D03*
Y1650D02*
D03*
Y1750D02*
D03*
X4350Y1550D02*
D03*
Y1650D02*
D03*
Y1750D02*
D03*
X4750D02*
D03*
Y1650D02*
D03*
Y1550D02*
D03*
X4650Y1750D02*
D03*
Y1650D02*
D03*
Y1550D02*
D03*
X4550Y1750D02*
D03*
Y1650D02*
D03*
Y1550D02*
D03*
X4450Y1750D02*
D03*
Y1650D02*
D03*
Y1550D02*
D03*
X5150Y1750D02*
D03*
Y1650D02*
D03*
Y1550D02*
D03*
X5050Y1750D02*
D03*
Y1650D02*
D03*
Y1550D02*
D03*
X4950Y1750D02*
D03*
Y1650D02*
D03*
Y1550D02*
D03*
X4850Y1750D02*
D03*
Y1650D02*
D03*
Y1550D02*
D03*
X5550Y1750D02*
D03*
Y1650D02*
D03*
X5450Y1750D02*
D03*
Y1650D02*
D03*
Y1550D02*
D03*
X5350Y1750D02*
D03*
Y1650D02*
D03*
Y1550D02*
D03*
X5250Y1750D02*
D03*
Y1650D02*
D03*
Y1550D02*
D03*
Y1850D02*
D03*
X5350D02*
D03*
X5450D02*
D03*
X5550D02*
D03*
X4850D02*
D03*
X4950D02*
D03*
X5050D02*
D03*
X5150D02*
D03*
X4450D02*
D03*
X4550D02*
D03*
X4650D02*
D03*
X4750D02*
D03*
X4350D02*
D03*
X4250D02*
D03*
X4150D02*
D03*
X4050D02*
D03*
X1500Y2100D02*
D03*
Y2000D02*
D03*
X1600D02*
D03*
Y2100D02*
D03*
X1700D02*
D03*
Y2000D02*
D03*
X1800D02*
D03*
Y2100D02*
D03*
Y2200D02*
D03*
Y1900D02*
D03*
Y1800D02*
D03*
X1900D02*
D03*
Y1900D02*
D03*
Y2000D02*
D03*
X2000D02*
D03*
Y1900D02*
D03*
Y1800D02*
D03*
X2100D02*
D03*
Y1900D02*
D03*
Y2000D02*
D03*
X2200Y1800D02*
D03*
Y1900D02*
D03*
Y2000D02*
D03*
X2300Y1800D02*
D03*
Y1900D02*
D03*
Y2000D02*
D03*
X2200Y1700D02*
D03*
Y1600D02*
D03*
X2100Y1700D02*
D03*
Y1600D02*
D03*
X2000Y1700D02*
D03*
Y1600D02*
D03*
X1900Y1700D02*
D03*
Y1600D02*
D03*
Y1500D02*
D03*
Y1400D02*
D03*
X2000Y1500D02*
D03*
Y1400D02*
D03*
Y1300D02*
D03*
Y1200D02*
D03*
X1900Y1300D02*
D03*
Y1200D02*
D03*
X2100Y1300D02*
D03*
Y1200D02*
D03*
Y1100D02*
D03*
Y1000D02*
D03*
X2000Y1100D02*
D03*
Y1000D02*
D03*
X1900Y1100D02*
D03*
Y1000D02*
D03*
X2100Y1500D02*
D03*
Y1400D02*
D03*
X2550Y600D02*
D03*
Y500D02*
D03*
X2650D02*
D03*
Y600D02*
D03*
X2750D02*
D03*
Y500D02*
D03*
X2850D02*
D03*
Y600D02*
D03*
X3050D02*
D03*
Y500D02*
D03*
Y700D02*
D03*
X3150D02*
D03*
Y500D02*
D03*
Y600D02*
D03*
X3250Y700D02*
D03*
Y500D02*
D03*
Y600D02*
D03*
X3350Y700D02*
D03*
Y500D02*
D03*
Y600D02*
D03*
X3450Y700D02*
D03*
Y500D02*
D03*
Y600D02*
D03*
X3550Y700D02*
D03*
Y500D02*
D03*
Y600D02*
D03*
X3650Y700D02*
D03*
Y500D02*
D03*
Y600D02*
D03*
X3750Y700D02*
D03*
Y500D02*
D03*
Y600D02*
D03*
X3850Y700D02*
D03*
Y500D02*
D03*
Y600D02*
D03*
X3650Y1000D02*
D03*
Y800D02*
D03*
Y900D02*
D03*
X3550Y800D02*
D03*
Y900D02*
D03*
X3450Y800D02*
D03*
X3750Y1000D02*
D03*
Y900D02*
D03*
Y800D02*
D03*
X5050Y3150D02*
D03*
Y3050D02*
D03*
Y2950D02*
D03*
X5700Y3450D02*
D03*
X5800D02*
D03*
Y3350D02*
D03*
X5700D02*
D03*
Y3250D02*
D03*
X5800D02*
D03*
Y3150D02*
D03*
X5700D02*
D03*
X5550Y1550D02*
D03*
X2850Y700D02*
D03*
D36*
X5805Y1925D02*
D03*
Y2025D02*
D03*
Y2125D02*
D03*
Y2225D02*
D03*
Y2325D02*
D03*
Y2425D02*
D03*
X5905Y2225D02*
D03*
Y2125D02*
D03*
Y2025D02*
D03*
Y1925D02*
D03*
Y1825D02*
D03*
Y2325D02*
D03*
Y2425D02*
D03*
X5805Y1725D02*
D03*
Y1825D02*
D03*
X3839Y207D02*
D03*
X4016D02*
D03*
X3339D02*
D03*
X3516D02*
D03*
X2839D02*
D03*
X3016D02*
D03*
X5878Y1284D02*
D03*
Y1461D02*
D03*
X3295Y1725D02*
D03*
Y1825D02*
D03*
X3180Y1725D02*
D03*
Y1825D02*
D03*
X1990Y3770D02*
D03*
X1890D02*
D03*
X1790D02*
D03*
X1690D02*
D03*
X1590D02*
D03*
X1490D02*
D03*
X1390D02*
D03*
X4650D02*
D03*
X4550D02*
D03*
X4450D02*
D03*
X4350D02*
D03*
X4250D02*
D03*
X4150D02*
D03*
X4050D02*
D03*
X1170D02*
D03*
X1070D02*
D03*
X970D02*
D03*
X870D02*
D03*
X770D02*
D03*
X670D02*
D03*
X570D02*
D03*
X3770D02*
D03*
X3670D02*
D03*
X3570D02*
D03*
X3470D02*
D03*
X3370D02*
D03*
X3270D02*
D03*
X3170D02*
D03*
X2220Y310D02*
D03*
Y210D02*
D03*
Y110D02*
D03*
X2320Y410D02*
D03*
Y310D02*
D03*
Y210D02*
D03*
Y110D02*
D03*
X2890Y3770D02*
D03*
X2790D02*
D03*
X2690D02*
D03*
X2590D02*
D03*
X2490D02*
D03*
X2390D02*
D03*
X2290D02*
D03*
X5925Y519D02*
D03*
Y619D02*
D03*
Y719D02*
D03*
Y819D02*
D03*
Y919D02*
D03*
X1990Y3500D02*
D03*
X1890D02*
D03*
X1790D02*
D03*
X1690D02*
D03*
X1590D02*
D03*
X1490D02*
D03*
X1390D02*
D03*
X4590Y620D02*
D03*
X4492D02*
D03*
Y541D02*
D03*
X4590D02*
D03*
X5250Y620D02*
D03*
X5152D02*
D03*
Y541D02*
D03*
X5250D02*
D03*
X1170Y3500D02*
D03*
X1070D02*
D03*
X970D02*
D03*
X870D02*
D03*
X770D02*
D03*
X670D02*
D03*
X570D02*
D03*
X5530Y3770D02*
D03*
X5430D02*
D03*
X5330D02*
D03*
X5230D02*
D03*
X5130D02*
D03*
X5030D02*
D03*
X4930D02*
D03*
D37*
X5905Y1725D02*
D03*
X3295Y1925D02*
D03*
X3180D02*
D03*
X2220Y410D02*
D03*
X5925Y1019D02*
D03*
D38*
X3790Y305D02*
D03*
X4066D02*
D03*
X3290D02*
D03*
X3566D02*
D03*
X2790D02*
D03*
X3066D02*
D03*
X5780Y1235D02*
D03*
Y1511D02*
D03*
D39*
X445Y710D02*
D03*
D40*
X209D02*
D03*
D41*
X327Y525D02*
D03*
D42*
X1290Y3770D02*
D03*
X3950D02*
D03*
X470D02*
D03*
X3070D02*
D03*
X2190D02*
D03*
X1290Y3500D02*
D03*
X470D02*
D03*
X4830Y3770D02*
D03*
D43*
X4304Y435D02*
D03*
X4792D02*
D03*
X4964D02*
D03*
X5452D02*
D03*
D44*
X720Y245D02*
D03*
X1704D02*
D03*
D45*
X1700Y635D02*
D03*
D46*
Y835D02*
D03*
D47*
X1015Y830D02*
D03*
X1385D02*
D03*
D48*
X1015Y633D02*
D03*
X1385D02*
D03*
D49*
X250Y250D02*
D03*
Y3670D02*
D03*
X5750D02*
D03*
Y250D02*
D03*
D50*
X1097Y1268D02*
D03*
Y1312D02*
D03*
X1140Y1268D02*
D03*
Y1312D02*
D03*
X1183Y1268D02*
D03*
Y1312D02*
D03*
X482Y1017D02*
D03*
X438D02*
D03*
X482Y1060D02*
D03*
X438D02*
D03*
X482Y1103D02*
D03*
X438D02*
D03*
X500Y1685D02*
D03*
X455D02*
D03*
X435Y1720D02*
D03*
X780Y1125D02*
D03*
X640Y3355D02*
D03*
X5185Y800D02*
D03*
Y1010D02*
D03*
X3740Y1465D02*
D03*
X3415Y1145D02*
D03*
X3380Y1580D02*
D03*
Y1540D02*
D03*
X3470Y1145D02*
D03*
Y1470D02*
D03*
X3385Y1500D02*
D03*
X3505Y2655D02*
D03*
X3590Y2700D02*
D03*
X3845Y2790D02*
D03*
X3810Y2765D02*
D03*
X3885Y2820D02*
D03*
X4445Y2000D02*
D03*
X5425Y2110D02*
D03*
X5460Y2655D02*
D03*
Y2140D02*
D03*
X3770Y2025D02*
D03*
X4925Y2075D02*
D03*
X5045Y2705D02*
D03*
X3760Y1955D02*
D03*
X300Y2930D02*
D03*
X260Y3180D02*
D03*
X475Y3205D02*
D03*
X500Y3235D02*
D03*
X4130Y1010D02*
D03*
X2658Y897D02*
D03*
X2875Y855D02*
D03*
X2550Y2670D02*
D03*
X2575Y2620D02*
D03*
X2605Y1620D02*
D03*
X2950Y1750D02*
D03*
X2970Y1715D02*
D03*
X3140Y1780D02*
D03*
X3115Y1660D02*
D03*
X415Y3035D02*
D03*
X1340Y2005D02*
D03*
X1330Y1910D02*
D03*
X1290D02*
D03*
X1245D02*
D03*
X1200D02*
D03*
X987Y1787D02*
D03*
X1013Y1608D02*
D03*
X1570Y1085D02*
D03*
X520Y1655D02*
D03*
X475D02*
D03*
Y1720D02*
D03*
X520D02*
D03*
Y1765D02*
D03*
X475D02*
D03*
X365Y1905D02*
D03*
X122Y1837D02*
D03*
X170Y1735D02*
D03*
X145Y1705D02*
D03*
X165Y1665D02*
D03*
X250Y1650D02*
D03*
X205D02*
D03*
X295D02*
D03*
X335D02*
D03*
X380D02*
D03*
X425Y1655D02*
D03*
X435Y1765D02*
D03*
X145Y985D02*
D03*
X4940Y980D02*
D03*
X4850Y1275D02*
D03*
X5380Y740D02*
D03*
X5575Y375D02*
D03*
X4140Y590D02*
D03*
X4395Y730D02*
D03*
X4140Y785D02*
D03*
X4070Y580D02*
D03*
X3155Y1280D02*
D03*
X3283Y1047D02*
D03*
X3352D02*
D03*
X3155Y1415D02*
D03*
X3145Y1355D02*
D03*
X3180Y1385D02*
D03*
X3160Y1595D02*
D03*
X3110Y1620D02*
D03*
X3357Y1293D02*
D03*
X3280Y1410D02*
D03*
X2550Y3530D02*
D03*
X2750D02*
D03*
X3030D02*
D03*
X3230D02*
D03*
X3430D02*
D03*
X3630D02*
D03*
X3910D02*
D03*
X4110D02*
D03*
X4310D02*
D03*
X4508D02*
D03*
X4788D02*
D03*
X4988D02*
D03*
X5188D02*
D03*
X5388D02*
D03*
X2350D02*
D03*
X3810Y2205D02*
D03*
X1930Y2110D02*
D03*
X3160Y2465D02*
D03*
X3355Y2315D02*
D03*
X2375Y2275D02*
D03*
X2165Y2320D02*
D03*
X425Y3265D02*
D03*
X490Y3330D02*
D03*
X360Y3375D02*
D03*
X455Y3295D02*
D03*
X1055Y3285D02*
D03*
X1095Y3340D02*
D03*
X870Y3285D02*
D03*
X770Y3260D02*
D03*
X670Y3235D02*
D03*
X4030Y825D02*
D03*
X5525Y1350D02*
D03*
X500Y2970D02*
D03*
X645Y2990D02*
D03*
Y3020D02*
D03*
Y2960D02*
D03*
X530Y2995D02*
D03*
X360Y2975D02*
D03*
X240Y2960D02*
D03*
X5300Y1070D02*
D03*
X5540Y1210D02*
D03*
X2735Y1110D02*
D03*
X5940Y1534D02*
D03*
X4030Y140D02*
D03*
X3510D02*
D03*
X3020D02*
D03*
X4250Y1070D02*
D03*
X4490Y1210D02*
D03*
X2650Y330D02*
D03*
X440Y3185D02*
D03*
X2170Y2565D02*
D03*
X2360D02*
D03*
X3150Y2600D02*
D03*
X3340D02*
D03*
X4100D02*
D03*
X4290D02*
D03*
X5240D02*
D03*
X2520Y2720D02*
D03*
X3550Y2755D02*
D03*
X2965Y2705D02*
D03*
X2935Y2755D02*
D03*
X2755Y1585D02*
D03*
X2875D02*
D03*
X5050Y2600D02*
D03*
X3360Y1855D02*
D03*
X2975Y1785D02*
D03*
X4245Y1005D02*
D03*
X4135Y825D02*
D03*
X4085Y2755D02*
D03*
X3140D02*
D03*
X2430Y1210D02*
D03*
X5430Y2705D02*
D03*
X4450Y2655D02*
D03*
X4480Y2705D02*
D03*
X4515Y2730D02*
D03*
X2625Y1215D02*
D03*
X2595Y1480D02*
D03*
X3810Y2705D02*
D03*
X4885D02*
D03*
X5080Y2755D02*
D03*
X5720Y2810D02*
D03*
X3035Y955D02*
D03*
X4880Y2655D02*
D03*
X3815D02*
D03*
X3415Y1670D02*
D03*
X3445Y1640D02*
D03*
X3845Y1185D02*
D03*
X3360Y1615D02*
D03*
X3305D02*
D03*
X5575Y1345D02*
D03*
Y1460D02*
D03*
X3740Y1320D02*
D03*
X5905Y3530D02*
D03*
X645Y2925D02*
D03*
X610Y2955D02*
D03*
X575D02*
D03*
X3135Y1045D02*
D03*
X2325Y1105D02*
D03*
X2205Y2620D02*
D03*
X2385Y1470D02*
D03*
X3895Y980D02*
D03*
X3965Y985D02*
D03*
X4080Y1170D02*
D03*
X4245Y1175D02*
D03*
X4000Y1180D02*
D03*
X5130Y1165D02*
D03*
X5055Y1160D02*
D03*
X2990Y2655D02*
D03*
X3525Y2705D02*
D03*
X5415Y2755D02*
D03*
X5300Y1160D02*
D03*
X2920Y1190D02*
D03*
X3645Y1175D02*
D03*
X2500Y890D02*
D03*
X2265Y1045D02*
D03*
X5715Y2870D02*
D03*
X2350Y3465D02*
D03*
X2550Y3465D02*
D03*
X2750D02*
D03*
X3030D02*
D03*
X3230Y3465D02*
D03*
X3430D02*
D03*
X3630Y3465D02*
D03*
X3910D02*
D03*
X4110D02*
D03*
X4310D02*
D03*
X4510Y3465D02*
D03*
X4790D02*
D03*
X4990D02*
D03*
X5190D02*
D03*
X5390D02*
D03*
X2350Y3700D02*
D03*
X2870Y2205D02*
D03*
X2900Y3400D02*
D03*
X2680Y735D02*
D03*
X2645Y765D02*
D03*
X2765Y955D02*
D03*
X2735Y935D02*
D03*
X2270Y720D02*
D03*
X2320Y715D02*
D03*
X2370D02*
D03*
X3125Y865D02*
D03*
X2510Y700D02*
D03*
X2405Y660D02*
D03*
X2470Y375D02*
D03*
X2770Y705D02*
D03*
X2650Y380D02*
D03*
X3185Y895D02*
D03*
X2920Y425D02*
D03*
X3230Y880D02*
D03*
X3395Y410D02*
D03*
X3282Y860D02*
D03*
X3895Y395D02*
D03*
X2580Y3075D02*
D03*
X2545Y3045D02*
D03*
X2650Y3350D02*
D03*
X2695Y3150D02*
D03*
X2560D02*
D03*
X2450Y3340D02*
D03*
X2645Y3250D02*
D03*
X2710Y3200D02*
D03*
X2835Y3210D02*
D03*
X2870Y3185D02*
D03*
X3125Y3340D02*
D03*
X3330Y3345D02*
D03*
X3295Y3180D02*
D03*
X3323Y3135D02*
D03*
X3525Y3335D02*
D03*
X3720D02*
D03*
X4005Y3340D02*
D03*
X4205D02*
D03*
X4110Y3705D02*
D03*
X2596Y904D02*
D03*
X3000Y930D02*
D03*
X2510Y805D02*
D03*
X4543Y2823D02*
D03*
X4590Y2830D02*
D03*
X4400Y3335D02*
D03*
X4485Y3285D02*
D03*
X4785Y2760D02*
D03*
X4475Y2790D02*
D03*
X4825D02*
D03*
X4880Y3335D02*
D03*
X5080Y3340D02*
D03*
X5285D02*
D03*
X5485D02*
D03*
X5585Y3500D02*
D03*
Y3565D02*
D03*
X3575Y1920D02*
D03*
X4480Y2030D02*
D03*
X3520Y1950D02*
D03*
X3810Y2050D02*
D03*
X3735Y1998D02*
D03*
X3705Y1975D02*
D03*
X5025Y2155D02*
D03*
X4955Y2100D02*
D03*
X4990Y2125D02*
D03*
X4880Y2010D02*
D03*
X4750Y2205D02*
D03*
X2860Y1315D02*
D03*
X3005Y1440D02*
D03*
X2951Y1436D02*
D03*
X2898Y1417D02*
D03*
X2850Y1105D02*
D03*
X2795D02*
D03*
X3615Y1120D02*
D03*
X415Y3135D02*
D03*
X2885Y3075D02*
D03*
X5690Y1020D02*
D03*
X2275Y1130D02*
D03*
X2395Y1320D02*
D03*
X1450Y3135D02*
D03*
X2845Y1200D02*
D03*
X2625Y1130D02*
D03*
X2707Y1413D02*
D03*
X2830Y1415D02*
D03*
X2770D02*
D03*
X2640Y1390D02*
D03*
X2655Y1240D02*
D03*
X5955Y3490D02*
D03*
X3320Y1080D02*
D03*
X3445D02*
D03*
X3385Y1100D02*
D03*
X2710Y795D02*
D03*
X2690Y850D02*
D03*
M02*
