G04 Layer_Color=16711935*
%FSLAX23Y23*%
%MOIN*%
G70*
G01*
G75*
%ADD31C,0.010*%
%ADD34C,0.015*%
%ADD118C,0.001*%
%ADD119C,0.006*%
D31*
X-440Y3920D02*
X-10D01*
X-440Y0D02*
X-10D01*
X-430Y2065D02*
Y3920D01*
Y0D02*
Y1823D01*
X-450Y3860D02*
X-430Y3920D01*
X-410Y3860D01*
X-430Y0D02*
X-410Y60D01*
X-450D02*
X-430Y0D01*
X6000Y-390D02*
Y-10D01*
X0Y-390D02*
Y-10D01*
X3130Y-380D02*
X6000D01*
X0D02*
X2838D01*
X5940Y-360D02*
X6000Y-380D01*
X5940Y-400D02*
X6000Y-380D01*
X0D02*
X60Y-400D01*
X0Y-380D02*
X60Y-360D01*
X4706Y9394D02*
Y9334D01*
X4736D01*
X4746Y9344D01*
Y9354D01*
X4736Y9364D01*
X4706D01*
X4736D01*
X4746Y9374D01*
Y9384D01*
X4736Y9394D01*
X4706D01*
X4776Y9334D02*
X4796D01*
X4806Y9344D01*
Y9364D01*
X4796Y9374D01*
X4776D01*
X4766Y9364D01*
Y9344D01*
X4776Y9334D01*
X4836Y9374D02*
X4856D01*
X4866Y9364D01*
Y9334D01*
X4836D01*
X4826Y9344D01*
X4836Y9354D01*
X4866D01*
X4886Y9374D02*
Y9334D01*
Y9354D01*
X4896Y9364D01*
X4906Y9374D01*
X4916D01*
X4986Y9394D02*
Y9334D01*
X4956D01*
X4946Y9344D01*
Y9364D01*
X4956Y9374D01*
X4986D01*
X5066Y9394D02*
Y9334D01*
X5106D01*
X5136Y9374D02*
X5156D01*
X5166Y9364D01*
Y9334D01*
X5136D01*
X5126Y9344D01*
X5136Y9354D01*
X5166D01*
X5186Y9374D02*
Y9344D01*
X5196Y9334D01*
X5226D01*
Y9324D01*
X5216Y9314D01*
X5206D01*
X5226Y9334D02*
Y9374D01*
X5276Y9334D02*
X5256D01*
X5246Y9344D01*
Y9364D01*
X5256Y9374D01*
X5276D01*
X5286Y9364D01*
Y9354D01*
X5246D01*
X5306Y9374D02*
Y9334D01*
Y9354D01*
X5316Y9364D01*
X5326Y9374D01*
X5336D01*
X5466Y9384D02*
X5456Y9394D01*
X5436D01*
X5426Y9384D01*
Y9374D01*
X5436Y9364D01*
X5456D01*
X5466Y9354D01*
Y9344D01*
X5456Y9334D01*
X5436D01*
X5426Y9344D01*
X5496Y9384D02*
Y9374D01*
X5486D01*
X5506D01*
X5496D01*
Y9344D01*
X5506Y9334D01*
X5546Y9374D02*
X5566D01*
X5576Y9364D01*
Y9334D01*
X5546D01*
X5536Y9344D01*
X5546Y9354D01*
X5576D01*
X5636Y9374D02*
X5606D01*
X5596Y9364D01*
Y9344D01*
X5606Y9334D01*
X5636D01*
X5656D02*
Y9394D01*
Y9354D02*
X5686Y9374D01*
X5656Y9354D02*
X5686Y9334D01*
X3587Y9394D02*
Y9334D01*
X3617D01*
X3627Y9344D01*
Y9354D01*
X3617Y9364D01*
X3587D01*
X3617D01*
X3627Y9374D01*
Y9384D01*
X3617Y9394D01*
X3587D01*
X3657Y9334D02*
X3677D01*
X3687Y9344D01*
Y9364D01*
X3677Y9374D01*
X3657D01*
X3647Y9364D01*
Y9344D01*
X3657Y9334D01*
X3717Y9374D02*
X3737D01*
X3747Y9364D01*
Y9334D01*
X3717D01*
X3707Y9344D01*
X3717Y9354D01*
X3747D01*
X3767Y9374D02*
Y9334D01*
Y9354D01*
X3777Y9364D01*
X3787Y9374D01*
X3797D01*
X3867Y9394D02*
Y9334D01*
X3837D01*
X3827Y9344D01*
Y9364D01*
X3837Y9374D01*
X3867D01*
X3947Y9394D02*
Y9334D01*
X3986D01*
X4016Y9374D02*
X4036D01*
X4046Y9364D01*
Y9334D01*
X4016D01*
X4006Y9344D01*
X4016Y9354D01*
X4046D01*
X4066Y9374D02*
Y9344D01*
X4076Y9334D01*
X4106D01*
Y9324D01*
X4096Y9314D01*
X4086D01*
X4106Y9334D02*
Y9374D01*
X4156Y9334D02*
X4136D01*
X4126Y9344D01*
Y9364D01*
X4136Y9374D01*
X4156D01*
X4166Y9364D01*
Y9354D01*
X4126D01*
X4186Y9374D02*
Y9334D01*
Y9354D01*
X4196Y9364D01*
X4206Y9374D01*
X4216D01*
X4346Y9384D02*
X4336Y9394D01*
X4316D01*
X4306Y9384D01*
Y9374D01*
X4316Y9364D01*
X4336D01*
X4346Y9354D01*
Y9344D01*
X4336Y9334D01*
X4316D01*
X4306Y9344D01*
X4376Y9384D02*
Y9374D01*
X4366D01*
X4386D01*
X4376D01*
Y9344D01*
X4386Y9334D01*
X4426Y9374D02*
X4446D01*
X4456Y9364D01*
Y9334D01*
X4426D01*
X4416Y9344D01*
X4426Y9354D01*
X4456D01*
X4516Y9374D02*
X4486D01*
X4476Y9364D01*
Y9344D01*
X4486Y9334D01*
X4516D01*
X4536D02*
Y9394D01*
Y9354D02*
X4566Y9374D01*
X4536Y9354D02*
X4566Y9334D01*
X3017Y9144D02*
X3027Y9154D01*
X3047D01*
X3057Y9144D01*
Y9134D01*
X3047Y9124D01*
X3037D01*
X3047D01*
X3057Y9114D01*
Y9104D01*
X3047Y9094D01*
X3027D01*
X3017Y9104D01*
X3077Y9094D02*
Y9104D01*
X3087D01*
Y9094D01*
X3077D01*
X3167Y9154D02*
X3127D01*
Y9124D01*
X3147Y9134D01*
X3157D01*
X3167Y9124D01*
Y9104D01*
X3157Y9094D01*
X3137D01*
X3127Y9104D01*
X3047Y8854D02*
Y8914D01*
X3017Y8884D01*
X3057D01*
X3077Y8854D02*
Y8864D01*
X3087D01*
Y8854D01*
X3077D01*
X3167D02*
X3127D01*
X3167Y8894D01*
Y8904D01*
X3157Y8914D01*
X3137D01*
X3127Y8904D01*
X3047Y8614D02*
Y8674D01*
X3017Y8644D01*
X3057D01*
X3077Y8614D02*
Y8624D01*
X3087D01*
Y8614D01*
X3077D01*
X3167D02*
X3127D01*
X3167Y8654D01*
Y8664D01*
X3157Y8674D01*
X3137D01*
X3127Y8664D01*
X3047Y8374D02*
Y8434D01*
X3017Y8404D01*
X3057D01*
X3077Y8374D02*
Y8384D01*
X3087D01*
Y8374D01*
X3077D01*
X3167D02*
X3127D01*
X3167Y8414D01*
Y8424D01*
X3157Y8434D01*
X3137D01*
X3127Y8424D01*
X3017Y8184D02*
X3027Y8194D01*
X3047D01*
X3057Y8184D01*
Y8174D01*
X3047Y8164D01*
X3037D01*
X3047D01*
X3057Y8154D01*
Y8144D01*
X3047Y8134D01*
X3027D01*
X3017Y8144D01*
X3077Y8134D02*
Y8144D01*
X3087D01*
Y8134D01*
X3077D01*
X3167Y8194D02*
X3127D01*
Y8164D01*
X3147Y8174D01*
X3157D01*
X3167Y8164D01*
Y8144D01*
X3157Y8134D01*
X3137D01*
X3127Y8144D01*
X3057Y9384D02*
X3047Y9394D01*
X3027D01*
X3017Y9384D01*
Y9344D01*
X3027Y9334D01*
X3047D01*
X3057Y9344D01*
X3087Y9334D02*
X3107D01*
X3117Y9344D01*
Y9364D01*
X3107Y9374D01*
X3087D01*
X3077Y9364D01*
Y9344D01*
X3087Y9334D01*
X3137D02*
Y9374D01*
X3167D01*
X3177Y9364D01*
Y9334D01*
X3197D02*
X3227D01*
X3237Y9344D01*
X3227Y9354D01*
X3207D01*
X3197Y9364D01*
X3207Y9374D01*
X3237D01*
X3267Y9384D02*
Y9374D01*
X3257D01*
X3277D01*
X3267D01*
Y9344D01*
X3277Y9334D01*
X3317Y9374D02*
X3337D01*
X3347Y9364D01*
Y9334D01*
X3317D01*
X3307Y9344D01*
X3317Y9354D01*
X3347D01*
X3367Y9334D02*
Y9374D01*
X3397D01*
X3407Y9364D01*
Y9334D01*
X3437Y9384D02*
Y9374D01*
X3427D01*
X3447D01*
X3437D01*
Y9344D01*
X3447Y9334D01*
X2367Y9144D02*
X2377Y9154D01*
X2397D01*
X2407Y9144D01*
Y9104D01*
X2397Y9094D01*
X2377D01*
X2367Y9104D01*
Y9144D01*
X2427Y9094D02*
Y9104D01*
X2437D01*
Y9094D01*
X2427D01*
X2507D02*
Y9154D01*
X2477Y9124D01*
X2517D01*
X2537Y9144D02*
X2547Y9154D01*
X2567D01*
X2577Y9144D01*
Y9104D01*
X2567Y9094D01*
X2547D01*
X2537Y9104D01*
Y9144D01*
X2597Y9094D02*
Y9134D01*
X2607D01*
X2617Y9124D01*
Y9094D01*
Y9124D01*
X2627Y9134D01*
X2637Y9124D01*
Y9094D01*
X2657D02*
X2677D01*
X2667D01*
Y9134D01*
X2657D01*
X2707Y9094D02*
X2727D01*
X2717D01*
Y9154D01*
X2707D01*
X2367Y8974D02*
X2387D01*
X2377D01*
Y9034D01*
X2367Y9024D01*
X2417Y8974D02*
Y8984D01*
X2427D01*
Y8974D01*
X2417D01*
X2497D02*
Y9034D01*
X2467Y9004D01*
X2507D01*
X2527Y9024D02*
X2537Y9034D01*
X2557D01*
X2567Y9024D01*
Y8984D01*
X2557Y8974D01*
X2537D01*
X2527Y8984D01*
Y9024D01*
X2587Y8974D02*
Y9014D01*
X2597D01*
X2607Y9004D01*
Y8974D01*
Y9004D01*
X2617Y9014D01*
X2627Y9004D01*
Y8974D01*
X2647D02*
X2667D01*
X2657D01*
Y9014D01*
X2647D01*
X2697Y8974D02*
X2717D01*
X2707D01*
Y9034D01*
X2697D01*
X2367Y8854D02*
X2387D01*
X2377D01*
Y8914D01*
X2367Y8904D01*
X2417D02*
X2427Y8914D01*
X2447D01*
X2457Y8904D01*
Y8864D01*
X2447Y8854D01*
X2427D01*
X2417Y8864D01*
Y8904D01*
X2477Y8854D02*
Y8864D01*
X2487D01*
Y8854D01*
X2477D01*
X2527Y8904D02*
X2537Y8914D01*
X2557D01*
X2567Y8904D01*
Y8864D01*
X2557Y8854D01*
X2537D01*
X2527Y8864D01*
Y8904D01*
X2587D02*
X2597Y8914D01*
X2617D01*
X2627Y8904D01*
Y8864D01*
X2617Y8854D01*
X2597D01*
X2587Y8864D01*
Y8904D01*
X2647Y8854D02*
Y8894D01*
X2657D01*
X2667Y8884D01*
Y8854D01*
Y8884D01*
X2677Y8894D01*
X2687Y8884D01*
Y8854D01*
X2707D02*
X2727D01*
X2717D01*
Y8894D01*
X2707D01*
X2757Y8854D02*
X2777D01*
X2767D01*
Y8914D01*
X2757D01*
X2367Y8734D02*
X2387D01*
X2377D01*
Y8794D01*
X2367Y8784D01*
X2417Y8734D02*
Y8744D01*
X2427D01*
Y8734D01*
X2417D01*
X2497D02*
Y8794D01*
X2467Y8764D01*
X2507D01*
X2567Y8734D02*
X2527D01*
X2567Y8774D01*
Y8784D01*
X2557Y8794D01*
X2537D01*
X2527Y8784D01*
X2587Y8734D02*
Y8774D01*
X2597D01*
X2607Y8764D01*
Y8734D01*
Y8764D01*
X2617Y8774D01*
X2627Y8764D01*
Y8734D01*
X2647D02*
X2667D01*
X2657D01*
Y8774D01*
X2647D01*
X2697Y8734D02*
X2717D01*
X2707D01*
Y8794D01*
X2697D01*
X2367Y8614D02*
X2387D01*
X2377D01*
Y8674D01*
X2367Y8664D01*
X2417D02*
X2427Y8674D01*
X2447D01*
X2457Y8664D01*
Y8624D01*
X2447Y8614D01*
X2427D01*
X2417Y8624D01*
Y8664D01*
X2477Y8614D02*
Y8624D01*
X2487D01*
Y8614D01*
X2477D01*
X2527Y8664D02*
X2537Y8674D01*
X2557D01*
X2567Y8664D01*
Y8624D01*
X2557Y8614D01*
X2537D01*
X2527Y8624D01*
Y8664D01*
X2587D02*
X2597Y8674D01*
X2617D01*
X2627Y8664D01*
Y8624D01*
X2617Y8614D01*
X2597D01*
X2587Y8624D01*
Y8664D01*
X2647Y8614D02*
Y8654D01*
X2657D01*
X2667Y8644D01*
Y8614D01*
Y8644D01*
X2677Y8654D01*
X2687Y8644D01*
Y8614D01*
X2707D02*
X2727D01*
X2717D01*
Y8654D01*
X2707D01*
X2757Y8614D02*
X2777D01*
X2767D01*
Y8674D01*
X2757D01*
X2367Y8494D02*
X2387D01*
X2377D01*
Y8554D01*
X2367Y8544D01*
X2417Y8494D02*
Y8504D01*
X2427D01*
Y8494D01*
X2417D01*
X2497D02*
Y8554D01*
X2467Y8524D01*
X2507D01*
X2567Y8494D02*
X2527D01*
X2567Y8534D01*
Y8544D01*
X2557Y8554D01*
X2537D01*
X2527Y8544D01*
X2587Y8494D02*
Y8534D01*
X2597D01*
X2607Y8524D01*
Y8494D01*
Y8524D01*
X2617Y8534D01*
X2627Y8524D01*
Y8494D01*
X2647D02*
X2667D01*
X2657D01*
Y8534D01*
X2647D01*
X2697Y8494D02*
X2717D01*
X2707D01*
Y8554D01*
X2697D01*
X2407Y8434D02*
X2367D01*
Y8404D01*
X2387Y8414D01*
X2397D01*
X2407Y8404D01*
Y8384D01*
X2397Y8374D01*
X2377D01*
X2367Y8384D01*
X2427Y8374D02*
Y8384D01*
X2437D01*
Y8374D01*
X2427D01*
X2477Y8424D02*
X2487Y8434D01*
X2507D01*
X2517Y8424D01*
Y8384D01*
X2507Y8374D01*
X2487D01*
X2477Y8384D01*
Y8424D01*
X2537D02*
X2547Y8434D01*
X2567D01*
X2577Y8424D01*
Y8384D01*
X2567Y8374D01*
X2547D01*
X2537Y8384D01*
Y8424D01*
X2597Y8374D02*
Y8414D01*
X2607D01*
X2617Y8404D01*
Y8374D01*
Y8404D01*
X2627Y8414D01*
X2637Y8404D01*
Y8374D01*
X2657D02*
X2677D01*
X2667D01*
Y8414D01*
X2657D01*
X2707Y8374D02*
X2727D01*
X2717D01*
Y8434D01*
X2707D01*
X2367Y8254D02*
X2387D01*
X2377D01*
Y8314D01*
X2367Y8304D01*
X2417Y8254D02*
Y8264D01*
X2427D01*
Y8254D01*
X2417D01*
X2497D02*
Y8314D01*
X2467Y8284D01*
X2507D01*
X2527Y8304D02*
X2537Y8314D01*
X2557D01*
X2567Y8304D01*
Y8264D01*
X2557Y8254D01*
X2537D01*
X2527Y8264D01*
Y8304D01*
X2587Y8254D02*
Y8294D01*
X2597D01*
X2607Y8284D01*
Y8254D01*
Y8284D01*
X2617Y8294D01*
X2627Y8284D01*
Y8254D01*
X2647D02*
X2667D01*
X2657D01*
Y8294D01*
X2647D01*
X2697Y8254D02*
X2717D01*
X2707D01*
Y8314D01*
X2697D01*
X2367Y8184D02*
X2377Y8194D01*
X2397D01*
X2407Y8184D01*
Y8144D01*
X2397Y8134D01*
X2377D01*
X2367Y8144D01*
Y8184D01*
X2427Y8134D02*
Y8144D01*
X2437D01*
Y8134D01*
X2427D01*
X2507D02*
Y8194D01*
X2477Y8164D01*
X2517D01*
X2537Y8184D02*
X2547Y8194D01*
X2567D01*
X2577Y8184D01*
Y8144D01*
X2567Y8134D01*
X2547D01*
X2537Y8144D01*
Y8184D01*
X2597Y8134D02*
Y8174D01*
X2607D01*
X2617Y8164D01*
Y8134D01*
Y8164D01*
X2627Y8174D01*
X2637Y8164D01*
Y8134D01*
X2657D02*
X2677D01*
X2667D01*
Y8174D01*
X2657D01*
X2707Y8134D02*
X2727D01*
X2717D01*
Y8194D01*
X2707D01*
X2367Y9394D02*
X2407D01*
X2387D01*
Y9334D01*
X2427Y9394D02*
Y9334D01*
Y9364D01*
X2437Y9374D01*
X2457D01*
X2467Y9364D01*
Y9334D01*
X2487D02*
X2507D01*
X2497D01*
Y9374D01*
X2487D01*
X2577D02*
X2547D01*
X2537Y9364D01*
Y9344D01*
X2547Y9334D01*
X2577D01*
X2597D02*
Y9394D01*
Y9354D02*
X2627Y9374D01*
X2597Y9354D02*
X2627Y9334D01*
X2657D02*
Y9374D01*
X2687D01*
X2697Y9364D01*
Y9334D01*
X2747D02*
X2727D01*
X2717Y9344D01*
Y9364D01*
X2727Y9374D01*
X2747D01*
X2757Y9364D01*
Y9354D01*
X2717D01*
X2777Y9334D02*
X2807D01*
X2817Y9344D01*
X2807Y9354D01*
X2787D01*
X2777Y9364D01*
X2787Y9374D01*
X2817D01*
X2837Y9334D02*
X2867D01*
X2877Y9344D01*
X2867Y9354D01*
X2847D01*
X2837Y9364D01*
X2847Y9374D01*
X2877D01*
X1547Y9144D02*
X1537Y9154D01*
X1517D01*
X1507Y9144D01*
Y9134D01*
X1517Y9124D01*
X1537D01*
X1547Y9114D01*
Y9104D01*
X1537Y9094D01*
X1517D01*
X1507Y9104D01*
X1577Y9094D02*
X1597D01*
X1607Y9104D01*
Y9124D01*
X1597Y9134D01*
X1577D01*
X1567Y9124D01*
Y9104D01*
X1577Y9094D01*
X1627D02*
X1647D01*
X1637D01*
Y9154D01*
X1627D01*
X1717D02*
Y9094D01*
X1687D01*
X1677Y9104D01*
Y9124D01*
X1687Y9134D01*
X1717D01*
X1767Y9094D02*
X1747D01*
X1737Y9104D01*
Y9124D01*
X1747Y9134D01*
X1767D01*
X1777Y9124D01*
Y9114D01*
X1737D01*
X1797Y9134D02*
Y9094D01*
Y9114D01*
X1807Y9124D01*
X1817Y9134D01*
X1827D01*
X1917Y9094D02*
Y9154D01*
X1947D01*
X1957Y9144D01*
Y9124D01*
X1947Y9114D01*
X1917D01*
X1937D02*
X1957Y9094D01*
X2007D02*
X1987D01*
X1977Y9104D01*
Y9124D01*
X1987Y9134D01*
X2007D01*
X2017Y9124D01*
Y9114D01*
X1977D01*
X2037Y9094D02*
X2067D01*
X2077Y9104D01*
X2067Y9114D01*
X2047D01*
X2037Y9124D01*
X2047Y9134D01*
X2077D01*
X2097Y9094D02*
X2117D01*
X2107D01*
Y9134D01*
X2097D01*
X2147Y9094D02*
X2177D01*
X2187Y9104D01*
X2177Y9114D01*
X2157D01*
X2147Y9124D01*
X2157Y9134D01*
X2187D01*
X2217Y9144D02*
Y9134D01*
X2207D01*
X2227D01*
X2217D01*
Y9104D01*
X2227Y9094D01*
X1547Y9024D02*
X1537Y9034D01*
X1517D01*
X1507Y9024D01*
Y8984D01*
X1517Y8974D01*
X1537D01*
X1547Y8984D01*
X1577Y8974D02*
X1597D01*
X1607Y8984D01*
Y9004D01*
X1597Y9014D01*
X1577D01*
X1567Y9004D01*
Y8984D01*
X1577Y8974D01*
X1627Y8954D02*
Y9014D01*
X1657D01*
X1667Y9004D01*
Y8984D01*
X1657Y8974D01*
X1627D01*
X1687Y8954D02*
Y9014D01*
X1717D01*
X1727Y9004D01*
Y8984D01*
X1717Y8974D01*
X1687D01*
X1777D02*
X1757D01*
X1747Y8984D01*
Y9004D01*
X1757Y9014D01*
X1777D01*
X1787Y9004D01*
Y8994D01*
X1747D01*
X1807Y9014D02*
Y8974D01*
Y8994D01*
X1817Y9004D01*
X1827Y9014D01*
X1837D01*
X1547Y8914D02*
X1507D01*
Y8884D01*
X1527D01*
X1507D01*
Y8854D01*
X1567D02*
Y8914D01*
X1597D01*
X1607Y8904D01*
Y8884D01*
X1597Y8874D01*
X1567D01*
X1587D02*
X1607Y8854D01*
X1627Y8884D02*
X1667D01*
X1717Y8854D02*
Y8914D01*
X1687Y8884D01*
X1727D01*
X1547Y8784D02*
X1537Y8794D01*
X1517D01*
X1507Y8784D01*
Y8744D01*
X1517Y8734D01*
X1537D01*
X1547Y8744D01*
X1577Y8734D02*
X1597D01*
X1607Y8744D01*
Y8764D01*
X1597Y8774D01*
X1577D01*
X1567Y8764D01*
Y8744D01*
X1577Y8734D01*
X1627Y8714D02*
Y8774D01*
X1657D01*
X1667Y8764D01*
Y8744D01*
X1657Y8734D01*
X1627D01*
X1687Y8714D02*
Y8774D01*
X1717D01*
X1727Y8764D01*
Y8744D01*
X1717Y8734D01*
X1687D01*
X1777D02*
X1757D01*
X1747Y8744D01*
Y8764D01*
X1757Y8774D01*
X1777D01*
X1787Y8764D01*
Y8754D01*
X1747D01*
X1807Y8774D02*
Y8734D01*
Y8754D01*
X1817Y8764D01*
X1827Y8774D01*
X1837D01*
X1547Y8544D02*
X1537Y8554D01*
X1517D01*
X1507Y8544D01*
Y8504D01*
X1517Y8494D01*
X1537D01*
X1547Y8504D01*
X1577Y8494D02*
X1597D01*
X1607Y8504D01*
Y8524D01*
X1597Y8534D01*
X1577D01*
X1567Y8524D01*
Y8504D01*
X1577Y8494D01*
X1627Y8474D02*
Y8534D01*
X1657D01*
X1667Y8524D01*
Y8504D01*
X1657Y8494D01*
X1627D01*
X1687Y8474D02*
Y8534D01*
X1717D01*
X1727Y8524D01*
Y8504D01*
X1717Y8494D01*
X1687D01*
X1777D02*
X1757D01*
X1747Y8504D01*
Y8524D01*
X1757Y8534D01*
X1777D01*
X1787Y8524D01*
Y8514D01*
X1747D01*
X1807Y8534D02*
Y8494D01*
Y8514D01*
X1817Y8524D01*
X1827Y8534D01*
X1837D01*
X1547Y8304D02*
X1537Y8314D01*
X1517D01*
X1507Y8304D01*
Y8264D01*
X1517Y8254D01*
X1537D01*
X1547Y8264D01*
X1577Y8254D02*
X1597D01*
X1607Y8264D01*
Y8284D01*
X1597Y8294D01*
X1577D01*
X1567Y8284D01*
Y8264D01*
X1577Y8254D01*
X1627Y8234D02*
Y8294D01*
X1657D01*
X1667Y8284D01*
Y8264D01*
X1657Y8254D01*
X1627D01*
X1687Y8234D02*
Y8294D01*
X1717D01*
X1727Y8284D01*
Y8264D01*
X1717Y8254D01*
X1687D01*
X1777D02*
X1757D01*
X1747Y8264D01*
Y8284D01*
X1757Y8294D01*
X1777D01*
X1787Y8284D01*
Y8274D01*
X1747D01*
X1807Y8294D02*
Y8254D01*
Y8274D01*
X1817Y8284D01*
X1827Y8294D01*
X1837D01*
X1547Y8184D02*
X1537Y8194D01*
X1517D01*
X1507Y8184D01*
Y8174D01*
X1517Y8164D01*
X1537D01*
X1547Y8154D01*
Y8144D01*
X1537Y8134D01*
X1517D01*
X1507Y8144D01*
X1577Y8134D02*
X1597D01*
X1607Y8144D01*
Y8164D01*
X1597Y8174D01*
X1577D01*
X1567Y8164D01*
Y8144D01*
X1577Y8134D01*
X1627D02*
X1647D01*
X1637D01*
Y8194D01*
X1627D01*
X1717D02*
Y8134D01*
X1687D01*
X1677Y8144D01*
Y8164D01*
X1687Y8174D01*
X1717D01*
X1767Y8134D02*
X1747D01*
X1737Y8144D01*
Y8164D01*
X1747Y8174D01*
X1767D01*
X1777Y8164D01*
Y8154D01*
X1737D01*
X1797Y8174D02*
Y8134D01*
Y8154D01*
X1807Y8164D01*
X1817Y8174D01*
X1827D01*
X1917Y8134D02*
Y8194D01*
X1947D01*
X1957Y8184D01*
Y8164D01*
X1947Y8154D01*
X1917D01*
X1937D02*
X1957Y8134D01*
X2007D02*
X1987D01*
X1977Y8144D01*
Y8164D01*
X1987Y8174D01*
X2007D01*
X2017Y8164D01*
Y8154D01*
X1977D01*
X2037Y8134D02*
X2067D01*
X2077Y8144D01*
X2067Y8154D01*
X2047D01*
X2037Y8164D01*
X2047Y8174D01*
X2077D01*
X2097Y8134D02*
X2117D01*
X2107D01*
Y8174D01*
X2097D01*
X2147Y8134D02*
X2177D01*
X2187Y8144D01*
X2177Y8154D01*
X2157D01*
X2147Y8164D01*
X2157Y8174D01*
X2187D01*
X2217Y8184D02*
Y8174D01*
X2207D01*
X2227D01*
X2217D01*
Y8144D01*
X2227Y8134D01*
X1507Y9334D02*
Y9394D01*
X1527Y9374D01*
X1547Y9394D01*
Y9334D01*
X1577Y9374D02*
X1597D01*
X1607Y9364D01*
Y9334D01*
X1577D01*
X1567Y9344D01*
X1577Y9354D01*
X1607D01*
X1637Y9384D02*
Y9374D01*
X1627D01*
X1647D01*
X1637D01*
Y9344D01*
X1647Y9334D01*
X1707D02*
X1687D01*
X1677Y9344D01*
Y9364D01*
X1687Y9374D01*
X1707D01*
X1717Y9364D01*
Y9354D01*
X1677D01*
X1737Y9374D02*
Y9334D01*
Y9354D01*
X1747Y9364D01*
X1757Y9374D01*
X1767D01*
X1797Y9334D02*
X1817D01*
X1807D01*
Y9374D01*
X1797D01*
X1857D02*
X1877D01*
X1887Y9364D01*
Y9334D01*
X1857D01*
X1847Y9344D01*
X1857Y9354D01*
X1887D01*
X1907Y9334D02*
X1927D01*
X1917D01*
Y9394D01*
X1907D01*
X577Y9274D02*
X617D01*
X597D01*
Y9214D01*
X647D02*
X667D01*
X677Y9224D01*
Y9244D01*
X667Y9254D01*
X647D01*
X637Y9244D01*
Y9224D01*
X647Y9214D01*
X697Y9194D02*
Y9254D01*
X727D01*
X737Y9244D01*
Y9224D01*
X727Y9214D01*
X697D01*
X847Y9274D02*
X827D01*
X817Y9264D01*
Y9224D01*
X827Y9214D01*
X847D01*
X857Y9224D01*
Y9264D01*
X847Y9274D01*
X877Y9254D02*
X897Y9214D01*
X917Y9254D01*
X967Y9214D02*
X947D01*
X937Y9224D01*
Y9244D01*
X947Y9254D01*
X967D01*
X977Y9244D01*
Y9234D01*
X937D01*
X997Y9254D02*
Y9214D01*
Y9234D01*
X1007Y9244D01*
X1017Y9254D01*
X1027D01*
X1057Y9214D02*
X1077D01*
X1067D01*
Y9274D01*
X1057D01*
X1117Y9254D02*
X1137D01*
X1147Y9244D01*
Y9214D01*
X1117D01*
X1107Y9224D01*
X1117Y9234D01*
X1147D01*
X1167Y9254D02*
Y9224D01*
X1177Y9214D01*
X1207D01*
Y9204D01*
X1197Y9194D01*
X1187D01*
X1207Y9214D02*
Y9254D01*
X577Y9154D02*
X617D01*
X597D01*
Y9094D01*
X647D02*
X667D01*
X677Y9104D01*
Y9124D01*
X667Y9134D01*
X647D01*
X637Y9124D01*
Y9104D01*
X647Y9094D01*
X697Y9074D02*
Y9134D01*
X727D01*
X737Y9124D01*
Y9104D01*
X727Y9094D01*
X697D01*
X857Y9144D02*
X847Y9154D01*
X827D01*
X817Y9144D01*
Y9134D01*
X827Y9124D01*
X847D01*
X857Y9114D01*
Y9104D01*
X847Y9094D01*
X827D01*
X817Y9104D01*
X887Y9094D02*
X907D01*
X917Y9104D01*
Y9124D01*
X907Y9134D01*
X887D01*
X877Y9124D01*
Y9104D01*
X887Y9094D01*
X937D02*
X957D01*
X947D01*
Y9154D01*
X937D01*
X1027D02*
Y9094D01*
X997D01*
X987Y9104D01*
Y9124D01*
X997Y9134D01*
X1027D01*
X1077Y9094D02*
X1057D01*
X1047Y9104D01*
Y9124D01*
X1057Y9134D01*
X1077D01*
X1087Y9124D01*
Y9114D01*
X1047D01*
X1107Y9134D02*
Y9094D01*
Y9114D01*
X1117Y9124D01*
X1127Y9134D01*
X1137D01*
X577Y9034D02*
X617D01*
X597D01*
Y8974D01*
X647D02*
X667D01*
X677Y8984D01*
Y9004D01*
X667Y9014D01*
X647D01*
X637Y9004D01*
Y8984D01*
X647Y8974D01*
X697Y8954D02*
Y9014D01*
X727D01*
X737Y9004D01*
Y8984D01*
X727Y8974D01*
X697D01*
X817Y9034D02*
Y8974D01*
X857D01*
X887Y9014D02*
X907D01*
X917Y9004D01*
Y8974D01*
X887D01*
X877Y8984D01*
X887Y8994D01*
X917D01*
X937Y9014D02*
Y8984D01*
X947Y8974D01*
X977D01*
Y8964D01*
X967Y8954D01*
X957D01*
X977Y8974D02*
Y9014D01*
X1027Y8974D02*
X1007D01*
X997Y8984D01*
Y9004D01*
X1007Y9014D01*
X1027D01*
X1037Y9004D01*
Y8994D01*
X997D01*
X1057Y9014D02*
Y8974D01*
Y8994D01*
X1067Y9004D01*
X1077Y9014D01*
X1087D01*
X577Y8914D02*
Y8854D01*
X607D01*
X617Y8864D01*
Y8904D01*
X607Y8914D01*
X577D01*
X637Y8854D02*
X657D01*
X647D01*
Y8894D01*
X637D01*
X717Y8854D02*
X697D01*
X687Y8864D01*
Y8884D01*
X697Y8894D01*
X717D01*
X727Y8884D01*
Y8874D01*
X687D01*
X747Y8854D02*
X767D01*
X757D01*
Y8914D01*
X747D01*
X827Y8854D02*
X807D01*
X797Y8864D01*
Y8884D01*
X807Y8894D01*
X827D01*
X837Y8884D01*
Y8874D01*
X797D01*
X897Y8894D02*
X867D01*
X857Y8884D01*
Y8864D01*
X867Y8854D01*
X897D01*
X927Y8904D02*
Y8894D01*
X917D01*
X937D01*
X927D01*
Y8864D01*
X937Y8854D01*
X967Y8894D02*
Y8854D01*
Y8874D01*
X977Y8884D01*
X987Y8894D01*
X997D01*
X1027Y8854D02*
X1047D01*
X1037D01*
Y8894D01*
X1027D01*
X1117D02*
X1087D01*
X1077Y8884D01*
Y8864D01*
X1087Y8854D01*
X1117D01*
X1197D02*
X1217D01*
X1207D01*
Y8914D01*
X1197Y8904D01*
X577Y8734D02*
Y8794D01*
X607D01*
X617Y8784D01*
Y8764D01*
X607Y8754D01*
X577D01*
X647Y8734D02*
X667D01*
X677Y8744D01*
Y8764D01*
X667Y8774D01*
X647D01*
X637Y8764D01*
Y8744D01*
X647Y8734D01*
X697Y8774D02*
Y8744D01*
X707Y8734D01*
X717Y8744D01*
X727Y8734D01*
X737Y8744D01*
Y8774D01*
X787Y8734D02*
X767D01*
X757Y8744D01*
Y8764D01*
X767Y8774D01*
X787D01*
X797Y8764D01*
Y8754D01*
X757D01*
X817Y8774D02*
Y8734D01*
Y8754D01*
X827Y8764D01*
X837Y8774D01*
X847D01*
X937Y8734D02*
Y8794D01*
X967D01*
X977Y8784D01*
Y8764D01*
X967Y8754D01*
X937D01*
X997Y8734D02*
X1017D01*
X1007D01*
Y8794D01*
X997D01*
X1057Y8774D02*
X1077D01*
X1087Y8764D01*
Y8734D01*
X1057D01*
X1047Y8744D01*
X1057Y8754D01*
X1087D01*
X1107Y8734D02*
Y8774D01*
X1137D01*
X1147Y8764D01*
Y8734D01*
X1197D02*
X1177D01*
X1167Y8744D01*
Y8764D01*
X1177Y8774D01*
X1197D01*
X1207Y8764D01*
Y8754D01*
X1167D01*
X577Y8674D02*
Y8614D01*
X607D01*
X617Y8624D01*
Y8664D01*
X607Y8674D01*
X577D01*
X637Y8614D02*
X657D01*
X647D01*
Y8654D01*
X637D01*
X717Y8614D02*
X697D01*
X687Y8624D01*
Y8644D01*
X697Y8654D01*
X717D01*
X727Y8644D01*
Y8634D01*
X687D01*
X747Y8614D02*
X767D01*
X757D01*
Y8674D01*
X747D01*
X827Y8614D02*
X807D01*
X797Y8624D01*
Y8644D01*
X807Y8654D01*
X827D01*
X837Y8644D01*
Y8634D01*
X797D01*
X897Y8654D02*
X867D01*
X857Y8644D01*
Y8624D01*
X867Y8614D01*
X897D01*
X927Y8664D02*
Y8654D01*
X917D01*
X937D01*
X927D01*
Y8624D01*
X937Y8614D01*
X967Y8654D02*
Y8614D01*
Y8634D01*
X977Y8644D01*
X987Y8654D01*
X997D01*
X1027Y8614D02*
X1047D01*
X1037D01*
Y8654D01*
X1027D01*
X1117D02*
X1087D01*
X1077Y8644D01*
Y8624D01*
X1087Y8614D01*
X1117D01*
X1237D02*
X1197D01*
X1237Y8654D01*
Y8664D01*
X1227Y8674D01*
X1207D01*
X1197Y8664D01*
X617Y8544D02*
X607Y8554D01*
X587D01*
X577Y8544D01*
Y8504D01*
X587Y8494D01*
X607D01*
X617Y8504D01*
Y8524D01*
X597D01*
X637Y8534D02*
Y8494D01*
Y8514D01*
X647Y8524D01*
X657Y8534D01*
X667D01*
X707Y8494D02*
X727D01*
X737Y8504D01*
Y8524D01*
X727Y8534D01*
X707D01*
X697Y8524D01*
Y8504D01*
X707Y8494D01*
X757Y8534D02*
Y8504D01*
X767Y8494D01*
X797D01*
Y8534D01*
X817Y8494D02*
Y8534D01*
X847D01*
X857Y8524D01*
Y8494D01*
X917Y8554D02*
Y8494D01*
X887D01*
X877Y8504D01*
Y8524D01*
X887Y8534D01*
X917D01*
X997Y8494D02*
Y8554D01*
X1027D01*
X1037Y8544D01*
Y8524D01*
X1027Y8514D01*
X997D01*
X1057Y8494D02*
X1077D01*
X1067D01*
Y8554D01*
X1057D01*
X1117Y8534D02*
X1137D01*
X1147Y8524D01*
Y8494D01*
X1117D01*
X1107Y8504D01*
X1117Y8514D01*
X1147D01*
X1167Y8494D02*
Y8534D01*
X1197D01*
X1207Y8524D01*
Y8494D01*
X1257D02*
X1237D01*
X1227Y8504D01*
Y8524D01*
X1237Y8534D01*
X1257D01*
X1267Y8524D01*
Y8514D01*
X1227D01*
X577Y8434D02*
Y8374D01*
X607D01*
X617Y8384D01*
Y8424D01*
X607Y8434D01*
X577D01*
X637Y8374D02*
X657D01*
X647D01*
Y8414D01*
X637D01*
X717Y8374D02*
X697D01*
X687Y8384D01*
Y8404D01*
X697Y8414D01*
X717D01*
X727Y8404D01*
Y8394D01*
X687D01*
X747Y8374D02*
X767D01*
X757D01*
Y8434D01*
X747D01*
X827Y8374D02*
X807D01*
X797Y8384D01*
Y8404D01*
X807Y8414D01*
X827D01*
X837Y8404D01*
Y8394D01*
X797D01*
X897Y8414D02*
X867D01*
X857Y8404D01*
Y8384D01*
X867Y8374D01*
X897D01*
X927Y8424D02*
Y8414D01*
X917D01*
X937D01*
X927D01*
Y8384D01*
X937Y8374D01*
X967Y8414D02*
Y8374D01*
Y8394D01*
X977Y8404D01*
X987Y8414D01*
X997D01*
X1027Y8374D02*
X1047D01*
X1037D01*
Y8414D01*
X1027D01*
X1117D02*
X1087D01*
X1077Y8404D01*
Y8384D01*
X1087Y8374D01*
X1117D01*
X1197Y8424D02*
X1207Y8434D01*
X1227D01*
X1237Y8424D01*
Y8414D01*
X1227Y8404D01*
X1217D01*
X1227D01*
X1237Y8394D01*
Y8384D01*
X1227Y8374D01*
X1207D01*
X1197Y8384D01*
X577Y8314D02*
Y8254D01*
X607D01*
X617Y8264D01*
Y8274D01*
X607Y8284D01*
X577D01*
X607D01*
X617Y8294D01*
Y8304D01*
X607Y8314D01*
X577D01*
X647Y8254D02*
X667D01*
X677Y8264D01*
Y8284D01*
X667Y8294D01*
X647D01*
X637Y8284D01*
Y8264D01*
X647Y8254D01*
X707Y8304D02*
Y8294D01*
X697D01*
X717D01*
X707D01*
Y8264D01*
X717Y8254D01*
X757Y8304D02*
Y8294D01*
X747D01*
X767D01*
X757D01*
Y8264D01*
X767Y8254D01*
X807D02*
X827D01*
X837Y8264D01*
Y8284D01*
X827Y8294D01*
X807D01*
X797Y8284D01*
Y8264D01*
X807Y8254D01*
X857D02*
Y8294D01*
X867D01*
X877Y8284D01*
Y8254D01*
Y8284D01*
X887Y8294D01*
X897Y8284D01*
Y8254D01*
X977Y8314D02*
Y8254D01*
X1017D01*
X1047Y8294D02*
X1067D01*
X1077Y8284D01*
Y8254D01*
X1047D01*
X1037Y8264D01*
X1047Y8274D01*
X1077D01*
X1097Y8294D02*
Y8264D01*
X1107Y8254D01*
X1137D01*
Y8244D01*
X1127Y8234D01*
X1117D01*
X1137Y8254D02*
Y8294D01*
X1187Y8254D02*
X1167D01*
X1157Y8264D01*
Y8284D01*
X1167Y8294D01*
X1187D01*
X1197Y8284D01*
Y8274D01*
X1157D01*
X1217Y8294D02*
Y8254D01*
Y8274D01*
X1227Y8284D01*
X1237Y8294D01*
X1247D01*
X577Y8194D02*
Y8134D01*
X607D01*
X617Y8144D01*
Y8154D01*
X607Y8164D01*
X577D01*
X607D01*
X617Y8174D01*
Y8184D01*
X607Y8194D01*
X577D01*
X647Y8134D02*
X667D01*
X677Y8144D01*
Y8164D01*
X667Y8174D01*
X647D01*
X637Y8164D01*
Y8144D01*
X647Y8134D01*
X707Y8184D02*
Y8174D01*
X697D01*
X717D01*
X707D01*
Y8144D01*
X717Y8134D01*
X757Y8184D02*
Y8174D01*
X747D01*
X767D01*
X757D01*
Y8144D01*
X767Y8134D01*
X807D02*
X827D01*
X837Y8144D01*
Y8164D01*
X827Y8174D01*
X807D01*
X797Y8164D01*
Y8144D01*
X807Y8134D01*
X857D02*
Y8174D01*
X867D01*
X877Y8164D01*
Y8134D01*
Y8164D01*
X887Y8174D01*
X897Y8164D01*
Y8134D01*
X1017Y8184D02*
X1007Y8194D01*
X987D01*
X977Y8184D01*
Y8174D01*
X987Y8164D01*
X1007D01*
X1017Y8154D01*
Y8144D01*
X1007Y8134D01*
X987D01*
X977Y8144D01*
X1047Y8134D02*
X1067D01*
X1077Y8144D01*
Y8164D01*
X1067Y8174D01*
X1047D01*
X1037Y8164D01*
Y8144D01*
X1047Y8134D01*
X1097D02*
X1117D01*
X1107D01*
Y8194D01*
X1097D01*
X1187D02*
Y8134D01*
X1157D01*
X1147Y8144D01*
Y8164D01*
X1157Y8174D01*
X1187D01*
X1237Y8134D02*
X1217D01*
X1207Y8144D01*
Y8164D01*
X1217Y8174D01*
X1237D01*
X1247Y8164D01*
Y8154D01*
X1207D01*
X1267Y8174D02*
Y8134D01*
Y8154D01*
X1277Y8164D01*
X1287Y8174D01*
X1297D01*
X577Y8074D02*
Y8014D01*
X607D01*
X617Y8024D01*
Y8034D01*
X607Y8044D01*
X577D01*
X607D01*
X617Y8054D01*
Y8064D01*
X607Y8074D01*
X577D01*
X647Y8014D02*
X667D01*
X677Y8024D01*
Y8044D01*
X667Y8054D01*
X647D01*
X637Y8044D01*
Y8024D01*
X647Y8014D01*
X707Y8064D02*
Y8054D01*
X697D01*
X717D01*
X707D01*
Y8024D01*
X717Y8014D01*
X757Y8064D02*
Y8054D01*
X747D01*
X767D01*
X757D01*
Y8024D01*
X767Y8014D01*
X807D02*
X827D01*
X837Y8024D01*
Y8044D01*
X827Y8054D01*
X807D01*
X797Y8044D01*
Y8024D01*
X807Y8014D01*
X857D02*
Y8054D01*
X867D01*
X877Y8044D01*
Y8014D01*
Y8044D01*
X887Y8054D01*
X897Y8044D01*
Y8014D01*
X1007Y8074D02*
X987D01*
X977Y8064D01*
Y8024D01*
X987Y8014D01*
X1007D01*
X1017Y8024D01*
Y8064D01*
X1007Y8074D01*
X1037Y8054D02*
X1057Y8014D01*
X1077Y8054D01*
X1127Y8014D02*
X1107D01*
X1097Y8024D01*
Y8044D01*
X1107Y8054D01*
X1127D01*
X1137Y8044D01*
Y8034D01*
X1097D01*
X1157Y8054D02*
Y8014D01*
Y8034D01*
X1167Y8044D01*
X1177Y8054D01*
X1187D01*
X1217Y8014D02*
X1237D01*
X1227D01*
Y8074D01*
X1217D01*
X1277Y8054D02*
X1297D01*
X1307Y8044D01*
Y8014D01*
X1277D01*
X1267Y8024D01*
X1277Y8034D01*
X1307D01*
X1327Y8054D02*
Y8024D01*
X1337Y8014D01*
X1367D01*
Y8004D01*
X1357Y7994D01*
X1347D01*
X1367Y8014D02*
Y8054D01*
X577Y9334D02*
Y9394D01*
X617Y9334D01*
Y9394D01*
X647Y9374D02*
X667D01*
X677Y9364D01*
Y9334D01*
X647D01*
X637Y9344D01*
X647Y9354D01*
X677D01*
X697Y9334D02*
Y9374D01*
X707D01*
X717Y9364D01*
Y9334D01*
Y9364D01*
X727Y9374D01*
X737Y9364D01*
Y9334D01*
X787D02*
X767D01*
X757Y9344D01*
Y9364D01*
X767Y9374D01*
X787D01*
X797Y9364D01*
Y9354D01*
X757D01*
X168Y9214D02*
X187D01*
X177D01*
Y9274D01*
X168Y9264D01*
X207Y9094D02*
X168D01*
X207Y9134D01*
Y9144D01*
X197Y9154D01*
X177D01*
X168Y9144D01*
Y9024D02*
X177Y9034D01*
X197D01*
X207Y9024D01*
Y9014D01*
X197Y9004D01*
X187D01*
X197D01*
X207Y8994D01*
Y8984D01*
X197Y8974D01*
X177D01*
X168Y8984D01*
X197Y8854D02*
Y8914D01*
X168Y8884D01*
X207D01*
Y8794D02*
X168D01*
Y8764D01*
X187Y8774D01*
X197D01*
X207Y8764D01*
Y8744D01*
X197Y8734D01*
X177D01*
X168Y8744D01*
X207Y8674D02*
X187Y8664D01*
X168Y8644D01*
Y8624D01*
X177Y8614D01*
X197D01*
X207Y8624D01*
Y8634D01*
X197Y8644D01*
X168D01*
Y8554D02*
X207D01*
Y8544D01*
X168Y8504D01*
Y8494D01*
Y8424D02*
X177Y8434D01*
X197D01*
X207Y8424D01*
Y8414D01*
X197Y8404D01*
X207Y8394D01*
Y8384D01*
X197Y8374D01*
X177D01*
X168Y8384D01*
Y8394D01*
X177Y8404D01*
X168Y8414D01*
Y8424D01*
X177Y8404D02*
X197D01*
X168Y8264D02*
X177Y8254D01*
X197D01*
X207Y8264D01*
Y8304D01*
X197Y8314D01*
X177D01*
X168Y8304D01*
Y8294D01*
X177Y8284D01*
X207D01*
X168Y8134D02*
X187D01*
X177D01*
Y8194D01*
X168Y8184D01*
X217D02*
X227Y8194D01*
X247D01*
X257Y8184D01*
Y8144D01*
X247Y8134D01*
X227D01*
X217Y8144D01*
Y8184D01*
X168Y8014D02*
X187D01*
X177D01*
Y8074D01*
X168Y8064D01*
X217Y8014D02*
X237D01*
X227D01*
Y8074D01*
X217Y8064D01*
X168Y9394D02*
Y9334D01*
X207D01*
X237Y9374D02*
X257D01*
X267Y9364D01*
Y9334D01*
X237D01*
X227Y9344D01*
X237Y9354D01*
X267D01*
X287Y9374D02*
Y9344D01*
X297Y9334D01*
X327D01*
Y9324D01*
X317Y9314D01*
X307D01*
X327Y9334D02*
Y9374D01*
X377Y9334D02*
X357D01*
X347Y9344D01*
Y9364D01*
X357Y9374D01*
X377D01*
X387Y9364D01*
Y9354D01*
X347D01*
X407Y9374D02*
Y9334D01*
Y9354D01*
X417Y9364D01*
X427Y9374D01*
X437D01*
D34*
X108Y4258D02*
X5766D01*
Y7954D01*
X108D02*
X5766D01*
X108Y4258D02*
Y7954D01*
X5766Y7984D02*
Y9424D01*
X4646Y9184D02*
X5766D01*
X4646Y9064D02*
X5766D01*
X4646Y8944D02*
X5766D01*
X4646Y8824D02*
X5766D01*
X4646Y8704D02*
X5766D01*
X4646Y8584D02*
X5766D01*
X4646Y8464D02*
X5766D01*
X4646Y8344D02*
X5766D01*
X4646Y8224D02*
X5766D01*
X4646Y8104D02*
X5766D01*
X4646Y7984D02*
X5766D01*
X4646D02*
Y9424D01*
X3527Y9184D02*
X4646D01*
X3527Y9064D02*
X4646D01*
X3527Y8944D02*
X4646D01*
X3527Y8824D02*
X4646D01*
X3527Y8704D02*
X4646D01*
X3527Y8584D02*
X4646D01*
X3527Y8464D02*
X4646D01*
X3527Y8344D02*
X4646D01*
X3527Y8224D02*
X4646D01*
X3527Y8104D02*
X4646D01*
X3527Y7984D02*
X4646D01*
X3527D02*
Y9424D01*
X2957Y9184D02*
X3527D01*
X2957Y9064D02*
X3527D01*
X2957Y8944D02*
X3527D01*
X2957Y8824D02*
X3527D01*
X2957Y8704D02*
X3527D01*
X2957Y8584D02*
X3527D01*
X2957Y8464D02*
X3527D01*
X2957Y8344D02*
X3527D01*
X2957Y8224D02*
X3527D01*
X2957Y8104D02*
X3527D01*
X2957Y7984D02*
X3527D01*
X2957D02*
Y9424D01*
X2307Y9184D02*
X2957D01*
X2307Y9064D02*
X2957D01*
X2307Y8944D02*
X2957D01*
X2307Y8824D02*
X2957D01*
X2307Y8704D02*
X2957D01*
X2307Y8584D02*
X2957D01*
X2307Y8464D02*
X2957D01*
X2307Y8344D02*
X2957D01*
X2307Y8224D02*
X2957D01*
X2307Y8104D02*
X2957D01*
X2307Y7984D02*
X2957D01*
X2307D02*
Y9424D01*
X1447Y9184D02*
X2307D01*
X1447Y9064D02*
X2307D01*
X1447Y8944D02*
X2307D01*
X1447Y8824D02*
X2307D01*
X1447Y8704D02*
X2307D01*
X1447Y8584D02*
X2307D01*
X1447Y8464D02*
X2307D01*
X1447Y8344D02*
X2307D01*
X1447Y8224D02*
X2307D01*
X1447Y8104D02*
X2307D01*
X1447Y7984D02*
X2307D01*
X1447D02*
Y9424D01*
X517Y9184D02*
X1447D01*
X517Y9064D02*
X1447D01*
X517Y8944D02*
X1447D01*
X517Y8824D02*
X1447D01*
X517Y8704D02*
X1447D01*
X517Y8584D02*
X1447D01*
X517Y8464D02*
X1447D01*
X517Y8344D02*
X1447D01*
X517Y8224D02*
X1447D01*
X517Y8104D02*
X1447D01*
X517Y7984D02*
X1447D01*
X517D02*
Y9424D01*
X108Y9184D02*
X517D01*
X108Y9064D02*
X517D01*
X108Y8944D02*
X517D01*
X108Y8824D02*
X517D01*
X108Y8704D02*
X517D01*
X108Y8584D02*
X517D01*
X108Y8464D02*
X517D01*
X108Y8344D02*
X517D01*
X108Y8224D02*
X517D01*
X108Y8104D02*
X517D01*
X108Y7984D02*
X517D01*
X108D02*
Y9424D01*
X5766D01*
X108Y9304D02*
X5766D01*
D118*
X5710Y7955D02*
X5766Y7899D01*
X5650Y7955D02*
X5766Y7839D01*
X5590Y7955D02*
X5766Y7779D01*
X5530Y7955D02*
X5766Y7719D01*
X5470Y7955D02*
X5766Y7659D01*
X5410Y7955D02*
X5766Y7599D01*
X5350Y7955D02*
X5766Y7539D01*
X5290Y7955D02*
X5766Y7479D01*
X5230Y7955D02*
X5766Y7419D01*
X5170Y7955D02*
X5766Y7359D01*
X5110Y7955D02*
X5766Y7299D01*
X5050Y7955D02*
X5766Y7239D01*
X4990Y7955D02*
X5766Y7179D01*
X4930Y7955D02*
X5766Y7119D01*
X4870Y7955D02*
X5766Y7059D01*
X4810Y7955D02*
X5766Y6999D01*
X4750Y7955D02*
X5766Y6939D01*
X4690Y7955D02*
X5766Y6879D01*
X4630Y7955D02*
X5766Y6819D01*
X4570Y7955D02*
X5766Y6759D01*
X4510Y7955D02*
X5766Y6699D01*
X4450Y7955D02*
X5766Y6639D01*
X4390Y7955D02*
X5766Y6579D01*
X4330Y7955D02*
X5766Y6519D01*
X4270Y7955D02*
X5766Y6459D01*
X4210Y7955D02*
X5766Y6399D01*
X4150Y7955D02*
X5766Y6339D01*
X4090Y7955D02*
X5766Y6279D01*
X4030Y7955D02*
X5766Y6219D01*
X3970Y7955D02*
X5766Y6159D01*
X3910Y7955D02*
X5766Y6099D01*
X3850Y7955D02*
X5766Y6039D01*
X3790Y7955D02*
X5766Y5979D01*
X3730Y7955D02*
X5766Y5919D01*
X3670Y7955D02*
X5766Y5859D01*
X3610Y7955D02*
X5766Y5799D01*
X3550Y7955D02*
X5766Y5739D01*
X3490Y7955D02*
X5766Y5679D01*
X3430Y7955D02*
X5766Y5619D01*
X3370Y7955D02*
X5766Y5559D01*
X3310Y7955D02*
X5766Y5499D01*
X3250Y7955D02*
X5766Y5439D01*
X3190Y7955D02*
X5766Y5379D01*
X3130Y7955D02*
X5766Y5319D01*
X3070Y7955D02*
X5766Y5259D01*
X3010Y7955D02*
X5766Y5199D01*
X2950Y7955D02*
X5766Y5139D01*
X2890Y7955D02*
X5766Y5079D01*
X2830Y7955D02*
X5766Y5019D01*
X2770Y7955D02*
X5766Y4959D01*
X2710Y7955D02*
X5766Y4899D01*
X2650Y7955D02*
X5766Y4839D01*
X2590Y7955D02*
X5766Y4779D01*
X2530Y7955D02*
X5766Y4719D01*
X2470Y7955D02*
X5766Y4659D01*
X2410Y7955D02*
X5766Y4599D01*
X2350Y7955D02*
X5766Y4539D01*
X2290Y7955D02*
X5766Y4479D01*
X2230Y7955D02*
X5766Y4419D01*
X2170Y7955D02*
X5766Y4359D01*
X2110Y7955D02*
X5766Y4299D01*
X2050Y7955D02*
X5748Y4257D01*
X1990Y7955D02*
X5688Y4257D01*
X1930Y7955D02*
X5628Y4257D01*
X1870Y7955D02*
X5568Y4257D01*
X1810Y7955D02*
X5508Y4257D01*
X1750Y7955D02*
X5448Y4257D01*
X1690Y7955D02*
X5388Y4257D01*
X1630Y7955D02*
X5328Y4257D01*
X1570Y7955D02*
X5268Y4257D01*
X1510Y7955D02*
X5208Y4257D01*
X1450Y7955D02*
X5148Y4257D01*
X1390Y7955D02*
X5088Y4257D01*
X1330Y7955D02*
X5028Y4257D01*
X1270Y7955D02*
X4968Y4257D01*
X1210Y7955D02*
X4908Y4257D01*
X1150Y7955D02*
X4848Y4257D01*
X1090Y7955D02*
X4788Y4257D01*
X1030Y7955D02*
X4728Y4257D01*
X970Y7955D02*
X4668Y4257D01*
X910Y7955D02*
X4608Y4257D01*
X850Y7955D02*
X4548Y4257D01*
X790Y7955D02*
X4488Y4257D01*
X730Y7955D02*
X4428Y4257D01*
X670Y7955D02*
X4368Y4257D01*
X610Y7955D02*
X4308Y4257D01*
X550Y7955D02*
X4248Y4257D01*
X490Y7955D02*
X4188Y4257D01*
X430Y7955D02*
X4128Y4257D01*
X370Y7955D02*
X4068Y4257D01*
X310Y7955D02*
X4008Y4257D01*
X250Y7955D02*
X3948Y4257D01*
X190Y7955D02*
X3888Y4257D01*
X130Y7955D02*
X3828Y4257D01*
X108Y7918D02*
X3768Y4257D01*
X108Y7858D02*
X3708Y4257D01*
X108Y7798D02*
X3648Y4257D01*
X108Y7738D02*
X3588Y4257D01*
X108Y7677D02*
X3528Y4257D01*
X108Y7617D02*
X3468Y4257D01*
X108Y7557D02*
X3408Y4257D01*
X108Y7497D02*
X3348Y4257D01*
X108Y7438D02*
X3288Y4257D01*
X108Y7378D02*
X3228Y4257D01*
X108Y7318D02*
X3168Y4257D01*
X108Y7258D02*
X3108Y4257D01*
X108Y7198D02*
X3048Y4257D01*
X108Y7137D02*
X2988Y4257D01*
X108Y7077D02*
X2928Y4257D01*
X108Y7017D02*
X2868Y4257D01*
X108Y6957D02*
X2808Y4257D01*
X108Y6898D02*
X2748Y4257D01*
X108Y6838D02*
X2688Y4257D01*
X108Y6778D02*
X2628Y4257D01*
X108Y6718D02*
X2568Y4257D01*
X108Y6657D02*
X2508Y4257D01*
X108Y6597D02*
X2448Y4257D01*
X108Y6537D02*
X2388Y4257D01*
X108Y6477D02*
X2328Y4257D01*
X108Y6418D02*
X2268Y4257D01*
X108Y6358D02*
X2208Y4257D01*
X108Y6298D02*
X2148Y4257D01*
X108Y6238D02*
X2088Y4257D01*
X108Y6177D02*
X2028Y4257D01*
X108Y6117D02*
X1968Y4257D01*
X108Y6057D02*
X1908Y4257D01*
X108Y5997D02*
X1848Y4257D01*
X108Y5938D02*
X1788Y4257D01*
X108Y5878D02*
X1728Y4257D01*
X108Y5818D02*
X1668Y4257D01*
X108Y5758D02*
X1608Y4257D01*
X108Y5698D02*
X1548Y4257D01*
X108Y5637D02*
X1488Y4257D01*
X108Y5577D02*
X1428Y4257D01*
X108Y5517D02*
X1368Y4257D01*
X108Y5457D02*
X1308Y4257D01*
X108Y5398D02*
X1248Y4257D01*
X108Y5338D02*
X1188Y4257D01*
X108Y5278D02*
X1128Y4257D01*
X108Y5218D02*
X1068Y4257D01*
X108Y5157D02*
X1008Y4257D01*
X108Y5097D02*
X948Y4257D01*
X108Y5037D02*
X888Y4257D01*
X108Y4977D02*
X828Y4257D01*
X108Y4918D02*
X768Y4257D01*
X108Y4858D02*
X708Y4257D01*
X108Y4798D02*
X648Y4257D01*
X108Y4738D02*
X588Y4257D01*
X108Y4677D02*
X528Y4257D01*
X108Y4617D02*
X468Y4257D01*
X108Y4557D02*
X408Y4257D01*
X108Y4497D02*
X348Y4257D01*
X108Y4438D02*
X288Y4257D01*
X108Y4378D02*
X228Y4257D01*
X108Y4318D02*
X168Y4257D01*
X5726Y9304D02*
X5766Y9265D01*
X5666Y9304D02*
X5766Y9205D01*
X5606Y9304D02*
X5726Y9184D01*
X5546Y9304D02*
X5666Y9184D01*
X5486Y9304D02*
X5606Y9184D01*
X5426Y9304D02*
X5546Y9184D01*
X5366Y9304D02*
X5486Y9184D01*
X5306Y9304D02*
X5426Y9184D01*
X5246Y9304D02*
X5366Y9184D01*
X5186Y9304D02*
X5306Y9184D01*
X5126Y9304D02*
X5246Y9184D01*
X5066Y9304D02*
X5186Y9184D01*
X5006Y9304D02*
X5126Y9184D01*
X4946Y9304D02*
X5066Y9184D01*
X4886Y9304D02*
X5006Y9184D01*
X4826Y9304D02*
X4946Y9184D01*
X4766Y9304D02*
X4886Y9184D01*
X4706Y9304D02*
X4826Y9184D01*
X4646Y9304D02*
X4766Y9184D01*
X4646Y9244D02*
X4706Y9184D01*
X5726D02*
X5766Y9145D01*
X5666Y9184D02*
X5766Y9085D01*
X5606Y9184D02*
X5726Y9064D01*
X5546Y9184D02*
X5666Y9064D01*
X5486Y9184D02*
X5606Y9064D01*
X5426Y9184D02*
X5546Y9064D01*
X5366Y9184D02*
X5486Y9064D01*
X5306Y9184D02*
X5426Y9064D01*
X5246Y9184D02*
X5366Y9064D01*
X5186Y9184D02*
X5306Y9064D01*
X5126Y9184D02*
X5246Y9064D01*
X5066Y9184D02*
X5186Y9064D01*
X5006Y9184D02*
X5126Y9064D01*
X4946Y9184D02*
X5066Y9064D01*
X4886Y9184D02*
X5006Y9064D01*
X4826Y9184D02*
X4946Y9064D01*
X4766Y9184D02*
X4886Y9064D01*
X4706Y9184D02*
X4826Y9064D01*
X4646Y9184D02*
X4766Y9064D01*
X4646Y9124D02*
X4706Y9064D01*
X5726D02*
X5766Y9025D01*
X5666Y9064D02*
X5766Y8965D01*
X5606Y9064D02*
X5726Y8944D01*
X5546Y9064D02*
X5666Y8944D01*
X5486Y9064D02*
X5606Y8944D01*
X5426Y9064D02*
X5546Y8944D01*
X5366Y9064D02*
X5486Y8944D01*
X5306Y9064D02*
X5426Y8944D01*
X5246Y9064D02*
X5366Y8944D01*
X5186Y9064D02*
X5306Y8944D01*
X5126Y9064D02*
X5246Y8944D01*
X5066Y9064D02*
X5186Y8944D01*
X5006Y9064D02*
X5126Y8944D01*
X4946Y9064D02*
X5066Y8944D01*
X4886Y9064D02*
X5006Y8944D01*
X4826Y9064D02*
X4946Y8944D01*
X4766Y9064D02*
X4886Y8944D01*
X4706Y9064D02*
X4826Y8944D01*
X4646Y9064D02*
X4766Y8944D01*
X4646Y9004D02*
X4706Y8944D01*
X5726D02*
X5766Y8905D01*
X5666Y8944D02*
X5766Y8845D01*
X5606Y8944D02*
X5726Y8824D01*
X5546Y8944D02*
X5666Y8824D01*
X5486Y8944D02*
X5606Y8824D01*
X5426Y8944D02*
X5546Y8824D01*
X5366Y8944D02*
X5486Y8824D01*
X5306Y8944D02*
X5426Y8824D01*
X5246Y8944D02*
X5366Y8824D01*
X5186Y8944D02*
X5306Y8824D01*
X5126Y8944D02*
X5246Y8824D01*
X5066Y8944D02*
X5186Y8824D01*
X5006Y8944D02*
X5126Y8824D01*
X4946Y8944D02*
X5066Y8824D01*
X4886Y8944D02*
X5006Y8824D01*
X4826Y8944D02*
X4946Y8824D01*
X4766Y8944D02*
X4886Y8824D01*
X4706Y8944D02*
X4826Y8824D01*
X4646Y8944D02*
X4766Y8824D01*
X4646Y8884D02*
X4706Y8824D01*
X5726D02*
X5766Y8785D01*
X5666Y8824D02*
X5766Y8725D01*
X5606Y8824D02*
X5726Y8704D01*
X5546Y8824D02*
X5666Y8704D01*
X5486Y8824D02*
X5606Y8704D01*
X5426Y8824D02*
X5546Y8704D01*
X5366Y8824D02*
X5486Y8704D01*
X5306Y8824D02*
X5426Y8704D01*
X5246Y8824D02*
X5366Y8704D01*
X5186Y8824D02*
X5306Y8704D01*
X5126Y8824D02*
X5246Y8704D01*
X5066Y8824D02*
X5186Y8704D01*
X5006Y8824D02*
X5126Y8704D01*
X4946Y8824D02*
X5066Y8704D01*
X4886Y8824D02*
X5006Y8704D01*
X4826Y8824D02*
X4946Y8704D01*
X4766Y8824D02*
X4886Y8704D01*
X4706Y8824D02*
X4826Y8704D01*
X4646Y8824D02*
X4766Y8704D01*
X4646Y8764D02*
X4706Y8704D01*
X5726D02*
X5766Y8665D01*
X5666Y8704D02*
X5766Y8605D01*
X5606Y8704D02*
X5726Y8584D01*
X5546Y8704D02*
X5666Y8584D01*
X5486Y8704D02*
X5606Y8584D01*
X5426Y8704D02*
X5546Y8584D01*
X5366Y8704D02*
X5486Y8584D01*
X5306Y8704D02*
X5426Y8584D01*
X5246Y8704D02*
X5366Y8584D01*
X5186Y8704D02*
X5306Y8584D01*
X5126Y8704D02*
X5246Y8584D01*
X5066Y8704D02*
X5186Y8584D01*
X5006Y8704D02*
X5126Y8584D01*
X4946Y8704D02*
X5066Y8584D01*
X4886Y8704D02*
X5006Y8584D01*
X4826Y8704D02*
X4946Y8584D01*
X4766Y8704D02*
X4886Y8584D01*
X4706Y8704D02*
X4826Y8584D01*
X4646Y8704D02*
X4766Y8584D01*
X4646Y8644D02*
X4706Y8584D01*
X5726D02*
X5766Y8545D01*
X5666Y8584D02*
X5766Y8485D01*
X5606Y8584D02*
X5726Y8464D01*
X5546Y8584D02*
X5666Y8464D01*
X5486Y8584D02*
X5606Y8464D01*
X5426Y8584D02*
X5546Y8464D01*
X5366Y8584D02*
X5486Y8464D01*
X5306Y8584D02*
X5426Y8464D01*
X5246Y8584D02*
X5366Y8464D01*
X5186Y8584D02*
X5306Y8464D01*
X5126Y8584D02*
X5246Y8464D01*
X5066Y8584D02*
X5186Y8464D01*
X5006Y8584D02*
X5126Y8464D01*
X4946Y8584D02*
X5066Y8464D01*
X4886Y8584D02*
X5006Y8464D01*
X4826Y8584D02*
X4946Y8464D01*
X4766Y8584D02*
X4886Y8464D01*
X4706Y8584D02*
X4826Y8464D01*
X4646Y8584D02*
X4766Y8464D01*
X4646Y8524D02*
X4706Y8464D01*
X5726D02*
X5766Y8425D01*
X5666Y8464D02*
X5766Y8365D01*
X5606Y8464D02*
X5726Y8344D01*
X5546Y8464D02*
X5666Y8344D01*
X5486Y8464D02*
X5606Y8344D01*
X5426Y8464D02*
X5546Y8344D01*
X5366Y8464D02*
X5486Y8344D01*
X5306Y8464D02*
X5426Y8344D01*
X5246Y8464D02*
X5366Y8344D01*
X5186Y8464D02*
X5306Y8344D01*
X5126Y8464D02*
X5246Y8344D01*
X5066Y8464D02*
X5186Y8344D01*
X5006Y8464D02*
X5126Y8344D01*
X4946Y8464D02*
X5066Y8344D01*
X4886Y8464D02*
X5006Y8344D01*
X4826Y8464D02*
X4946Y8344D01*
X4766Y8464D02*
X4886Y8344D01*
X4706Y8464D02*
X4826Y8344D01*
X4646Y8464D02*
X4766Y8344D01*
X4646Y8404D02*
X4706Y8344D01*
X5726D02*
X5766Y8305D01*
X5666Y8344D02*
X5766Y8245D01*
X5606Y8344D02*
X5726Y8224D01*
X5546Y8344D02*
X5666Y8224D01*
X5486Y8344D02*
X5606Y8224D01*
X5426Y8344D02*
X5546Y8224D01*
X5366Y8344D02*
X5486Y8224D01*
X5306Y8344D02*
X5426Y8224D01*
X5246Y8344D02*
X5366Y8224D01*
X5186Y8344D02*
X5306Y8224D01*
X5126Y8344D02*
X5246Y8224D01*
X5066Y8344D02*
X5186Y8224D01*
X5006Y8344D02*
X5126Y8224D01*
X4946Y8344D02*
X5066Y8224D01*
X4886Y8344D02*
X5006Y8224D01*
X4826Y8344D02*
X4946Y8224D01*
X4766Y8344D02*
X4886Y8224D01*
X4706Y8344D02*
X4826Y8224D01*
X4646Y8344D02*
X4766Y8224D01*
X4646Y8284D02*
X4706Y8224D01*
X5726D02*
X5766Y8185D01*
X5666Y8224D02*
X5766Y8125D01*
X5606Y8224D02*
X5726Y8104D01*
X5546Y8224D02*
X5666Y8104D01*
X5486Y8224D02*
X5606Y8104D01*
X5426Y8224D02*
X5546Y8104D01*
X5366Y8224D02*
X5486Y8104D01*
X5306Y8224D02*
X5426Y8104D01*
X5246Y8224D02*
X5366Y8104D01*
X5186Y8224D02*
X5306Y8104D01*
X5126Y8224D02*
X5246Y8104D01*
X5066Y8224D02*
X5186Y8104D01*
X5006Y8224D02*
X5126Y8104D01*
X4946Y8224D02*
X5066Y8104D01*
X4886Y8224D02*
X5006Y8104D01*
X4826Y8224D02*
X4946Y8104D01*
X4766Y8224D02*
X4886Y8104D01*
X4706Y8224D02*
X4826Y8104D01*
X4646Y8224D02*
X4766Y8104D01*
X4646Y8164D02*
X4706Y8104D01*
X5726D02*
X5766Y8065D01*
X5666Y8104D02*
X5766Y8005D01*
X5606Y8104D02*
X5726Y7984D01*
X5546Y8104D02*
X5666Y7984D01*
X5486Y8104D02*
X5606Y7984D01*
X5426Y8104D02*
X5546Y7984D01*
X5366Y8104D02*
X5486Y7984D01*
X5306Y8104D02*
X5426Y7984D01*
X5246Y8104D02*
X5366Y7984D01*
X5186Y8104D02*
X5306Y7984D01*
X5126Y8104D02*
X5246Y7984D01*
X5066Y8104D02*
X5186Y7984D01*
X5006Y8104D02*
X5126Y7984D01*
X4946Y8104D02*
X5066Y7984D01*
X4886Y8104D02*
X5006Y7984D01*
X4826Y8104D02*
X4946Y7984D01*
X4766Y8104D02*
X4886Y7984D01*
X4706Y8104D02*
X4826Y7984D01*
X4646Y8104D02*
X4766Y7984D01*
X4646Y8044D02*
X4706Y7984D01*
X3527Y9265D02*
X3566Y9304D01*
X3527Y9205D02*
X3626Y9304D01*
X3566Y9184D02*
X3686Y9304D01*
X3626Y9184D02*
X3746Y9304D01*
X3686Y9184D02*
X3806Y9304D01*
X3746Y9184D02*
X3866Y9304D01*
X3806Y9184D02*
X3926Y9304D01*
X3866Y9184D02*
X3986Y9304D01*
X3926Y9184D02*
X4046Y9304D01*
X3986Y9184D02*
X4106Y9304D01*
X4046Y9184D02*
X4166Y9304D01*
X4106Y9184D02*
X4226Y9304D01*
X4166Y9184D02*
X4286Y9304D01*
X4226Y9184D02*
X4346Y9304D01*
X4286Y9184D02*
X4406Y9304D01*
X4346Y9184D02*
X4466Y9304D01*
X4406Y9184D02*
X4526Y9304D01*
X4466Y9184D02*
X4586Y9304D01*
X4526Y9184D02*
X4646Y9304D01*
X4586Y9184D02*
X4646Y9244D01*
X3527Y9145D02*
X3566Y9184D01*
X3527Y9085D02*
X3626Y9184D01*
X3566Y9064D02*
X3686Y9184D01*
X3626Y9064D02*
X3746Y9184D01*
X3686Y9064D02*
X3806Y9184D01*
X3746Y9064D02*
X3866Y9184D01*
X3806Y9064D02*
X3926Y9184D01*
X3866Y9064D02*
X3986Y9184D01*
X3926Y9064D02*
X4046Y9184D01*
X3986Y9064D02*
X4106Y9184D01*
X4046Y9064D02*
X4166Y9184D01*
X4106Y9064D02*
X4226Y9184D01*
X4166Y9064D02*
X4286Y9184D01*
X4226Y9064D02*
X4346Y9184D01*
X4286Y9064D02*
X4406Y9184D01*
X4346Y9064D02*
X4466Y9184D01*
X4406Y9064D02*
X4526Y9184D01*
X4466Y9064D02*
X4586Y9184D01*
X4526Y9064D02*
X4646Y9184D01*
X4586Y9064D02*
X4646Y9124D01*
X3527Y9025D02*
X3566Y9064D01*
X3527Y8965D02*
X3626Y9064D01*
X3566Y8944D02*
X3686Y9064D01*
X3626Y8944D02*
X3746Y9064D01*
X3686Y8944D02*
X3806Y9064D01*
X3746Y8944D02*
X3866Y9064D01*
X3806Y8944D02*
X3926Y9064D01*
X3866Y8944D02*
X3986Y9064D01*
X3926Y8944D02*
X4046Y9064D01*
X3986Y8944D02*
X4106Y9064D01*
X4046Y8944D02*
X4166Y9064D01*
X4106Y8944D02*
X4226Y9064D01*
X4166Y8944D02*
X4286Y9064D01*
X4226Y8944D02*
X4346Y9064D01*
X4286Y8944D02*
X4406Y9064D01*
X4346Y8944D02*
X4466Y9064D01*
X4406Y8944D02*
X4526Y9064D01*
X4466Y8944D02*
X4586Y9064D01*
X4526Y8944D02*
X4646Y9064D01*
X4586Y8944D02*
X4646Y9004D01*
X3527Y8905D02*
X3566Y8944D01*
X3527Y8845D02*
X3626Y8944D01*
X3566Y8824D02*
X3686Y8944D01*
X3626Y8824D02*
X3746Y8944D01*
X3686Y8824D02*
X3806Y8944D01*
X3746Y8824D02*
X3866Y8944D01*
X3806Y8824D02*
X3926Y8944D01*
X3866Y8824D02*
X3986Y8944D01*
X3926Y8824D02*
X4046Y8944D01*
X3986Y8824D02*
X4106Y8944D01*
X4046Y8824D02*
X4166Y8944D01*
X4106Y8824D02*
X4226Y8944D01*
X4166Y8824D02*
X4286Y8944D01*
X4226Y8824D02*
X4346Y8944D01*
X4286Y8824D02*
X4406Y8944D01*
X4346Y8824D02*
X4466Y8944D01*
X4406Y8824D02*
X4526Y8944D01*
X4466Y8824D02*
X4586Y8944D01*
X4526Y8824D02*
X4646Y8944D01*
X4586Y8824D02*
X4646Y8884D01*
X3527Y8785D02*
X3566Y8824D01*
X3527Y8725D02*
X3626Y8824D01*
X3566Y8704D02*
X3686Y8824D01*
X3626Y8704D02*
X3746Y8824D01*
X3686Y8704D02*
X3806Y8824D01*
X3746Y8704D02*
X3866Y8824D01*
X3806Y8704D02*
X3926Y8824D01*
X3866Y8704D02*
X3986Y8824D01*
X3926Y8704D02*
X4046Y8824D01*
X3986Y8704D02*
X4106Y8824D01*
X4046Y8704D02*
X4166Y8824D01*
X4106Y8704D02*
X4226Y8824D01*
X4166Y8704D02*
X4286Y8824D01*
X4226Y8704D02*
X4346Y8824D01*
X4286Y8704D02*
X4406Y8824D01*
X4346Y8704D02*
X4466Y8824D01*
X4406Y8704D02*
X4526Y8824D01*
X4466Y8704D02*
X4586Y8824D01*
X4526Y8704D02*
X4646Y8824D01*
X4586Y8704D02*
X4646Y8764D01*
X3527Y8665D02*
X3566Y8704D01*
X3527Y8605D02*
X3626Y8704D01*
X3566Y8584D02*
X3686Y8704D01*
X3626Y8584D02*
X3746Y8704D01*
X3686Y8584D02*
X3806Y8704D01*
X3746Y8584D02*
X3866Y8704D01*
X3806Y8584D02*
X3926Y8704D01*
X3866Y8584D02*
X3986Y8704D01*
X3926Y8584D02*
X4046Y8704D01*
X3986Y8584D02*
X4106Y8704D01*
X4046Y8584D02*
X4166Y8704D01*
X4106Y8584D02*
X4226Y8704D01*
X4166Y8584D02*
X4286Y8704D01*
X4226Y8584D02*
X4346Y8704D01*
X4286Y8584D02*
X4406Y8704D01*
X4346Y8584D02*
X4466Y8704D01*
X4406Y8584D02*
X4526Y8704D01*
X4466Y8584D02*
X4586Y8704D01*
X4526Y8584D02*
X4646Y8704D01*
X4586Y8584D02*
X4646Y8644D01*
X3527Y8545D02*
X3566Y8584D01*
X3527Y8485D02*
X3626Y8584D01*
X3566Y8464D02*
X3686Y8584D01*
X3626Y8464D02*
X3746Y8584D01*
X3686Y8464D02*
X3806Y8584D01*
X3746Y8464D02*
X3866Y8584D01*
X3806Y8464D02*
X3926Y8584D01*
X3866Y8464D02*
X3986Y8584D01*
X3926Y8464D02*
X4046Y8584D01*
X3986Y8464D02*
X4106Y8584D01*
X4046Y8464D02*
X4166Y8584D01*
X4106Y8464D02*
X4226Y8584D01*
X4166Y8464D02*
X4286Y8584D01*
X4226Y8464D02*
X4346Y8584D01*
X4286Y8464D02*
X4406Y8584D01*
X4346Y8464D02*
X4466Y8584D01*
X4406Y8464D02*
X4526Y8584D01*
X4466Y8464D02*
X4586Y8584D01*
X4526Y8464D02*
X4646Y8584D01*
X4586Y8464D02*
X4646Y8524D01*
X3527Y8425D02*
X3566Y8464D01*
X3527Y8365D02*
X3626Y8464D01*
X3566Y8344D02*
X3686Y8464D01*
X3626Y8344D02*
X3746Y8464D01*
X3686Y8344D02*
X3806Y8464D01*
X3746Y8344D02*
X3866Y8464D01*
X3806Y8344D02*
X3926Y8464D01*
X3866Y8344D02*
X3986Y8464D01*
X3926Y8344D02*
X4046Y8464D01*
X3986Y8344D02*
X4106Y8464D01*
X4046Y8344D02*
X4166Y8464D01*
X4106Y8344D02*
X4226Y8464D01*
X4166Y8344D02*
X4286Y8464D01*
X4226Y8344D02*
X4346Y8464D01*
X4286Y8344D02*
X4406Y8464D01*
X4346Y8344D02*
X4466Y8464D01*
X4406Y8344D02*
X4526Y8464D01*
X4466Y8344D02*
X4586Y8464D01*
X4526Y8344D02*
X4646Y8464D01*
X4586Y8344D02*
X4646Y8404D01*
X3527Y8305D02*
X3566Y8344D01*
X3527Y8245D02*
X3626Y8344D01*
X3566Y8224D02*
X3686Y8344D01*
X3626Y8224D02*
X3746Y8344D01*
X3686Y8224D02*
X3806Y8344D01*
X3746Y8224D02*
X3866Y8344D01*
X3806Y8224D02*
X3926Y8344D01*
X3866Y8224D02*
X3986Y8344D01*
X3926Y8224D02*
X4046Y8344D01*
X3986Y8224D02*
X4106Y8344D01*
X4046Y8224D02*
X4166Y8344D01*
X4106Y8224D02*
X4226Y8344D01*
X4166Y8224D02*
X4286Y8344D01*
X4226Y8224D02*
X4346Y8344D01*
X4286Y8224D02*
X4406Y8344D01*
X4346Y8224D02*
X4466Y8344D01*
X4406Y8224D02*
X4526Y8344D01*
X4466Y8224D02*
X4586Y8344D01*
X4526Y8224D02*
X4646Y8344D01*
X4586Y8224D02*
X4646Y8284D01*
X3527Y8185D02*
X3566Y8224D01*
X3527Y8125D02*
X3626Y8224D01*
X3566Y8104D02*
X3686Y8224D01*
X3626Y8104D02*
X3746Y8224D01*
X3686Y8104D02*
X3806Y8224D01*
X3746Y8104D02*
X3866Y8224D01*
X3806Y8104D02*
X3926Y8224D01*
X3866Y8104D02*
X3986Y8224D01*
X3926Y8104D02*
X4046Y8224D01*
X3986Y8104D02*
X4106Y8224D01*
X4046Y8104D02*
X4166Y8224D01*
X4106Y8104D02*
X4226Y8224D01*
X4166Y8104D02*
X4286Y8224D01*
X4226Y8104D02*
X4346Y8224D01*
X4286Y8104D02*
X4406Y8224D01*
X4346Y8104D02*
X4466Y8224D01*
X4406Y8104D02*
X4526Y8224D01*
X4466Y8104D02*
X4586Y8224D01*
X4526Y8104D02*
X4646Y8224D01*
X4586Y8104D02*
X4646Y8164D01*
X3527Y8065D02*
X3566Y8104D01*
X3527Y8005D02*
X3626Y8104D01*
X3566Y7984D02*
X3686Y8104D01*
X3626Y7984D02*
X3746Y8104D01*
X3686Y7984D02*
X3806Y8104D01*
X3746Y7984D02*
X3866Y8104D01*
X3806Y7984D02*
X3926Y8104D01*
X3866Y7984D02*
X3986Y8104D01*
X3926Y7984D02*
X4046Y8104D01*
X3986Y7984D02*
X4106Y8104D01*
X4046Y7984D02*
X4166Y8104D01*
X4106Y7984D02*
X4226Y8104D01*
X4166Y7984D02*
X4286Y8104D01*
X4226Y7984D02*
X4346Y8104D01*
X4286Y7984D02*
X4406Y8104D01*
X4346Y7984D02*
X4466Y8104D01*
X4406Y7984D02*
X4526Y8104D01*
X4466Y7984D02*
X4586Y8104D01*
X4526Y7984D02*
X4646Y8104D01*
X4586Y7984D02*
X4646Y8044D01*
D119*
X0Y0D02*
X6000D01*
Y3920D01*
X0D02*
X6000D01*
X0Y0D02*
Y3920D01*
X-404Y1839D02*
X-394Y1849D01*
Y1869D01*
X-404Y1879D01*
X-444D01*
X-454Y1869D01*
Y1849D01*
X-444Y1839D01*
X-434D01*
X-424Y1849D01*
Y1879D01*
X-394Y1899D02*
X-404D01*
Y1909D01*
X-394D01*
Y1899D01*
X-404Y1949D02*
X-394Y1959D01*
Y1979D01*
X-404Y1989D01*
X-444D01*
X-454Y1979D01*
Y1959D01*
X-444Y1949D01*
X-434D01*
X-424Y1959D01*
Y1989D01*
X-454Y2049D02*
X-444Y2029D01*
X-424Y2009D01*
X-404D01*
X-394Y2019D01*
Y2039D01*
X-404Y2049D01*
X-414D01*
X-424Y2039D01*
Y2009D01*
X2854Y-416D02*
X2874D01*
X2864D01*
Y-356D01*
X2854Y-366D01*
X2944Y-356D02*
X2904D01*
Y-386D01*
X2924Y-376D01*
X2934D01*
X2944Y-386D01*
Y-406D01*
X2934Y-416D01*
X2914D01*
X2904Y-406D01*
X2964Y-416D02*
Y-406D01*
X2974D01*
Y-416D01*
X2964D01*
X3054D02*
X3014D01*
X3054Y-376D01*
Y-366D01*
X3044Y-356D01*
X3024D01*
X3014Y-366D01*
X3104Y-416D02*
Y-356D01*
X3074Y-386D01*
X3114D01*
M02*
