G04 Layer_Color=32896*
%FSLAX23Y23*%
%MOIN*%
G70*
G01*
G75*
%ADD31C,0.010*%
%ADD32C,0.008*%
%ADD79C,0.005*%
%ADD80C,0.008*%
D31*
X1864Y515D02*
X2144D01*
X1870Y585D02*
X2140D01*
X1865Y655D02*
X2135D01*
X1870Y725D02*
X2140D01*
X1864Y795D02*
X2144D01*
X1864Y515D02*
Y795D01*
X2004Y515D02*
Y795D01*
X2144Y515D02*
Y795D01*
X5565Y2550D02*
X5935D01*
X5565Y2620D02*
X5935D01*
X5565Y2690D02*
X5935D01*
X5565Y2760D02*
X5935D01*
X5565Y2830D02*
X5935D01*
X5565Y2900D02*
X5935D01*
X5565Y2970D02*
X5935D01*
X5565Y3040D02*
X5935D01*
X5565Y3110D02*
X5935D01*
Y2550D02*
Y3110D01*
X5565Y2550D02*
Y3110D01*
X5745Y2550D02*
Y3110D01*
D32*
X5357Y252D02*
X5330D01*
X5344D01*
Y212D01*
X5290Y252D02*
X5317D01*
Y212D01*
X5290D01*
X5317Y232D02*
X5304D01*
X5250Y246D02*
X5257Y252D01*
X5270D01*
X5277Y246D01*
Y239D01*
X5270Y232D01*
X5257D01*
X5250Y226D01*
Y219D01*
X5257Y212D01*
X5270D01*
X5277Y219D01*
X5237Y252D02*
X5210D01*
X5224D01*
Y212D01*
X5197Y252D02*
Y212D01*
X5177D01*
X5170Y219D01*
Y226D01*
X5177Y232D01*
X5197D01*
X5177D01*
X5170Y239D01*
Y246D01*
X5177Y252D01*
X5197D01*
X5130D02*
X5157D01*
Y212D01*
X5130D01*
X5157Y232D02*
X5144D01*
X5117Y212D02*
Y252D01*
X5090Y212D01*
Y252D01*
X5050Y246D02*
X5057Y252D01*
X5070D01*
X5077Y246D01*
Y219D01*
X5070Y212D01*
X5057D01*
X5050Y219D01*
X5037Y252D02*
Y212D01*
Y232D01*
X5010D01*
Y252D01*
Y212D01*
X4930Y246D02*
X4937Y252D01*
X4950D01*
X4957Y246D01*
Y239D01*
X4950Y232D01*
X4937D01*
X4930Y226D01*
Y219D01*
X4937Y212D01*
X4950D01*
X4957Y219D01*
X4897Y252D02*
X4910D01*
X4917Y246D01*
Y219D01*
X4910Y212D01*
X4897D01*
X4890Y219D01*
Y246D01*
X4897Y252D01*
X4877D02*
Y212D01*
X4850D01*
X4837D02*
Y239D01*
X4824Y252D01*
X4811Y239D01*
Y212D01*
Y232D01*
X4837D01*
X4797Y212D02*
Y252D01*
X4777D01*
X4771Y246D01*
Y232D01*
X4777Y226D01*
X4797D01*
X4784D02*
X4771Y212D01*
X4691Y246D02*
X4697Y252D01*
X4711D01*
X4717Y246D01*
Y219D01*
X4711Y212D01*
X4697D01*
X4691Y219D01*
X4651Y252D02*
X4677D01*
Y212D01*
X4651D01*
X4677Y232D02*
X4664D01*
X4637Y252D02*
Y212D01*
X4611D01*
X4597Y252D02*
Y212D01*
X4571D01*
X4531Y246D02*
X4537Y252D01*
X4551D01*
X4557Y246D01*
Y239D01*
X4551Y232D01*
X4537D01*
X4531Y226D01*
Y219D01*
X4537Y212D01*
X4551D01*
X4557Y219D01*
X4477Y252D02*
Y226D01*
X4464Y212D01*
X4451Y226D01*
Y252D01*
X4437Y212D02*
X4424D01*
X4431D01*
Y252D01*
X4437Y246D01*
X4404Y212D02*
Y219D01*
X4397D01*
Y212D01*
X4404D01*
X4371D02*
X4357D01*
X4364D01*
Y252D01*
X4371Y246D01*
X5330Y185D02*
X5357D01*
Y165D01*
X5344D01*
X5357D01*
Y145D01*
X5317D02*
Y185D01*
X5297D01*
X5290Y179D01*
Y165D01*
X5297Y159D01*
X5317D01*
X5304D02*
X5290Y145D01*
X5250Y185D02*
X5277D01*
Y145D01*
X5250D01*
X5277Y165D02*
X5264D01*
X5237Y185D02*
Y145D01*
X5217D01*
X5210Y152D01*
Y179D01*
X5217Y185D01*
X5237D01*
X5170D02*
X5197D01*
Y145D01*
X5170D01*
X5197Y165D02*
X5184D01*
X5157Y145D02*
Y185D01*
X5137D01*
X5130Y179D01*
Y165D01*
X5137Y159D01*
X5157D01*
X5144D02*
X5130Y145D01*
X5117Y185D02*
X5104D01*
X5110D01*
Y145D01*
X5117D01*
X5104D01*
X5057Y179D02*
X5064Y185D01*
X5077D01*
X5084Y179D01*
Y152D01*
X5077Y145D01*
X5064D01*
X5057Y152D01*
X4977Y179D02*
X4984Y185D01*
X4997D01*
X5004Y179D01*
Y152D01*
X4997Y145D01*
X4984D01*
X4977Y152D01*
X4964Y185D02*
Y145D01*
Y165D01*
X4937D01*
Y185D01*
Y145D01*
X4924D02*
Y172D01*
X4910Y185D01*
X4897Y172D01*
Y145D01*
Y165D01*
X4924D01*
X4857Y179D02*
X4864Y185D01*
X4877D01*
X4884Y179D01*
Y172D01*
X4877Y165D01*
X4864D01*
X4857Y159D01*
Y152D01*
X4864Y145D01*
X4877D01*
X4884Y152D01*
X4817Y179D02*
X4824Y185D01*
X4837D01*
X4844Y179D01*
Y172D01*
X4837Y165D01*
X4824D01*
X4817Y159D01*
Y152D01*
X4824Y145D01*
X4837D01*
X4844Y152D01*
X4777Y185D02*
X4804D01*
Y145D01*
X4777D01*
X4804Y165D02*
X4791D01*
X5357Y118D02*
Y78D01*
X5344Y91D01*
X5330Y78D01*
Y118D01*
X5317D02*
X5304D01*
X5310D01*
Y78D01*
X5317D01*
X5304D01*
X5284D02*
Y118D01*
X5257Y78D01*
Y118D01*
X5244D02*
X5217D01*
X5230D01*
Y78D01*
X5177Y118D02*
X5204D01*
Y78D01*
X5177D01*
X5204Y98D02*
X5190D01*
X5164Y78D02*
Y118D01*
X5144D01*
X5137Y111D01*
Y98D01*
X5144Y91D01*
X5164D01*
X5150D02*
X5137Y78D01*
X5057D02*
X5084D01*
X5057Y105D01*
Y111D01*
X5064Y118D01*
X5077D01*
X5084Y111D01*
X5044D02*
X5037Y118D01*
X5024D01*
X5017Y111D01*
Y85D01*
X5024Y78D01*
X5037D01*
X5044Y85D01*
Y111D01*
X5004Y78D02*
X4990D01*
X4997D01*
Y118D01*
X5004Y111D01*
X4944Y118D02*
X4957Y111D01*
X4970Y98D01*
Y85D01*
X4964Y78D01*
X4950D01*
X4944Y85D01*
Y91D01*
X4950Y98D01*
X4970D01*
X2105Y530D02*
Y570D01*
X2078Y530D01*
Y570D01*
X2038Y563D02*
X2045Y570D01*
X2058D01*
X2065Y563D01*
Y537D01*
X2058Y530D01*
X2045D01*
X2038Y537D01*
X1963Y570D02*
X1990D01*
Y550D01*
X1977Y557D01*
X1970D01*
X1963Y550D01*
Y537D01*
X1970Y530D01*
X1983D01*
X1990Y537D01*
X1950Y570D02*
Y543D01*
X1937Y530D01*
X1923Y543D01*
Y570D01*
X1910Y563D02*
X1903Y570D01*
X1890D01*
X1883Y563D01*
Y537D01*
X1890Y530D01*
X1903D01*
X1910Y537D01*
Y563D01*
X1963Y703D02*
X1970Y710D01*
X1983D01*
X1990Y703D01*
Y677D01*
X1983Y670D01*
X1970D01*
X1963Y677D01*
Y690D01*
X1977D01*
X1950Y670D02*
Y710D01*
X1930D01*
X1923Y703D01*
Y690D01*
X1930Y683D01*
X1950D01*
X1910Y703D02*
X1903Y710D01*
X1890D01*
X1883Y703D01*
Y677D01*
X1890Y670D01*
X1903D01*
X1910Y677D01*
Y703D01*
X1958Y633D02*
X1965Y640D01*
X1978D01*
X1985Y633D01*
Y607D01*
X1978Y600D01*
X1965D01*
X1958Y607D01*
Y620D01*
X1972D01*
X1945Y600D02*
Y640D01*
X1925D01*
X1918Y633D01*
Y620D01*
X1925Y613D01*
X1945D01*
X1905Y600D02*
X1892D01*
X1898D01*
Y640D01*
X1905Y633D01*
X2103D02*
X2110Y640D01*
X2123D01*
X2130Y633D01*
Y607D01*
X2123Y600D01*
X2110D01*
X2103Y607D01*
Y620D01*
X2117D01*
X2090Y600D02*
Y640D01*
X2070D01*
X2063Y633D01*
Y620D01*
X2070Y613D01*
X2090D01*
X2023Y600D02*
X2050D01*
X2023Y627D01*
Y633D01*
X2030Y640D01*
X2043D01*
X2050Y633D01*
X2103Y703D02*
X2110Y710D01*
X2123D01*
X2130Y703D01*
Y677D01*
X2123Y670D01*
X2110D01*
X2103Y677D01*
Y690D01*
X2117D01*
X2090Y670D02*
Y710D01*
X2070D01*
X2063Y703D01*
Y690D01*
X2070Y683D01*
X2090D01*
X2050Y703D02*
X2043Y710D01*
X2030D01*
X2023Y703D01*
Y697D01*
X2030Y690D01*
X2037D01*
X2030D01*
X2023Y683D01*
Y677D01*
X2030Y670D01*
X2043D01*
X2050Y677D01*
X1990Y773D02*
X1983Y780D01*
X1970D01*
X1963Y773D01*
Y767D01*
X1970Y760D01*
X1977D01*
X1970D01*
X1963Y753D01*
Y747D01*
X1970Y740D01*
X1983D01*
X1990Y747D01*
X1950Y780D02*
Y753D01*
X1937Y740D01*
X1923Y753D01*
Y780D01*
X1910Y773D02*
X1903Y780D01*
X1890D01*
X1883Y773D01*
Y767D01*
X1890Y760D01*
X1897D01*
X1890D01*
X1883Y753D01*
Y747D01*
X1890Y740D01*
X1903D01*
X1910Y747D01*
X2103Y773D02*
X2110Y780D01*
X2123D01*
X2130Y773D01*
Y747D01*
X2123Y740D01*
X2110D01*
X2103Y747D01*
Y760D01*
X2117D01*
X2090Y740D02*
Y780D01*
X2063Y740D01*
Y780D01*
X2050D02*
Y740D01*
X2030D01*
X2023Y747D01*
Y773D01*
X2030Y780D01*
X2050D01*
X5658Y2598D02*
X5665Y2605D01*
X5678D01*
X5685Y2598D01*
Y2592D01*
X5678Y2585D01*
X5665D01*
X5658Y2578D01*
Y2572D01*
X5665Y2565D01*
X5678D01*
X5685Y2572D01*
X5645Y2605D02*
Y2565D01*
X5625D01*
X5618Y2572D01*
Y2598D01*
X5625Y2605D01*
X5645D01*
X5605D02*
X5592D01*
X5598D01*
Y2565D01*
X5605D01*
X5592D01*
X5663Y2668D02*
X5670Y2675D01*
X5683D01*
X5690Y2668D01*
Y2662D01*
X5683Y2655D01*
X5670D01*
X5663Y2648D01*
Y2642D01*
X5670Y2635D01*
X5683D01*
X5690Y2642D01*
X5650Y2675D02*
Y2635D01*
X5630D01*
X5623Y2642D01*
Y2668D01*
X5630Y2675D01*
X5650D01*
X5590D02*
X5603D01*
X5610Y2668D01*
Y2642D01*
X5603Y2635D01*
X5590D01*
X5583Y2642D01*
Y2668D01*
X5590Y2675D01*
X5703Y2738D02*
X5710Y2745D01*
X5723D01*
X5730Y2738D01*
Y2732D01*
X5723Y2725D01*
X5710D01*
X5703Y2718D01*
Y2712D01*
X5710Y2705D01*
X5723D01*
X5730Y2712D01*
X5663Y2738D02*
X5670Y2745D01*
X5683D01*
X5690Y2738D01*
Y2712D01*
X5683Y2705D01*
X5670D01*
X5663Y2712D01*
X5650Y2745D02*
Y2705D01*
X5623D01*
X5610Y2745D02*
Y2705D01*
Y2718D01*
X5583Y2745D01*
X5603Y2725D01*
X5583Y2705D01*
X5910Y2675D02*
Y2642D01*
X5903Y2635D01*
X5890D01*
X5883Y2642D01*
Y2675D01*
X5870Y2635D02*
X5857D01*
X5863D01*
Y2675D01*
X5870Y2668D01*
X5837Y2675D02*
X5810D01*
X5823D01*
Y2635D01*
X5797Y2675D02*
X5770Y2635D01*
Y2675D02*
X5797Y2635D01*
X5910Y2605D02*
Y2572D01*
X5903Y2565D01*
X5890D01*
X5883Y2572D01*
Y2605D01*
X5870Y2565D02*
X5857D01*
X5863D01*
Y2605D01*
X5870Y2598D01*
X5837Y2565D02*
Y2605D01*
X5817D01*
X5810Y2598D01*
Y2585D01*
X5817Y2578D01*
X5837D01*
X5823D02*
X5810Y2565D01*
X5797Y2605D02*
X5770Y2565D01*
Y2605D02*
X5797Y2565D01*
X5915Y2745D02*
Y2712D01*
X5908Y2705D01*
X5895D01*
X5888Y2712D01*
Y2745D01*
X5848Y2705D02*
X5875D01*
X5848Y2732D01*
Y2738D01*
X5855Y2745D01*
X5868D01*
X5875Y2738D01*
X5835Y2705D02*
Y2745D01*
X5815D01*
X5808Y2738D01*
Y2725D01*
X5815Y2718D01*
X5835D01*
X5822D02*
X5808Y2705D01*
X5795Y2745D02*
X5768Y2705D01*
Y2745D02*
X5795Y2705D01*
X5915Y2815D02*
Y2782D01*
X5908Y2775D01*
X5895D01*
X5888Y2782D01*
Y2815D01*
X5848Y2775D02*
X5875D01*
X5848Y2802D01*
Y2808D01*
X5855Y2815D01*
X5868D01*
X5875Y2808D01*
X5835Y2815D02*
X5808D01*
X5822D01*
Y2775D01*
X5795Y2815D02*
X5768Y2775D01*
Y2815D02*
X5795Y2775D01*
X5848Y2878D02*
X5855Y2885D01*
X5868D01*
X5875Y2878D01*
Y2872D01*
X5868Y2865D01*
X5855D01*
X5848Y2858D01*
Y2852D01*
X5855Y2845D01*
X5868D01*
X5875Y2852D01*
X5835Y2885D02*
Y2845D01*
X5815D01*
X5808Y2852D01*
Y2878D01*
X5815Y2885D01*
X5835D01*
X5795Y2845D02*
Y2872D01*
X5782Y2885D01*
X5768Y2872D01*
Y2845D01*
Y2865D01*
X5795D01*
X5848Y2948D02*
X5855Y2955D01*
X5868D01*
X5875Y2948D01*
Y2942D01*
X5868Y2935D01*
X5855D01*
X5848Y2928D01*
Y2922D01*
X5855Y2915D01*
X5868D01*
X5875Y2922D01*
X5808Y2948D02*
X5815Y2955D01*
X5828D01*
X5835Y2948D01*
Y2922D01*
X5828Y2915D01*
X5815D01*
X5808Y2922D01*
X5795Y2955D02*
Y2915D01*
X5768D01*
X5668Y2808D02*
X5675Y2815D01*
X5688D01*
X5695Y2808D01*
Y2782D01*
X5688Y2775D01*
X5675D01*
X5668Y2782D01*
X5628Y2808D02*
X5635Y2815D01*
X5648D01*
X5655Y2808D01*
Y2802D01*
X5648Y2795D01*
X5635D01*
X5628Y2788D01*
Y2782D01*
X5635Y2775D01*
X5648D01*
X5655Y2782D01*
X5615Y2808D02*
X5608Y2815D01*
X5595D01*
X5588Y2808D01*
Y2782D01*
X5595Y2775D01*
X5608D01*
X5615Y2782D01*
Y2808D01*
X5653Y2878D02*
X5660Y2885D01*
X5673D01*
X5680Y2878D01*
Y2852D01*
X5673Y2845D01*
X5660D01*
X5653Y2852D01*
X5613Y2878D02*
X5620Y2885D01*
X5633D01*
X5640Y2878D01*
Y2872D01*
X5633Y2865D01*
X5620D01*
X5613Y2858D01*
Y2852D01*
X5620Y2845D01*
X5633D01*
X5640Y2852D01*
X5600Y2845D02*
X5587D01*
X5593D01*
Y2885D01*
X5600Y2878D01*
X5668Y2948D02*
X5675Y2955D01*
X5688D01*
X5695Y2948D01*
Y2922D01*
X5688Y2915D01*
X5675D01*
X5668Y2922D01*
X5628Y2948D02*
X5635Y2955D01*
X5648D01*
X5655Y2948D01*
Y2942D01*
X5648Y2935D01*
X5635D01*
X5628Y2928D01*
Y2922D01*
X5635Y2915D01*
X5648D01*
X5655Y2922D01*
X5588Y2915D02*
X5615D01*
X5588Y2942D01*
Y2948D01*
X5595Y2955D01*
X5608D01*
X5615Y2948D01*
X5668Y3018D02*
X5675Y3025D01*
X5688D01*
X5695Y3018D01*
Y2992D01*
X5688Y2985D01*
X5675D01*
X5668Y2992D01*
X5628Y3018D02*
X5635Y3025D01*
X5648D01*
X5655Y3018D01*
Y3012D01*
X5648Y3005D01*
X5635D01*
X5628Y2998D01*
Y2992D01*
X5635Y2985D01*
X5648D01*
X5655Y2992D01*
X5615Y3018D02*
X5608Y3025D01*
X5595D01*
X5588Y3018D01*
Y3012D01*
X5595Y3005D01*
X5602D01*
X5595D01*
X5588Y2998D01*
Y2992D01*
X5595Y2985D01*
X5608D01*
X5615Y2992D01*
X5875Y3018D02*
X5868Y3025D01*
X5855D01*
X5848Y3018D01*
Y3012D01*
X5855Y3005D01*
X5862D01*
X5855D01*
X5848Y2998D01*
Y2992D01*
X5855Y2985D01*
X5868D01*
X5875Y2992D01*
X5835Y3025D02*
Y2998D01*
X5822Y2985D01*
X5808Y2998D01*
Y3025D01*
X5795Y3018D02*
X5788Y3025D01*
X5775D01*
X5768Y3018D01*
Y3012D01*
X5775Y3005D01*
X5782D01*
X5775D01*
X5768Y2998D01*
Y2992D01*
X5775Y2985D01*
X5788D01*
X5795Y2992D01*
X5668Y3088D02*
X5675Y3095D01*
X5688D01*
X5695Y3088D01*
Y3062D01*
X5688Y3055D01*
X5675D01*
X5668Y3062D01*
Y3075D01*
X5682D01*
X5655Y3055D02*
Y3095D01*
X5628Y3055D01*
Y3095D01*
X5615D02*
Y3055D01*
X5595D01*
X5588Y3062D01*
Y3088D01*
X5595Y3095D01*
X5615D01*
X5848Y3088D02*
X5855Y3095D01*
X5868D01*
X5875Y3088D01*
Y3062D01*
X5868Y3055D01*
X5855D01*
X5848Y3062D01*
Y3075D01*
X5862D01*
X5835Y3055D02*
Y3095D01*
X5808Y3055D01*
Y3095D01*
X5795D02*
Y3055D01*
X5775D01*
X5768Y3062D01*
Y3088D01*
X5775Y3095D01*
X5795D01*
D79*
X3923Y156D02*
X3935D01*
X3923Y124D02*
X3935D01*
X3423Y156D02*
X3435D01*
X3423Y124D02*
X3435D01*
X2923Y156D02*
X2935D01*
X2923Y124D02*
X2935D01*
X3935Y309D02*
Y350D01*
X3925Y309D02*
Y350D01*
X3435Y309D02*
Y350D01*
X3425Y309D02*
Y350D01*
X2935Y309D02*
Y350D01*
X2925Y309D02*
Y350D01*
X5349Y949D02*
X5361D01*
X5349Y981D02*
X5361D01*
X5929Y1368D02*
Y1380D01*
X5961Y1368D02*
Y1380D01*
X2794Y1529D02*
X2806D01*
X2794Y1561D02*
X2806D01*
X5337Y875D02*
X5365D01*
X5337Y915D02*
X5365D01*
X5735Y1380D02*
X5776D01*
X5735Y1370D02*
X5776D01*
X2265Y2545D02*
Y2586D01*
X2275Y2545D02*
Y2586D01*
X3245Y2580D02*
Y2621D01*
X3255Y2580D02*
Y2621D01*
X4195Y2580D02*
Y2621D01*
X4205Y2580D02*
Y2621D01*
X5145Y2580D02*
Y2621D01*
X5155Y2580D02*
Y2621D01*
X2795Y1460D02*
Y1501D01*
X2805Y1460D02*
Y1501D01*
X2700Y1130D02*
Y1171D01*
X2710Y1130D02*
Y1171D01*
X2884Y1275D02*
X2925D01*
X2884Y1285D02*
X2925D01*
X2850Y1129D02*
Y1170D01*
X2840Y1129D02*
Y1170D01*
X2745Y1349D02*
Y1390D01*
X2735Y1349D02*
Y1390D01*
X2624Y1310D02*
X2665D01*
X2624Y1320D02*
X2665D01*
X2860Y1350D02*
Y1391D01*
X2870Y1350D02*
Y1391D01*
X835Y3810D02*
Y3851D01*
X825Y3810D02*
Y3851D01*
X835Y3550D02*
Y3591D01*
X825Y3550D02*
Y3591D01*
X1645Y3810D02*
Y3851D01*
X1635Y3810D02*
Y3851D01*
X3279Y1325D02*
X3320D01*
X3279Y1335D02*
X3320D01*
X3246Y1324D02*
Y1336D01*
X3214Y1324D02*
Y1336D01*
X3245Y1235D02*
Y1267D01*
X3229D01*
X3224Y1262D01*
Y1251D01*
X3229Y1246D01*
X3245D01*
X3234D02*
X3224Y1235D01*
X3213Y1262D02*
X3208Y1267D01*
X3197D01*
X3192Y1262D01*
Y1256D01*
X3197Y1251D01*
X3202D01*
X3197D01*
X3192Y1246D01*
Y1240D01*
X3197Y1235D01*
X3208D01*
X3213Y1240D01*
X3160Y1267D02*
X3181D01*
Y1251D01*
X3170Y1256D01*
X3165D01*
X3160Y1251D01*
Y1240D01*
X3165Y1235D01*
X3176D01*
X3181Y1240D01*
X3334Y1262D02*
X3339Y1267D01*
X3350D01*
X3355Y1262D01*
Y1240D01*
X3350Y1235D01*
X3339D01*
X3334Y1240D01*
X3323Y1262D02*
X3318Y1267D01*
X3307D01*
X3302Y1262D01*
Y1256D01*
X3307Y1251D01*
X3312D01*
X3307D01*
X3302Y1246D01*
Y1240D01*
X3307Y1235D01*
X3318D01*
X3323Y1240D01*
X3291Y1262D02*
X3286Y1267D01*
X3275D01*
X3270Y1262D01*
Y1256D01*
X3275Y1251D01*
X3280D01*
X3275D01*
X3270Y1246D01*
Y1240D01*
X3275Y1235D01*
X3286D01*
X3291Y1240D01*
X1549Y3842D02*
X1554Y3847D01*
X1565D01*
X1570Y3842D01*
Y3820D01*
X1565Y3815D01*
X1554D01*
X1549Y3820D01*
X1538Y3842D02*
X1533Y3847D01*
X1522D01*
X1517Y3842D01*
Y3836D01*
X1522Y3831D01*
X1527D01*
X1522D01*
X1517Y3826D01*
Y3820D01*
X1522Y3815D01*
X1533D01*
X1538Y3820D01*
X739Y3587D02*
X744Y3592D01*
X755D01*
X760Y3587D01*
Y3565D01*
X755Y3560D01*
X744D01*
X739Y3565D01*
X707Y3560D02*
X728D01*
X707Y3581D01*
Y3587D01*
X712Y3592D01*
X723D01*
X728Y3587D01*
X729Y3837D02*
X734Y3842D01*
X745D01*
X750Y3837D01*
Y3815D01*
X745Y3810D01*
X734D01*
X729Y3815D01*
X718Y3810D02*
X707D01*
X713D01*
Y3842D01*
X718Y3837D01*
X2946Y1489D02*
X2952Y1495D01*
X2962D01*
X2968Y1489D01*
Y1468D01*
X2962Y1463D01*
X2952D01*
X2946Y1468D01*
X2914Y1463D02*
X2936D01*
X2914Y1484D01*
Y1489D01*
X2920Y1495D01*
X2930D01*
X2936Y1489D01*
X2904D02*
X2898Y1495D01*
X2888D01*
X2882Y1489D01*
Y1468D01*
X2888Y1463D01*
X2898D01*
X2904Y1468D01*
Y1489D01*
X2688Y1314D02*
X2683Y1319D01*
Y1330D01*
X2688Y1335D01*
X2710D01*
X2715Y1330D01*
Y1319D01*
X2710Y1314D01*
X2715Y1282D02*
Y1303D01*
X2694Y1282D01*
X2688D01*
X2683Y1287D01*
Y1298D01*
X2688Y1303D01*
X2715Y1271D02*
Y1260D01*
Y1266D01*
X2683D01*
X2688Y1271D01*
X2709Y1462D02*
X2714Y1467D01*
X2725D01*
X2730Y1462D01*
Y1440D01*
X2725Y1435D01*
X2714D01*
X2709Y1440D01*
X2677Y1435D02*
X2698D01*
X2677Y1456D01*
Y1462D01*
X2682Y1467D01*
X2693D01*
X2698Y1462D01*
X2645Y1435D02*
X2666D01*
X2645Y1456D01*
Y1462D01*
X2650Y1467D01*
X2661D01*
X2666Y1462D01*
X2849Y1217D02*
X2854Y1222D01*
X2865D01*
X2870Y1217D01*
Y1195D01*
X2865Y1190D01*
X2854D01*
X2849Y1195D01*
X2817Y1190D02*
X2838D01*
X2817Y1211D01*
Y1217D01*
X2822Y1222D01*
X2833D01*
X2838Y1217D01*
X2806D02*
X2801Y1222D01*
X2790D01*
X2785Y1217D01*
Y1211D01*
X2790Y1206D01*
X2795D01*
X2790D01*
X2785Y1201D01*
Y1195D01*
X2790Y1190D01*
X2801D01*
X2806Y1195D01*
X2838Y1299D02*
X2833Y1304D01*
Y1315D01*
X2838Y1320D01*
X2860D01*
X2865Y1315D01*
Y1304D01*
X2860Y1299D01*
X2865Y1267D02*
Y1288D01*
X2844Y1267D01*
X2838D01*
X2833Y1272D01*
Y1283D01*
X2838Y1288D01*
X2865Y1240D02*
X2833D01*
X2849Y1256D01*
Y1235D01*
X2724Y1217D02*
X2729Y1222D01*
X2740D01*
X2745Y1217D01*
Y1195D01*
X2740Y1190D01*
X2729D01*
X2724Y1195D01*
X2692Y1190D02*
X2713D01*
X2692Y1211D01*
Y1217D01*
X2697Y1222D01*
X2708D01*
X2713Y1217D01*
X2660Y1222D02*
X2670Y1217D01*
X2681Y1206D01*
Y1195D01*
X2676Y1190D01*
X2665D01*
X2660Y1195D01*
Y1201D01*
X2665Y1206D01*
X2681D01*
X2704Y1507D02*
X2709Y1512D01*
X2720D01*
X2725Y1507D01*
Y1485D01*
X2720Y1480D01*
X2709D01*
X2704Y1485D01*
X2672Y1480D02*
X2693D01*
X2672Y1501D01*
Y1507D01*
X2677Y1512D01*
X2688D01*
X2693Y1507D01*
X2661Y1512D02*
X2640D01*
Y1507D01*
X2661Y1485D01*
Y1480D01*
X5204Y2552D02*
X5209Y2557D01*
X5220D01*
X5225Y2552D01*
Y2530D01*
X5220Y2525D01*
X5209D01*
X5204Y2530D01*
X5172Y2525D02*
X5193D01*
X5172Y2546D01*
Y2552D01*
X5177Y2557D01*
X5188D01*
X5193Y2552D01*
X5161D02*
X5156Y2557D01*
X5145D01*
X5140Y2552D01*
Y2546D01*
X5145Y2541D01*
X5140Y2536D01*
Y2530D01*
X5145Y2525D01*
X5156D01*
X5161Y2530D01*
Y2536D01*
X5156Y2541D01*
X5161Y2546D01*
Y2552D01*
X5156Y2541D02*
X5145D01*
X5129Y2525D02*
Y2530D01*
X5124D01*
Y2525D01*
X5129D01*
X5086D02*
Y2557D01*
X5102Y2541D01*
X5081D01*
X4254Y2552D02*
X4259Y2557D01*
X4270D01*
X4275Y2552D01*
Y2530D01*
X4270Y2525D01*
X4259D01*
X4254Y2530D01*
X4222Y2525D02*
X4243D01*
X4222Y2546D01*
Y2552D01*
X4227Y2557D01*
X4238D01*
X4243Y2552D01*
X4211D02*
X4206Y2557D01*
X4195D01*
X4190Y2552D01*
Y2546D01*
X4195Y2541D01*
X4190Y2536D01*
Y2530D01*
X4195Y2525D01*
X4206D01*
X4211Y2530D01*
Y2536D01*
X4206Y2541D01*
X4211Y2546D01*
Y2552D01*
X4206Y2541D02*
X4195D01*
X4179Y2525D02*
Y2530D01*
X4174D01*
Y2525D01*
X4179D01*
X4152Y2552D02*
X4147Y2557D01*
X4136D01*
X4131Y2552D01*
Y2546D01*
X4136Y2541D01*
X4142D01*
X4136D01*
X4131Y2536D01*
Y2530D01*
X4136Y2525D01*
X4147D01*
X4152Y2530D01*
X3304Y2552D02*
X3309Y2557D01*
X3320D01*
X3325Y2552D01*
Y2530D01*
X3320Y2525D01*
X3309D01*
X3304Y2530D01*
X3272Y2525D02*
X3293D01*
X3272Y2546D01*
Y2552D01*
X3277Y2557D01*
X3288D01*
X3293Y2552D01*
X3261D02*
X3256Y2557D01*
X3245D01*
X3240Y2552D01*
Y2546D01*
X3245Y2541D01*
X3240Y2536D01*
Y2530D01*
X3245Y2525D01*
X3256D01*
X3261Y2530D01*
Y2536D01*
X3256Y2541D01*
X3261Y2546D01*
Y2552D01*
X3256Y2541D02*
X3245D01*
X3229Y2525D02*
Y2530D01*
X3224D01*
Y2525D01*
X3229D01*
X3181D02*
X3202D01*
X3181Y2546D01*
Y2552D01*
X3186Y2557D01*
X3197D01*
X3202Y2552D01*
X2312Y2517D02*
X2317Y2522D01*
X2328D01*
X2333Y2517D01*
Y2495D01*
X2328Y2490D01*
X2317D01*
X2312Y2495D01*
X2280Y2490D02*
X2301D01*
X2280Y2511D01*
Y2517D01*
X2285Y2522D01*
X2296D01*
X2301Y2517D01*
X2269D02*
X2264Y2522D01*
X2253D01*
X2248Y2517D01*
Y2511D01*
X2253Y2506D01*
X2248Y2501D01*
Y2495D01*
X2253Y2490D01*
X2264D01*
X2269Y2495D01*
Y2501D01*
X2264Y2506D01*
X2269Y2511D01*
Y2517D01*
X2264Y2506D02*
X2253D01*
X2237Y2490D02*
Y2495D01*
X2232D01*
Y2490D01*
X2237D01*
X2211D02*
X2200D01*
X2205D01*
Y2522D01*
X2211Y2517D01*
X5683Y1409D02*
X5678Y1414D01*
Y1425D01*
X5683Y1430D01*
X5705D01*
X5710Y1425D01*
Y1414D01*
X5705Y1409D01*
X5710Y1377D02*
Y1398D01*
X5689Y1377D01*
X5683D01*
X5678Y1382D01*
Y1393D01*
X5683Y1398D01*
X5705Y1366D02*
X5710Y1361D01*
Y1350D01*
X5705Y1345D01*
X5683D01*
X5678Y1350D01*
Y1361D01*
X5683Y1366D01*
X5689D01*
X5694Y1361D01*
Y1345D01*
X5710Y1334D02*
X5705D01*
Y1329D01*
X5710D01*
Y1334D01*
Y1291D02*
X5678D01*
X5694Y1307D01*
Y1286D01*
X5560Y917D02*
Y885D01*
X5544D01*
X5539Y890D01*
Y912D01*
X5544Y917D01*
X5560D01*
X5528Y885D02*
X5517D01*
X5523D01*
Y917D01*
X5528Y912D01*
X5501D02*
X5496Y917D01*
X5485D01*
X5480Y912D01*
Y890D01*
X5485Y885D01*
X5496D01*
X5501Y890D01*
Y912D01*
X5469Y885D02*
Y890D01*
X5464D01*
Y885D01*
X5469D01*
X5421D02*
X5443D01*
X5421Y906D01*
Y912D01*
X5427Y917D01*
X5437D01*
X5443Y912D01*
X2735Y1530D02*
Y1562D01*
X2719D01*
X2714Y1557D01*
Y1546D01*
X2719Y1541D01*
X2735D01*
X2724D02*
X2714Y1530D01*
X2703D02*
X2692D01*
X2698D01*
Y1562D01*
X2703Y1557D01*
X2655Y1562D02*
X2676D01*
Y1546D01*
X2666Y1551D01*
X2660D01*
X2655Y1546D01*
Y1535D01*
X2660Y1530D01*
X2671D01*
X2676Y1535D01*
X5970Y1300D02*
X5938D01*
Y1284D01*
X5943Y1279D01*
X5954D01*
X5959Y1284D01*
Y1300D01*
Y1289D02*
X5970Y1279D01*
Y1247D02*
Y1268D01*
X5949Y1247D01*
X5943D01*
X5938Y1252D01*
Y1263D01*
X5943Y1268D01*
X5970Y1220D02*
X5938D01*
X5954Y1236D01*
Y1215D01*
X5970Y1204D02*
X5965D01*
Y1199D01*
X5970D01*
Y1204D01*
Y1161D02*
X5938D01*
X5954Y1177D01*
Y1156D01*
X5560Y950D02*
Y982D01*
X5544D01*
X5539Y977D01*
Y966D01*
X5544Y961D01*
X5560D01*
X5549D02*
X5539Y950D01*
X5507D02*
X5528D01*
X5507Y971D01*
Y977D01*
X5512Y982D01*
X5523D01*
X5528Y977D01*
X5496Y955D02*
X5491Y950D01*
X5480D01*
X5475Y955D01*
Y977D01*
X5480Y982D01*
X5491D01*
X5496Y977D01*
Y971D01*
X5491Y966D01*
X5475D01*
X5464Y950D02*
Y955D01*
X5459D01*
Y950D01*
X5464D01*
X5416D02*
X5437D01*
X5416Y971D01*
Y977D01*
X5421Y982D01*
X5432D01*
X5437Y977D01*
X2979Y397D02*
X2984Y402D01*
X2995D01*
X3000Y397D01*
Y375D01*
X2995Y370D01*
X2984D01*
X2979Y375D01*
X2947Y370D02*
X2968D01*
X2947Y391D01*
Y397D01*
X2952Y402D01*
X2963D01*
X2968Y397D01*
X2936Y375D02*
X2931Y370D01*
X2920D01*
X2915Y375D01*
Y397D01*
X2920Y402D01*
X2931D01*
X2936Y397D01*
Y391D01*
X2931Y386D01*
X2915D01*
X2904Y370D02*
Y375D01*
X2899D01*
Y370D01*
X2904D01*
X2877D02*
X2867D01*
X2872D01*
Y402D01*
X2877Y397D01*
X3529D02*
X3534Y402D01*
X3545D01*
X3550Y397D01*
Y375D01*
X3545Y370D01*
X3534D01*
X3529Y375D01*
X3497Y370D02*
X3518D01*
X3497Y391D01*
Y397D01*
X3502Y402D01*
X3513D01*
X3518Y397D01*
X3486Y375D02*
X3481Y370D01*
X3470D01*
X3465Y375D01*
Y397D01*
X3470Y402D01*
X3481D01*
X3486Y397D01*
Y391D01*
X3481Y386D01*
X3465D01*
X3454Y370D02*
Y375D01*
X3449D01*
Y370D01*
X3454D01*
X3406D02*
X3427D01*
X3406Y391D01*
Y397D01*
X3411Y402D01*
X3422D01*
X3427Y397D01*
X4039Y402D02*
X4044Y407D01*
X4055D01*
X4060Y402D01*
Y380D01*
X4055Y375D01*
X4044D01*
X4039Y380D01*
X4007Y375D02*
X4028D01*
X4007Y396D01*
Y402D01*
X4012Y407D01*
X4023D01*
X4028Y402D01*
X3996Y380D02*
X3991Y375D01*
X3980D01*
X3975Y380D01*
Y402D01*
X3980Y407D01*
X3991D01*
X3996Y402D01*
Y396D01*
X3991Y391D01*
X3975D01*
X3964Y375D02*
Y380D01*
X3959D01*
Y375D01*
X3964D01*
X3937Y402D02*
X3932Y407D01*
X3921D01*
X3916Y402D01*
Y396D01*
X3921Y391D01*
X3927D01*
X3921D01*
X3916Y386D01*
Y380D01*
X3921Y375D01*
X3932D01*
X3937Y380D01*
X2860Y125D02*
Y157D01*
X2844D01*
X2839Y152D01*
Y141D01*
X2844Y136D01*
X2860D01*
X2849D02*
X2839Y125D01*
X2807D02*
X2828D01*
X2807Y146D01*
Y152D01*
X2812Y157D01*
X2823D01*
X2828Y152D01*
X2780Y125D02*
Y157D01*
X2796Y141D01*
X2775D01*
X2764Y125D02*
Y130D01*
X2759D01*
Y125D01*
X2764D01*
X2737D02*
X2727D01*
X2732D01*
Y157D01*
X2737Y152D01*
X3360Y120D02*
Y152D01*
X3344D01*
X3339Y147D01*
Y136D01*
X3344Y131D01*
X3360D01*
X3349D02*
X3339Y120D01*
X3307D02*
X3328D01*
X3307Y141D01*
Y147D01*
X3312Y152D01*
X3323D01*
X3328Y147D01*
X3280Y120D02*
Y152D01*
X3296Y136D01*
X3275D01*
X3264Y120D02*
Y125D01*
X3259D01*
Y120D01*
X3264D01*
X3216D02*
X3237D01*
X3216Y141D01*
Y147D01*
X3221Y152D01*
X3232D01*
X3237Y147D01*
X3860Y125D02*
Y157D01*
X3844D01*
X3839Y152D01*
Y141D01*
X3844Y136D01*
X3860D01*
X3849D02*
X3839Y125D01*
X3807D02*
X3828D01*
X3807Y146D01*
Y152D01*
X3812Y157D01*
X3823D01*
X3828Y152D01*
X3780Y125D02*
Y157D01*
X3796Y141D01*
X3775D01*
X3764Y125D02*
Y130D01*
X3759D01*
Y125D01*
X3764D01*
X3737Y152D02*
X3732Y157D01*
X3721D01*
X3716Y152D01*
Y146D01*
X3721Y141D01*
X3727D01*
X3721D01*
X3716Y136D01*
Y130D01*
X3721Y125D01*
X3732D01*
X3737Y130D01*
X519Y2152D02*
X524Y2157D01*
X535D01*
X540Y2152D01*
Y2130D01*
X535Y2125D01*
X524D01*
X519Y2130D01*
Y2141D01*
X529D01*
X508Y2125D02*
Y2157D01*
X487Y2125D01*
Y2157D01*
X476D02*
Y2125D01*
X460D01*
X455Y2130D01*
Y2152D01*
X460Y2157D01*
X476D01*
X440Y2152D02*
X435Y2157D01*
X424D01*
X419Y2152D01*
Y2146D01*
X424Y2141D01*
X429D01*
X424D01*
X419Y2136D01*
Y2130D01*
X424Y2125D01*
X435D01*
X440Y2130D01*
X408Y2157D02*
Y2136D01*
X397Y2125D01*
X387Y2136D01*
Y2157D01*
X376Y2152D02*
X371Y2157D01*
X360D01*
X355Y2152D01*
Y2146D01*
X360Y2141D01*
X365D01*
X360D01*
X355Y2136D01*
Y2130D01*
X360Y2125D01*
X371D01*
X376Y2130D01*
X319Y2157D02*
X340D01*
Y2141D01*
X329Y2146D01*
X324D01*
X319Y2141D01*
Y2130D01*
X324Y2125D01*
X335D01*
X340Y2130D01*
X308Y2157D02*
Y2136D01*
X297Y2125D01*
X287Y2136D01*
Y2157D01*
X276Y2152D02*
X271Y2157D01*
X260D01*
X255Y2152D01*
Y2130D01*
X260Y2125D01*
X271D01*
X276Y2130D01*
Y2152D01*
X2990Y612D02*
X2985Y617D01*
X2974D01*
X2969Y612D01*
Y606D01*
X2974Y601D01*
X2979D01*
X2974D01*
X2969Y596D01*
Y590D01*
X2974Y585D01*
X2985D01*
X2990Y590D01*
X2958Y617D02*
Y596D01*
X2947Y585D01*
X2937Y596D01*
Y617D01*
X2926Y612D02*
X2921Y617D01*
X2910D01*
X2905Y612D01*
Y606D01*
X2910Y601D01*
X2915D01*
X2910D01*
X2905Y596D01*
Y590D01*
X2910Y585D01*
X2921D01*
X2926Y590D01*
X2969Y512D02*
X2974Y517D01*
X2985D01*
X2990Y512D01*
Y490D01*
X2985Y485D01*
X2974D01*
X2969Y490D01*
Y501D01*
X2979D01*
X2958Y485D02*
Y517D01*
X2937Y485D01*
Y517D01*
X2926D02*
Y485D01*
X2910D01*
X2905Y490D01*
Y512D01*
X2910Y517D01*
X2926D01*
X5680Y1862D02*
X5675Y1867D01*
X5664D01*
X5659Y1862D01*
Y1856D01*
X5664Y1851D01*
X5669D01*
X5664D01*
X5659Y1846D01*
Y1840D01*
X5664Y1835D01*
X5675D01*
X5680Y1840D01*
X5648Y1867D02*
Y1846D01*
X5637Y1835D01*
X5627Y1846D01*
Y1867D01*
X5616Y1862D02*
X5611Y1867D01*
X5600D01*
X5595Y1862D01*
Y1856D01*
X5600Y1851D01*
X5605D01*
X5600D01*
X5595Y1846D01*
Y1840D01*
X5600Y1835D01*
X5611D01*
X5616Y1840D01*
X5680Y1762D02*
X5675Y1767D01*
X5664D01*
X5659Y1762D01*
Y1756D01*
X5664Y1751D01*
X5669D01*
X5664D01*
X5659Y1746D01*
Y1740D01*
X5664Y1735D01*
X5675D01*
X5680Y1740D01*
X5648Y1767D02*
Y1746D01*
X5637Y1735D01*
X5627Y1746D01*
Y1767D01*
X5616Y1762D02*
X5611Y1767D01*
X5600D01*
X5595Y1762D01*
Y1756D01*
X5600Y1751D01*
X5605D01*
X5600D01*
X5595Y1746D01*
Y1740D01*
X5600Y1735D01*
X5611D01*
X5616Y1740D01*
X5659Y1662D02*
X5664Y1667D01*
X5675D01*
X5680Y1662D01*
Y1640D01*
X5675Y1635D01*
X5664D01*
X5659Y1640D01*
Y1651D01*
X5669D01*
X5648Y1635D02*
Y1667D01*
X5627Y1635D01*
Y1667D01*
X5616D02*
Y1635D01*
X5600D01*
X5595Y1640D01*
Y1662D01*
X5600Y1667D01*
X5616D01*
X5659Y1562D02*
X5664Y1567D01*
X5675D01*
X5680Y1562D01*
Y1540D01*
X5675Y1535D01*
X5664D01*
X5659Y1540D01*
Y1551D01*
X5669D01*
X5648Y1535D02*
Y1567D01*
X5627Y1535D01*
Y1567D01*
X5616D02*
Y1535D01*
X5600D01*
X5595Y1540D01*
Y1562D01*
X5600Y1567D01*
X5616D01*
X2964Y717D02*
X2985D01*
Y701D01*
X2974Y706D01*
X2969D01*
X2964Y701D01*
Y690D01*
X2969Y685D01*
X2980D01*
X2985Y690D01*
X2953Y717D02*
Y696D01*
X2942Y685D01*
X2932Y696D01*
Y717D01*
X2921Y712D02*
X2916Y717D01*
X2905D01*
X2900Y712D01*
Y690D01*
X2905Y685D01*
X2916D01*
X2921Y690D01*
Y712D01*
D80*
X5365Y875D02*
Y915D01*
M02*
