M48
;Layer_Color=9474304
;FILE_FORMAT=2:3
INCH,LZ
;TYPE=PLATED
T1F00S00C0.035
T2F00S00C0.040
T3F00S00C0.138
%
T01
X0005Y004
X0015
X0025
Y005
X0015
X0005
X0035
Y004
X006Y0035
X007
Y0025
Y0015
X006
Y0025
Y0005
X007
X008
X009
X01
X011
X012
X013
X014
X015
X0161Y0024
X0171
X0181
X0191
X0201
X0211
X0221
X0231
X0245Y0005
X0255
X0265
X0275
X0285
X0295
X0305
Y0015
Y0025
Y0035
X0315
X0325
Y0025
Y0015
Y0005
X0335
Y0015
Y0025
Y0035
X0357Y004
Y005
X0367
Y004
X0315Y0025
Y0015
Y0005
X0377Y004
X0387
Y005
X0377
Y006
X0387
Y007
Y008
Y009
Y01
X0377
Y011
X0387
X0377Y009
Y008
Y007
X0367
Y008
Y009
Y01
X0357
Y011
X0367
X0357Y009
Y008
Y007
Y006
X0367
X0035
X0025
X0015
X0005
Y007
X0015
X0025
X0035
Y008
X0025
X0015
X0005
Y009
X0015
X0025
X0035
Y01
Y011
X0025
X0015
X0005
Y01
X0015
X0025
T02
X0085Y0025
X01
X0115
X013
X025
X0265
X028
X0295
T03
X002Y002
X0372
Y013
X002
M30
