G04 Layer_Color=32896*
%FSLAX23Y23*%
%MOIN*%
G70*
G01*
G75*
%ADD16C,0.010*%
D16*
X3430Y1442D02*
X3440Y1452D01*
X3460D01*
X3470Y1442D01*
Y1432D01*
X3460Y1422D01*
X3440D01*
X3430Y1412D01*
Y1402D01*
X3440Y1392D01*
X3460D01*
X3470Y1402D01*
X3400Y1392D02*
X3380D01*
X3370Y1402D01*
Y1422D01*
X3380Y1432D01*
X3400D01*
X3410Y1422D01*
Y1402D01*
X3400Y1392D01*
X3350D02*
X3330D01*
X3340D01*
Y1452D01*
X3350D01*
X3290Y1432D02*
X3270D01*
X3260Y1422D01*
Y1392D01*
X3290D01*
X3300Y1402D01*
X3290Y1412D01*
X3260D01*
X3240Y1432D02*
Y1392D01*
Y1412D01*
X3230Y1422D01*
X3220Y1432D01*
X3210D01*
X3080D02*
X3110D01*
X3120Y1422D01*
Y1402D01*
X3110Y1392D01*
X3080D01*
X3030D02*
X3050D01*
X3060Y1402D01*
Y1422D01*
X3050Y1432D01*
X3030D01*
X3020Y1422D01*
Y1412D01*
X3060D01*
X3000Y1392D02*
X2980D01*
X2990D01*
Y1452D01*
X3000D01*
X2950Y1392D02*
X2930D01*
X2940D01*
Y1452D01*
X2950D01*
X2900Y1392D02*
X2870D01*
X2860Y1402D01*
X2870Y1412D01*
X2890D01*
X2900Y1422D01*
X2890Y1432D01*
X2860D01*
X2780D02*
X2760Y1392D01*
X2740Y1432D01*
X2720Y1392D02*
X2700D01*
X2710D01*
Y1452D01*
X2720Y1442D01*
X2670Y1392D02*
Y1402D01*
X2660D01*
Y1392D01*
X2670D01*
X2620D02*
X2600D01*
X2610D01*
Y1452D01*
X2620Y1442D01*
X3430Y1356D02*
X3470D01*
Y1326D01*
X3450D01*
X3470D01*
Y1296D01*
X3410Y1336D02*
Y1296D01*
Y1316D01*
X3400Y1326D01*
X3390Y1336D01*
X3380D01*
X3320Y1296D02*
X3340D01*
X3350Y1306D01*
Y1326D01*
X3340Y1336D01*
X3320D01*
X3310Y1326D01*
Y1316D01*
X3350D01*
X3250Y1356D02*
Y1296D01*
X3280D01*
X3290Y1306D01*
Y1326D01*
X3280Y1336D01*
X3250D01*
X3200Y1296D02*
X3220D01*
X3230Y1306D01*
Y1326D01*
X3220Y1336D01*
X3200D01*
X3190Y1326D01*
Y1316D01*
X3230D01*
X3170Y1336D02*
Y1296D01*
Y1316D01*
X3160Y1326D01*
X3150Y1336D01*
X3140D01*
X3110Y1296D02*
X3090D01*
X3100D01*
Y1336D01*
X3110D01*
X3020D02*
X3050D01*
X3060Y1326D01*
Y1306D01*
X3050Y1296D01*
X3020D01*
X2900Y1346D02*
X2910Y1356D01*
X2930D01*
X2940Y1346D01*
Y1306D01*
X2930Y1296D01*
X2910D01*
X2900Y1306D01*
X2880Y1356D02*
Y1296D01*
Y1326D01*
X2870Y1336D01*
X2850D01*
X2840Y1326D01*
Y1296D01*
X2810Y1336D02*
X2790D01*
X2780Y1326D01*
Y1296D01*
X2810D01*
X2820Y1306D01*
X2810Y1316D01*
X2780D01*
X2760Y1296D02*
X2730D01*
X2720Y1306D01*
X2730Y1316D01*
X2750D01*
X2760Y1326D01*
X2750Y1336D01*
X2720D01*
X2700Y1296D02*
X2670D01*
X2660Y1306D01*
X2670Y1316D01*
X2690D01*
X2700Y1326D01*
X2690Y1336D01*
X2660D01*
X2610Y1296D02*
X2630D01*
X2640Y1306D01*
Y1326D01*
X2630Y1336D01*
X2610D01*
X2600Y1326D01*
Y1316D01*
X2640D01*
X3470Y1260D02*
Y1200D01*
X3450Y1220D01*
X3430Y1200D01*
Y1260D01*
X3410Y1200D02*
X3390D01*
X3400D01*
Y1240D01*
X3410D01*
X3360Y1200D02*
Y1240D01*
X3330D01*
X3320Y1230D01*
Y1200D01*
X3290Y1250D02*
Y1240D01*
X3300D01*
X3280D01*
X3290D01*
Y1210D01*
X3280Y1200D01*
X3220D02*
X3240D01*
X3250Y1210D01*
Y1230D01*
X3240Y1240D01*
X3220D01*
X3210Y1230D01*
Y1220D01*
X3250D01*
X3190Y1240D02*
Y1200D01*
Y1220D01*
X3180Y1230D01*
X3170Y1240D01*
X3160D01*
X3030Y1200D02*
X3070D01*
X3030Y1240D01*
Y1250D01*
X3040Y1260D01*
X3060D01*
X3070Y1250D01*
X3010D02*
X3000Y1260D01*
X2980D01*
X2970Y1250D01*
Y1210D01*
X2980Y1200D01*
X3000D01*
X3010Y1210D01*
Y1250D01*
X2950Y1200D02*
X2930D01*
X2940D01*
Y1260D01*
X2950Y1250D01*
X2860Y1260D02*
X2880Y1250D01*
X2900Y1230D01*
Y1210D01*
X2890Y1200D01*
X2870D01*
X2860Y1210D01*
Y1220D01*
X2870Y1230D01*
X2900D01*
M02*
