G04 Layer_Color=8388736*
%FSLAX23Y23*%
%MOIN*%
G70*
G01*
G75*
G04:AMPARAMS|DCode=19|XSize=106mil|YSize=244mil|CornerRadius=16mil|HoleSize=0mil|Usage=FLASHONLY|Rotation=180.000|XOffset=0mil|YOffset=0mil|HoleType=Round|Shape=RoundedRectangle|*
%AMROUNDEDRECTD19*
21,1,0.106,0.212,0,0,180.0*
21,1,0.074,0.244,0,0,180.0*
1,1,0.033,-0.037,0.106*
1,1,0.033,0.037,0.106*
1,1,0.033,0.037,-0.106*
1,1,0.033,-0.037,-0.106*
%
%ADD19ROUNDEDRECTD19*%
%ADD20C,0.068*%
%ADD21C,0.311*%
%ADD22C,0.067*%
%ADD23R,0.067X0.067*%
D19*
X1617Y1280D02*
D03*
X803D02*
D03*
X1617Y730D02*
D03*
X803D02*
D03*
X3117D02*
D03*
X2303D02*
D03*
X3117Y1280D02*
D03*
X2303D02*
D03*
D20*
X3050Y150D02*
D03*
Y250D02*
D03*
Y350D02*
D03*
X3250Y250D02*
D03*
Y150D02*
D03*
Y50D02*
D03*
X3350D02*
D03*
Y150D02*
D03*
Y250D02*
D03*
Y350D02*
D03*
X3250D02*
D03*
X3150D02*
D03*
Y250D02*
D03*
Y150D02*
D03*
Y50D02*
D03*
X3050D02*
D03*
X2950D02*
D03*
X2850D02*
D03*
X2750D02*
D03*
X2650D02*
D03*
X2550D02*
D03*
X2450D02*
D03*
X700Y150D02*
D03*
Y250D02*
D03*
Y350D02*
D03*
X600D02*
D03*
Y250D02*
D03*
Y150D02*
D03*
Y50D02*
D03*
X700D02*
D03*
X800D02*
D03*
X900D02*
D03*
X1000D02*
D03*
X1100D02*
D03*
X1200D02*
D03*
X1300D02*
D03*
X1400D02*
D03*
X1500D02*
D03*
X3570Y1000D02*
D03*
X3670D02*
D03*
X3770D02*
D03*
Y1100D02*
D03*
X3670D02*
D03*
X3570D02*
D03*
X3870D02*
D03*
Y1000D02*
D03*
Y800D02*
D03*
Y900D02*
D03*
X3570D02*
D03*
X3670D02*
D03*
X3770D02*
D03*
Y800D02*
D03*
X3670D02*
D03*
X3570D02*
D03*
X3870Y600D02*
D03*
Y700D02*
D03*
X3570D02*
D03*
X3670D02*
D03*
X3770D02*
D03*
Y600D02*
D03*
X3670D02*
D03*
X3570D02*
D03*
X3870Y400D02*
D03*
Y500D02*
D03*
X3570D02*
D03*
X3670D02*
D03*
X3770D02*
D03*
Y400D02*
D03*
X3670D02*
D03*
X3570D02*
D03*
X50D02*
D03*
X150D02*
D03*
X250D02*
D03*
Y500D02*
D03*
X150D02*
D03*
X50D02*
D03*
X350D02*
D03*
Y400D02*
D03*
X50Y600D02*
D03*
X150D02*
D03*
X250D02*
D03*
Y700D02*
D03*
X150D02*
D03*
X50D02*
D03*
X350D02*
D03*
Y600D02*
D03*
X50Y800D02*
D03*
X150D02*
D03*
X250D02*
D03*
Y900D02*
D03*
X150D02*
D03*
X50D02*
D03*
X350D02*
D03*
Y800D02*
D03*
Y1000D02*
D03*
Y1100D02*
D03*
X50D02*
D03*
X150D02*
D03*
X250D02*
D03*
Y1000D02*
D03*
X150D02*
D03*
X50D02*
D03*
X850Y250D02*
D03*
X1000D02*
D03*
X1150D02*
D03*
X1300D02*
D03*
X2500D02*
D03*
X2650D02*
D03*
X2800D02*
D03*
X2950D02*
D03*
D21*
X200Y200D02*
D03*
Y1300D02*
D03*
X3720D02*
D03*
Y200D02*
D03*
D22*
X2310Y240D02*
D03*
X2210D02*
D03*
X2110D02*
D03*
X2010D02*
D03*
X1910D02*
D03*
X1810D02*
D03*
X1710D02*
D03*
D23*
X1610D02*
D03*
M02*
