G04 Layer_Color=65535*
%FSLAX23Y23*%
%MOIN*%
G70*
G01*
G75*
%ADD16C,0.010*%
%ADD17C,0.008*%
%ADD18C,0.005*%
D16*
X893Y250D02*
G03*
X893Y250I-43J0D01*
G01*
X1043D02*
G03*
X1043Y250I-43J0D01*
G01*
X1193D02*
G03*
X1193Y250I-43J0D01*
G01*
X1343D02*
G03*
X1343Y250I-43J0D01*
G01*
X2543D02*
G03*
X2543Y250I-43J0D01*
G01*
X2693D02*
G03*
X2693Y250I-43J0D01*
G01*
X2843D02*
G03*
X2843Y250I-43J0D01*
G01*
X2993D02*
G03*
X2993Y250I-43J0D01*
G01*
X2240Y20D02*
Y90D01*
X2140Y20D02*
Y90D01*
X2040Y20D02*
Y90D01*
X1940Y20D02*
Y90D01*
X1850Y20D02*
Y90D01*
X1770Y20D02*
Y90D01*
X3400Y100D02*
Y1400D01*
X520Y100D02*
Y1400D01*
X1900Y400D02*
Y1460D01*
X2020Y400D02*
Y1460D01*
X520Y1070D02*
X3400D01*
X520Y950D02*
X3400D01*
X520Y520D02*
X3400D01*
X520Y400D02*
X3400D01*
X2100Y750D02*
X2200D01*
X2150Y700D02*
Y800D01*
X2100Y1300D02*
X2200D01*
X2150Y1250D02*
Y1350D01*
X650Y700D02*
Y800D01*
X600Y750D02*
X700D01*
X600Y1300D02*
X700D01*
X650Y1250D02*
Y1350D01*
X2340Y20D02*
Y90D01*
X1670Y20D02*
Y90D01*
X1570Y20D02*
Y90D01*
Y20D02*
X2340D01*
X1570Y90D02*
X2340D01*
X3520Y100D02*
Y1400D01*
X400Y100D02*
Y1400D01*
X866Y1195D02*
X901D01*
X883Y1177D02*
Y1212D01*
X1513Y1198D02*
X1548D01*
X866Y645D02*
X901D01*
X883Y627D02*
Y662D01*
X1513Y648D02*
X1548D01*
X2366Y645D02*
X2401D01*
X2383Y627D02*
Y662D01*
X3013Y648D02*
X3048D01*
X2366Y1195D02*
X2401D01*
X2383Y1177D02*
Y1212D01*
X3013Y1198D02*
X3048D01*
X2140Y495D02*
Y435D01*
X2160Y455D01*
X2180Y435D01*
Y495D01*
X2200Y435D02*
X2220D01*
X2210D01*
Y475D01*
X2200D01*
X2250Y435D02*
Y475D01*
X2280D01*
X2290Y465D01*
Y435D01*
X2320Y485D02*
Y475D01*
X2310D01*
X2330D01*
X2320D01*
Y445D01*
X2330Y435D01*
X2390D02*
X2370D01*
X2360Y445D01*
Y465D01*
X2370Y475D01*
X2390D01*
X2400Y465D01*
Y455D01*
X2360D01*
X2420Y475D02*
Y435D01*
Y455D01*
X2430Y465D01*
X2440Y475D01*
X2450D01*
X2580Y435D02*
X2540D01*
X2580Y475D01*
Y485D01*
X2570Y495D01*
X2550D01*
X2540Y485D01*
X2600D02*
X2610Y495D01*
X2630D01*
X2640Y485D01*
Y445D01*
X2630Y435D01*
X2610D01*
X2600Y445D01*
Y485D01*
X2660Y435D02*
X2680D01*
X2670D01*
Y495D01*
X2660Y485D01*
X2750Y495D02*
X2730Y485D01*
X2710Y465D01*
Y445D01*
X2720Y435D01*
X2740D01*
X2750Y445D01*
Y455D01*
X2740Y465D01*
X2710D01*
X2180Y1045D02*
X2140D01*
Y1015D01*
X2160D01*
X2140D01*
Y985D01*
X2200Y1025D02*
Y985D01*
Y1005D01*
X2210Y1015D01*
X2220Y1025D01*
X2230D01*
X2290Y985D02*
X2270D01*
X2260Y995D01*
Y1015D01*
X2270Y1025D01*
X2290D01*
X2300Y1015D01*
Y1005D01*
X2260D01*
X2360Y1045D02*
Y985D01*
X2330D01*
X2320Y995D01*
Y1015D01*
X2330Y1025D01*
X2360D01*
X2410Y985D02*
X2390D01*
X2380Y995D01*
Y1015D01*
X2390Y1025D01*
X2410D01*
X2420Y1015D01*
Y1005D01*
X2380D01*
X2440Y1025D02*
Y985D01*
Y1005D01*
X2450Y1015D01*
X2460Y1025D01*
X2470D01*
X2500Y985D02*
X2520D01*
X2510D01*
Y1025D01*
X2500D01*
X2590D02*
X2560D01*
X2550Y1015D01*
Y995D01*
X2560Y985D01*
X2590D01*
X2710Y1035D02*
X2700Y1045D01*
X2680D01*
X2670Y1035D01*
Y995D01*
X2680Y985D01*
X2700D01*
X2710Y995D01*
X2730Y1045D02*
Y985D01*
Y1015D01*
X2740Y1025D01*
X2760D01*
X2770Y1015D01*
Y985D01*
X2800Y1025D02*
X2820D01*
X2830Y1015D01*
Y985D01*
X2800D01*
X2790Y995D01*
X2800Y1005D01*
X2830D01*
X2850Y985D02*
X2880D01*
X2890Y995D01*
X2880Y1005D01*
X2860D01*
X2850Y1015D01*
X2860Y1025D01*
X2890D01*
X2910Y985D02*
X2940D01*
X2950Y995D01*
X2940Y1005D01*
X2920D01*
X2910Y1015D01*
X2920Y1025D01*
X2950D01*
X3000Y985D02*
X2980D01*
X2970Y995D01*
Y1015D01*
X2980Y1025D01*
X3000D01*
X3010Y1015D01*
Y1005D01*
X2970D01*
X785Y1035D02*
X775Y1045D01*
X755D01*
X745Y1035D01*
Y1025D01*
X755Y1015D01*
X775D01*
X785Y1005D01*
Y995D01*
X775Y985D01*
X755D01*
X745Y995D01*
X815Y985D02*
X835D01*
X845Y995D01*
Y1015D01*
X835Y1025D01*
X815D01*
X805Y1015D01*
Y995D01*
X815Y985D01*
X865D02*
X885D01*
X875D01*
Y1045D01*
X865D01*
X925Y1025D02*
X945D01*
X955Y1015D01*
Y985D01*
X925D01*
X915Y995D01*
X925Y1005D01*
X955D01*
X975Y1025D02*
Y985D01*
Y1005D01*
X985Y1015D01*
X995Y1025D01*
X1005D01*
X1135D02*
X1105D01*
X1095Y1015D01*
Y995D01*
X1105Y985D01*
X1135D01*
X1185D02*
X1165D01*
X1155Y995D01*
Y1015D01*
X1165Y1025D01*
X1185D01*
X1195Y1015D01*
Y1005D01*
X1155D01*
X1215Y985D02*
X1235D01*
X1225D01*
Y1045D01*
X1215D01*
X1265Y985D02*
X1285D01*
X1275D01*
Y1045D01*
X1265D01*
X1315Y985D02*
X1345D01*
X1355Y995D01*
X1345Y1005D01*
X1325D01*
X1315Y1015D01*
X1325Y1025D01*
X1355D01*
X1435D02*
X1455Y985D01*
X1475Y1025D01*
X1495Y985D02*
X1515D01*
X1505D01*
Y1045D01*
X1495Y1035D01*
X1545Y985D02*
Y995D01*
X1555D01*
Y985D01*
X1545D01*
X1595D02*
X1615D01*
X1605D01*
Y1045D01*
X1595Y1035D01*
D17*
X875Y1280D02*
X1545D01*
X875Y730D02*
X1545D01*
X2375D02*
X3045D01*
X2375Y1280D02*
X3045D01*
X1560Y365D02*
X2360D01*
Y115D02*
Y365D01*
X1560Y115D02*
X2360D01*
X1560D02*
Y365D01*
D18*
X2910Y352D02*
X2931D01*
X2921D01*
Y320D01*
X2942D02*
Y352D01*
X2958D01*
X2963Y347D01*
Y336D01*
X2958Y331D01*
X2942D01*
X2974Y347D02*
X2979Y352D01*
X2990D01*
X2995Y347D01*
Y341D01*
X2990Y336D01*
X2995Y331D01*
Y325D01*
X2990Y320D01*
X2979D01*
X2974Y325D01*
Y331D01*
X2979Y336D01*
X2974Y341D01*
Y347D01*
X2979Y336D02*
X2990D01*
X2760Y352D02*
X2781D01*
X2771D01*
Y320D01*
X2792D02*
Y352D01*
X2808D01*
X2813Y347D01*
Y336D01*
X2808Y331D01*
X2792D01*
X2824Y352D02*
X2845D01*
Y347D01*
X2824Y325D01*
Y320D01*
X2610Y352D02*
X2631D01*
X2621D01*
Y320D01*
X2642D02*
Y352D01*
X2658D01*
X2663Y347D01*
Y336D01*
X2658Y331D01*
X2642D01*
X2695Y352D02*
X2685Y347D01*
X2674Y336D01*
Y325D01*
X2679Y320D01*
X2690D01*
X2695Y325D01*
Y331D01*
X2690Y336D01*
X2674D01*
X2460Y352D02*
X2481D01*
X2471D01*
Y320D01*
X2492D02*
Y352D01*
X2508D01*
X2513Y347D01*
Y336D01*
X2508Y331D01*
X2492D01*
X2545Y352D02*
X2524D01*
Y336D01*
X2535Y341D01*
X2540D01*
X2545Y336D01*
Y325D01*
X2540Y320D01*
X2529D01*
X2524Y325D01*
X1260Y352D02*
X1281D01*
X1271D01*
Y320D01*
X1292D02*
Y352D01*
X1308D01*
X1313Y347D01*
Y336D01*
X1308Y331D01*
X1292D01*
X1340Y320D02*
Y352D01*
X1324Y336D01*
X1345D01*
X1110Y352D02*
X1131D01*
X1121D01*
Y320D01*
X1142D02*
Y352D01*
X1158D01*
X1163Y347D01*
Y336D01*
X1158Y331D01*
X1142D01*
X1174Y347D02*
X1179Y352D01*
X1190D01*
X1195Y347D01*
Y341D01*
X1190Y336D01*
X1185D01*
X1190D01*
X1195Y331D01*
Y325D01*
X1190Y320D01*
X1179D01*
X1174Y325D01*
X960Y352D02*
X981D01*
X971D01*
Y320D01*
X992D02*
Y352D01*
X1008D01*
X1013Y347D01*
Y336D01*
X1008Y331D01*
X992D01*
X1045Y320D02*
X1024D01*
X1045Y341D01*
Y347D01*
X1040Y352D01*
X1029D01*
X1024Y347D01*
X810Y352D02*
X831D01*
X821D01*
Y320D01*
X842D02*
Y352D01*
X858D01*
X863Y347D01*
Y336D01*
X858Y331D01*
X842D01*
X874Y320D02*
X885D01*
X879D01*
Y352D01*
X874Y347D01*
X1460Y300D02*
Y332D01*
X1476D01*
X1481Y327D01*
Y316D01*
X1476Y311D01*
X1460D01*
X1492Y300D02*
X1503D01*
X1497D01*
Y332D01*
X1492Y327D01*
X791Y917D02*
X786Y922D01*
X775D01*
X770Y917D01*
Y911D01*
X775Y906D01*
X786D01*
X791Y901D01*
Y895D01*
X786Y890D01*
X775D01*
X770Y895D01*
X823Y917D02*
X818Y922D01*
X807D01*
X802Y917D01*
Y895D01*
X807Y890D01*
X818D01*
X823Y895D01*
X834Y890D02*
X845D01*
X839D01*
Y922D01*
X834Y917D01*
X791Y1467D02*
X786Y1472D01*
X775D01*
X770Y1467D01*
Y1461D01*
X775Y1456D01*
X786D01*
X791Y1451D01*
Y1445D01*
X786Y1440D01*
X775D01*
X770Y1445D01*
X823Y1467D02*
X818Y1472D01*
X807D01*
X802Y1467D01*
Y1445D01*
X807Y1440D01*
X818D01*
X823Y1445D01*
X855Y1440D02*
X834D01*
X855Y1461D01*
Y1467D01*
X850Y1472D01*
X839D01*
X834Y1467D01*
X2281D02*
X2276Y1472D01*
X2265D01*
X2260Y1467D01*
Y1461D01*
X2265Y1456D01*
X2276D01*
X2281Y1451D01*
Y1445D01*
X2276Y1440D01*
X2265D01*
X2260Y1445D01*
X2313Y1467D02*
X2308Y1472D01*
X2297D01*
X2292Y1467D01*
Y1445D01*
X2297Y1440D01*
X2308D01*
X2313Y1445D01*
X2324Y1467D02*
X2329Y1472D01*
X2340D01*
X2345Y1467D01*
Y1461D01*
X2340Y1456D01*
X2335D01*
X2340D01*
X2345Y1451D01*
Y1445D01*
X2340Y1440D01*
X2329D01*
X2324Y1445D01*
X2281Y917D02*
X2276Y922D01*
X2265D01*
X2260Y917D01*
Y911D01*
X2265Y906D01*
X2276D01*
X2281Y901D01*
Y895D01*
X2276Y890D01*
X2265D01*
X2260Y895D01*
X2313Y917D02*
X2308Y922D01*
X2297D01*
X2292Y917D01*
Y895D01*
X2297Y890D01*
X2308D01*
X2313Y895D01*
X2340Y890D02*
Y922D01*
X2324Y906D01*
X2345D01*
X2920Y185D02*
Y150D01*
X2937D01*
X2943Y156D01*
Y162D01*
X2937Y167D01*
X2920D01*
X2937D01*
X2943Y173D01*
Y179D01*
X2937Y185D01*
X2920D01*
X2955Y179D02*
X2961Y185D01*
X2972D01*
X2978Y179D01*
Y173D01*
X2972Y167D01*
X2967D01*
X2972D01*
X2978Y162D01*
Y156D01*
X2972Y150D01*
X2961D01*
X2955Y156D01*
X2770Y150D02*
Y173D01*
X2782Y185D01*
X2793Y173D01*
Y150D01*
Y167D01*
X2770D01*
X2805Y179D02*
X2811Y185D01*
X2822D01*
X2828Y179D01*
Y173D01*
X2822Y167D01*
X2817D01*
X2822D01*
X2828Y162D01*
Y156D01*
X2822Y150D01*
X2811D01*
X2805Y156D01*
X2620Y185D02*
Y150D01*
X2637D01*
X2643Y156D01*
Y162D01*
X2637Y167D01*
X2620D01*
X2637D01*
X2643Y173D01*
Y179D01*
X2637Y185D01*
X2620D01*
X2678Y150D02*
X2655D01*
X2678Y173D01*
Y179D01*
X2672Y185D01*
X2661D01*
X2655Y179D01*
X2470Y150D02*
Y173D01*
X2482Y185D01*
X2493Y173D01*
Y150D01*
Y167D01*
X2470D01*
X2528Y150D02*
X2505D01*
X2528Y173D01*
Y179D01*
X2522Y185D01*
X2511D01*
X2505Y179D01*
X1280Y185D02*
Y150D01*
X1297D01*
X1303Y156D01*
Y162D01*
X1297Y167D01*
X1280D01*
X1297D01*
X1303Y173D01*
Y179D01*
X1297Y185D01*
X1280D01*
X1315Y150D02*
X1327D01*
X1321D01*
Y185D01*
X1315Y179D01*
X1130Y150D02*
Y173D01*
X1142Y185D01*
X1153Y173D01*
Y150D01*
Y167D01*
X1130D01*
X1165Y150D02*
X1177D01*
X1171D01*
Y185D01*
X1165Y179D01*
X970Y185D02*
Y150D01*
X987D01*
X993Y156D01*
Y162D01*
X987Y167D01*
X970D01*
X987D01*
X993Y173D01*
Y179D01*
X987Y185D01*
X970D01*
X1005Y179D02*
X1011Y185D01*
X1022D01*
X1028Y179D01*
Y156D01*
X1022Y150D01*
X1011D01*
X1005Y156D01*
Y179D01*
X820Y150D02*
Y173D01*
X832Y185D01*
X843Y173D01*
Y150D01*
Y167D01*
X820D01*
X855Y179D02*
X861Y185D01*
X872D01*
X878Y179D01*
Y156D01*
X872Y150D01*
X861D01*
X855Y156D01*
Y179D01*
X2260Y75D02*
Y40D01*
X2277D01*
X2283Y46D01*
Y52D01*
X2277Y57D01*
X2260D01*
X2277D01*
X2283Y63D01*
Y69D01*
X2277Y75D01*
X2260D01*
X2295Y69D02*
X2301Y75D01*
X2312D01*
X2318Y69D01*
Y63D01*
X2312Y57D01*
X2307D01*
X2312D01*
X2318Y52D01*
Y46D01*
X2312Y40D01*
X2301D01*
X2295Y46D01*
X2060Y75D02*
Y40D01*
X2077D01*
X2083Y46D01*
Y52D01*
X2077Y57D01*
X2060D01*
X2077D01*
X2083Y63D01*
Y69D01*
X2077Y75D01*
X2060D01*
X2118Y40D02*
X2095D01*
X2118Y63D01*
Y69D01*
X2112Y75D01*
X2101D01*
X2095Y69D01*
X1870Y75D02*
Y40D01*
X1887D01*
X1893Y46D01*
Y52D01*
X1887Y57D01*
X1870D01*
X1887D01*
X1893Y63D01*
Y69D01*
X1887Y75D01*
X1870D01*
X1905Y40D02*
X1917D01*
X1911D01*
Y75D01*
X1905Y69D01*
X1690Y75D02*
Y40D01*
X1707D01*
X1713Y46D01*
Y52D01*
X1707Y57D01*
X1690D01*
X1707D01*
X1713Y63D01*
Y69D01*
X1707Y75D01*
X1690D01*
X1725Y69D02*
X1731Y75D01*
X1742D01*
X1748Y69D01*
Y46D01*
X1742Y40D01*
X1731D01*
X1725Y46D01*
Y69D01*
X2160Y40D02*
Y63D01*
X2172Y75D01*
X2183Y63D01*
Y40D01*
Y57D01*
X2160D01*
X2195Y69D02*
X2201Y75D01*
X2212D01*
X2218Y69D01*
Y63D01*
X2212Y57D01*
X2207D01*
X2212D01*
X2218Y52D01*
Y46D01*
X2212Y40D01*
X2201D01*
X2195Y46D01*
X1960Y40D02*
Y63D01*
X1972Y75D01*
X1983Y63D01*
Y40D01*
Y57D01*
X1960D01*
X2018Y40D02*
X1995D01*
X2018Y63D01*
Y69D01*
X2012Y75D01*
X2001D01*
X1995Y69D01*
X1790Y40D02*
Y63D01*
X1802Y75D01*
X1813Y63D01*
Y40D01*
Y57D01*
X1790D01*
X1825Y40D02*
X1837D01*
X1831D01*
Y75D01*
X1825Y69D01*
X1590Y40D02*
Y63D01*
X1602Y75D01*
X1613Y63D01*
Y40D01*
Y57D01*
X1590D01*
X1625Y69D02*
X1631Y75D01*
X1642D01*
X1648Y69D01*
Y46D01*
X1642Y40D01*
X1631D01*
X1625Y46D01*
Y69D01*
M02*
