G04 Layer_Color=16711935*
%FSLAX23Y23*%
%MOIN*%
G70*
G01*
G75*
%ADD11C,0.015*%
%ADD16C,0.010*%
%ADD24C,0.001*%
%ADD25C,0.006*%
D11*
X-292Y2128D02*
Y3864D01*
X4246D01*
Y2128D02*
Y3864D01*
X-292Y2128D02*
X4246D01*
X4246Y3894D02*
Y4854D01*
X3127Y4614D02*
X4246D01*
X3127Y4494D02*
X4246D01*
X3127Y4374D02*
X4246D01*
X3127Y4254D02*
X4246D01*
X3127Y4134D02*
X4246D01*
X3127Y4014D02*
X4246D01*
X3127Y3894D02*
X4246D01*
X3127D02*
Y4854D01*
X2557Y4614D02*
X3127D01*
X2557Y4494D02*
X3127D01*
X2557Y4374D02*
X3127D01*
X2557Y4254D02*
X3127D01*
X2557Y4134D02*
X3127D01*
X2557Y4014D02*
X3127D01*
X2557Y3894D02*
X3127D01*
X2557D02*
Y4854D01*
X1907Y4614D02*
X2557D01*
X1907Y4494D02*
X2557D01*
X1907Y4374D02*
X2557D01*
X1907Y4254D02*
X2557D01*
X1907Y4134D02*
X2557D01*
X1907Y4014D02*
X2557D01*
X1907Y3894D02*
X2557D01*
X1907D02*
Y4854D01*
X1047Y4614D02*
X1907D01*
X1047Y4494D02*
X1907D01*
X1047Y4374D02*
X1907D01*
X1047Y4254D02*
X1907D01*
X1047Y4134D02*
X1907D01*
X1047Y4014D02*
X1907D01*
X1047Y3894D02*
X1907D01*
X1047D02*
Y4854D01*
X117Y4614D02*
X1047D01*
X117Y4494D02*
X1047D01*
X117Y4374D02*
X1047D01*
X117Y4254D02*
X1047D01*
X117Y4134D02*
X1047D01*
X117Y4014D02*
X1047D01*
X117Y3894D02*
X1047D01*
X117D02*
Y4854D01*
X-292Y4614D02*
X117D01*
X-292Y4494D02*
X117D01*
X-292Y4374D02*
X117D01*
X-292Y4254D02*
X117D01*
X-292Y4134D02*
X117D01*
X-292Y4014D02*
X117D01*
X-292Y3894D02*
X117D01*
X-292D02*
Y4854D01*
X4246D01*
X-292Y4734D02*
X4246D01*
D16*
X0Y1513D02*
Y1860D01*
X200Y1465D02*
Y1860D01*
Y1850D02*
X300D01*
X-100D02*
X0D01*
X200D02*
X260Y1830D01*
X200Y1850D02*
X260Y1870D01*
X-60D02*
X0Y1850D01*
X-60Y1830D02*
X0Y1850D01*
X-140Y1500D02*
X-13D01*
X-140Y1300D02*
X34D01*
X-130Y1400D02*
Y1500D01*
Y1300D02*
Y1400D01*
X-150Y1440D02*
X-130Y1500D01*
X-110Y1440D01*
X-130Y1300D02*
X-110Y1360D01*
X-150D02*
X-130Y1300D01*
X3920Y-360D02*
Y-10D01*
X0Y-360D02*
Y-10D01*
X2095Y-350D02*
X3920D01*
X0D02*
X1793D01*
X3860Y-330D02*
X3920Y-350D01*
X3860Y-370D02*
X3920Y-350D01*
X0D02*
X60Y-370D01*
X0Y-350D02*
X60Y-330D01*
X-610Y1500D02*
X-13D01*
X-610Y0D02*
X-13D01*
X-600Y880D02*
Y1500D01*
Y0D02*
Y588D01*
X-620Y1440D02*
X-600Y1500D01*
X-580Y1440D01*
X-600Y0D02*
X-580Y60D01*
X-620D02*
X-600Y0D01*
X3187Y4824D02*
Y4764D01*
X3217D01*
X3227Y4774D01*
Y4784D01*
X3217Y4794D01*
X3187D01*
X3217D01*
X3227Y4804D01*
Y4814D01*
X3217Y4824D01*
X3187D01*
X3257Y4764D02*
X3277D01*
X3287Y4774D01*
Y4794D01*
X3277Y4804D01*
X3257D01*
X3247Y4794D01*
Y4774D01*
X3257Y4764D01*
X3317Y4804D02*
X3337D01*
X3347Y4794D01*
Y4764D01*
X3317D01*
X3307Y4774D01*
X3317Y4784D01*
X3347D01*
X3367Y4804D02*
Y4764D01*
Y4784D01*
X3377Y4794D01*
X3387Y4804D01*
X3397D01*
X3467Y4824D02*
Y4764D01*
X3437D01*
X3427Y4774D01*
Y4794D01*
X3437Y4804D01*
X3467D01*
X3547Y4824D02*
Y4764D01*
X3586D01*
X3616Y4804D02*
X3636D01*
X3646Y4794D01*
Y4764D01*
X3616D01*
X3606Y4774D01*
X3616Y4784D01*
X3646D01*
X3666Y4804D02*
Y4774D01*
X3676Y4764D01*
X3706D01*
Y4754D01*
X3696Y4744D01*
X3686D01*
X3706Y4764D02*
Y4804D01*
X3756Y4764D02*
X3736D01*
X3726Y4774D01*
Y4794D01*
X3736Y4804D01*
X3756D01*
X3766Y4794D01*
Y4784D01*
X3726D01*
X3786Y4804D02*
Y4764D01*
Y4784D01*
X3796Y4794D01*
X3806Y4804D01*
X3816D01*
X3946Y4814D02*
X3936Y4824D01*
X3916D01*
X3906Y4814D01*
Y4804D01*
X3916Y4794D01*
X3936D01*
X3946Y4784D01*
Y4774D01*
X3936Y4764D01*
X3916D01*
X3906Y4774D01*
X3976Y4814D02*
Y4804D01*
X3966D01*
X3986D01*
X3976D01*
Y4774D01*
X3986Y4764D01*
X4026Y4804D02*
X4046D01*
X4056Y4794D01*
Y4764D01*
X4026D01*
X4016Y4774D01*
X4026Y4784D01*
X4056D01*
X4116Y4804D02*
X4086D01*
X4076Y4794D01*
Y4774D01*
X4086Y4764D01*
X4116D01*
X4136D02*
Y4824D01*
Y4784D02*
X4166Y4804D01*
X4136Y4784D02*
X4166Y4764D01*
X2617Y4574D02*
X2627Y4584D01*
X2647D01*
X2657Y4574D01*
Y4564D01*
X2647Y4554D01*
X2637D01*
X2647D01*
X2657Y4544D01*
Y4534D01*
X2647Y4524D01*
X2627D01*
X2617Y4534D01*
X2677Y4524D02*
Y4534D01*
X2687D01*
Y4524D01*
X2677D01*
X2767Y4584D02*
X2727D01*
Y4554D01*
X2747Y4564D01*
X2757D01*
X2767Y4554D01*
Y4534D01*
X2757Y4524D01*
X2737D01*
X2727Y4534D01*
X2647Y4284D02*
Y4344D01*
X2617Y4314D01*
X2657D01*
X2677Y4284D02*
Y4294D01*
X2687D01*
Y4284D01*
X2677D01*
X2727Y4334D02*
X2737Y4344D01*
X2757D01*
X2767Y4334D01*
Y4324D01*
X2757Y4314D01*
X2767Y4304D01*
Y4294D01*
X2757Y4284D01*
X2737D01*
X2727Y4294D01*
Y4304D01*
X2737Y4314D01*
X2727Y4324D01*
Y4334D01*
X2737Y4314D02*
X2757D01*
X2617Y4094D02*
X2627Y4104D01*
X2647D01*
X2657Y4094D01*
Y4084D01*
X2647Y4074D01*
X2637D01*
X2647D01*
X2657Y4064D01*
Y4054D01*
X2647Y4044D01*
X2627D01*
X2617Y4054D01*
X2677Y4044D02*
Y4054D01*
X2687D01*
Y4044D01*
X2677D01*
X2767Y4104D02*
X2727D01*
Y4074D01*
X2747Y4084D01*
X2757D01*
X2767Y4074D01*
Y4054D01*
X2757Y4044D01*
X2737D01*
X2727Y4054D01*
X2657Y4814D02*
X2647Y4824D01*
X2627D01*
X2617Y4814D01*
Y4774D01*
X2627Y4764D01*
X2647D01*
X2657Y4774D01*
X2687Y4764D02*
X2707D01*
X2717Y4774D01*
Y4794D01*
X2707Y4804D01*
X2687D01*
X2677Y4794D01*
Y4774D01*
X2687Y4764D01*
X2737D02*
Y4804D01*
X2767D01*
X2777Y4794D01*
Y4764D01*
X2797D02*
X2827D01*
X2837Y4774D01*
X2827Y4784D01*
X2807D01*
X2797Y4794D01*
X2807Y4804D01*
X2837D01*
X2867Y4814D02*
Y4804D01*
X2857D01*
X2877D01*
X2867D01*
Y4774D01*
X2877Y4764D01*
X2917Y4804D02*
X2937D01*
X2947Y4794D01*
Y4764D01*
X2917D01*
X2907Y4774D01*
X2917Y4784D01*
X2947D01*
X2967Y4764D02*
Y4804D01*
X2997D01*
X3007Y4794D01*
Y4764D01*
X3037Y4814D02*
Y4804D01*
X3027D01*
X3047D01*
X3037D01*
Y4774D01*
X3047Y4764D01*
X1967Y4574D02*
X1977Y4584D01*
X1997D01*
X2007Y4574D01*
Y4534D01*
X1997Y4524D01*
X1977D01*
X1967Y4534D01*
Y4574D01*
X2027Y4524D02*
Y4534D01*
X2037D01*
Y4524D01*
X2027D01*
X2107D02*
Y4584D01*
X2077Y4554D01*
X2117D01*
X2137Y4574D02*
X2147Y4584D01*
X2167D01*
X2177Y4574D01*
Y4534D01*
X2167Y4524D01*
X2147D01*
X2137Y4534D01*
Y4574D01*
X2197Y4524D02*
Y4564D01*
X2207D01*
X2217Y4554D01*
Y4524D01*
Y4554D01*
X2227Y4564D01*
X2237Y4554D01*
Y4524D01*
X2257D02*
X2277D01*
X2267D01*
Y4564D01*
X2257D01*
X2307Y4524D02*
X2327D01*
X2317D01*
Y4584D01*
X2307D01*
X1967Y4404D02*
X1987D01*
X1977D01*
Y4464D01*
X1967Y4454D01*
X2017Y4404D02*
Y4414D01*
X2027D01*
Y4404D01*
X2017D01*
X2097D02*
Y4464D01*
X2067Y4434D01*
X2107D01*
X2127Y4454D02*
X2137Y4464D01*
X2157D01*
X2167Y4454D01*
Y4414D01*
X2157Y4404D01*
X2137D01*
X2127Y4414D01*
Y4454D01*
X2187Y4404D02*
Y4444D01*
X2197D01*
X2207Y4434D01*
Y4404D01*
Y4434D01*
X2217Y4444D01*
X2227Y4434D01*
Y4404D01*
X2247D02*
X2267D01*
X2257D01*
Y4444D01*
X2247D01*
X2297Y4404D02*
X2317D01*
X2307D01*
Y4464D01*
X2297D01*
X1967Y4284D02*
X1987D01*
X1977D01*
Y4344D01*
X1967Y4334D01*
X2057Y4284D02*
X2017D01*
X2057Y4324D01*
Y4334D01*
X2047Y4344D01*
X2027D01*
X2017Y4334D01*
X2077Y4284D02*
Y4294D01*
X2087D01*
Y4284D01*
X2077D01*
X2167Y4344D02*
X2147Y4334D01*
X2127Y4314D01*
Y4294D01*
X2137Y4284D01*
X2157D01*
X2167Y4294D01*
Y4304D01*
X2157Y4314D01*
X2127D01*
X2187Y4334D02*
X2197Y4344D01*
X2217D01*
X2227Y4334D01*
Y4294D01*
X2217Y4284D01*
X2197D01*
X2187Y4294D01*
Y4334D01*
X2247Y4284D02*
Y4324D01*
X2257D01*
X2267Y4314D01*
Y4284D01*
Y4314D01*
X2277Y4324D01*
X2287Y4314D01*
Y4284D01*
X2307D02*
X2327D01*
X2317D01*
Y4324D01*
X2307D01*
X2357Y4284D02*
X2377D01*
X2367D01*
Y4344D01*
X2357D01*
X1967Y4164D02*
X1987D01*
X1977D01*
Y4224D01*
X1967Y4214D01*
X2017Y4164D02*
Y4174D01*
X2027D01*
Y4164D01*
X2017D01*
X2097D02*
Y4224D01*
X2067Y4194D01*
X2107D01*
X2127Y4214D02*
X2137Y4224D01*
X2157D01*
X2167Y4214D01*
Y4174D01*
X2157Y4164D01*
X2137D01*
X2127Y4174D01*
Y4214D01*
X2187Y4164D02*
Y4204D01*
X2197D01*
X2207Y4194D01*
Y4164D01*
Y4194D01*
X2217Y4204D01*
X2227Y4194D01*
Y4164D01*
X2247D02*
X2267D01*
X2257D01*
Y4204D01*
X2247D01*
X2297Y4164D02*
X2317D01*
X2307D01*
Y4224D01*
X2297D01*
X1967Y4094D02*
X1977Y4104D01*
X1997D01*
X2007Y4094D01*
Y4054D01*
X1997Y4044D01*
X1977D01*
X1967Y4054D01*
Y4094D01*
X2027Y4044D02*
Y4054D01*
X2037D01*
Y4044D01*
X2027D01*
X2107D02*
Y4104D01*
X2077Y4074D01*
X2117D01*
X2137Y4094D02*
X2147Y4104D01*
X2167D01*
X2177Y4094D01*
Y4054D01*
X2167Y4044D01*
X2147D01*
X2137Y4054D01*
Y4094D01*
X2197Y4044D02*
Y4084D01*
X2207D01*
X2217Y4074D01*
Y4044D01*
Y4074D01*
X2227Y4084D01*
X2237Y4074D01*
Y4044D01*
X2257D02*
X2277D01*
X2267D01*
Y4084D01*
X2257D01*
X2307Y4044D02*
X2327D01*
X2317D01*
Y4104D01*
X2307D01*
X1967Y4824D02*
X2007D01*
X1987D01*
Y4764D01*
X2027Y4824D02*
Y4764D01*
Y4794D01*
X2037Y4804D01*
X2057D01*
X2067Y4794D01*
Y4764D01*
X2087D02*
X2107D01*
X2097D01*
Y4804D01*
X2087D01*
X2177D02*
X2147D01*
X2137Y4794D01*
Y4774D01*
X2147Y4764D01*
X2177D01*
X2197D02*
Y4824D01*
Y4784D02*
X2227Y4804D01*
X2197Y4784D02*
X2227Y4764D01*
X2257D02*
Y4804D01*
X2287D01*
X2297Y4794D01*
Y4764D01*
X2347D02*
X2327D01*
X2317Y4774D01*
Y4794D01*
X2327Y4804D01*
X2347D01*
X2357Y4794D01*
Y4784D01*
X2317D01*
X2377Y4764D02*
X2407D01*
X2417Y4774D01*
X2407Y4784D01*
X2387D01*
X2377Y4794D01*
X2387Y4804D01*
X2417D01*
X2437Y4764D02*
X2467D01*
X2477Y4774D01*
X2467Y4784D01*
X2447D01*
X2437Y4794D01*
X2447Y4804D01*
X2477D01*
X1147Y4574D02*
X1137Y4584D01*
X1117D01*
X1107Y4574D01*
Y4564D01*
X1117Y4554D01*
X1137D01*
X1147Y4544D01*
Y4534D01*
X1137Y4524D01*
X1117D01*
X1107Y4534D01*
X1177Y4524D02*
X1197D01*
X1207Y4534D01*
Y4554D01*
X1197Y4564D01*
X1177D01*
X1167Y4554D01*
Y4534D01*
X1177Y4524D01*
X1227D02*
X1247D01*
X1237D01*
Y4584D01*
X1227D01*
X1317D02*
Y4524D01*
X1287D01*
X1277Y4534D01*
Y4554D01*
X1287Y4564D01*
X1317D01*
X1367Y4524D02*
X1347D01*
X1337Y4534D01*
Y4554D01*
X1347Y4564D01*
X1367D01*
X1377Y4554D01*
Y4544D01*
X1337D01*
X1397Y4564D02*
Y4524D01*
Y4544D01*
X1407Y4554D01*
X1417Y4564D01*
X1427D01*
X1517Y4524D02*
Y4584D01*
X1547D01*
X1557Y4574D01*
Y4554D01*
X1547Y4544D01*
X1517D01*
X1537D02*
X1557Y4524D01*
X1607D02*
X1587D01*
X1577Y4534D01*
Y4554D01*
X1587Y4564D01*
X1607D01*
X1617Y4554D01*
Y4544D01*
X1577D01*
X1637Y4524D02*
X1667D01*
X1677Y4534D01*
X1667Y4544D01*
X1647D01*
X1637Y4554D01*
X1647Y4564D01*
X1677D01*
X1697Y4524D02*
X1717D01*
X1707D01*
Y4564D01*
X1697D01*
X1747Y4524D02*
X1777D01*
X1787Y4534D01*
X1777Y4544D01*
X1757D01*
X1747Y4554D01*
X1757Y4564D01*
X1787D01*
X1817Y4574D02*
Y4564D01*
X1807D01*
X1827D01*
X1817D01*
Y4534D01*
X1827Y4524D01*
X1147Y4454D02*
X1137Y4464D01*
X1117D01*
X1107Y4454D01*
Y4414D01*
X1117Y4404D01*
X1137D01*
X1147Y4414D01*
X1177Y4404D02*
X1197D01*
X1207Y4414D01*
Y4434D01*
X1197Y4444D01*
X1177D01*
X1167Y4434D01*
Y4414D01*
X1177Y4404D01*
X1227Y4384D02*
Y4444D01*
X1257D01*
X1267Y4434D01*
Y4414D01*
X1257Y4404D01*
X1227D01*
X1287Y4384D02*
Y4444D01*
X1317D01*
X1327Y4434D01*
Y4414D01*
X1317Y4404D01*
X1287D01*
X1377D02*
X1357D01*
X1347Y4414D01*
Y4434D01*
X1357Y4444D01*
X1377D01*
X1387Y4434D01*
Y4424D01*
X1347D01*
X1407Y4444D02*
Y4404D01*
Y4424D01*
X1417Y4434D01*
X1427Y4444D01*
X1437D01*
X1147Y4344D02*
X1107D01*
Y4314D01*
X1127D01*
X1107D01*
Y4284D01*
X1167D02*
Y4344D01*
X1197D01*
X1207Y4334D01*
Y4314D01*
X1197Y4304D01*
X1167D01*
X1187D02*
X1207Y4284D01*
X1227Y4314D02*
X1267D01*
X1317Y4284D02*
Y4344D01*
X1287Y4314D01*
X1327D01*
X1147Y4214D02*
X1137Y4224D01*
X1117D01*
X1107Y4214D01*
Y4174D01*
X1117Y4164D01*
X1137D01*
X1147Y4174D01*
X1177Y4164D02*
X1197D01*
X1207Y4174D01*
Y4194D01*
X1197Y4204D01*
X1177D01*
X1167Y4194D01*
Y4174D01*
X1177Y4164D01*
X1227Y4144D02*
Y4204D01*
X1257D01*
X1267Y4194D01*
Y4174D01*
X1257Y4164D01*
X1227D01*
X1287Y4144D02*
Y4204D01*
X1317D01*
X1327Y4194D01*
Y4174D01*
X1317Y4164D01*
X1287D01*
X1377D02*
X1357D01*
X1347Y4174D01*
Y4194D01*
X1357Y4204D01*
X1377D01*
X1387Y4194D01*
Y4184D01*
X1347D01*
X1407Y4204D02*
Y4164D01*
Y4184D01*
X1417Y4194D01*
X1427Y4204D01*
X1437D01*
X1147Y4094D02*
X1137Y4104D01*
X1117D01*
X1107Y4094D01*
Y4084D01*
X1117Y4074D01*
X1137D01*
X1147Y4064D01*
Y4054D01*
X1137Y4044D01*
X1117D01*
X1107Y4054D01*
X1177Y4044D02*
X1197D01*
X1207Y4054D01*
Y4074D01*
X1197Y4084D01*
X1177D01*
X1167Y4074D01*
Y4054D01*
X1177Y4044D01*
X1227D02*
X1247D01*
X1237D01*
Y4104D01*
X1227D01*
X1317D02*
Y4044D01*
X1287D01*
X1277Y4054D01*
Y4074D01*
X1287Y4084D01*
X1317D01*
X1367Y4044D02*
X1347D01*
X1337Y4054D01*
Y4074D01*
X1347Y4084D01*
X1367D01*
X1377Y4074D01*
Y4064D01*
X1337D01*
X1397Y4084D02*
Y4044D01*
Y4064D01*
X1407Y4074D01*
X1417Y4084D01*
X1427D01*
X1517Y4044D02*
Y4104D01*
X1547D01*
X1557Y4094D01*
Y4074D01*
X1547Y4064D01*
X1517D01*
X1537D02*
X1557Y4044D01*
X1607D02*
X1587D01*
X1577Y4054D01*
Y4074D01*
X1587Y4084D01*
X1607D01*
X1617Y4074D01*
Y4064D01*
X1577D01*
X1637Y4044D02*
X1667D01*
X1677Y4054D01*
X1667Y4064D01*
X1647D01*
X1637Y4074D01*
X1647Y4084D01*
X1677D01*
X1697Y4044D02*
X1717D01*
X1707D01*
Y4084D01*
X1697D01*
X1747Y4044D02*
X1777D01*
X1787Y4054D01*
X1777Y4064D01*
X1757D01*
X1747Y4074D01*
X1757Y4084D01*
X1787D01*
X1817Y4094D02*
Y4084D01*
X1807D01*
X1827D01*
X1817D01*
Y4054D01*
X1827Y4044D01*
X1107Y4764D02*
Y4824D01*
X1127Y4804D01*
X1147Y4824D01*
Y4764D01*
X1177Y4804D02*
X1197D01*
X1207Y4794D01*
Y4764D01*
X1177D01*
X1167Y4774D01*
X1177Y4784D01*
X1207D01*
X1237Y4814D02*
Y4804D01*
X1227D01*
X1247D01*
X1237D01*
Y4774D01*
X1247Y4764D01*
X1307D02*
X1287D01*
X1277Y4774D01*
Y4794D01*
X1287Y4804D01*
X1307D01*
X1317Y4794D01*
Y4784D01*
X1277D01*
X1337Y4804D02*
Y4764D01*
Y4784D01*
X1347Y4794D01*
X1357Y4804D01*
X1367D01*
X1397Y4764D02*
X1417D01*
X1407D01*
Y4804D01*
X1397D01*
X1457D02*
X1477D01*
X1487Y4794D01*
Y4764D01*
X1457D01*
X1447Y4774D01*
X1457Y4784D01*
X1487D01*
X1507Y4764D02*
X1527D01*
X1517D01*
Y4824D01*
X1507D01*
X177Y4704D02*
X217D01*
X197D01*
Y4644D01*
X247D02*
X267D01*
X277Y4654D01*
Y4674D01*
X267Y4684D01*
X247D01*
X237Y4674D01*
Y4654D01*
X247Y4644D01*
X297Y4624D02*
Y4684D01*
X327D01*
X337Y4674D01*
Y4654D01*
X327Y4644D01*
X297D01*
X447Y4704D02*
X427D01*
X417Y4694D01*
Y4654D01*
X427Y4644D01*
X447D01*
X457Y4654D01*
Y4694D01*
X447Y4704D01*
X477Y4684D02*
X497Y4644D01*
X517Y4684D01*
X567Y4644D02*
X547D01*
X537Y4654D01*
Y4674D01*
X547Y4684D01*
X567D01*
X577Y4674D01*
Y4664D01*
X537D01*
X597Y4684D02*
Y4644D01*
Y4664D01*
X607Y4674D01*
X617Y4684D01*
X627D01*
X657Y4644D02*
X677D01*
X667D01*
Y4704D01*
X657D01*
X717Y4684D02*
X737D01*
X747Y4674D01*
Y4644D01*
X717D01*
X707Y4654D01*
X717Y4664D01*
X747D01*
X767Y4684D02*
Y4654D01*
X777Y4644D01*
X807D01*
Y4634D01*
X797Y4624D01*
X787D01*
X807Y4644D02*
Y4684D01*
X177Y4584D02*
X217D01*
X197D01*
Y4524D01*
X247D02*
X267D01*
X277Y4534D01*
Y4554D01*
X267Y4564D01*
X247D01*
X237Y4554D01*
Y4534D01*
X247Y4524D01*
X297Y4504D02*
Y4564D01*
X327D01*
X337Y4554D01*
Y4534D01*
X327Y4524D01*
X297D01*
X457Y4574D02*
X447Y4584D01*
X427D01*
X417Y4574D01*
Y4564D01*
X427Y4554D01*
X447D01*
X457Y4544D01*
Y4534D01*
X447Y4524D01*
X427D01*
X417Y4534D01*
X487Y4524D02*
X507D01*
X517Y4534D01*
Y4554D01*
X507Y4564D01*
X487D01*
X477Y4554D01*
Y4534D01*
X487Y4524D01*
X537D02*
X557D01*
X547D01*
Y4584D01*
X537D01*
X627D02*
Y4524D01*
X597D01*
X587Y4534D01*
Y4554D01*
X597Y4564D01*
X627D01*
X677Y4524D02*
X657D01*
X647Y4534D01*
Y4554D01*
X657Y4564D01*
X677D01*
X687Y4554D01*
Y4544D01*
X647D01*
X707Y4564D02*
Y4524D01*
Y4544D01*
X717Y4554D01*
X727Y4564D01*
X737D01*
X177Y4464D02*
X217D01*
X197D01*
Y4404D01*
X247D02*
X267D01*
X277Y4414D01*
Y4434D01*
X267Y4444D01*
X247D01*
X237Y4434D01*
Y4414D01*
X247Y4404D01*
X297Y4384D02*
Y4444D01*
X327D01*
X337Y4434D01*
Y4414D01*
X327Y4404D01*
X297D01*
X417Y4464D02*
Y4404D01*
X457D01*
X487Y4444D02*
X507D01*
X517Y4434D01*
Y4404D01*
X487D01*
X477Y4414D01*
X487Y4424D01*
X517D01*
X537Y4444D02*
Y4414D01*
X547Y4404D01*
X577D01*
Y4394D01*
X567Y4384D01*
X557D01*
X577Y4404D02*
Y4444D01*
X627Y4404D02*
X607D01*
X597Y4414D01*
Y4434D01*
X607Y4444D01*
X627D01*
X637Y4434D01*
Y4424D01*
X597D01*
X657Y4444D02*
Y4404D01*
Y4424D01*
X667Y4434D01*
X677Y4444D01*
X687D01*
X177Y4344D02*
Y4284D01*
X207D01*
X217Y4294D01*
Y4334D01*
X207Y4344D01*
X177D01*
X237Y4284D02*
X257D01*
X247D01*
Y4324D01*
X237D01*
X317Y4284D02*
X297D01*
X287Y4294D01*
Y4314D01*
X297Y4324D01*
X317D01*
X327Y4314D01*
Y4304D01*
X287D01*
X347Y4284D02*
X367D01*
X357D01*
Y4344D01*
X347D01*
X427Y4284D02*
X407D01*
X397Y4294D01*
Y4314D01*
X407Y4324D01*
X427D01*
X437Y4314D01*
Y4304D01*
X397D01*
X497Y4324D02*
X467D01*
X457Y4314D01*
Y4294D01*
X467Y4284D01*
X497D01*
X527Y4334D02*
Y4324D01*
X517D01*
X537D01*
X527D01*
Y4294D01*
X537Y4284D01*
X567Y4324D02*
Y4284D01*
Y4304D01*
X577Y4314D01*
X587Y4324D01*
X597D01*
X627Y4284D02*
X647D01*
X637D01*
Y4324D01*
X627D01*
X717D02*
X687D01*
X677Y4314D01*
Y4294D01*
X687Y4284D01*
X717D01*
X797D02*
X817D01*
X807D01*
Y4344D01*
X797Y4334D01*
X177Y4224D02*
Y4164D01*
X207D01*
X217Y4174D01*
Y4184D01*
X207Y4194D01*
X177D01*
X207D01*
X217Y4204D01*
Y4214D01*
X207Y4224D01*
X177D01*
X247Y4164D02*
X267D01*
X277Y4174D01*
Y4194D01*
X267Y4204D01*
X247D01*
X237Y4194D01*
Y4174D01*
X247Y4164D01*
X307Y4214D02*
Y4204D01*
X297D01*
X317D01*
X307D01*
Y4174D01*
X317Y4164D01*
X357Y4214D02*
Y4204D01*
X347D01*
X367D01*
X357D01*
Y4174D01*
X367Y4164D01*
X407D02*
X427D01*
X437Y4174D01*
Y4194D01*
X427Y4204D01*
X407D01*
X397Y4194D01*
Y4174D01*
X407Y4164D01*
X457D02*
Y4204D01*
X467D01*
X477Y4194D01*
Y4164D01*
Y4194D01*
X487Y4204D01*
X497Y4194D01*
Y4164D01*
X577Y4224D02*
Y4164D01*
X617D01*
X647Y4204D02*
X667D01*
X677Y4194D01*
Y4164D01*
X647D01*
X637Y4174D01*
X647Y4184D01*
X677D01*
X697Y4204D02*
Y4174D01*
X707Y4164D01*
X737D01*
Y4154D01*
X727Y4144D01*
X717D01*
X737Y4164D02*
Y4204D01*
X787Y4164D02*
X767D01*
X757Y4174D01*
Y4194D01*
X767Y4204D01*
X787D01*
X797Y4194D01*
Y4184D01*
X757D01*
X817Y4204D02*
Y4164D01*
Y4184D01*
X827Y4194D01*
X837Y4204D01*
X847D01*
X177Y4104D02*
Y4044D01*
X207D01*
X217Y4054D01*
Y4064D01*
X207Y4074D01*
X177D01*
X207D01*
X217Y4084D01*
Y4094D01*
X207Y4104D01*
X177D01*
X247Y4044D02*
X267D01*
X277Y4054D01*
Y4074D01*
X267Y4084D01*
X247D01*
X237Y4074D01*
Y4054D01*
X247Y4044D01*
X307Y4094D02*
Y4084D01*
X297D01*
X317D01*
X307D01*
Y4054D01*
X317Y4044D01*
X357Y4094D02*
Y4084D01*
X347D01*
X367D01*
X357D01*
Y4054D01*
X367Y4044D01*
X407D02*
X427D01*
X437Y4054D01*
Y4074D01*
X427Y4084D01*
X407D01*
X397Y4074D01*
Y4054D01*
X407Y4044D01*
X457D02*
Y4084D01*
X467D01*
X477Y4074D01*
Y4044D01*
Y4074D01*
X487Y4084D01*
X497Y4074D01*
Y4044D01*
X617Y4094D02*
X607Y4104D01*
X587D01*
X577Y4094D01*
Y4084D01*
X587Y4074D01*
X607D01*
X617Y4064D01*
Y4054D01*
X607Y4044D01*
X587D01*
X577Y4054D01*
X647Y4044D02*
X667D01*
X677Y4054D01*
Y4074D01*
X667Y4084D01*
X647D01*
X637Y4074D01*
Y4054D01*
X647Y4044D01*
X697D02*
X717D01*
X707D01*
Y4104D01*
X697D01*
X787D02*
Y4044D01*
X757D01*
X747Y4054D01*
Y4074D01*
X757Y4084D01*
X787D01*
X837Y4044D02*
X817D01*
X807Y4054D01*
Y4074D01*
X817Y4084D01*
X837D01*
X847Y4074D01*
Y4064D01*
X807D01*
X867Y4084D02*
Y4044D01*
Y4064D01*
X877Y4074D01*
X887Y4084D01*
X897D01*
X177Y3984D02*
Y3924D01*
X207D01*
X217Y3934D01*
Y3944D01*
X207Y3954D01*
X177D01*
X207D01*
X217Y3964D01*
Y3974D01*
X207Y3984D01*
X177D01*
X247Y3924D02*
X267D01*
X277Y3934D01*
Y3954D01*
X267Y3964D01*
X247D01*
X237Y3954D01*
Y3934D01*
X247Y3924D01*
X307Y3974D02*
Y3964D01*
X297D01*
X317D01*
X307D01*
Y3934D01*
X317Y3924D01*
X357Y3974D02*
Y3964D01*
X347D01*
X367D01*
X357D01*
Y3934D01*
X367Y3924D01*
X407D02*
X427D01*
X437Y3934D01*
Y3954D01*
X427Y3964D01*
X407D01*
X397Y3954D01*
Y3934D01*
X407Y3924D01*
X457D02*
Y3964D01*
X467D01*
X477Y3954D01*
Y3924D01*
Y3954D01*
X487Y3964D01*
X497Y3954D01*
Y3924D01*
X607Y3984D02*
X587D01*
X577Y3974D01*
Y3934D01*
X587Y3924D01*
X607D01*
X617Y3934D01*
Y3974D01*
X607Y3984D01*
X637Y3964D02*
X657Y3924D01*
X677Y3964D01*
X727Y3924D02*
X707D01*
X697Y3934D01*
Y3954D01*
X707Y3964D01*
X727D01*
X737Y3954D01*
Y3944D01*
X697D01*
X757Y3964D02*
Y3924D01*
Y3944D01*
X767Y3954D01*
X777Y3964D01*
X787D01*
X817Y3924D02*
X837D01*
X827D01*
Y3984D01*
X817D01*
X877Y3964D02*
X897D01*
X907Y3954D01*
Y3924D01*
X877D01*
X867Y3934D01*
X877Y3944D01*
X907D01*
X927Y3964D02*
Y3934D01*
X937Y3924D01*
X967D01*
Y3914D01*
X957Y3904D01*
X947D01*
X967Y3924D02*
Y3964D01*
X177Y4764D02*
Y4824D01*
X217Y4764D01*
Y4824D01*
X247Y4804D02*
X267D01*
X277Y4794D01*
Y4764D01*
X247D01*
X237Y4774D01*
X247Y4784D01*
X277D01*
X297Y4764D02*
Y4804D01*
X307D01*
X317Y4794D01*
Y4764D01*
Y4794D01*
X327Y4804D01*
X337Y4794D01*
Y4764D01*
X387D02*
X367D01*
X357Y4774D01*
Y4794D01*
X367Y4804D01*
X387D01*
X397Y4794D01*
Y4784D01*
X357D01*
X-232Y4644D02*
X-213D01*
X-223D01*
Y4704D01*
X-232Y4694D01*
X-193Y4524D02*
X-232D01*
X-193Y4564D01*
Y4574D01*
X-203Y4584D01*
X-223D01*
X-232Y4574D01*
Y4454D02*
X-223Y4464D01*
X-203D01*
X-193Y4454D01*
Y4444D01*
X-203Y4434D01*
X-213D01*
X-203D01*
X-193Y4424D01*
Y4414D01*
X-203Y4404D01*
X-223D01*
X-232Y4414D01*
X-203Y4284D02*
Y4344D01*
X-232Y4314D01*
X-193D01*
Y4224D02*
X-232D01*
Y4194D01*
X-213Y4204D01*
X-203D01*
X-193Y4194D01*
Y4174D01*
X-203Y4164D01*
X-223D01*
X-232Y4174D01*
X-193Y4104D02*
X-213Y4094D01*
X-232Y4074D01*
Y4054D01*
X-223Y4044D01*
X-203D01*
X-193Y4054D01*
Y4064D01*
X-203Y4074D01*
X-232D01*
Y3984D02*
X-193D01*
Y3974D01*
X-232Y3934D01*
Y3924D01*
Y4824D02*
Y4764D01*
X-193D01*
X-163Y4804D02*
X-143D01*
X-133Y4794D01*
Y4764D01*
X-163D01*
X-173Y4774D01*
X-163Y4784D01*
X-133D01*
X-113Y4804D02*
Y4774D01*
X-103Y4764D01*
X-73D01*
Y4754D01*
X-83Y4744D01*
X-93D01*
X-73Y4764D02*
Y4804D01*
X-23Y4764D02*
X-43D01*
X-53Y4774D01*
Y4794D01*
X-43Y4804D01*
X-23D01*
X-13Y4794D01*
Y4784D01*
X-53D01*
X7Y4804D02*
Y4764D01*
Y4784D01*
X17Y4794D01*
X27Y4804D01*
X37D01*
D24*
X-292Y3829D02*
X-256Y3865D01*
X-292Y3769D02*
X-196Y3865D01*
X-292Y3709D02*
X-136Y3865D01*
X-292Y3649D02*
X-76Y3865D01*
X-292Y3589D02*
X-16Y3865D01*
X-292Y3529D02*
X44Y3865D01*
X-292Y3469D02*
X104Y3865D01*
X-292Y3409D02*
X164Y3865D01*
X-292Y3349D02*
X224Y3865D01*
X-292Y3289D02*
X284Y3865D01*
X-292Y3229D02*
X344Y3865D01*
X-292Y3169D02*
X404Y3865D01*
X-292Y3109D02*
X464Y3865D01*
X-292Y3049D02*
X524Y3865D01*
X-292Y2989D02*
X584Y3865D01*
X-292Y2929D02*
X644Y3865D01*
X-292Y2869D02*
X704Y3865D01*
X-292Y2809D02*
X764Y3865D01*
X-292Y2749D02*
X824Y3865D01*
X-292Y2689D02*
X884Y3865D01*
X-292Y2629D02*
X944Y3865D01*
X-292Y2569D02*
X1004Y3865D01*
X-292Y2509D02*
X1064Y3865D01*
X-292Y2449D02*
X1124Y3865D01*
X-292Y2389D02*
X1184Y3865D01*
X-292Y2329D02*
X1244Y3865D01*
X-292Y2269D02*
X1304Y3865D01*
X-292Y2209D02*
X1364Y3865D01*
X-292Y2149D02*
X1424Y3865D01*
X-254Y2127D02*
X1484Y3865D01*
X-194Y2127D02*
X1544Y3865D01*
X-134Y2127D02*
X1604Y3865D01*
X-74Y2127D02*
X1664Y3865D01*
X-14Y2127D02*
X1724Y3865D01*
X46Y2127D02*
X1784Y3865D01*
X106Y2127D02*
X1844Y3865D01*
X166Y2127D02*
X1904Y3865D01*
X226Y2127D02*
X1964Y3865D01*
X286Y2127D02*
X2024Y3865D01*
X346Y2127D02*
X2084Y3865D01*
X406Y2127D02*
X2144Y3865D01*
X466Y2127D02*
X2204Y3865D01*
X526Y2127D02*
X2264Y3865D01*
X586Y2127D02*
X2324Y3865D01*
X646Y2127D02*
X2384Y3865D01*
X706Y2127D02*
X2444Y3865D01*
X766Y2127D02*
X2504Y3865D01*
X826Y2127D02*
X2564Y3865D01*
X886Y2127D02*
X2624Y3865D01*
X946Y2127D02*
X2684Y3865D01*
X1006Y2127D02*
X2744Y3865D01*
X1066Y2127D02*
X2804Y3865D01*
X1126Y2127D02*
X2864Y3865D01*
X1186Y2127D02*
X2924Y3865D01*
X1246Y2127D02*
X2984Y3865D01*
X1306Y2127D02*
X3044Y3865D01*
X1366Y2127D02*
X3104Y3865D01*
X1426Y2127D02*
X3164Y3865D01*
X1486Y2127D02*
X3224Y3865D01*
X1546Y2127D02*
X3284Y3865D01*
X1606Y2127D02*
X3344Y3865D01*
X1666Y2127D02*
X3404Y3865D01*
X1726Y2127D02*
X3464Y3865D01*
X1786Y2127D02*
X3524Y3865D01*
X1846Y2127D02*
X3584Y3865D01*
X1906Y2127D02*
X3644Y3865D01*
X1966Y2127D02*
X3704Y3865D01*
X2026Y2127D02*
X3764Y3865D01*
X2086Y2127D02*
X3824Y3865D01*
X2146Y2127D02*
X3884Y3865D01*
X2206Y2127D02*
X3944Y3865D01*
X2266Y2127D02*
X4004Y3865D01*
X2326Y2127D02*
X4064Y3865D01*
X2386Y2127D02*
X4124Y3865D01*
X2446Y2127D02*
X4184Y3865D01*
X2506Y2127D02*
X4244Y3865D01*
X2566Y2127D02*
X4246Y3807D01*
X2626Y2127D02*
X4246Y3747D01*
X2686Y2127D02*
X4246Y3688D01*
X2746Y2127D02*
X4246Y3628D01*
X2806Y2127D02*
X4246Y3568D01*
X2866Y2127D02*
X4246Y3507D01*
X2926Y2127D02*
X4246Y3447D01*
X2986Y2127D02*
X4246Y3388D01*
X3046Y2127D02*
X4246Y3328D01*
X3106Y2127D02*
X4246Y3267D01*
X3166Y2127D02*
X4246Y3207D01*
X3226Y2127D02*
X4246Y3148D01*
X3286Y2127D02*
X4246Y3088D01*
X3346Y2127D02*
X4246Y3027D01*
X3406Y2127D02*
X4246Y2967D01*
X3466Y2127D02*
X4246Y2908D01*
X3526Y2127D02*
X4246Y2848D01*
X3586Y2127D02*
X4246Y2787D01*
X3646Y2127D02*
X4246Y2727D01*
X3706Y2127D02*
X4246Y2668D01*
X3766Y2127D02*
X4246Y2608D01*
X3826Y2127D02*
X4246Y2547D01*
X3886Y2127D02*
X4246Y2487D01*
X3946Y2127D02*
X4246Y2428D01*
X4006Y2127D02*
X4246Y2368D01*
X4066Y2127D02*
X4246Y2307D01*
X4126Y2127D02*
X4246Y2247D01*
X4186Y2127D02*
X4246Y2188D01*
X3127Y4695D02*
X3166Y4734D01*
X3127Y4635D02*
X3226Y4734D01*
X3166Y4614D02*
X3286Y4734D01*
X3226Y4614D02*
X3346Y4734D01*
X3286Y4614D02*
X3406Y4734D01*
X3346Y4614D02*
X3466Y4734D01*
X3406Y4614D02*
X3526Y4734D01*
X3466Y4614D02*
X3586Y4734D01*
X3526Y4614D02*
X3646Y4734D01*
X3586Y4614D02*
X3706Y4734D01*
X3646Y4614D02*
X3766Y4734D01*
X3706Y4614D02*
X3826Y4734D01*
X3766Y4614D02*
X3886Y4734D01*
X3826Y4614D02*
X3946Y4734D01*
X3886Y4614D02*
X4006Y4734D01*
X3946Y4614D02*
X4066Y4734D01*
X4006Y4614D02*
X4126Y4734D01*
X4066Y4614D02*
X4186Y4734D01*
X4126Y4614D02*
X4246Y4734D01*
X4186Y4614D02*
X4246Y4674D01*
X3127Y4575D02*
X3166Y4614D01*
X3127Y4515D02*
X3226Y4614D01*
X3166Y4494D02*
X3286Y4614D01*
X3226Y4494D02*
X3346Y4614D01*
X3286Y4494D02*
X3406Y4614D01*
X3346Y4494D02*
X3466Y4614D01*
X3406Y4494D02*
X3526Y4614D01*
X3466Y4494D02*
X3586Y4614D01*
X3526Y4494D02*
X3646Y4614D01*
X3586Y4494D02*
X3706Y4614D01*
X3646Y4494D02*
X3766Y4614D01*
X3706Y4494D02*
X3826Y4614D01*
X3766Y4494D02*
X3886Y4614D01*
X3826Y4494D02*
X3946Y4614D01*
X3886Y4494D02*
X4006Y4614D01*
X3946Y4494D02*
X4066Y4614D01*
X4006Y4494D02*
X4126Y4614D01*
X4066Y4494D02*
X4186Y4614D01*
X4126Y4494D02*
X4246Y4614D01*
X4186Y4494D02*
X4246Y4554D01*
X3127Y4455D02*
X3166Y4494D01*
X3127Y4395D02*
X3226Y4494D01*
X3166Y4374D02*
X3286Y4494D01*
X3226Y4374D02*
X3346Y4494D01*
X3286Y4374D02*
X3406Y4494D01*
X3346Y4374D02*
X3466Y4494D01*
X3406Y4374D02*
X3526Y4494D01*
X3466Y4374D02*
X3586Y4494D01*
X3526Y4374D02*
X3646Y4494D01*
X3586Y4374D02*
X3706Y4494D01*
X3646Y4374D02*
X3766Y4494D01*
X3706Y4374D02*
X3826Y4494D01*
X3766Y4374D02*
X3886Y4494D01*
X3826Y4374D02*
X3946Y4494D01*
X3886Y4374D02*
X4006Y4494D01*
X3946Y4374D02*
X4066Y4494D01*
X4006Y4374D02*
X4126Y4494D01*
X4066Y4374D02*
X4186Y4494D01*
X4126Y4374D02*
X4246Y4494D01*
X4186Y4374D02*
X4246Y4434D01*
X3127Y4335D02*
X3166Y4374D01*
X3127Y4275D02*
X3226Y4374D01*
X3166Y4254D02*
X3286Y4374D01*
X3226Y4254D02*
X3346Y4374D01*
X3286Y4254D02*
X3406Y4374D01*
X3346Y4254D02*
X3466Y4374D01*
X3406Y4254D02*
X3526Y4374D01*
X3466Y4254D02*
X3586Y4374D01*
X3526Y4254D02*
X3646Y4374D01*
X3586Y4254D02*
X3706Y4374D01*
X3646Y4254D02*
X3766Y4374D01*
X3706Y4254D02*
X3826Y4374D01*
X3766Y4254D02*
X3886Y4374D01*
X3826Y4254D02*
X3946Y4374D01*
X3886Y4254D02*
X4006Y4374D01*
X3946Y4254D02*
X4066Y4374D01*
X4006Y4254D02*
X4126Y4374D01*
X4066Y4254D02*
X4186Y4374D01*
X4126Y4254D02*
X4246Y4374D01*
X4186Y4254D02*
X4246Y4314D01*
X3127Y4215D02*
X3166Y4254D01*
X3127Y4155D02*
X3226Y4254D01*
X3166Y4134D02*
X3286Y4254D01*
X3226Y4134D02*
X3346Y4254D01*
X3286Y4134D02*
X3406Y4254D01*
X3346Y4134D02*
X3466Y4254D01*
X3406Y4134D02*
X3526Y4254D01*
X3466Y4134D02*
X3586Y4254D01*
X3526Y4134D02*
X3646Y4254D01*
X3586Y4134D02*
X3706Y4254D01*
X3646Y4134D02*
X3766Y4254D01*
X3706Y4134D02*
X3826Y4254D01*
X3766Y4134D02*
X3886Y4254D01*
X3826Y4134D02*
X3946Y4254D01*
X3886Y4134D02*
X4006Y4254D01*
X3946Y4134D02*
X4066Y4254D01*
X4006Y4134D02*
X4126Y4254D01*
X4066Y4134D02*
X4186Y4254D01*
X4126Y4134D02*
X4246Y4254D01*
X4186Y4134D02*
X4246Y4194D01*
X3127Y4095D02*
X3166Y4134D01*
X3127Y4035D02*
X3226Y4134D01*
X3166Y4014D02*
X3286Y4134D01*
X3226Y4014D02*
X3346Y4134D01*
X3286Y4014D02*
X3406Y4134D01*
X3346Y4014D02*
X3466Y4134D01*
X3406Y4014D02*
X3526Y4134D01*
X3466Y4014D02*
X3586Y4134D01*
X3526Y4014D02*
X3646Y4134D01*
X3586Y4014D02*
X3706Y4134D01*
X3646Y4014D02*
X3766Y4134D01*
X3706Y4014D02*
X3826Y4134D01*
X3766Y4014D02*
X3886Y4134D01*
X3826Y4014D02*
X3946Y4134D01*
X3886Y4014D02*
X4006Y4134D01*
X3946Y4014D02*
X4066Y4134D01*
X4006Y4014D02*
X4126Y4134D01*
X4066Y4014D02*
X4186Y4134D01*
X4126Y4014D02*
X4246Y4134D01*
X4186Y4014D02*
X4246Y4074D01*
X3127Y3975D02*
X3166Y4014D01*
X3127Y3915D02*
X3226Y4014D01*
X3166Y3894D02*
X3286Y4014D01*
X3226Y3894D02*
X3346Y4014D01*
X3286Y3894D02*
X3406Y4014D01*
X3346Y3894D02*
X3466Y4014D01*
X3406Y3894D02*
X3526Y4014D01*
X3466Y3894D02*
X3586Y4014D01*
X3526Y3894D02*
X3646Y4014D01*
X3586Y3894D02*
X3706Y4014D01*
X3646Y3894D02*
X3766Y4014D01*
X3706Y3894D02*
X3826Y4014D01*
X3766Y3894D02*
X3886Y4014D01*
X3826Y3894D02*
X3946Y4014D01*
X3886Y3894D02*
X4006Y4014D01*
X3946Y3894D02*
X4066Y4014D01*
X4006Y3894D02*
X4126Y4014D01*
X4066Y3894D02*
X4186Y4014D01*
X4126Y3894D02*
X4246Y4014D01*
X4186Y3894D02*
X4246Y3954D01*
D25*
X0Y0D02*
Y1500D01*
X3920D01*
Y0D02*
Y1500D01*
X0Y0D02*
X3920D01*
X19Y1982D02*
X-21D01*
Y1952D01*
X-1Y1962D01*
X9D01*
X19Y1952D01*
Y1932D01*
X9Y1922D01*
X-11D01*
X-21Y1932D01*
X39Y1922D02*
Y1932D01*
X49D01*
Y1922D01*
X39D01*
X89Y1972D02*
X99Y1982D01*
X119D01*
X129Y1972D01*
Y1932D01*
X119Y1922D01*
X99D01*
X89Y1932D01*
Y1972D01*
X149D02*
X159Y1982D01*
X179D01*
X189Y1972D01*
Y1962D01*
X179Y1952D01*
X189Y1942D01*
Y1932D01*
X179Y1922D01*
X159D01*
X149Y1932D01*
Y1942D01*
X159Y1952D01*
X149Y1962D01*
Y1972D01*
X159Y1952D02*
X179D01*
X-270Y1160D02*
Y1120D01*
X-240D01*
X-250Y1140D01*
Y1150D01*
X-240Y1160D01*
X-220D01*
X-210Y1150D01*
Y1130D01*
X-220Y1120D01*
X-210Y1180D02*
X-220D01*
Y1190D01*
X-210D01*
Y1180D01*
X-260Y1230D02*
X-270Y1240D01*
Y1260D01*
X-260Y1270D01*
X-220D01*
X-210Y1260D01*
Y1240D01*
X-220Y1230D01*
X-260D01*
Y1290D02*
X-270Y1300D01*
Y1320D01*
X-260Y1330D01*
X-250D01*
X-240Y1320D01*
X-230Y1330D01*
X-220D01*
X-210Y1320D01*
Y1300D01*
X-220Y1290D01*
X-230D01*
X-240Y1300D01*
X-250Y1290D01*
X-260D01*
X-240Y1300D02*
Y1320D01*
X1809Y-376D02*
X1819Y-386D01*
X1839D01*
X1849Y-376D01*
Y-336D01*
X1839Y-326D01*
X1819D01*
X1809Y-336D01*
Y-346D01*
X1819Y-356D01*
X1849D01*
X1869Y-376D02*
X1879Y-386D01*
X1899D01*
X1909Y-376D01*
Y-336D01*
X1899Y-326D01*
X1879D01*
X1869Y-336D01*
Y-346D01*
X1879Y-356D01*
X1909D01*
X1929Y-386D02*
Y-376D01*
X1939D01*
Y-386D01*
X1929D01*
X2019Y-326D02*
X1979D01*
Y-356D01*
X1999Y-346D01*
X2009D01*
X2019Y-356D01*
Y-376D01*
X2009Y-386D01*
X1989D01*
X1979Y-376D01*
X2039Y-326D02*
X2079D01*
Y-336D01*
X2039Y-376D01*
Y-386D01*
X-614Y604D02*
X-624Y614D01*
Y634D01*
X-614Y644D01*
X-604D01*
X-594Y634D01*
Y624D01*
Y634D01*
X-584Y644D01*
X-574D01*
X-564Y634D01*
Y614D01*
X-574Y604D01*
X-614Y664D02*
X-624Y674D01*
Y694D01*
X-614Y704D01*
X-604D01*
X-594Y694D01*
X-584Y704D01*
X-574D01*
X-564Y694D01*
Y674D01*
X-574Y664D01*
X-584D01*
X-594Y674D01*
X-604Y664D01*
X-614D01*
X-594Y674D02*
Y694D01*
X-564Y724D02*
X-574D01*
Y734D01*
X-564D01*
Y724D01*
Y774D02*
Y794D01*
Y784D01*
X-624D01*
X-614Y774D01*
Y824D02*
X-624Y834D01*
Y854D01*
X-614Y864D01*
X-574D01*
X-564Y854D01*
Y834D01*
X-574Y824D01*
X-614D01*
M02*
